<svg width="20" height="20" viewBox="0 0 20 20" fill="none" xmlns="http://www.w3.org/2000/svg">
<circle cx="10" cy="10" r="9.5" stroke="#2C9ED6"/>
<path d="M15.7906 7.49597C15.7906 7.6087 15.7906 7.72142 15.7906 7.81804C15.7906 11.1514 13.3089 15 8.78534 15C7.38743 15 6.09948 14.5813 5 13.8728C5.18848 13.8889 5.39267 13.905 5.58115 13.905C6.72775 13.905 7.79581 13.5024 8.64398 12.8261C7.56021 12.81 6.64921 12.0692 6.35079 11.0709C6.50785 11.1031 6.64921 11.1192 6.82199 11.1192C7.04188 11.1192 7.26178 11.087 7.46597 11.0225C6.33508 10.7971 5.48691 9.78261 5.48691 8.55878C5.48691 8.54267 5.48691 8.54267 5.48691 8.52657C5.81675 8.71981 6.19372 8.83253 6.60209 8.84863C5.94241 8.39775 5.50262 7.6248 5.50262 6.73913C5.50262 6.27214 5.62827 5.83736 5.83246 5.46699C7.04188 6.99678 8.86387 7.99517 10.9058 8.10789C10.8586 7.93076 10.8429 7.72142 10.8429 7.52818C10.8429 6.12721 11.9424 5 13.3089 5C14.0157 5 14.6597 5.30596 15.0995 5.78905C15.6649 5.67633 16.1832 5.46699 16.6702 5.17713C16.4817 5.77295 16.089 6.25604 15.5864 6.5781C16.089 6.51369 16.5602 6.38486 17 6.17552C16.6859 6.69082 16.2775 7.14171 15.7906 7.49597Z" fill="#1794D2"/>
</svg>
