<svg width="100" height="100" viewBox="0 0 100 100" fill="none" xmlns="http://www.w3.org/2000/svg">
<circle cx="49.5954" cy="49.5954" r="49.0954" fill="url(#paint0_linear_536_3546)" fill-opacity="0.5" stroke="url(#paint1_linear_536_3546)"/>
<path d="M67.8667 35.15C64.4887 33.692 60.8663 32.6178 57.0788 32.0026C57.0098 31.9907 56.9409 32.0204 56.9054 32.0797C56.4395 32.8591 55.9234 33.876 55.5621 34.6752C51.4884 34.1015 47.4356 34.1015 43.4455 34.6752C43.084 33.8582 42.5492 32.8591 42.0813 32.0797C42.0457 32.0224 41.9768 31.9927 41.9079 32.0026C38.1225 32.6158 34.5 33.69 31.1199 35.15C31.0906 35.1619 31.0656 35.1817 31.0489 35.2074C24.1779 44.8632 22.2957 54.2818 23.219 63.5836C23.2232 63.6291 23.2504 63.6726 23.288 63.7003C27.8213 66.8318 32.2125 68.733 36.5222 69.9931C36.5912 70.0129 36.6643 69.9891 36.7082 69.9357C37.7277 68.6262 38.6364 67.2453 39.4156 65.7932C39.4616 65.7082 39.4177 65.6073 39.3237 65.5737C37.8822 65.0593 36.5097 64.4322 35.1894 63.7201C35.085 63.6627 35.0766 63.5222 35.1727 63.4549C35.4505 63.2591 35.7284 63.0553 35.9937 62.8496C36.0417 62.812 36.1086 62.8041 36.1651 62.8278C44.8388 66.5529 54.2292 66.5529 62.8007 62.8278C62.8571 62.8021 62.924 62.81 62.9741 62.8476C63.2395 63.0533 63.5173 63.2591 63.7972 63.4549C63.8933 63.5222 63.887 63.6627 63.7826 63.7201C62.4623 64.446 61.0898 65.0593 59.6462 65.5717C59.5522 65.6053 59.5104 65.7082 59.5564 65.7932C60.3523 67.2433 61.2611 68.6241 62.2617 69.9337C62.3035 69.9891 62.3787 70.0129 62.4477 69.9931C66.7783 68.733 71.1695 66.8318 75.7028 63.7003C75.7425 63.6726 75.7676 63.631 75.7718 63.5855C76.8769 52.8317 73.9208 43.4903 67.9356 35.2093C67.921 35.1817 67.896 35.1619 67.8667 35.15ZM40.7109 57.9197C38.0995 57.9197 35.9478 55.6646 35.9478 52.895C35.9478 50.1254 38.0577 47.8702 40.7109 47.8702C43.3848 47.8702 45.5157 50.1452 45.4739 52.895C45.4739 55.6646 43.3639 57.9197 40.7109 57.9197ZM58.3217 57.9197C55.7104 57.9197 53.5587 55.6646 53.5587 52.895C53.5587 50.1254 55.6686 47.8702 58.3217 47.8702C60.9958 47.8702 63.1266 50.1452 63.0849 52.895C63.0849 55.6646 60.9958 57.9197 58.3217 57.9197Z" fill="url(#paint2_linear_536_3546)"/>
<defs>
<linearGradient id="paint0_linear_536_3546" x1="0" y1="0" x2="60.6421" y2="118.859" gradientUnits="userSpaceOnUse">
<stop stop-color="white" stop-opacity="0.4"/>
<stop offset="1" stop-color="white" stop-opacity="0"/>
</linearGradient>
<linearGradient id="paint1_linear_536_3546" x1="0" y1="0" x2="113.076" y2="19.7682" gradientUnits="userSpaceOnUse">
<stop stop-color="#CD28E8"/>
<stop offset="1" stop-color="#0BEBD6"/>
</linearGradient>
<linearGradient id="paint2_linear_536_3546" x1="23" y1="32" x2="81.7714" y2="46.3304" gradientUnits="userSpaceOnUse">
<stop stop-color="#CD28E8"/>
<stop offset="1" stop-color="#0BEBD6"/>
</linearGradient>
</defs>
</svg>
