<svg width="30" height="30" viewBox="0 0 30 30" fill="none" xmlns="http://www.w3.org/2000/svg">
<path d="M30.0001 15C30.0001 23.2843 23.2844 30 15.0001 30C6.71585 30 0.00012207 23.2843 0.00012207 15C0.00012207 6.71573 6.71585 0 15.0001 0C23.2844 0 30.0001 6.71573 30.0001 15Z" fill="#3946BA"/>
<path d="M22.0611 8.44659C20.7691 7.86549 19.3702 7.44373 17.913 7.20004C17.9002 7.19965 17.8875 7.20196 17.8757 7.20682C17.864 7.21168 17.8535 7.21896 17.845 7.22816C17.6701 7.53746 17.4661 7.94047 17.3301 8.24977C15.7845 8.02483 14.2127 8.02483 12.6671 8.24977C12.5311 7.9311 12.3271 7.53746 12.1425 7.22816C12.1328 7.20942 12.1037 7.20004 12.0745 7.20004C10.6174 7.44373 9.22817 7.86549 7.92642 8.44659C7.91671 8.44659 7.907 8.45596 7.89728 8.46534C5.25492 12.28 4.52633 15.9915 4.88577 19.6655C4.88577 19.6843 4.89548 19.703 4.91491 19.7124C6.66353 20.9496 8.34415 21.6994 10.0053 22.1961C10.0345 22.2055 10.0636 22.1961 10.0733 22.1774C10.4619 21.6619 10.8116 21.1183 11.1128 20.5465C11.1322 20.5091 11.1128 20.4716 11.0739 20.4622C10.5202 20.256 9.99562 20.0123 9.48075 19.7311C9.44189 19.7124 9.44189 19.6562 9.47104 19.628C9.5779 19.5531 9.68476 19.4687 9.79162 19.3937C9.81105 19.375 9.84019 19.375 9.85962 19.3844C13.2014 20.8558 16.8055 20.8558 20.1085 19.3844C20.1279 19.375 20.157 19.375 20.1765 19.3937C20.2833 19.4781 20.3902 19.5531 20.4971 19.6374C20.5359 19.6655 20.5359 19.7218 20.4873 19.7405C19.9822 20.0311 19.4479 20.2654 18.8942 20.4716C18.8553 20.4809 18.8456 20.5278 18.8553 20.5559C19.1662 21.1276 19.5159 21.6713 19.8948 22.1867C19.9239 22.1961 19.953 22.2055 19.9822 22.1961C21.6531 21.6994 23.3337 20.9496 25.0823 19.7124C25.1018 19.703 25.1115 19.6843 25.1115 19.6655C25.5389 15.4198 24.4023 11.7364 22.1 8.46534C22.0902 8.45596 22.0805 8.44659 22.0611 8.44659ZM11.618 17.4255C10.6174 17.4255 9.7819 16.5351 9.7819 15.4385C9.7819 14.3419 10.5979 13.4515 11.618 13.4515C12.6477 13.4515 13.4637 14.3513 13.454 15.4385C13.454 16.5351 12.638 17.4255 11.618 17.4255ZM18.389 17.4255C17.3884 17.4255 16.5529 16.5351 16.5529 15.4385C16.5529 14.3419 17.369 13.4515 18.389 13.4515C19.4187 13.4515 20.2348 14.3513 20.225 15.4385C20.225 16.5351 19.4187 17.4255 18.389 17.4255Z" fill="white"/>
</svg>
