<svg width="30" height="30" viewBox="0 0 30 30" fill="none" xmlns="http://www.w3.org/2000/svg">
<path d="M30.0001 15C30.0001 23.2843 23.2844 30 15.0001 30C6.71585 30 0.00012207 23.2843 0.00012207 15C0.00012207 6.71573 6.71585 0 15.0001 0C23.2844 0 30.0001 6.71573 30.0001 15Z" fill="url(#paint0_linear_1187_22159)"/>
<path d="M12.6001 19.5V29.7C12.6001 29.8657 12.7344 30 12.9001 30H17.1001C17.2658 30 17.4001 29.8657 17.4001 29.7V19.5C17.4001 19.3343 17.5344 19.2 17.7001 19.2H20.7001C20.8658 19.2 21.0001 19.0657 21.0001 18.9V15.3C21.0001 15.1343 20.8658 15 20.7001 15H17.7001C17.5344 15 17.4001 14.8659 17.4001 14.7002V12C17.4001 10.8 18.9001 10.2 19.5001 10.2H21.3001C21.4658 10.2 21.6001 10.0657 21.6001 9.9V6.3C21.6001 6.13431 21.4659 6 21.3002 6H17.4001C14.5201 6 12.6001 9 12.6001 10.8V14.7C12.6001 14.8657 12.4658 15 12.3001 15H9.30012C9.13444 15 9.00012 15.1343 9.00012 15.3V18.9C9.00012 19.0657 9.13444 19.2 9.30012 19.2H12.3001C12.4658 19.2 12.6001 19.3343 12.6001 19.5Z" fill="white"/>
<defs>
<linearGradient id="paint0_linear_1187_22159" x1="15.0001" y1="0" x2="15.0001" y2="30" gradientUnits="userSpaceOnUse">
<stop stop-color="#18ACFE"/>
<stop offset="1" stop-color="#0165E1"/>
</linearGradient>
</defs>
</svg>
