<svg width="100" height="100" viewBox="0 0 100 100" fill="none" xmlns="http://www.w3.org/2000/svg">
<circle cx="49.5954" cy="49.5954" r="49.0954" fill="url(#paint0_linear_536_3544)" fill-opacity="0.5" stroke="url(#paint1_linear_536_3544)"/>
<path d="M22.0351 48.8741L22.0424 48.8712L22.0497 48.8681C37.546 42.3278 47.8751 38.0177 53.0407 35.9364C60.4233 32.9617 64.8701 31.2207 67.7196 30.219C70.5773 29.2145 71.778 28.9729 72.6905 28.9573C72.8722 28.9542 73.1871 28.9751 73.5252 29.0533C73.8668 29.1324 74.1937 29.2612 74.4327 29.4492C74.8217 29.7549 74.9411 30.171 75.0058 30.5375C75.0715 30.909 75.1538 31.7741 75.0895 32.4287C74.2921 40.5447 70.8353 60.2821 69.074 69.4033C68.3401 73.2039 66.9574 74.184 65.8879 74.2793C64.4873 74.4041 63.2347 73.9613 61.933 73.2205C61.2805 72.8492 60.6261 72.4092 59.9382 71.9358C59.8243 71.8574 59.7093 71.778 59.5934 71.6979C59.0146 71.2981 58.411 70.8813 57.7799 70.4805C55.4446 68.9976 53.6174 67.7946 51.8046 66.5988L51.5641 66.4401C49.8317 65.2973 48.0922 64.1497 45.9186 62.7621C44.6317 61.9406 43.9459 61.2535 43.634 60.6748C43.343 60.1349 43.3614 59.6617 43.5879 59.1615C43.8309 58.6249 44.3129 58.0632 44.9668 57.4186C45.2527 57.1368 45.5612 56.8487 45.8861 56.5453C45.928 56.5061 45.9703 56.4667 46.0127 56.427C46.382 56.0819 46.7682 55.7185 47.1491 55.3352C47.3282 55.155 48.2124 54.3588 49.4682 53.2279C50.8828 51.9541 52.769 50.2556 54.65 48.5347C56.4162 46.9188 58.17 45.2901 59.5001 43.9958C60.1644 43.3494 60.728 42.7815 61.136 42.3381C61.3394 42.117 61.5102 41.9203 61.637 41.7563C61.7003 41.6746 61.7577 41.5944 61.8041 41.5188C61.8451 41.4519 61.8998 41.3535 61.9268 41.2419C61.9595 41.107 61.9767 40.8804 61.9403 40.6428C61.9038 40.404 61.8009 40.0771 61.5198 39.8349C61.2431 39.5967 60.9184 39.5365 60.6546 39.5346C60.3965 39.5326 60.1482 39.5864 59.9856 39.6222C59.882 39.645 59.7671 39.7028 59.6951 39.7397C59.6008 39.7879 59.4815 39.8537 59.3399 39.935C59.0557 40.098 58.6635 40.3336 58.1657 40.64C57.1689 41.2534 55.7353 42.159 53.8662 43.3558C50.1273 45.7498 44.6378 49.3141 37.3984 54.0481L37.3984 54.048L37.3952 54.0502C35.3202 55.4305 33.4994 56.0624 31.9182 56.0293C31.028 56.0107 29.6867 55.7629 28.2004 55.4018C26.7254 55.0435 25.1455 54.5833 23.7952 54.1581C23.3795 54.0272 22.9798 53.9054 22.5984 53.7892C21.418 53.4295 20.4129 53.1232 19.6507 52.7656C19.1519 52.5315 18.8151 52.3 18.616 52.063C18.4341 51.8463 18.358 51.6164 18.3968 51.3165C18.4297 51.0625 18.6472 50.7008 19.2715 50.2516C19.8807 49.8134 20.7943 49.3521 22.0351 48.8741Z" fill="url(#paint2_linear_536_3544)" stroke="url(#paint3_linear_536_3544)"/>
<defs>
<linearGradient id="paint0_linear_536_3544" x1="0" y1="0" x2="60.6421" y2="118.859" gradientUnits="userSpaceOnUse">
<stop stop-color="white" stop-opacity="0.4"/>
<stop offset="1" stop-color="white" stop-opacity="0"/>
</linearGradient>
<linearGradient id="paint1_linear_536_3544" x1="0" y1="0" x2="113.076" y2="19.7682" gradientUnits="userSpaceOnUse">
<stop stop-color="#CD28E8"/>
<stop offset="1" stop-color="#0BEBD6"/>
</linearGradient>
<linearGradient id="paint2_linear_536_3544" x1="17.887" y1="28.457" x2="82.6342" y2="42.5565" gradientUnits="userSpaceOnUse">
<stop stop-color="#CD28E8"/>
<stop offset="1" stop-color="#0BEBD6"/>
</linearGradient>
<linearGradient id="paint3_linear_536_3544" x1="17.887" y1="28.457" x2="82.6342" y2="42.5565" gradientUnits="userSpaceOnUse">
<stop stop-color="#CD28E8"/>
<stop offset="1" stop-color="#0BEBD6"/>
</linearGradient>
</defs>
</svg>
