<svg width="30" height="30" viewBox="0 0 30 30" fill="none" xmlns="http://www.w3.org/2000/svg">
<g filter="url(#filter0_b_3156_10093)">
<circle cx="15" cy="15" r="15" fill="white"/>
</g>
<path d="M19.1412 12.3308C20.3759 13.2165 21.8884 13.7377 23.5221 13.7377V10.5829C23.2129 10.583 22.9045 10.5506 22.6021 10.4863V12.9695C20.9686 12.9695 19.4562 12.4484 18.2212 11.5627V18.0007C18.2212 21.2213 15.6197 23.8319 12.4107 23.8319C11.2134 23.8319 10.1005 23.4687 9.17603 22.8456C10.2312 23.9283 11.7026 24.6 13.3305 24.6C16.5397 24.6 19.1413 21.9894 19.1413 18.7686V12.3308H19.1412ZM20.2761 9.14799C19.6452 8.45618 19.2309 7.56214 19.1412 6.57374V6.16797H18.2694C18.4888 7.42423 19.2374 8.4975 20.2761 9.14799ZM11.2057 20.3742C10.8532 19.9104 10.6626 19.3429 10.6635 18.7594C10.6635 17.2864 11.8534 16.0921 13.3215 16.0921C13.5951 16.092 13.867 16.1341 14.1277 16.2171V12.9918C13.823 12.9499 13.5155 12.9321 13.2081 12.9386V15.449C12.9472 15.366 12.6751 15.3238 12.4015 15.3241C10.9334 15.3241 9.74356 16.5183 9.74356 17.9915C9.74356 19.0331 10.3383 19.9349 11.2057 20.3742Z" fill="#FF004F"/>
<path d="M18.221 11.5627C19.456 12.4483 20.9684 12.9695 22.6019 12.9695V10.4862C21.6901 10.2913 20.8829 9.81312 20.276 9.14799C19.2371 8.49743 18.4886 7.42416 18.2692 6.16797H15.9791V18.7685C15.9739 20.2374 14.786 21.4269 13.3211 21.4269C12.4579 21.4269 11.691 21.0139 11.2053 20.3742C10.338 19.9349 9.74324 19.033 9.74324 17.9915C9.74324 16.5185 10.9331 15.3242 12.4011 15.3242C12.6824 15.3242 12.9535 15.3681 13.2078 15.4491V12.9387C10.0552 13.0041 7.51978 15.5892 7.51978 18.7686C7.51978 20.3557 8.15116 21.7944 9.1759 22.8457C10.1004 23.4687 11.2133 23.832 12.4106 23.832C15.6196 23.832 18.2211 21.2212 18.2211 18.0007V11.5627H18.221Z" fill="black"/>
<path d="M22.6021 10.4861V9.81469C21.7799 9.81594 20.9738 9.58485 20.2762 9.14785C20.8938 9.82635 21.7069 10.2942 22.6021 10.4861ZM18.2695 6.16789C18.2485 6.04783 18.2324 5.92698 18.2213 5.80567V5.3999H15.0593V18.0006C15.0543 19.4693 13.8664 20.6588 12.4014 20.6588C11.9713 20.6588 11.5652 20.5563 11.2056 20.3742C11.6913 21.0139 12.4582 21.4267 13.3214 21.4267C14.7862 21.4267 15.9743 20.2374 15.9794 18.7685V6.16789H18.2695ZM13.2082 12.9386V12.2238C12.944 12.1876 12.6776 12.1694 12.4109 12.1695C9.20163 12.1695 6.6001 14.7802 6.6001 18.0006C6.6001 20.0195 7.62255 21.7988 9.17623 22.8455C8.15149 21.7943 7.5201 20.3555 7.5201 18.7684C7.5201 15.5891 10.0555 13.004 13.2082 12.9386Z" fill="#00F2EA"/>
<defs>
<filter id="filter0_b_3156_10093" x="-40" y="-40" width="110" height="110" filterUnits="userSpaceOnUse" color-interpolation-filters="sRGB">
<feFlood flood-opacity="0" result="BackgroundImageFix"/>
<feGaussianBlur in="BackgroundImage" stdDeviation="20"/>
<feComposite in2="SourceAlpha" operator="in" result="effect1_backgroundBlur_3156_10093"/>
<feBlend mode="normal" in="SourceGraphic" in2="effect1_backgroundBlur_3156_10093" result="shape"/>
</filter>
</defs>
</svg>
