<svg width="99" height="99" viewBox="0 0 99 99" fill="none" xmlns="http://www.w3.org/2000/svg">
<circle cx="49.4883" cy="49.4883" r="48.9883" fill="url(#paint0_linear_536_3541)" fill-opacity="0.5" stroke="url(#paint1_linear_536_3541)"/>
<path d="M63.5284 40.6977C67.9314 43.8563 73.3252 45.7148 79.1508 45.7148V34.4646C78.0483 34.4649 76.9486 34.3495 75.87 34.1201V42.9756C70.0448 42.9756 64.6517 41.1171 60.2476 37.9588V60.9171C60.2476 72.4019 50.9703 81.7116 39.527 81.7116C35.2572 81.7116 31.2885 80.4162 27.9918 78.1944C31.7545 82.0554 37.0018 84.4506 42.8071 84.4506C54.2511 84.4506 63.5289 75.1409 63.5289 63.6555V40.6977H63.5284V40.6977ZM67.5756 29.3477C65.3255 26.8806 63.8481 23.6924 63.5284 20.1677V18.7207H60.4194C61.2019 23.2006 63.8712 27.028 67.5756 29.3477ZM35.2298 69.3813C33.9726 67.727 33.2932 65.7034 33.2962 63.6226C33.2962 58.3699 37.5396 54.1108 42.7748 54.1108C43.7504 54.1106 44.7202 54.2605 45.65 54.5566V43.055C44.5634 42.9056 43.4668 42.8421 42.3706 42.8654V51.8177C41.4401 51.5216 40.4698 51.3712 39.494 51.3722C34.2588 51.3722 30.0157 55.6307 30.0157 60.8842C30.0157 64.5987 32.1367 67.8147 35.2298 69.3813Z" fill="#0BEBD6"/>
<path d="M60.2475 37.9585C64.6516 41.1169 70.0447 42.9754 75.8698 42.9754V34.1199C72.6183 33.4248 69.7398 31.7196 67.5755 29.3477C63.8709 27.0277 61.2018 23.2004 60.4192 18.7207H52.2527V63.655C52.2342 68.8935 47.9981 73.1351 42.7742 73.1351C39.6958 73.1351 36.961 71.6625 35.2289 69.3813C32.1361 67.8147 30.0151 64.5985 30.0151 60.8844C30.0151 55.6314 34.2582 51.3724 39.4934 51.3724C40.4964 51.3724 41.4632 51.5291 42.37 51.8179V42.8656C31.1276 43.0987 22.0861 52.3175 22.0861 63.6553C22.0861 69.315 24.3376 74.4458 27.9919 78.1947C31.2887 80.4162 35.2573 81.7119 39.5271 81.7119C50.9707 81.7119 60.2477 72.4017 60.2477 60.9171V37.9585H60.2475Z" fill="url(#paint2_linear_536_3541)"/>
<path d="M75.8699 34.1203V31.7259C72.9378 31.7303 70.0633 30.9063 67.5756 29.3479C69.7777 31.7675 72.6776 33.4358 75.8699 34.1203ZM60.4193 18.7211C60.3446 18.293 60.2873 17.862 60.2475 17.4294V15.9824H48.9717V60.9172C48.9537 66.1549 44.7178 70.3966 39.4934 70.3966C37.9596 70.3966 36.5115 70.0312 35.229 69.3819C36.961 71.6629 39.6958 73.1353 42.7742 73.1353C47.9977 73.1353 52.2345 68.8941 52.2527 63.6557V18.7211H60.4193ZM42.3705 42.866V40.317C41.4283 40.1877 40.4784 40.1229 39.5273 40.1234C28.0828 40.1231 18.8055 49.4333 18.8055 60.9172C18.8055 68.117 22.4517 74.4622 27.9922 78.1946C24.3379 74.446 22.0863 69.3149 22.0863 63.6555C22.0863 52.3179 31.1277 43.0991 42.3705 42.866Z" fill="url(#paint3_radial_536_3541)"/>
<path d="M75.8699 34.1203V31.7259C72.9378 31.7303 70.0633 30.9063 67.5756 29.3479C69.7777 31.7675 72.6776 33.4358 75.8699 34.1203ZM60.4193 18.7211C60.3446 18.293 60.2873 17.862 60.2475 17.4294V15.9824H48.9717V60.9172C48.9537 66.1549 44.7178 70.3966 39.4934 70.3966C37.9596 70.3966 36.5115 70.0312 35.229 69.3819C36.961 71.6629 39.6958 73.1353 42.7742 73.1353C47.9977 73.1353 52.2345 68.8941 52.2527 63.6557V18.7211H60.4193ZM42.3705 42.866V40.317C41.4283 40.1877 40.4784 40.1229 39.5273 40.1234C28.0828 40.1231 18.8055 49.4333 18.8055 60.9172C18.8055 68.117 22.4517 74.4622 27.9922 78.1946C24.3379 74.446 22.0863 69.3149 22.0863 63.6555C22.0863 52.3179 31.1277 43.0991 42.3705 42.866Z" fill="url(#paint4_radial_536_3541)"/>
<path d="M75.8699 34.1203V31.7259C72.9378 31.7303 70.0633 30.9063 67.5756 29.3479C69.7777 31.7675 72.6776 33.4358 75.8699 34.1203ZM60.4193 18.7211C60.3446 18.293 60.2873 17.862 60.2475 17.4294V15.9824H48.9717V60.9172C48.9537 66.1549 44.7178 70.3966 39.4934 70.3966C37.9596 70.3966 36.5115 70.0312 35.229 69.3819C36.961 71.6629 39.6958 73.1353 42.7742 73.1353C47.9977 73.1353 52.2345 68.8941 52.2527 63.6557V18.7211H60.4193ZM42.3705 42.866V40.317C41.4283 40.1877 40.4784 40.1229 39.5273 40.1234C28.0828 40.1231 18.8055 49.4333 18.8055 60.9172C18.8055 68.117 22.4517 74.4622 27.9922 78.1946C24.3379 74.446 22.0863 69.3149 22.0863 63.6555C22.0863 52.3179 31.1277 43.0991 42.3705 42.866Z" fill="url(#paint5_radial_536_3541)"/>
<defs>
<linearGradient id="paint0_linear_536_3541" x1="0" y1="0" x2="60.5112" y2="118.602" gradientUnits="userSpaceOnUse">
<stop stop-color="white" stop-opacity="0.4"/>
<stop offset="1" stop-color="white" stop-opacity="0"/>
</linearGradient>
<linearGradient id="paint1_linear_536_3541" x1="0" y1="0" x2="112.832" y2="19.7256" gradientUnits="userSpaceOnUse">
<stop stop-color="#CD28E8"/>
<stop offset="1" stop-color="#0BEBD6"/>
</linearGradient>
<linearGradient id="paint2_linear_536_3541" x1="22.0861" y1="18.7207" x2="83.8953" y2="27.9469" gradientUnits="userSpaceOnUse">
<stop stop-color="#CD28E8"/>
<stop offset="1" stop-color="#0BEBD6"/>
</linearGradient>
<radialGradient id="paint3_radial_536_3541" cx="0" cy="0" r="1" gradientUnits="userSpaceOnUse" gradientTransform="translate(47.3377 47.0885) rotate(-130.127) scale(56.4899 43.3446)">
<stop stop-color="white"/>
<stop offset="1" stop-color="white" stop-opacity="0"/>
</radialGradient>
<radialGradient id="paint4_radial_536_3541" cx="0" cy="0" r="1" gradientUnits="userSpaceOnUse" gradientTransform="translate(47.3377 47.0885) rotate(43.139) scale(46.9217 34.0194)">
<stop stop-color="#9854FE"/>
<stop offset="1" stop-color="#9854FE" stop-opacity="0"/>
</radialGradient>
<radialGradient id="paint5_radial_536_3541" cx="0" cy="0" r="1" gradientUnits="userSpaceOnUse" gradientTransform="translate(47.3377 47.0885) rotate(133.483) scale(45.4431 33.914)">
<stop stop-color="#151515"/>
<stop offset="1" stop-color="#151515" stop-opacity="0"/>
</radialGradient>
</defs>
</svg>
