<svg width="100" height="100" viewBox="0 0 100 100" fill="none" xmlns="http://www.w3.org/2000/svg">
<circle cx="49.5954" cy="49.5954" r="49.0954" fill="url(#paint0_linear_536_3545)" fill-opacity="0.5" stroke="url(#paint1_linear_536_3545)"/>
<path d="M72.8875 37.484C72.8875 38.0265 72.8875 38.5689 72.8875 39.0339C72.8875 55.0749 60.6436 73.5957 38.3257 73.5957C31.4288 73.5957 25.0744 71.5809 19.6499 68.1712C20.5798 68.2487 21.5872 68.3262 22.5171 68.3262C28.1741 68.3262 33.4436 66.3889 37.6282 63.1342C32.2812 63.0567 27.7867 59.492 26.3143 54.6875C27.0892 54.8424 27.7866 54.9199 28.6391 54.9199C29.724 54.9199 30.8089 54.7649 31.8163 54.455C26.2368 53.3701 22.0522 48.488 22.0522 42.5986C22.0522 42.5211 22.0522 42.5211 22.0522 42.4436C23.6795 43.3735 25.5394 43.9159 27.5542 43.9934C24.2995 41.8236 22.1297 38.104 22.1297 33.8419C22.1297 31.5946 22.7496 29.5023 23.757 27.7199C29.724 35.0818 38.7131 39.8863 48.7872 40.4288C48.5547 39.5764 48.4772 38.5689 48.4772 37.639C48.4772 30.8972 53.9017 25.4727 60.6436 25.4727C64.1308 25.4727 67.308 26.945 69.4778 29.2698C72.2675 28.7274 74.8248 27.7199 77.2271 26.3251C76.2972 29.1923 74.3598 31.5171 71.8801 33.067C74.3598 32.757 76.6846 32.137 78.8544 31.1296C77.3046 33.6094 75.2898 35.7792 72.8875 37.484Z" fill="url(#paint2_linear_536_3545)"/>
<defs>
<linearGradient id="paint0_linear_536_3545" x1="0" y1="0" x2="60.6421" y2="118.859" gradientUnits="userSpaceOnUse">
<stop stop-color="white" stop-opacity="0.4"/>
<stop offset="1" stop-color="white" stop-opacity="0"/>
</linearGradient>
<linearGradient id="paint1_linear_536_3545" x1="0" y1="0" x2="113.076" y2="19.7682" gradientUnits="userSpaceOnUse">
<stop stop-color="#CD28E8"/>
<stop offset="1" stop-color="#0BEBD6"/>
</linearGradient>
<linearGradient id="paint2_linear_536_3545" x1="19.6499" y1="25.4727" x2="86.1294" y2="39.7711" gradientUnits="userSpaceOnUse">
<stop stop-color="#CD28E8"/>
<stop offset="1" stop-color="#0BEBD6"/>
</linearGradient>
</defs>
</svg>
