<svg width="30" height="30" viewBox="0 0 30 30" fill="none" xmlns="http://www.w3.org/2000/svg">
<g filter="url(#filter0_b_3156_10108)">
<circle cx="15" cy="15" r="15" fill="#A8561B"/>
</g>
<path fill-rule="evenodd" clip-rule="evenodd" d="M8.74578 6.2002L7.6001 9.2576V21.4857H11.799V23.7799H14.0913L16.3815 21.4857H19.8176L24.4001 16.9017V6.2002H8.74578ZM22.873 7.72791H10.2722V18.8114H13.7106V21.1024L16.0001 18.8113H20.1995L22.873 16.1358V7.72791Z" fill="white"/>
<path fill-rule="evenodd" clip-rule="evenodd" d="M10.2722 7.72791H22.873V16.1358L20.1995 18.8113H16.0001L13.7106 21.1024V18.8114H10.2722V7.72791ZM16.0001 15.3724H14.4727V10.787H16.0001V15.3724ZM20.1996 15.3724H18.6725V10.787H20.1996V15.3724Z" fill="white"/>
<defs>
<filter id="filter0_b_3156_10108" x="-40" y="-40" width="110" height="110" filterUnits="userSpaceOnUse" color-interpolation-filters="sRGB">
<feFlood flood-opacity="0" result="BackgroundImageFix"/>
<feGaussianBlur in="BackgroundImage" stdDeviation="20"/>
<feComposite in2="SourceAlpha" operator="in" result="effect1_backgroundBlur_3156_10108"/>
<feBlend mode="normal" in="SourceGraphic" in2="effect1_backgroundBlur_3156_10108" result="shape"/>
</filter>
</defs>
</svg>
