<svg width="30" height="30" viewBox="0 0 30 30" fill="none" xmlns="http://www.w3.org/2000/svg">
<g filter="url(#filter0_b_1187_22165)">
<circle cx="15.0001" cy="15" r="15" fill="#1B7EA8"/>
</g>
<path d="M23.9844 11.9936C23.9844 12.1739 23.9844 12.3543 23.9844 12.5089C23.9844 17.8422 19.8483 24 12.309 24C9.97918 24 7.83258 23.3301 6.00012 22.1965C6.31426 22.2222 6.65457 22.248 6.96871 22.248C8.8797 22.248 10.6598 21.6039 12.0734 20.5217C10.2671 20.496 8.74881 19.3108 8.25143 17.7134C8.51321 17.7649 8.74881 17.7907 9.03677 17.7907C9.40326 17.7907 9.76976 17.7391 10.1101 17.6361C8.22525 17.2754 6.81164 15.6522 6.81164 13.694C6.81164 13.6683 6.81164 13.6683 6.81164 13.6425C7.36138 13.9517 7.98965 14.132 8.67028 14.1578C7.5708 13.4364 6.83782 12.1997 6.83782 10.7826C6.83782 10.0354 7.04724 9.33977 7.38756 8.74718C9.40326 11.1948 12.4399 12.7923 15.8431 12.9726C15.7645 12.6892 15.7383 12.3543 15.7383 12.0451C15.7383 9.80354 17.5708 8 19.8483 8C21.0263 8 22.0996 8.48953 22.8326 9.26248C23.775 9.08213 24.6389 8.74718 25.4504 8.28341C25.1362 9.23671 24.4818 10.0097 23.6441 10.525C24.4818 10.4219 25.2671 10.2158 26.0001 9.88084C25.4766 10.7053 24.7959 11.4267 23.9844 11.9936Z" fill="white"/>
<defs>
<filter id="filter0_b_1187_22165" x="-39.9999" y="-40" width="110" height="110" filterUnits="userSpaceOnUse" color-interpolation-filters="sRGB">
<feFlood flood-opacity="0" result="BackgroundImageFix"/>
<feGaussianBlur in="BackgroundImage" stdDeviation="20"/>
<feComposite in2="SourceAlpha" operator="in" result="effect1_backgroundBlur_1187_22165"/>
<feBlend mode="normal" in="SourceGraphic" in2="effect1_backgroundBlur_1187_22165" result="shape"/>
</filter>
</defs>
</svg>
