<svg width="40" height="40" viewBox="0 0 40 40" fill="none" xmlns="http://www.w3.org/2000/svg">
  <path d="M29.6426 5.63555L22.9657 15.5556C22.5039 16.2311 23.3918 17.0489 24.031 16.48L30.6015 10.7556C30.7792 10.6133 31.0278 10.72 31.0278 10.9689V28.8533C31.0278 29.1022 30.7081 29.209 30.566 29.031L10.677 5.20889C10.0377 4.42667 9.11432 4 8.08436 4H7.37403C5.52719 4 4 5.52889 4 7.41333V32.5867C4 34.471 5.52719 36 7.40954 36C8.58159 36 9.68259 35.3955 10.3219 34.3645L16.9989 24.4445C17.4606 23.769 16.5727 22.951 15.9334 23.52L9.36294 29.209C9.18535 29.351 8.93674 29.2445 8.93674 28.9955V11.1467C8.93674 10.8978 9.25639 10.7911 9.39846 10.9689L29.2875 34.791C29.9267 35.5733 30.8857 36 31.8801 36H32.5905C34.4729 36 36 34.471 36 32.5867V7.41333C35.9645 5.52889 34.4373 4 32.555 4C31.3829 4 30.2819 4.60444 29.6426 5.63555V5.63555Z" fill="black"/>
</svg>
