<svg width="40" height="40" viewBox="0 0 40 40" fill="none" xmlns="http://www.w3.org/2000/svg"><path d="M20 40C31.0457 40 40 31.0457 40 20C40 8.95431 31.0457 0 20 0C8.95431 0 0 8.95431 0 20C0 31.0457 8.95431 40 20 40Z" fill="#E84142"></path><path d="M25.9748 20.1493C26.5616 19.1357 27.5085 19.1357 28.0953 20.1493L31.7496 26.5642C32.3364 27.5777 31.8562 28.4046 30.6826 28.4046H23.3208C22.1605 28.4046 21.6804 27.5777 22.2539 26.5642L25.9748 20.1493ZM18.9064 7.79955C19.4932 6.78597 20.4268 6.78597 21.0136 7.79955L21.8271 9.26658L23.7476 12.6407C24.2144 13.601 24.2144 14.7346 23.7476 15.6948L17.306 26.8576C16.7192 27.7645 15.7456 28.3379 14.6654 28.4046H9.31738C8.14375 28.4046 7.66364 27.5911 8.25045 26.5642L18.9064 7.79955Z" fill="white"></path></svg>
