<svg width="41" height="41" viewBox="0 0 41 41" fill="none" xmlns="http://www.w3.org/2000/svg">
<path fill-rule="evenodd" clip-rule="evenodd" d="M18.6062 20.9798L4.35893 16.2307C2.00571 15.4463 0.829102 15.0541 0.829102 14.3333C0.829102 13.6126 2.00571 13.2204 4.35892 12.436L36.8721 1.59826C38.5279 1.04633 39.3558 0.770364 39.7928 1.20738C40.2298 1.6444 39.9538 2.47229 39.4019 4.12808L28.5642 36.6412C27.7798 38.9945 27.3876 40.1711 26.6668 40.1711C25.9461 40.1711 25.5539 38.9945 24.7695 36.6412L20.0204 22.394L29.7073 12.7071C30.0978 12.3166 30.0978 11.6834 29.7073 11.2929C29.3167 10.9024 28.6836 10.9024 28.2931 11.2929L18.6062 20.9798Z" fill="url(#paint0_linear_219_194)"/>
<defs>
<linearGradient id="paint0_linear_219_194" x1="0.829102" y1="0.991699" x2="45.4929" y2="8.79995" gradientUnits="userSpaceOnUse">
<stop stop-color="#CD28E8"/>
<stop offset="1" stop-color="#0BEBD6"/>
</linearGradient>
</defs>
</svg>
