<svg width="36" height="37" viewBox="0 0 36 37" fill="none" xmlns="http://www.w3.org/2000/svg">
<circle cx="17.9526" cy="18.3144" r="17.4526" fill="url(#paint0_linear_94_1402)" fill-opacity="0.5" stroke="url(#paint1_linear_94_1402)"/>
<path d="M26.3838 13.9304C26.3838 14.1268 26.3838 14.3231 26.3838 14.4914C26.3838 20.298 21.9517 27.0022 13.8731 27.0022C11.3765 27.0022 9.07636 26.2728 7.11279 25.0386C7.4494 25.0666 7.81407 25.0947 8.15068 25.0947C10.1984 25.0947 12.1059 24.3934 13.6206 23.2153C11.6851 23.1872 10.0581 21.8969 9.52517 20.1577C9.80568 20.2138 10.0581 20.2419 10.3667 20.2419C10.7594 20.2419 11.1521 20.1858 11.5168 20.0736C9.49712 19.6809 7.98237 17.9137 7.98237 15.7818C7.98237 15.7537 7.98237 15.7537 7.98237 15.7257C8.57144 16.0623 9.24467 16.2586 9.97399 16.2867C8.79585 15.5013 8.01042 14.1548 8.01042 12.612C8.01042 11.7985 8.23483 11.0412 8.59949 10.396C10.7594 13.0608 14.0133 14.8 17.6599 14.9964C17.5758 14.6878 17.5477 14.3231 17.5477 13.9865C17.5477 11.5461 19.5113 9.58252 21.9517 9.58252C23.214 9.58252 24.3641 10.1155 25.1496 10.957C26.1594 10.7607 27.0851 10.396 27.9546 9.89108C27.618 10.929 26.9168 11.7705 26.0191 12.3315C26.9168 12.2193 27.7583 11.9949 28.5437 11.6302C27.9827 12.5279 27.2534 13.3133 26.3838 13.9304Z" fill="url(#paint2_linear_94_1402)"/>
<defs>
<linearGradient id="paint0_linear_94_1402" x1="0" y1="0.361816" x2="21.9513" y2="43.3864" gradientUnits="userSpaceOnUse">
<stop stop-color="white" stop-opacity="0.4"/>
<stop offset="1" stop-color="white" stop-opacity="0"/>
</linearGradient>
<linearGradient id="paint1_linear_94_1402" x1="0" y1="0.361816" x2="40.9313" y2="7.51755" gradientUnits="userSpaceOnUse">
<stop stop-color="#CD28E8"/>
<stop offset="1" stop-color="#0BEBD6"/>
</linearGradient>
<linearGradient id="paint2_linear_94_1402" x1="7.11279" y1="9.58252" x2="31.1771" y2="14.7583" gradientUnits="userSpaceOnUse">
<stop stop-color="#CD28E8"/>
<stop offset="1" stop-color="#0BEBD6"/>
</linearGradient>
</defs>
</svg>
