<svg width="71" height="26" viewBox="0 0 71 26" fill="none" xmlns="http://www.w3.org/2000/svg">
<path d="M4.60633 25.2306C4.29334 25.2292 3.98833 25.1629 3.73173 25.0407C3.47512 24.9186 3.27897 24.746 3.16926 24.546C1.14114 20.8648 0.089982 16.9666 0.0649915 13.0338C0.0375067 9.0517 1.06256 5.09879 3.09096 1.36457C3.22474 1.12177 3.464 0.912571 3.7767 0.764947C4.08946 0.617277 4.46077 0.538223 4.84113 0.538269H66.103C66.4086 0.538569 66.707 0.600995 66.9602 0.717556C67.2133 0.83414 67.4098 0.999571 67.5243 1.19269C69.7865 4.91068 70.946 8.89752 70.9356 12.9229C70.9304 16.9212 69.7706 20.8799 67.5227 24.5731C67.4087 24.7659 67.2124 24.9315 66.9595 25.0481C66.7068 25.1648 66.4084 25.2271 66.103 25.2273L4.60633 25.2306Z" fill="url(#paint0_linear_1779_9249)"/>
<defs>
<linearGradient id="paint0_linear_1779_9249" x1="35.5002" y1="1.0144" x2="35.5002" y2="25.5059" gradientUnits="userSpaceOnUse">
<stop stop-color="#051732"/>
<stop offset="0.494792" stop-color="#04285F"/>
<stop offset="1" stop-color="#051732"/>
</linearGradient>
</defs>
</svg>
