<svg width="21" height="23" viewBox="0 0 21 23" fill="none" xmlns="http://www.w3.org/2000/svg">
<path d="M14.5701 17.8516C14.0652 17.8406 13.659 17.4226 13.659 16.9166C13.6481 16.4106 14.0542 15.9937 14.5592 15.9827H14.5701C15.086 15.9827 15.5032 16.4007 15.5032 16.9166C15.5032 17.4336 15.086 17.8516 14.5701 17.8516ZM10.0915 13.8036C9.58659 13.8267 9.16947 13.4296 9.14752 12.9247C9.14752 12.4187 9.54269 12.0007 10.0476 11.9776C10.5416 11.9776 10.9477 12.3637 10.9587 12.8576C10.9807 13.3647 10.5855 13.7827 10.0915 13.8036ZM10.0915 17.7966C9.58659 17.8197 9.16947 17.4226 9.14752 16.9166C9.14752 16.4106 9.54269 15.9937 10.0476 15.9706C10.5416 15.9706 10.9477 16.3567 10.9587 16.8517C10.9807 17.3577 10.5855 17.7757 10.0915 17.7966ZM5.58001 13.8036C5.07507 13.8267 4.65794 13.4296 4.63599 12.9247C4.63599 12.4187 5.03116 12.0007 5.5361 11.9776C6.03006 11.9776 6.43621 12.3637 6.44719 12.8576C6.46914 13.3647 6.07397 13.7827 5.58001 13.8036ZM5.56903 17.7966C5.06409 17.8197 4.64697 17.4226 4.62501 16.9166C4.62501 16.4106 5.02018 15.9937 5.52512 15.9706C6.01909 15.9706 6.42523 16.3567 6.43621 16.8517C6.45816 17.3577 6.06299 17.7757 5.56903 17.7966ZM13.67 12.9137C13.67 12.4077 14.0652 12.0007 14.5701 11.9897C15.0641 11.9897 15.4593 12.3846 15.4812 12.8697C15.4922 13.3757 15.097 13.7937 14.6031 13.8036C14.0981 13.8146 13.681 13.4296 13.67 12.9247V12.9137ZM0.0695801 8.13525V16.5096C0.0695801 19.9856 2.28692 22.1526 5.76662 22.1526H14.3616C17.8742 22.1526 20.0696 20.0296 20.0696 16.5767V8.13525H0.0695801Z" fill="#E24C4C" fill-opacity="0.5"/>
<path opacity="0.4" d="M0.0734863 8.1352C0.0877564 7.4895 0.142641 6.208 0.245824 5.7955C0.772718 3.4756 2.56196 2.0016 5.11959 1.7915H15.0208C17.5565 2.0126 19.3677 3.4965 19.8946 5.7955C19.9966 6.197 20.0515 7.4884 20.0658 8.1352H0.0734863Z" fill="#E24C4C" fill-opacity="0.5"/>
<path d="M5.96363 5.20159C6.44662 5.20159 6.80886 4.83969 6.80886 4.35459V1.00069C6.80886 0.515588 6.44662 0.152588 5.96363 0.152588C5.48065 0.152588 5.11841 0.515588 5.11841 1.00069V4.35459C5.11841 4.83969 5.48065 5.20159 5.96363 5.20159Z" fill="#E24C4C" fill-opacity="0.5"/>
<path d="M14.1751 5.20159C14.6471 5.20159 15.0203 4.83969 15.0203 4.35459V1.00069C15.0203 0.515588 14.6471 0.152588 14.1751 0.152588C13.6921 0.152588 13.3298 0.515588 13.3298 1.00069V4.35459C13.3298 4.83969 13.6921 5.20159 14.1751 5.20159Z" fill="#E24C4C" fill-opacity="0.5"/>
</svg>
