<svg width="30" height="23" viewBox="0 0 30 23" fill="none" xmlns="http://www.w3.org/2000/svg">
<g clip-path="url(#clip0_1212_7171)">
<path d="M29.1866 9.80633C28.821 9.80633 28.5245 10.1532 28.5245 10.5819C28.5245 10.8195 28.6159 11.0321 28.7601 11.1746C28.0875 12.0952 27.3364 13.049 26.4997 14.0063C25.4299 15.2309 24.3987 16.2607 23.4437 17.1242C23.1273 15.2036 22.8344 13.1369 22.5859 10.9335C22.4278 9.52839 22.2989 8.16957 22.1946 6.86064C22.5578 6.85827 22.8519 6.51262 22.8519 6.08621C22.8519 5.65861 22.5555 5.31059 22.1899 5.31059C21.8243 5.31059 21.5278 5.65742 21.5278 6.08621C21.5278 6.32614 21.6204 6.53994 21.7669 6.68247C21.2431 7.83105 20.6502 9.03546 19.9752 10.2696C19.2733 11.5535 18.5773 12.7009 17.9094 13.7212C17.4031 11.8956 16.9028 9.95599 16.4224 7.90232C16.0368 6.25369 15.4885 3.59188 15.1978 2.16774C15.465 2.06796 15.6595 1.77577 15.6595 1.42894C15.6595 1.00134 15.3631 0.65332 14.9975 0.65332C14.6319 0.65332 14.3354 1.00015 14.3354 1.42894C14.3354 1.77577 14.5299 2.06796 14.7971 2.16774C14.5053 3.59188 13.9581 6.25369 13.5726 7.90232C13.0922 9.95599 12.593 11.8956 12.0856 13.7212C11.4177 12.7009 10.7205 11.5535 10.0197 10.2696C9.36237 9.06634 8.78233 7.89282 8.26909 6.77156C8.47884 6.64209 8.62297 6.38315 8.62297 6.08621C8.62297 5.65861 8.32651 5.31059 7.96091 5.31059C7.59532 5.31059 7.29886 5.65742 7.29886 6.08621C7.29886 6.45086 7.51329 6.75612 7.80272 6.83807C7.69843 8.15413 7.56954 9.52126 7.41018 10.9335C7.16176 13.1369 6.86881 15.2036 6.55243 17.1242C5.59743 16.2607 4.56508 15.2321 3.49642 14.0063C2.66211 13.0513 1.91217 12.0987 1.24073 11.1794C1.38252 11.0369 1.47158 10.8266 1.47158 10.5914C1.47158 10.1638 1.17511 9.81583 0.809519 9.81583C0.443922 9.81583 0.147461 10.1627 0.147461 10.5914C0.147461 11.0202 0.443922 11.3671 0.809519 11.3671C0.862249 11.3671 0.912636 11.3588 0.960679 11.3457C1.20207 12.5869 1.43056 13.9172 1.63563 15.3354C1.8735 16.9781 2.05044 18.5353 2.18168 19.988H14.9963H27.8109C27.9422 18.5341 28.1191 16.9769 28.357 15.3354C28.5632 13.9148 28.7929 12.581 29.0343 11.3362C29.0823 11.3492 29.1327 11.3564 29.1843 11.3564C29.5499 11.3564 29.8463 11.0095 29.8463 10.5808C29.8487 10.1532 29.5522 9.80633 29.1866 9.80633Z" fill="url(#paint0_linear_1212_7171)"/>
<path d="M27.5617 22.3465H2.50896L2.23242 20.5494H27.8394L27.5617 22.3465Z" fill="url(#paint1_linear_1212_7171)"/>
<path d="M27.9529 20.1423H2.04711L2.03422 20.0021C1.89477 18.4509 1.7108 16.8878 1.48934 15.3579C1.3042 14.0799 1.08742 12.7899 0.843684 11.5202C0.383173 11.5428 0 11.1152 0 10.5914C0 10.0794 0.364425 9.66251 0.813218 9.66251C1.26201 9.66251 1.62644 10.0794 1.62644 10.5914C1.62644 10.8099 1.55847 11.0201 1.43778 11.1864C2.1385 12.139 2.8697 13.0524 3.61378 13.9041C4.52191 14.9446 5.47574 15.9245 6.45184 16.8212C6.76822 14.8733 7.04008 12.8873 7.26271 10.9156C7.41036 9.60787 7.53926 8.27044 7.64589 6.94013C7.34825 6.79641 7.15022 6.46383 7.15022 6.08493C7.15022 5.573 7.51465 5.15609 7.96344 5.15609C8.41223 5.15609 8.77666 5.573 8.77666 6.08493C8.77666 6.37593 8.65831 6.64556 8.46145 6.81897C8.99578 7.97943 9.56527 9.11376 10.1547 10.1934C10.7488 11.2803 11.3792 12.3421 12.0319 13.3541C12.5287 11.5487 12.9974 9.70408 13.4275 7.8654C13.8247 6.16451 14.4047 3.3376 14.6274 2.25435C14.359 2.09756 14.1868 1.78161 14.1868 1.42884C14.1868 0.91691 14.5512 0.5 15 0.5C15.4488 0.5 15.8132 0.91691 15.8132 1.42884C15.8132 1.78161 15.641 2.09756 15.3726 2.25435C15.5941 3.3376 16.1741 6.16451 16.5725 7.8654C17.0026 9.70408 17.4713 11.5487 17.9681 13.3541C18.6208 12.3421 19.2512 11.2803 19.8453 10.1934C20.4535 9.07931 21.0405 7.90816 21.5901 6.70851C21.4554 6.53866 21.3792 6.31654 21.3792 6.08374C21.3792 5.57181 21.7436 5.1549 22.1924 5.1549C22.6412 5.1549 23.0056 5.57181 23.0056 6.08374C23.0056 6.52916 22.7279 6.90449 22.3588 6.99239C22.4643 8.30488 22.592 9.62331 22.7373 10.9144C22.9599 12.8873 23.2318 14.8733 23.5482 16.8201C24.5243 15.9233 25.4781 14.9422 26.3862 13.9029C27.1315 13.05 27.8638 12.1343 28.5657 11.1805C28.4427 11.0142 28.3736 10.8016 28.3736 10.5807C28.3736 10.0687 28.738 9.65182 29.1868 9.65182C29.6356 9.65182 30 10.0687 30 10.5807C30 11.0926 29.6356 11.5095 29.1868 11.5095C29.1774 11.5095 29.168 11.5095 29.1587 11.5095C28.9138 12.7804 28.6958 14.0739 28.5107 15.3567C28.2892 16.8866 28.1052 18.4497 27.9658 20.0009L27.9529 20.1423ZM2.32365 19.8346H27.6764C27.8146 18.3238 27.9951 16.8022 28.2107 15.3128C28.404 13.9765 28.6325 12.6284 28.8892 11.3064L28.902 11.2387L28.8833 11.2648C28.1544 12.2614 27.3916 13.2187 26.6147 14.1072C25.6351 15.2296 24.6028 16.282 23.5458 17.237L23.3408 17.4223L23.2951 17.1479C22.9588 15.1061 22.6705 13.0215 22.4361 10.9501C22.285 9.60906 22.1537 8.23599 22.0448 6.87123L22.0319 6.70613L22.1948 6.70495C22.4748 6.70257 22.7021 6.42463 22.7021 6.08374C22.7021 5.74047 22.4736 5.46253 22.1924 5.46253C21.9112 5.46253 21.6827 5.74166 21.6827 6.08374C21.6827 6.2726 21.753 6.44957 21.8749 6.56954L21.9522 6.64556L21.9065 6.74533C21.3417 7.98299 20.7382 9.19334 20.1101 10.3431C19.4575 11.538 18.7603 12.7032 18.0373 13.8055L17.8545 14.0846L17.7654 13.7627C17.2346 11.8504 16.7342 9.89056 16.2772 7.93786C15.8636 6.1657 15.2519 3.18081 15.0516 2.19971L15.0246 2.07024L15.1476 2.02511C15.3609 1.94552 15.5097 1.70203 15.5097 1.43003C15.5097 1.08676 15.2812 0.808822 15 0.808822C14.7188 0.808822 14.4903 1.08795 14.4903 1.43003C14.4903 1.70084 14.6391 1.94552 14.8524 2.02511L14.9754 2.07024L14.9484 2.19971C14.7481 3.18081 14.1376 6.1657 13.7228 7.93786C13.2658 9.89056 12.7654 11.8504 12.2346 13.7627L12.1455 14.0846L11.9627 13.8055C11.2409 12.7032 10.5425 11.538 9.88985 10.3431C9.27701 9.22185 8.68643 8.04238 8.13452 6.8356L8.0771 6.71089L8.19311 6.63962C8.36653 6.53272 8.47434 6.32011 8.47434 6.08493C8.47434 5.74166 8.24584 5.46372 7.96461 5.46372C7.68338 5.46372 7.45489 5.74285 7.45489 6.08493C7.45489 6.37474 7.61659 6.62299 7.84861 6.68951L7.96813 6.72395L7.95758 6.84985C7.84861 8.22174 7.71619 9.60193 7.56386 10.9512C7.33068 13.0227 7.04125 15.1073 6.70495 17.1491L6.65925 17.4234L6.45418 17.2382C5.39723 16.2832 4.36489 15.2296 3.38528 14.1084C2.60956 13.2211 1.8479 12.2661 1.1214 11.2719L1.09796 11.2399L1.11319 11.3171C1.36981 12.6379 1.59714 13.9825 1.78931 15.314C2.00609 16.8022 2.18538 18.3226 2.32365 19.8346ZM0.813218 9.97015C0.53199 9.97015 0.303492 10.2493 0.303492 10.5914C0.303492 10.9346 0.53199 11.2126 0.813218 11.2126C0.849543 11.2126 0.885868 11.2078 0.924537 11.1971L1.04406 11.1639L1.1378 11.07C1.25615 10.9512 1.32412 10.7766 1.32412 10.5914C1.32294 10.2493 1.09445 9.97015 0.813218 9.97015ZM28.9595 11.1555L29.0766 11.1876C29.1141 11.1983 29.1516 11.2031 29.1868 11.2031C29.468 11.2031 29.6965 10.9239 29.6965 10.5818C29.6965 10.2386 29.468 9.96064 29.1868 9.96064C28.9056 9.96064 28.6771 10.2398 28.6771 10.5818C28.6771 10.7695 28.7462 10.9453 28.8669 11.0641L28.9595 11.1555Z" fill="url(#paint2_linear_1212_7171)"/>
<path d="M27.6929 22.5H2.38122L2.05664 20.3953H28.0175L27.6929 22.5ZM2.64019 22.1924H27.4328L27.6625 20.7029H2.41052L2.64019 22.1924Z" fill="url(#paint3_linear_1212_7171)"/>
</g>
<defs>
<linearGradient id="paint0_linear_1212_7171" x1="37.9995" y1="17.6691" x2="-3.00049" y2="17.6691" gradientUnits="userSpaceOnUse">
<stop offset="0.08" stop-color="#C8D0E5"/>
<stop offset="0.23" stop-color="#FAFAFA"/>
<stop offset="0.39" stop-color="#C8D1E2"/>
<stop offset="0.59" stop-color="#566B7C"/>
<stop offset="1" stop-color="#A9B8CF"/>
</linearGradient>
<linearGradient id="paint1_linear_1212_7171" x1="15.999" y1="15.5001" x2="14.499" y2="28.0001" gradientUnits="userSpaceOnUse">
<stop offset="0.08" stop-color="#C8D0E5"/>
<stop offset="0.23" stop-color="#FAFAFA"/>
<stop offset="0.39" stop-color="#C8D1E2"/>
<stop offset="0.59" stop-color="#566B7C"/>
<stop offset="1" stop-color="#A9B8CF"/>
</linearGradient>
<linearGradient id="paint2_linear_1212_7171" x1="41.5356" y1="17.7864" x2="-8.73235" y2="17.7864" gradientUnits="userSpaceOnUse">
<stop offset="0.08" stop-color="#C8D0E5"/>
<stop offset="0.23" stop-color="#FAFAFA"/>
<stop offset="0.39" stop-color="#C8D1E2"/>
<stop offset="0.59" stop-color="#566B7C"/>
<stop offset="1" stop-color="#A9B8CF"/>
</linearGradient>
<linearGradient id="paint3_linear_1212_7171" x1="38" y1="22.2476" x2="-5.5" y2="22.2476" gradientUnits="userSpaceOnUse">
<stop offset="0.08" stop-color="#C8D0E5"/>
<stop offset="0.23" stop-color="#FAFAFA"/>
<stop offset="0.39" stop-color="#C8D1E2"/>
<stop offset="0.59" stop-color="#566B7C"/>
<stop offset="1" stop-color="#A9B8CF"/>
</linearGradient>
<clipPath id="clip0_1212_7171">
<rect width="30" height="22" fill="white" transform="translate(0 0.5)"/>
</clipPath>
</defs>
</svg>
