<svg width="15" height="15" viewBox="0 0 15 15" fill="none" xmlns="http://www.w3.org/2000/svg">
<path d="M10.8057 11.7633C10.4522 11.7563 10.1679 11.4903 10.1679 11.1684C10.1602 10.8464 10.4445 10.5812 10.798 10.5742H10.8057C11.1668 10.5742 11.4588 10.8401 11.4588 11.1684C11.4588 11.4973 11.1668 11.7633 10.8057 11.7633ZM7.67064 9.18766C7.31718 9.20235 7.0252 8.94969 7.00983 8.62843C7.00983 8.30648 7.28645 8.04051 7.63991 8.02582C7.98568 8.02582 8.26998 8.27148 8.27767 8.58574C8.29303 8.90839 8.01642 9.17436 7.67064 9.18766ZM7.67064 11.7283C7.31718 11.743 7.0252 11.4903 7.00983 11.1684C7.00983 10.8464 7.28645 10.5812 7.63991 10.5665C7.98568 10.5665 8.26998 10.8121 8.27767 11.1271C8.29303 11.449 8.01642 11.715 7.67064 11.7283ZM4.51257 9.18766C4.15912 9.20235 3.86713 8.94969 3.85176 8.62843C3.85176 8.30648 4.12838 8.04051 4.48184 8.02582C4.82761 8.02582 5.11191 8.27148 5.1196 8.58574C5.13497 8.90839 4.85835 9.17436 4.51257 9.18766ZM4.50489 11.7283C4.15143 11.743 3.85944 11.4903 3.84408 11.1684C3.84408 10.8464 4.1207 10.5812 4.47415 10.5665C4.81993 10.5665 5.10423 10.8121 5.11191 11.1271C5.12728 11.449 4.85066 11.715 4.50489 11.7283ZM10.1756 8.62143C10.1756 8.29948 10.4522 8.04051 10.8057 8.03352C11.1514 8.03352 11.4281 8.28478 11.4434 8.59344C11.4511 8.91539 11.1745 9.18136 10.8287 9.18766C10.4753 9.19466 10.1833 8.94969 10.1756 8.62843V8.62143ZM0.655273 5.58105V10.9094C0.655273 13.1211 2.20741 14.4999 4.6432 14.4999H10.6597C13.1185 14.4999 14.6553 13.1491 14.6553 10.9521V5.58105H0.655273Z" fill="url(#paint0_linear_403_13401)"/>
<path opacity="0.4" d="M0.657715 5.58029C0.667704 5.16944 0.706123 4.35406 0.778351 4.09159C1.14718 2.6155 2.39965 1.67763 4.18999 1.54395H11.1208C12.8958 1.68463 14.1636 2.6288 14.5325 4.09159C14.6039 4.34706 14.6423 5.16874 14.6523 5.58029H0.657715Z" fill="url(#paint1_linear_403_13401)"/>
<path d="M4.78111 3.71256C5.1192 3.71256 5.37277 3.48229 5.37277 3.17363V1.03963C5.37277 0.730968 5.1192 0.5 4.78111 0.5C4.44302 0.5 4.18945 0.730968 4.18945 1.03963V3.17363C4.18945 3.48229 4.44302 3.71256 4.78111 3.71256Z" fill="url(#paint2_linear_403_13401)"/>
<path d="M10.5282 3.71256C10.8586 3.71256 11.1198 3.48229 11.1198 3.17363V1.03963C11.1198 0.730968 10.8586 0.5 10.5282 0.5C10.1901 0.5 9.93652 0.730968 9.93652 1.03963V3.17363C9.93652 3.48229 10.1901 3.71256 10.5282 3.71256Z" fill="url(#paint3_linear_403_13401)"/>
<defs>
<linearGradient id="paint0_linear_403_13401" x1="0.685975" y1="6.13136" x2="14.8742" y2="6.5535" gradientUnits="userSpaceOnUse">
<stop stop-color="#00FFFF"/>
<stop offset="1" stop-color="#0BEBD6"/>
</linearGradient>
<linearGradient id="paint1_linear_403_13401" x1="0.688405" y1="1.79299" x2="14.8227" y2="2.72187" gradientUnits="userSpaceOnUse">
<stop stop-color="#00FFFF"/>
<stop offset="1" stop-color="#0BEBD6"/>
</linearGradient>
<linearGradient id="paint2_linear_403_13401" x1="4.19205" y1="0.69822" x2="5.39228" y2="0.7066" gradientUnits="userSpaceOnUse">
<stop stop-color="#00FFFF"/>
<stop offset="1" stop-color="#0BEBD6"/>
</linearGradient>
<linearGradient id="paint3_linear_403_13401" x1="9.93912" y1="0.69822" x2="11.1393" y2="0.7066" gradientUnits="userSpaceOnUse">
<stop stop-color="#00FFFF"/>
<stop offset="1" stop-color="#0BEBD6"/>
</linearGradient>
</defs>
</svg>
