<svg width="12" height="12" viewBox="0 0 12 12" fill="none" xmlns="http://www.w3.org/2000/svg">
<path d="M6.90793 2.835L9.15816 5.08523L5.08478 9.15861L2.83455 6.90839L6.90793 2.835ZM5.4052 9.80675L9.80629 5.40565C9.89654 5.31541 9.94166 5.2086 9.94166 5.08523C9.94166 4.96187 9.89654 4.85506 9.80629 4.76481L7.22835 2.18687C7.14297 2.10149 7.03616 2.0588 6.90793 2.0588C6.7797 2.0588 6.6729 2.10149 6.58751 2.18687L2.18642 6.58797C2.09617 6.67821 2.05105 6.78502 2.05105 6.90839C2.05105 7.03175 2.09617 7.13856 2.18642 7.22881L4.76436 9.80675C4.84974 9.89213 4.95655 9.93482 5.08478 9.93482C5.21301 9.93482 5.31981 9.89213 5.4052 9.80675ZM11.7366 5.27028L5.27712 11.7366C5.10149 11.9122 4.88666 12 4.63263 12C4.37861 12 4.16378 11.9122 3.98815 11.7366L3.0907 10.8391C3.35658 10.5732 3.48952 10.2504 3.48952 9.87056C3.48952 9.49073 3.35658 9.16788 3.0907 8.90201C2.82483 8.63613 2.50198 8.50319 2.12215 8.50319C1.74233 8.50319 1.41948 8.63613 1.1536 8.90201L0.263446 8.00456C0.0878153 7.82893 0 7.6141 0 7.36007C0 7.10605 0.0878153 6.89122 0.263446 6.71559L6.72288 0.263446C6.89851 0.0878153 7.11334 0 7.36737 0C7.62139 0 7.83622 0.0878153 8.01185 0.263446L8.90201 1.1536C8.63613 1.41948 8.50319 1.74233 8.50319 2.12215C8.50319 2.50198 8.63613 2.82483 8.90201 3.0907C9.16788 3.35658 9.49073 3.48952 9.87056 3.48952C10.2504 3.48952 10.5732 3.35658 10.8391 3.0907L11.7366 3.98086C11.9122 4.15649 12 4.37132 12 4.62534C12 4.87937 11.9122 5.0942 11.7366 5.26983V5.27028Z" fill="#DF9B16"/>
</svg>
