<svg width="200" height="41" viewBox="0 0 200 41" fill="none" xmlns="http://www.w3.org/2000/svg">
<path d="M0 28.7938V1.08594H7.38758V28.7938H0Z" fill="white"/>
<path d="M26.2982 8.69287C16.8263 8.69287 10.2717 13.491 10.2717 18.9828C10.2717 25.1121 17.4024 29.3345 26.3718 29.3345C34.8843 29.3345 42.2712 25.1898 42.2712 18.9696C42.2712 13.739 36.1501 8.69287 26.2982 8.69287ZM26.2112 13.3882C31.1681 13.3882 34.8167 15.9303 34.8167 19.0005C34.8167 22.2557 30.794 24.6304 26.345 24.6304C21.0881 24.6304 17.7797 21.8853 17.7797 19.0093C17.7797 15.8568 21.5149 13.3882 26.2112 13.3882Z" fill="white"/>
<path d="M60.8325 8.69287C51.3606 8.69287 44.806 13.491 44.806 18.9828C44.806 25.1121 51.9367 29.3345 60.9061 29.3345C69.4186 29.3345 76.8054 25.1898 76.8054 18.9696C76.8054 15.3067 74.3977 13.6814 74.3977 13.6814L76.4454 13.2188V9.2686H65.9529C65.9529 9.2686 63.6782 8.69287 60.8325 8.69287ZM60.7455 13.3882C65.7024 13.3882 69.3509 15.9303 69.3509 19.0005C69.3509 22.2557 65.3283 24.6304 60.8793 24.6304C55.6223 24.6304 52.314 21.8853 52.314 19.0093C52.314 15.8568 56.0492 13.3882 60.7455 13.3882Z" fill="white"/>
<path d="M69.2987 30.1484C69.2987 33.4037 65.2761 35.796 60.8271 35.796C55.5701 35.796 52.2484 33.0244 52.2484 30.1484H44.7538C44.7538 36.2777 51.8845 40.5001 60.8539 40.5001C69.3663 40.5001 76.7532 36.3686 76.7532 30.1484H69.2987Z" fill="white"/>
<path d="M79.7645 28.7939V9.26855H87.152V28.7939H79.7645Z" fill="white"/>
<path d="M94.3255 28.7941V13.6423H90.364V9.2688H94.3255V3.27295H101.713V9.2688H105.782V13.6423H101.713V28.7941H94.3255Z" fill="white"/>
<path d="M88.3348 3.72306C88.3348 5.50311 86.1446 6.94612 83.4428 6.94612C80.741 6.94612 78.5508 5.50311 78.5508 3.72306C78.5508 1.94301 80.741 0.5 83.4428 0.5C86.1446 0.5 88.3348 1.94301 88.3348 3.72306Z" fill="white"/>
<path d="M122.39 8.67969C112.874 8.67969 106.738 13.4803 106.738 19.1592C106.738 25.0278 112.894 29.3478 122.544 29.3478C131.546 29.3478 135.974 25.6444 135.974 25.6444L131.036 22.3864C131.036 22.3864 127.307 25.036 122.638 25.036C118.745 25.036 115.633 23.6047 114.548 20.98H137.567V19.6398C137.567 14.292 132.869 8.67969 122.39 8.67969ZM122.156 12.965C125.559 12.965 129.04 14.1645 129.818 17.0298H114.347C114.96 15.0157 117.634 12.965 122.156 12.965Z" fill="white"/>
<path d="M156.045 29.35C146.502 29.35 139.999 24.5611 139.999 18.9146C139.999 13.0875 147.348 8.67578 156.015 8.67578C164.393 8.67578 168.681 12.5724 168.681 12.5724L163.528 15.9523C163.528 15.9523 160.542 13.4111 155.98 13.4111C150.923 13.4111 147.465 15.9598 147.465 18.9894C147.465 22.1882 151.143 24.6425 155.923 24.6425C160.559 24.6425 163.521 22.1054 163.521 22.1054L168.726 25.4835C168.726 25.4835 164.479 29.35 156.045 29.35Z" fill="white"/>
<path d="M171.413 28.8082V1.01562H178.801V11.2267C178.801 11.2267 181.63 8.67611 187.783 8.67611C195.518 8.67611 200 12.4647 200 17.3102V28.8082H192.612V18.0459C192.612 14.7906 189.536 13.44 186.128 13.44C182.246 13.44 178.801 14.8958 178.801 18.2978V28.8082H171.413Z" fill="white"/>
</svg>
