<svg width="20" height="20" viewBox="0 0 20 20" fill="none" xmlns="http://www.w3.org/2000/svg">
<path d="M8.29914 13.1826L7.96914 12.3626L10.1091 9.95262C10.2225 9.83262 10.3391 9.69595 10.4591 9.54262C10.5858 9.38262 10.7058 9.21928 10.8191 9.05262C10.9325 8.88595 11.0225 8.72262 11.0891 8.56262C11.1625 8.39595 11.1991 8.23928 11.1991 8.09262C11.1991 7.87928 11.1558 7.69928 11.0691 7.55262C10.9891 7.39928 10.8691 7.28262 10.7091 7.20262C10.5558 7.12262 10.3691 7.08262 10.1491 7.08262C9.95581 7.08262 9.76581 7.13928 9.57914 7.25262C9.39247 7.36595 9.22247 7.52595 9.06914 7.73262C8.91581 7.93928 8.79581 8.17928 8.70914 8.45262L7.87914 7.93262C7.99247 7.54595 8.16247 7.21595 8.38914 6.94262C8.62247 6.66262 8.89914 6.44928 9.21914 6.30262C9.54581 6.15595 9.89914 6.08262 10.2791 6.08262C10.6725 6.08262 11.0225 6.16595 11.3291 6.33262C11.6358 6.49262 11.8758 6.71928 12.0491 7.01262C12.2225 7.29928 12.3091 7.63262 12.3091 8.01262C12.3091 8.16595 12.2925 8.32262 12.2591 8.48262C12.2258 8.64262 12.1725 8.80928 12.0991 8.98262C12.0258 9.14928 11.9325 9.32595 11.8191 9.51262C11.7058 9.69262 11.5691 9.88262 11.4091 10.0826C11.2558 10.2826 11.0791 10.4926 10.8791 10.7126L9.28914 12.4426L9.08914 12.1426H12.5291V13.1826H8.29914Z" fill="white"/>
<mask id="path-2-inside-1_1887_3974" fill="white">
<path d="M15.1494 14.5908L14.5703 16.6316L16.4524 14.5908H15.1494Z"/>
<path d="M16.1628 17.0398L17.4658 14.5908H20.0002L18.0449 15.6112L16.1628 17.0398Z"/>
</mask>
<path d="M14.5703 16.6316L10.9932 15.6166L17.3037 19.1524L14.5703 16.6316ZM15.1494 14.5908V10.8725H12.3394L11.5723 13.5758L15.1494 14.5908ZM16.4524 14.5908L19.1858 17.1116L24.9396 10.8725H16.4524V14.5908ZM17.4658 14.5908V10.8725H15.2323L14.1832 12.8443L17.4658 14.5908ZM16.1628 17.0398L12.8802 15.2933L18.4109 20.0015L16.1628 17.0398ZM18.0449 15.6112L16.3246 12.3148L16.0466 12.4599L15.7968 12.6495L18.0449 15.6112ZM20.0002 14.5908L21.7205 17.8872L20.0002 10.8725V14.5908ZM18.1474 17.6467L18.7265 15.6059L11.5723 13.5758L10.9932 15.6166L18.1474 17.6467ZM15.1494 18.3091H16.4524V10.8725H15.1494V18.3091ZM13.719 12.07L11.8369 14.1108L17.3037 19.1524L19.1858 17.1116L13.719 12.07ZM14.1832 12.8443L12.8802 15.2933L19.4454 18.7863L20.7484 16.3373L14.1832 12.8443ZM18.4109 20.0015L20.293 18.573L15.7968 12.6495L13.9148 14.078L18.4109 20.0015ZM19.7652 18.9076L21.7205 17.8872L18.2799 11.2944L16.3246 12.3148L19.7652 18.9076ZM20.0002 10.8725H17.4658V18.3091H20.0002V10.8725Z" fill="white" mask="url(#path-2-inside-1_1887_3974)"/>
<mask id="path-4-inside-2_1887_3974" fill="white">
<path d="M4.85059 14.5908L5.42969 16.6316L3.54761 14.5908H4.85059Z"/>
<path d="M3.83716 17.0398L2.53419 14.5908H-0.000178337L1.95509 15.6112L3.83716 17.0398Z"/>
</mask>
<path d="M5.42969 16.6316L9.00676 15.6166L2.69631 19.1524L5.42969 16.6316ZM4.85059 14.5908V10.8725H7.66058L8.42766 13.5758L4.85059 14.5908ZM3.54761 14.5908L0.814233 17.1116L-4.93959 10.8725H3.54761V14.5908ZM2.53419 14.5908V10.8725H4.76769L5.81678 12.8443L2.53419 14.5908ZM3.83716 17.0398L7.11976 15.2933L1.58909 20.0015L3.83716 17.0398ZM1.95509 15.6112L3.67539 12.3148L3.95338 12.4599L4.20315 12.6495L1.95509 15.6112ZM-0.000178337 14.5908L-1.72048 17.8872L-0.000178337 10.8725V14.5908ZM1.85262 17.6467L1.27352 15.6059L8.42766 13.5758L9.00676 15.6166L1.85262 17.6467ZM4.85059 18.3091H3.54761V10.8725H4.85059V18.3091ZM6.28099 12.07L8.16307 14.1108L2.69631 19.1524L0.814233 17.1116L6.28099 12.07ZM5.81678 12.8443L7.11976 15.2933L0.554568 18.7863L-0.748407 16.3373L5.81678 12.8443ZM1.58909 20.0015L-0.292981 18.573L4.20315 12.6495L6.08523 14.078L1.58909 20.0015ZM0.23478 18.9076L-1.72048 17.8872L1.72013 11.2944L3.67539 12.3148L0.23478 18.9076ZM-0.000178337 10.8725H2.53419V18.3091H-0.000178337V10.8725Z" fill="white" mask="url(#path-4-inside-2_1887_3974)"/>
<mask id="path-6-inside-3_1887_3974" fill="white">
<path d="M9.40144 15.9183L6.49805 14.8979V18.1447L9.40144 19.9999V15.9183Z"/>
</mask>
<path d="M6.49805 14.8979L7.73091 11.39L2.77975 9.64991V14.8979H6.49805ZM9.40144 15.9183H13.1197V13.2839L10.6343 12.4104L9.40144 15.9183ZM9.40144 19.9999L7.39931 23.1332L13.1197 26.7885V19.9999H9.40144ZM6.49805 18.1447H2.77975V20.1813L4.49592 21.2779L6.49805 18.1447ZM5.26518 18.4059L8.16857 19.4263L10.6343 12.4104L7.73091 11.39L5.26518 18.4059ZM5.68315 15.9183V19.9999H13.1197V15.9183H5.68315ZM11.4036 16.8667L8.50018 15.0114L4.49592 21.2779L7.39931 23.1332L11.4036 16.8667ZM10.2163 18.1447V14.8979H2.77975V18.1447H10.2163Z" fill="white" mask="url(#path-6-inside-3_1887_3974)"/>
<mask id="path-8-inside-4_1887_3974" fill="white">
<path d="M10.6005 15.8158L13.5039 14.7954V18.0421L10.6005 19.8974V15.8158Z"/>
</mask>
<path d="M13.5039 14.7954L12.271 11.2875L17.2222 9.54738V14.7954H13.5039ZM10.6005 15.8158H6.88222V13.1813L9.36765 12.3078L10.6005 15.8158ZM10.6005 19.8974L12.6026 23.0306L6.88222 26.686V19.8974H10.6005ZM13.5039 18.0421H17.2222V20.0787L15.506 21.1754L13.5039 18.0421ZM14.7368 18.3034L11.8334 19.3238L9.36765 12.3078L12.271 11.2875L14.7368 18.3034ZM14.3188 15.8158V19.8974H6.88222V15.8158H14.3188ZM8.59838 16.7641L11.5018 14.9089L15.506 21.1754L12.6026 23.0306L8.59838 16.7641ZM9.78561 18.0421V14.7954H17.2222V18.0421H9.78561Z" fill="white" mask="url(#path-8-inside-4_1887_3974)"/>
<mask id="path-10-inside-5_1887_3974" fill="white">
<path d="M6.49805 0V3.06118H9.40144V1.05558L6.49805 0Z"/>
</mask>
<path d="M6.49805 3.06118H3.92384V5.63538H6.49805V3.06118ZM6.49805 0L7.37762 -2.41927L3.92384 -3.67495L3.92384 0H6.49805ZM9.40144 1.05558H11.9756V-0.74758L10.281 -1.36369L9.40144 1.05558ZM9.40144 3.06118V5.63538H11.9756V3.06118H9.40144ZM9.07225 3.06118V0H3.92384V3.06118H9.07225ZM5.61848 2.41927L8.52187 3.47485L10.281 -1.36369L7.37762 -2.41927L5.61848 2.41927ZM6.82724 1.05558V3.06118H11.9756V1.05558H6.82724ZM9.40144 0.486976H6.49805V5.63538H9.40144V0.486976Z" fill="white" mask="url(#path-10-inside-5_1887_3974)"/>
<mask id="path-12-inside-6_1887_3974" fill="white">
<path d="M13.502 0V3.06118H10.5986V1.05558L13.502 0Z"/>
</mask>
<path d="M13.502 3.06118H16.3622V5.92141H13.502V3.06118ZM13.502 0L12.5247 -2.68808L16.3622 -4.08328V0H13.502ZM10.5986 1.05558H7.73833V-0.947932L9.62126 -1.6325L10.5986 1.05558ZM10.5986 3.06118V5.92141H7.73833V3.06118H10.5986ZM10.6417 3.06118V0H16.3622V3.06118H10.6417ZM14.4793 2.68808L11.5759 3.74366L9.62126 -1.6325L12.5247 -2.68808L14.4793 2.68808ZM13.4588 1.05558V3.06118H7.73833V1.05558H13.4588ZM10.5986 0.200953H13.502V5.92141H10.5986V0.200953Z" fill="white" mask="url(#path-12-inside-6_1887_3974)"/>
</svg>
