<svg width="20" height="20" viewBox="0 0 20 20" fill="none" xmlns="http://www.w3.org/2000/svg">
<path d="M17.3609 3.81297C17.3049 3.72316 17.2309 3.60812 17.1344 3.46285C17.3166 3.34441 17.4595 3.19994 17.5696 3.04977C17.5855 3.39795 17.7856 3.66901 18.006 3.8631H17.3918C17.3821 3.84721 17.3718 3.83051 17.3609 3.81297Z" stroke="white" stroke-width="0.821959" stroke-linecap="round"/>
<path d="M2.63912 3.78563C2.69506 3.69581 2.76908 3.58078 2.8656 3.43551C2.68339 3.31706 2.54053 3.17259 2.43036 3.02242C2.41455 3.3706 2.21439 3.64166 1.99397 3.83576H2.60817C2.61789 3.81987 2.6282 3.80317 2.63912 3.78563Z" stroke="white" stroke-width="0.821959" stroke-linecap="round"/>
<path d="M15.8852 3.94555H15.7652C15.6798 3.85752 15.6235 3.74519 15.5908 3.61654C15.6321 3.63511 15.6756 3.65126 15.7213 3.66422C15.7662 3.76487 15.8249 3.86036 15.8852 3.94555Z" stroke="white" stroke-width="0.657567" stroke-linecap="round"/>
<path d="M4.11484 3.91772H4.23483C4.32018 3.82969 4.37646 3.71736 4.40918 3.58871C4.36791 3.60728 4.32439 3.62343 4.27866 3.63639C4.23377 3.73704 4.17506 3.83252 4.11484 3.91772Z" stroke="white" stroke-width="0.657567" stroke-linecap="round"/>
<path d="M14.4874 2.22115C14.4952 2.17843 14.5024 2.13571 14.509 2.09303C14.5367 2.11535 14.565 2.13714 14.594 2.15834C14.3041 2.84719 14.3064 3.45153 14.4364 3.91795H14.2862C14.2516 3.83638 14.2063 3.75451 14.1478 3.67644C14.101 3.61389 14.0472 3.55595 13.9868 3.50396C14.2539 3.10286 14.4073 2.65544 14.4874 2.22115Z" stroke="white" stroke-width="0.931553" stroke-linecap="round"/>
<path d="M5.51263 2.19381C5.50475 2.15109 5.49756 2.10836 5.49101 2.06568C5.46335 2.08801 5.43501 2.1098 5.40598 2.131C5.69588 2.81984 5.69361 3.42419 5.56364 3.89061H5.71379C5.74838 3.80904 5.79374 3.72716 5.85219 3.6491C5.89903 3.58655 5.95276 3.5286 6.01324 3.47662C5.74609 3.07552 5.59272 2.62809 5.51263 2.19381Z" stroke="white" stroke-width="0.931553" stroke-linecap="round"/>
<path d="M5.28711 9.47998C6.76664 10.6947 10.6353 12.3952 14.2739 9.47998" stroke="white" stroke-width="0.273986" stroke-linecap="round"/>
<path d="M9.67085 11.9731H9.81542L9.88779 16.3876L9.78948 16.5399L9.67085 16.3728V11.9731Z" stroke="white" stroke-width="0.931553"/>
<mask id="path-9-inside-1_1887_4010" fill="white">
<path d="M7.15014 11.0692L6.30078 10.6309V14.9872L7.15014 15.6174V11.0692Z"/>
</mask>
<path d="M6.30078 10.6309L6.72803 9.80306L5.36923 9.10174V10.6309H6.30078ZM7.15014 11.0692H8.08169V10.5017L7.57739 10.2414L7.15014 11.0692ZM7.15014 15.6174L6.59508 16.3655L8.08169 17.4685V15.6174H7.15014ZM6.30078 14.9872H5.36923V15.456L5.74572 15.7354L6.30078 14.9872ZM5.87353 11.4587L6.72289 11.897L7.57739 10.2414L6.72803 9.80306L5.87353 11.4587ZM6.21859 11.0692V15.6174H8.08169V11.0692H6.21859ZM7.7052 14.8693L6.85584 14.2391L5.74572 15.7354L6.59508 16.3655L7.7052 14.8693ZM7.23233 14.9872V10.6309H5.36923V14.9872H7.23233Z" fill="white" mask="url(#path-9-inside-1_1887_4010)"/>
<mask id="path-11-inside-2_1887_4010" fill="white">
<path d="M12.4651 11.0692L13.3145 10.6309V14.9872L12.4651 15.6174V11.0692Z"/>
</mask>
<path d="M13.3145 10.6309L12.8872 9.80306L14.246 9.10174V10.6309H13.3145ZM12.4651 11.0692H11.5335V10.5017L12.0378 10.2414L12.4651 11.0692ZM12.4651 15.6174L13.0202 16.3655L11.5335 17.4685V15.6174H12.4651ZM13.3145 14.9872H14.246V15.456L13.8695 15.7354L13.3145 14.9872ZM13.7417 11.4587L12.8923 11.897L12.0378 10.2414L12.8872 9.80306L13.7417 11.4587ZM13.3966 11.0692V15.6174H11.5335V11.0692H13.3966ZM11.91 14.8693L12.7594 14.2391L13.8695 15.7354L13.0202 16.3655L11.91 14.8693ZM12.3829 14.9872V10.6309H14.246V14.9872H12.3829Z" fill="white" mask="url(#path-11-inside-2_1887_4010)"/>
<mask id="path-13-inside-3_1887_4010" fill="white">
<path d="M8.6579 11.5621L7.83594 11.2881V15.6445L8.6579 16.7952V11.5621Z"/>
</mask>
<path d="M7.83594 11.2881L8.13052 10.4043L6.90438 9.99562V11.2881H7.83594ZM8.6579 11.5621H9.58945V10.8906L8.95248 10.6783L8.6579 11.5621ZM8.6579 16.7952L7.89986 17.3367L9.58945 19.7021V16.7952H8.6579ZM7.83594 15.6445H6.90438V15.943L7.0779 16.1859L7.83594 15.6445ZM7.54135 12.1718L8.36331 12.4458L8.95248 10.6783L8.13052 10.4043L7.54135 12.1718ZM7.72634 11.5621V16.7952H9.58945V11.5621H7.72634ZM9.41593 16.2538L8.59397 15.103L7.0779 16.1859L7.89986 17.3367L9.41593 16.2538ZM8.76749 15.6445V11.2881H6.90438V15.6445H8.76749Z" fill="white" mask="url(#path-13-inside-3_1887_4010)"/>
<mask id="path-15-inside-4_1887_4010" fill="white">
<path d="M10.9593 11.5621L11.7812 11.2881V15.6445L10.9593 16.7952V11.5621Z"/>
</mask>
<path d="M11.7812 11.2881L11.4867 10.4043L12.7128 9.99562V11.2881H11.7812ZM10.9593 11.5621H10.0277V10.8906L10.6647 10.6783L10.9593 11.5621ZM10.9593 16.7952L11.7173 17.3367L10.0277 19.7021V16.7952H10.9593ZM11.7812 15.6445H12.7128V15.943L12.5393 16.1859L11.7812 15.6445ZM12.0758 12.1718L11.2539 12.4458L10.6647 10.6783L11.4867 10.4043L12.0758 12.1718ZM11.8908 11.5621V16.7952H10.0277V11.5621H11.8908ZM10.2013 16.2538L11.0232 15.103L12.5393 16.1859L11.7173 17.3367L10.2013 16.2538ZM10.8497 15.6445V11.2881H12.7128V15.6445H10.8497Z" fill="white" mask="url(#path-15-inside-4_1887_4010)"/>
<mask id="path-17-inside-5_1887_4010" fill="white">
<path d="M13.7539 14.1926V10.6308C14.3457 10.3678 14.9868 9.73576 15.2334 9.45264H16.2198C15.6937 9.93485 15.5805 10.5668 15.5896 10.8226C15.1512 10.987 14.2416 11.4801 14.1101 12.1377C14.7951 12.0829 15.206 11.5623 15.343 11.4801C15.2334 11.8363 15.4252 12.0007 15.0964 12.4665C14.0443 12.598 13.763 13.672 13.7539 14.1926Z"/>
</mask>
<path d="M13.7539 10.6308L13.2643 9.52914L12.5484 9.84733V10.6308H13.7539ZM13.7539 14.1926H12.5484L14.9593 14.2137L13.7539 14.1926ZM15.0964 12.4665L15.246 13.6627L15.7743 13.5967L16.0813 13.1617L15.0964 12.4665ZM15.343 11.4801L16.4953 11.8347L17.4204 8.8278L14.7228 10.4464L15.343 11.4801ZM14.1101 12.1377L12.928 11.9013L12.6149 13.4667L14.2062 13.3394L14.1101 12.1377ZM15.5896 10.8226L16.0129 11.9514L16.8254 11.6467L16.7944 10.7795L15.5896 10.8226ZM16.2198 9.45264L17.0344 10.3413L19.319 8.2471H16.2198V9.45264ZM15.2334 9.45264V8.2471H14.6847L14.3244 8.66086L15.2334 9.45264ZM12.5484 10.6308V14.1926H14.9594V10.6308H12.5484ZM14.9593 14.2137C14.9599 14.1775 14.9666 14.1039 14.989 14.0148C15.0111 13.9267 15.0421 13.8484 15.0769 13.7884C15.1109 13.7299 15.1395 13.7034 15.1547 13.6923C15.1641 13.6855 15.1859 13.6702 15.246 13.6627L14.9469 11.2703C13.9696 11.3924 13.3402 11.977 12.9912 12.5789C12.6647 13.1419 12.5559 13.7513 12.5486 14.1715L14.9593 14.2137ZM16.0813 13.1617C16.2148 12.9725 16.3232 12.7747 16.3973 12.5607C16.4739 12.3398 16.4987 12.1458 16.5061 11.9896C16.5094 11.9195 16.5092 11.8565 16.5091 11.8223C16.5089 11.7801 16.509 11.77 16.5093 11.7615C16.5094 11.7578 16.5092 11.7671 16.5068 11.7834C16.5043 11.8005 16.5003 11.8182 16.4953 11.8347L14.1908 11.1256C14.1239 11.3431 14.1049 11.5307 14.0997 11.6765C14.0974 11.7408 14.0979 11.8014 14.098 11.8296C14.0981 11.8469 14.098 11.8569 14.098 11.8651C14.0979 11.8727 14.0977 11.8753 14.0978 11.8749C14.0983 11.8625 14.1026 11.8192 14.1192 11.7712C14.1334 11.7302 14.1424 11.7275 14.1116 11.7713L16.0813 13.1617ZM14.7228 10.4464C14.6073 10.5157 14.5165 10.5952 14.4904 10.6178C14.4548 10.6485 14.4069 10.6919 14.3856 10.711C14.3265 10.7637 14.2792 10.8039 14.2298 10.8393C14.1311 10.91 14.0646 10.932 14.014 10.936L14.2062 13.3394C14.8406 13.2887 15.322 13.0229 15.6343 12.7991C15.7904 12.6872 15.9143 12.5784 15.9923 12.5087C16.0395 12.4665 16.0515 12.4554 16.0673 12.4417C16.0925 12.4199 16.0445 12.4651 15.9633 12.5139L14.7228 10.4464ZM15.2922 12.3741C15.2784 12.4432 15.2548 12.4588 15.2843 12.4212C15.3134 12.3839 15.3701 12.3262 15.4623 12.2564C15.6527 12.1124 15.8829 12.0001 16.0129 11.9514L15.1663 9.69379C14.8579 9.80943 14.4141 10.026 14.0072 10.3339C13.6356 10.6152 13.0818 11.1322 12.928 11.9013L15.2922 12.3741ZM16.7944 10.7795C16.7956 10.8122 16.7923 10.8083 16.7986 10.7715C16.8041 10.739 16.815 10.6937 16.8341 10.6422C16.8724 10.5392 16.9354 10.4321 17.0344 10.3413L15.4052 8.56397C14.5678 9.33153 14.3658 10.3329 14.3848 10.8656L16.7944 10.7795ZM16.2198 8.2471H15.2334V10.6582H16.2198V8.2471ZM14.3244 8.66086C14.2391 8.75869 14.0593 8.94548 13.8405 9.13231C13.6114 9.32781 13.4057 9.46629 13.2643 9.52914L14.2435 11.7324C14.6939 11.5322 15.1047 11.2232 15.4058 10.9662C15.7171 10.7005 15.9811 10.4297 16.1425 10.2444L14.3244 8.66086Z" fill="white" mask="url(#path-17-inside-5_1887_4010)"/>
<mask id="path-19-inside-6_1887_4010" fill="white">
<path d="M5.86328 14.2199V10.6581C5.27147 10.3951 4.63034 9.7631 4.38376 9.47998H3.3974C3.92346 9.9622 4.03671 10.5942 4.02757 10.8499C4.46595 11.0143 5.37559 11.5075 5.5071 12.165C4.82213 12.1102 4.41115 11.5897 4.27416 11.5075C4.38376 11.8637 4.19196 12.0281 4.52075 12.4938C5.57286 12.6253 5.85415 13.6994 5.86328 14.2199Z"/>
</mask>
<path d="M5.86328 10.6581L6.3529 9.55649L7.06882 9.87467V10.6581H5.86328ZM5.86328 14.2199H7.06882L4.65793 14.2411L5.86328 14.2199ZM4.52075 12.4938L4.37122 13.6901L3.8429 13.624L3.53586 13.189L4.52075 12.4938ZM4.27416 11.5075L3.12193 11.862L2.19674 8.85514L4.89441 10.4737L4.27416 11.5075ZM5.5071 12.165L6.68923 11.9286L7.00231 13.4941L5.41096 13.3667L5.5071 12.165ZM4.02757 10.8499L3.60428 11.9787L2.79183 11.674L2.8228 10.8069L4.02757 10.8499ZM3.3974 9.47998L2.58279 10.3686L0.298201 8.27444H3.3974V9.47998ZM4.38376 9.47998V8.27444H4.93246L5.29283 8.68821L4.38376 9.47998ZM7.06882 10.6581V14.2199H4.65774V10.6581H7.06882ZM4.65793 14.2411C4.65729 14.2048 4.65056 14.1313 4.62823 14.0422C4.60614 13.954 4.57507 13.8758 4.54026 13.8158C4.50633 13.7573 4.47768 13.7307 4.46245 13.7196C4.4531 13.7128 4.43134 13.6976 4.37122 13.6901L4.67028 11.2976C5.6476 11.4198 6.27694 12.0043 6.626 12.6062C6.95249 13.1692 7.06126 13.7786 7.06864 14.1988L4.65793 14.2411ZM3.53586 13.189C3.40234 12.9999 3.294 12.802 3.21984 12.588C3.1433 12.3671 3.11852 12.1731 3.11108 12.0169C3.10775 11.9469 3.10802 11.8838 3.10812 11.8496C3.10825 11.8074 3.1082 11.7974 3.1079 11.7889C3.10777 11.7851 3.10794 11.7945 3.11037 11.8107C3.11291 11.8278 3.11687 11.8456 3.12193 11.862L5.42639 11.1529C5.49332 11.3705 5.51233 11.5581 5.51748 11.7038C5.51975 11.7681 5.51927 11.8287 5.51919 11.8569C5.51913 11.8742 5.51914 11.8842 5.51924 11.8924C5.51932 11.9 5.51945 11.9027 5.51943 11.9022C5.51884 11.8898 5.51462 11.8465 5.49801 11.7986C5.48378 11.7575 5.47477 11.7549 5.50564 11.7986L3.53586 13.189ZM4.89441 10.4737C5.00992 10.543 5.10069 10.6225 5.12684 10.6451C5.16241 10.6759 5.21033 10.7193 5.23163 10.7383C5.29065 10.7911 5.338 10.8313 5.38739 10.8667C5.48607 10.9374 5.55263 10.9593 5.60323 10.9633L5.41096 13.3667C4.7766 13.316 4.29519 13.0502 3.98289 12.8264C3.82679 12.7146 3.7029 12.6057 3.62492 12.5361C3.57773 12.4939 3.56571 12.4827 3.54992 12.469C3.52469 12.4472 3.57265 12.4925 3.65392 12.5412L4.89441 10.4737ZM4.32497 12.4015C4.33879 12.4706 4.36239 12.4861 4.33291 12.4485C4.30377 12.4113 4.24708 12.3536 4.15486 12.2838C3.96448 12.1397 3.73429 12.0274 3.60428 11.9787L4.45087 9.72113C4.75924 9.83677 5.20305 10.0533 5.60996 10.3613C5.98155 10.6425 6.53542 11.1596 6.68923 11.9286L4.32497 12.4015ZM2.8228 10.8069C2.82164 10.8395 2.82491 10.8357 2.81861 10.7988C2.81307 10.7663 2.80218 10.7211 2.78305 10.6696C2.74478 10.5665 2.68183 10.4594 2.58279 10.3686L4.21202 8.59131C5.04935 9.35887 5.25137 10.3603 5.23234 10.8929L2.8228 10.8069ZM3.3974 8.27444H4.38376V10.6855H3.3974V8.27444ZM5.29283 8.68821C5.37804 8.78604 5.55785 8.97283 5.77673 9.15966C6.00576 9.35516 6.21147 9.49363 6.3529 9.55649L5.37367 11.7598C4.92328 11.5596 4.51252 11.2505 4.21139 10.9935C3.90011 10.7278 3.63606 10.457 3.47468 10.2718L5.29283 8.68821Z" fill="white" mask="url(#path-19-inside-6_1887_4010)"/>
<path d="M9.57 9.07C9.11 9.07 8.69333 8.96667 8.32 8.76C7.94667 8.54667 7.63667 8.24333 7.39 7.85L7.99 7.18C8.30333 7.52667 8.57667 7.76333 8.81 7.89C9.04333 8.01667 9.29667 8.08 9.57 8.08C9.84333 8.08 10.09 8.02 10.31 7.9C10.53 7.78 10.7033 7.61667 10.83 7.41C10.9633 7.20333 11.03 6.97333 11.03 6.72C11.03 6.45333 10.9667 6.21667 10.84 6.01C10.72 5.79667 10.5567 5.63 10.35 5.51C10.1433 5.38333 9.91 5.32 9.65 5.32C9.52333 5.32 9.40333 5.33 9.29 5.35C9.17667 5.36333 9.04 5.4 8.88 5.46C8.72 5.52 8.51 5.61333 8.25 5.74L7.68 4.97L8.09 2H11.87V3H8.77L8.98 2.81L8.65 5.03L8.4 4.74C8.46667 4.67333 8.58 4.61 8.74 4.55C8.9 4.48333 9.07667 4.43 9.27 4.39C9.47 4.34333 9.66 4.32 9.84 4.32C10.2667 4.32 10.6467 4.42 10.98 4.62C11.32 4.81333 11.5867 5.08333 11.78 5.43C11.98 5.77667 12.08 6.17333 12.08 6.62C12.08 7.08 11.97 7.49667 11.75 7.87C11.53 8.23667 11.23 8.53 10.85 8.75C10.47 8.96333 10.0433 9.07 9.57 9.07Z" fill="white"/>
</svg>
