<svg width="20" height="21" viewBox="0 0 20 21" fill="none" xmlns="http://www.w3.org/2000/svg">
<path d="M9.51 12.6C9.01667 12.6 8.58667 12.4867 8.22 12.26C7.86 12.0333 7.52 11.6533 7.2 11.12L8.04 10.59C8.20667 10.8367 8.37 11.04 8.53 11.2C8.69667 11.3533 8.86667 11.4667 9.04 11.54C9.21333 11.6133 9.39667 11.65 9.59 11.65C9.82333 11.65 10.04 11.5933 10.24 11.48C10.44 11.36 10.6 11.1967 10.72 10.99C10.84 10.7833 10.9 10.55 10.9 10.29C10.9 10.03 10.8533 9.81 10.76 9.63C10.6667 9.44333 10.53 9.30333 10.35 9.21C10.17 9.11 9.95667 9.06 9.71 9.06C9.59667 9.06 9.47667 9.07333 9.35 9.1C9.23 9.12 9.1 9.15333 8.96 9.2C8.82 9.24 8.66667 9.29333 8.5 9.36L8.2 8.57L10.36 6.19L10.57 6.5H7.59V5.5H11.6L11.8 5.9L9.51 8.44L9.26 8.18C9.31333 8.15333 9.4 8.13 9.52 8.11C9.64667 8.08333 9.75 8.07 9.83 8.07C10.1233 8.07 10.3967 8.12667 10.65 8.24C10.91 8.34667 11.1333 8.5 11.32 8.7C11.5133 8.89333 11.6633 9.12333 11.77 9.39C11.8833 9.65 11.94 9.93 11.94 10.23C11.94 10.6833 11.83 11.09 11.61 11.45C11.3967 11.8033 11.1067 12.0833 10.74 12.29C10.3733 12.4967 9.96333 12.6 9.51 12.6Z" fill="white"/>
<mask id="path-2-inside-1_1887_3983" fill="white">
<path d="M15.3919 13.2739L14.8418 14.9943L16.6298 13.2739H15.3919Z"/>
<path d="M16.3547 15.3383L17.5926 13.2739H20.0002L18.1427 14.1341L16.3547 15.3383Z"/>
</mask>
<path d="M14.8418 14.9943L11.3002 13.8617L17.4198 17.6737L14.8418 14.9943ZM15.3919 13.2739V9.55563H12.6772L11.8503 12.1413L15.3919 13.2739ZM16.6298 13.2739L19.2078 15.9534L25.8572 9.55563H16.6298V13.2739ZM17.5926 13.2739V9.55563H15.4866L14.4036 11.3618L17.5926 13.2739ZM16.3547 15.3383L13.1658 13.4262L18.4318 18.4224L16.3547 15.3383ZM18.1427 14.1341L16.5803 10.76L16.3114 10.8845L16.0656 11.0501L18.1427 14.1341ZM20.0002 13.2739L21.5627 16.648L20.0002 9.55563V13.2739ZM18.3834 16.1268L18.9336 14.4065L11.8503 12.1413L11.3002 13.8617L18.3834 16.1268ZM15.3919 16.9922H16.6298V9.55563H15.3919V16.9922ZM14.0517 10.5945L12.2637 12.3148L17.4198 17.6737L19.2078 15.9534L14.0517 10.5945ZM14.4036 11.3618L13.1658 13.4262L19.5437 17.2505L20.7815 15.1861L14.4036 11.3618ZM18.4318 18.4224L20.2198 17.2181L16.0656 11.0501L14.2776 12.2543L18.4318 18.4224ZM19.7052 17.5082L21.5627 16.648L18.4378 9.89984L16.5803 10.76L19.7052 17.5082ZM20.0002 9.55563H17.5926V16.9922H20.0002V9.55563Z" fill="white" mask="url(#path-2-inside-1_1887_3983)"/>
<mask id="path-4-inside-2_1887_3983" fill="white">
<path d="M4.60805 13.2739L5.1582 14.9943L3.37021 13.2739H4.60805Z"/>
<path d="M3.64529 15.3383L2.40744 13.2739H-0.000232697L1.85729 14.1341L3.64529 15.3383Z"/>
</mask>
<path d="M5.1582 14.9943L8.69981 13.8617L2.58016 17.6737L5.1582 14.9943ZM4.60805 13.2739V9.55563H7.32276L8.14966 12.1413L4.60805 13.2739ZM3.37021 13.2739L0.792161 15.9534L-5.85718 9.55563H3.37021V13.2739ZM2.40744 13.2739V9.55563H4.51341L5.5964 11.3618L2.40744 13.2739ZM3.64529 15.3383L6.83424 13.4262L1.56815 18.4224L3.64529 15.3383ZM1.85729 14.1341L3.41974 10.76L3.68864 10.8845L3.93442 11.0501L1.85729 14.1341ZM-0.000232697 13.2739L-1.56268 16.648L-0.000232697 9.55563V13.2739ZM1.6166 16.1268L1.06644 14.4065L8.14966 12.1413L8.69981 13.8617L1.6166 16.1268ZM4.60805 16.9922H3.37021V9.55563H4.60805V16.9922ZM5.94826 10.5945L7.73625 12.3148L2.58016 17.6737L0.792161 15.9534L5.94826 10.5945ZM5.5964 11.3618L6.83424 13.4262L0.456329 17.2505L-0.781513 15.1861L5.5964 11.3618ZM1.56815 18.4224L-0.21984 17.2181L3.93442 11.0501L5.72242 12.2543L1.56815 18.4224ZM0.294844 17.5082L-1.56268 16.648L1.56221 9.89984L3.41974 10.76L0.294844 17.5082ZM-0.000232697 9.55563H2.40744V16.9922H-0.000232697V9.55563Z" fill="white" mask="url(#path-4-inside-2_1887_3983)"/>
<mask id="path-6-inside-3_1887_3983" fill="white">
<path d="M7.93209 14.3929L5.17383 13.5327V16.2696L7.93209 17.8335V14.3929Z"/>
</mask>
<path d="M5.17383 13.5327L6.2808 9.98302L1.45553 8.47826V13.5327H5.17383ZM7.93209 14.3929H11.6504V11.6575L9.03906 10.8432L7.93209 14.3929ZM7.93209 17.8335L6.09811 21.0681L11.6504 24.2162V17.8335H7.93209ZM5.17383 16.2696H1.45553V18.4357L3.33985 19.5041L5.17383 16.2696ZM4.06686 17.0824L6.82512 17.9426L9.03906 10.8432L6.2808 9.98302L4.06686 17.0824ZM4.21379 14.3929V17.8335H11.6504V14.3929H4.21379ZM9.76607 14.599L7.00781 13.0351L3.33985 19.5041L6.09811 21.0681L9.76607 14.599ZM8.89212 16.2696V13.5327H1.45553V16.2696H8.89212Z" fill="white" mask="url(#path-6-inside-3_1887_3983)"/>
<mask id="path-8-inside-4_1887_3983" fill="white">
<path d="M12.0699 14.3064L14.8281 13.4463V16.1832L12.0699 17.7471V14.3064Z"/>
</mask>
<path d="M14.8281 13.4463L13.7212 9.89659L18.5464 8.39184V13.4463H14.8281ZM12.0699 14.3064H8.35157V11.5711L10.9629 10.7568L12.0699 14.3064ZM12.0699 17.7471L13.9038 20.9816L8.35157 24.1298V17.7471H12.0699ZM14.8281 16.1832H18.5464V18.3493L16.6621 19.4177L14.8281 16.1832ZM15.9351 16.996L13.1768 17.8561L10.9629 10.7568L13.7212 9.89659L15.9351 16.996ZM15.7882 14.3064V17.7471H8.35157V14.3064H15.7882ZM10.2359 14.5126L12.9941 12.9486L16.6621 19.4177L13.9038 20.9816L10.2359 14.5126ZM11.1098 16.1832V13.4463H18.5464V16.1832H11.1098Z" fill="white" mask="url(#path-8-inside-4_1887_3983)"/>
<mask id="path-10-inside-5_1887_3983" fill="white">
<path d="M10.0022 15.148L8.62305 14.479V18.6842L10.0022 20.5001L11.3813 18.6842V14.479L10.0022 15.148Z"/>
</mask>
<path d="M8.62305 14.479L10.2459 11.1336L4.90475 8.54256V14.479H8.62305ZM10.0022 15.148L8.3793 18.4935L10.0022 19.2807L11.625 18.4935L10.0022 15.148ZM11.3813 14.479H15.0996V8.54256L9.75843 11.1336L11.3813 14.479ZM11.3813 18.6842L14.3424 20.9331L15.0996 19.9361V18.6842H11.3813ZM10.0022 20.5001L7.04106 22.749L10.0022 26.6479L12.9633 22.749L10.0022 20.5001ZM8.62305 18.6842H4.90475V19.9361L5.66193 20.9331L8.62305 18.6842ZM7.00017 17.8244L8.3793 18.4935L11.625 11.8026L10.2459 11.1336L7.00017 17.8244ZM11.625 18.4935L13.0042 17.8244L9.75843 11.1336L8.3793 11.8026L11.625 18.4935ZM7.66301 14.479V18.6842H15.0996V14.479H7.66301ZM8.42019 16.4353L7.04106 18.2512L12.9633 22.749L14.3424 20.9331L8.42019 16.4353ZM12.9633 18.2512L11.5842 16.4353L5.66193 20.9331L7.04106 22.749L12.9633 18.2512ZM12.3413 18.6842V14.479H4.90475V18.6842H12.3413Z" fill="white" mask="url(#path-10-inside-5_1887_3983)"/>
<path d="M9.62217 2.93956V1.88615L10.0002 1.66277L10.3783 1.88615V2.93956H9.62217Z" stroke="white" stroke-width="2.00216"/>
<mask id="path-13-inside-6_1887_3983" fill="white">
<path d="M5.17383 0.974121V3.5546H7.93209V1.86394L5.17383 0.974121Z"/>
</mask>
<path d="M5.17383 3.5546H2.59962V6.12881H5.17383V3.5546ZM5.17383 0.974121L5.96417 -1.47576L2.59962 -2.56117V0.974121H5.17383ZM7.93209 1.86394H10.5063V-0.0104533L8.72242 -0.585934L7.93209 1.86394ZM7.93209 3.5546V6.12881H10.5063V3.5546H7.93209ZM7.74803 3.5546V0.974121H2.59962V3.5546H7.74803ZM4.38349 3.424L7.14175 4.31382L8.72242 -0.585934L5.96417 -1.47576L4.38349 3.424ZM5.35788 1.86394V3.5546H10.5063V1.86394H5.35788ZM7.93209 0.980399H5.17383V6.12881H7.93209V0.980399Z" fill="white" mask="url(#path-13-inside-6_1887_3983)"/>
<mask id="path-15-inside-7_1887_3983" fill="white">
<path d="M14.8262 0.974121V3.5546H12.0679V1.86394L14.8262 0.974121Z"/>
</mask>
<path d="M14.8262 3.5546H17.6864V6.41483H14.8262V3.5546ZM14.8262 0.974121L13.948 -1.74796L17.6864 -2.95398V0.974121H14.8262ZM12.0679 1.86394H9.20769V-0.21872L11.1898 -0.858143L12.0679 1.86394ZM12.0679 3.5546V6.41483H9.20769V3.5546H12.0679ZM11.9659 3.5546V0.974121H17.6864V3.5546H11.9659ZM15.7043 3.69621L12.9461 4.58603L11.1898 -0.858143L13.948 -1.74796L15.7043 3.69621ZM14.9281 1.86394V3.5546H9.20769V1.86394H14.9281ZM12.0679 0.694376H14.8262V6.41483H12.0679V0.694376Z" fill="white" mask="url(#path-15-inside-7_1887_3983)"/>
</svg>
