<svg width="20" height="14" viewBox="0 0 20 14" fill="none" xmlns="http://www.w3.org/2000/svg">
<path d="M9.99992 2.41667C13.1583 2.41667 15.9749 4.19167 17.3499 7C15.9749 9.80833 13.1666 11.5833 9.99992 11.5833C6.83325 11.5833 4.02492 9.80833 2.64992 7C4.02492 4.19167 6.84158 2.41667 9.99992 2.41667ZM9.99992 0.75C5.83325 0.75 2.27492 3.34167 0.833252 7C2.27492 10.6583 5.83325 13.25 9.99992 13.25C14.1666 13.25 17.7249 10.6583 19.1666 7C17.7249 3.34167 14.1666 0.75 9.99992 0.75ZM9.99992 4.91667C11.1499 4.91667 12.0833 5.85 12.0833 7C12.0833 8.15 11.1499 9.08333 9.99992 9.08333C8.84992 9.08333 7.91658 8.15 7.91658 7C7.91658 5.85 8.84992 4.91667 9.99992 4.91667ZM9.99992 3.25C7.93325 3.25 6.24992 4.93333 6.24992 7C6.24992 9.06667 7.93325 10.75 9.99992 10.75C12.0666 10.75 13.7499 9.06667 13.7499 7C13.7499 4.93333 12.0666 3.25 9.99992 3.25Z" fill="white"/>
</svg>
