<svg width="20" height="16" viewBox="0 0 20 16" fill="none" xmlns="http://www.w3.org/2000/svg">
<path d="M9.99992 2.97933C13.1583 2.97933 15.9749 4.75433 17.3499 7.56266C16.8583 8.57933 16.1666 9.45433 15.3416 10.1627L16.5166 11.3377C17.6749 10.3127 18.5916 9.02933 19.1666 7.56266C17.7249 3.90433 14.1666 1.31266 9.99992 1.31266C8.94158 1.31266 7.92492 1.47933 6.96658 1.78766L8.34158 3.16266C8.88325 3.05433 9.43325 2.97933 9.99992 2.97933ZM9.10825 3.92933L10.8333 5.65433C11.3083 5.86266 11.6916 6.246 11.8999 6.721L13.6249 8.446C13.6916 8.16266 13.7416 7.86266 13.7416 7.55433C13.7499 5.48766 12.0666 3.81266 9.99992 3.81266C9.69158 3.81266 9.39992 3.85433 9.10825 3.92933ZM1.67492 1.20433L3.90825 3.43766C2.54992 4.50433 1.47492 5.921 0.833252 7.56266C2.27492 11.221 5.83325 13.8127 9.99992 13.8127C11.2666 13.8127 12.4833 13.571 13.5999 13.1293L16.4499 15.9793L17.6249 14.8043L2.84992 0.0209961L1.67492 1.20433ZM7.92492 7.45433L10.0999 9.62933C10.0666 9.63766 10.0333 9.646 9.99992 9.646C8.84992 9.646 7.91658 8.71266 7.91658 7.56266C7.91658 7.521 7.92492 7.496 7.92492 7.45433ZM5.09158 4.621L6.54992 6.07933C6.35825 6.53766 6.24992 7.03766 6.24992 7.56266C6.24992 9.62933 7.93325 11.3127 9.99992 11.3127C10.5249 11.3127 11.0249 11.2043 11.4749 11.0127L12.2916 11.8293C11.5583 12.0293 10.7916 12.146 9.99992 12.146C6.84158 12.146 4.02492 10.371 2.64992 7.56266C3.23325 6.371 4.08325 5.38766 5.09158 4.621Z" fill="white"/>
</svg>
