<svg width="50" height="50" viewBox="0 0 50 50" fill="none" xmlns="http://www.w3.org/2000/svg">
<g filter="url(#filter0_b_500_392)">
<circle cx="25" cy="25" r="25" fill="white" fill-opacity="0.2"/>
</g>
<g filter="url(#filter1_b_500_392)">
<path d="M25.5319 30.4741C32.8349 30.4741 39 31.6757 39 36.3166C38.9517 39.1649 38.4331 40.5877 37.5352 41.4856C36.6373 42.3835 29.8249 42.3835 25.5319 42.3835C21.7302 42.3835 15.5373 42.6859 13.7416 41.9345C11.4969 41.0367 12.0639 38.5006 12.0639 36.2766C12.0639 31.6357 18.2668 30.4741 25.5319 30.4741ZM25.5319 8C30.4784 8 34.4435 12.0164 34.4435 17.0269C34.4435 22.0374 30.4784 26.0538 25.5319 26.0538C20.5854 26.0538 16.6203 22.0374 16.6203 17.0269C16.6203 12.0164 20.5854 8 25.5319 8Z" fill="white" fill-opacity="0.1"/>
<path d="M13.9346 41.4733L13.9346 41.4732L13.9273 41.4703C13.4548 41.2813 13.1529 41.0176 12.9501 40.7095C12.7424 40.394 12.6198 40.0029 12.5564 39.5357C12.4929 39.0668 12.4922 38.5477 12.5101 37.9886C12.5157 37.8141 12.5232 37.6334 12.5309 37.4497C12.5471 37.0617 12.5639 36.6605 12.5639 36.2766C12.5639 35.2401 12.9056 34.4178 13.5159 33.7491C14.1365 33.0692 15.0564 32.5254 16.2403 32.1063C18.6151 31.2656 21.9109 30.9741 25.5319 30.9741C29.171 30.9741 32.4662 31.2755 34.8357 32.1256C36.0169 32.5494 36.9336 33.0977 37.5517 33.7812C38.1591 34.4528 38.4991 35.277 38.5 36.3125C38.4519 39.1167 37.9396 40.3741 37.1816 41.132C37.1611 41.1525 37.0582 41.2221 36.7913 41.3039C36.5435 41.3798 36.2137 41.449 35.8096 41.5103C35.0029 41.6328 33.953 41.716 32.7829 41.7718C30.4451 41.8834 27.6812 41.8835 25.5319 41.8835C24.7032 41.8835 23.7831 41.8973 22.8246 41.9117C21.5392 41.931 20.1846 41.9513 18.8886 41.9408C17.7696 41.9317 16.7233 41.8992 15.8499 41.8235C14.9602 41.7464 14.3053 41.6284 13.9346 41.4733ZM25.5319 8.5C30.1963 8.5 33.9435 12.2865 33.9435 17.0269C33.9435 21.7673 30.1963 25.5538 25.5319 25.5538C20.8676 25.5538 17.1203 21.7673 17.1203 17.0269C17.1203 12.2865 20.8676 8.5 25.5319 8.5Z" stroke="url(#paint0_radial_500_392)"/>
<path d="M13.9346 41.4733L13.9346 41.4732L13.9273 41.4703C13.4548 41.2813 13.1529 41.0176 12.9501 40.7095C12.7424 40.394 12.6198 40.0029 12.5564 39.5357C12.4929 39.0668 12.4922 38.5477 12.5101 37.9886C12.5157 37.8141 12.5232 37.6334 12.5309 37.4497C12.5471 37.0617 12.5639 36.6605 12.5639 36.2766C12.5639 35.2401 12.9056 34.4178 13.5159 33.7491C14.1365 33.0692 15.0564 32.5254 16.2403 32.1063C18.6151 31.2656 21.9109 30.9741 25.5319 30.9741C29.171 30.9741 32.4662 31.2755 34.8357 32.1256C36.0169 32.5494 36.9336 33.0977 37.5517 33.7812C38.1591 34.4528 38.4991 35.277 38.5 36.3125C38.4519 39.1167 37.9396 40.3741 37.1816 41.132C37.1611 41.1525 37.0582 41.2221 36.7913 41.3039C36.5435 41.3798 36.2137 41.449 35.8096 41.5103C35.0029 41.6328 33.953 41.716 32.7829 41.7718C30.4451 41.8834 27.6812 41.8835 25.5319 41.8835C24.7032 41.8835 23.7831 41.8973 22.8246 41.9117C21.5392 41.931 20.1846 41.9513 18.8886 41.9408C17.7696 41.9317 16.7233 41.8992 15.8499 41.8235C14.9602 41.7464 14.3053 41.6284 13.9346 41.4733ZM25.5319 8.5C30.1963 8.5 33.9435 12.2865 33.9435 17.0269C33.9435 21.7673 30.1963 25.5538 25.5319 25.5538C20.8676 25.5538 17.1203 21.7673 17.1203 17.0269C17.1203 12.2865 20.8676 8.5 25.5319 8.5Z" stroke="url(#paint1_radial_500_392)"/>
<path d="M13.9346 41.4733L13.9346 41.4732L13.9273 41.4703C13.4548 41.2813 13.1529 41.0176 12.9501 40.7095C12.7424 40.394 12.6198 40.0029 12.5564 39.5357C12.4929 39.0668 12.4922 38.5477 12.5101 37.9886C12.5157 37.8141 12.5232 37.6334 12.5309 37.4497C12.5471 37.0617 12.5639 36.6605 12.5639 36.2766C12.5639 35.2401 12.9056 34.4178 13.5159 33.7491C14.1365 33.0692 15.0564 32.5254 16.2403 32.1063C18.6151 31.2656 21.9109 30.9741 25.5319 30.9741C29.171 30.9741 32.4662 31.2755 34.8357 32.1256C36.0169 32.5494 36.9336 33.0977 37.5517 33.7812C38.1591 34.4528 38.4991 35.277 38.5 36.3125C38.4519 39.1167 37.9396 40.3741 37.1816 41.132C37.1611 41.1525 37.0582 41.2221 36.7913 41.3039C36.5435 41.3798 36.2137 41.449 35.8096 41.5103C35.0029 41.6328 33.953 41.716 32.7829 41.7718C30.4451 41.8834 27.6812 41.8835 25.5319 41.8835C24.7032 41.8835 23.7831 41.8973 22.8246 41.9117C21.5392 41.931 20.1846 41.9513 18.8886 41.9408C17.7696 41.9317 16.7233 41.8992 15.8499 41.8235C14.9602 41.7464 14.3053 41.6284 13.9346 41.4733ZM25.5319 8.5C30.1963 8.5 33.9435 12.2865 33.9435 17.0269C33.9435 21.7673 30.1963 25.5538 25.5319 25.5538C20.8676 25.5538 17.1203 21.7673 17.1203 17.0269C17.1203 12.2865 20.8676 8.5 25.5319 8.5Z" stroke="url(#paint2_radial_500_392)"/>
</g>
<defs>
<filter id="filter0_b_500_392" x="-40" y="-40" width="130" height="130" filterUnits="userSpaceOnUse" color-interpolation-filters="sRGB">
<feFlood flood-opacity="0" result="BackgroundImageFix"/>
<feGaussianBlur in="BackgroundImage" stdDeviation="20"/>
<feComposite in2="SourceAlpha" operator="in" result="effect1_backgroundBlur_500_392"/>
<feBlend mode="normal" in="SourceGraphic" in2="effect1_backgroundBlur_500_392" result="shape"/>
</filter>
<filter id="filter1_b_500_392" x="-58" y="-62" width="167" height="174.444" filterUnits="userSpaceOnUse" color-interpolation-filters="sRGB">
<feFlood flood-opacity="0" result="BackgroundImageFix"/>
<feGaussianBlur in="BackgroundImage" stdDeviation="35"/>
<feComposite in2="SourceAlpha" operator="in" result="effect1_backgroundBlur_500_392"/>
<feBlend mode="normal" in="SourceGraphic" in2="effect1_backgroundBlur_500_392" result="shape"/>
</filter>
<radialGradient id="paint0_radial_500_392" cx="0" cy="0" r="1" gradientUnits="userSpaceOnUse" gradientTransform="translate(25.5 25.2218) rotate(-125.767) scale(29.472 21.7635)">
<stop stop-color="white"/>
<stop offset="1" stop-color="white" stop-opacity="0"/>
</radialGradient>
<radialGradient id="paint1_radial_500_392" cx="0" cy="0" r="1" gradientUnits="userSpaceOnUse" gradientTransform="translate(25.5 25.2218) rotate(47.635) scale(24.0409 17.3933)">
<stop stop-color="#9854FE"/>
<stop offset="1" stop-color="#9854FE" stop-opacity="0"/>
</radialGradient>
<radialGradient id="paint2_radial_500_392" cx="0" cy="0" r="1" gradientUnits="userSpaceOnUse" gradientTransform="translate(25.5 25.2218) rotate(129.025) scale(23.4983 17.1807)">
<stop stop-color="#151515"/>
<stop offset="1" stop-color="#151515" stop-opacity="0"/>
</radialGradient>
</defs>
</svg>
