<svg width="40" height="34" viewBox="0 0 40 34" fill="none" xmlns="http://www.w3.org/2000/svg">
<path d="M9.69952 10.2227H5.70284C2.55368 10.2227 0 12.9733 0 16.3679V16.5841C0 19.9762 2.55368 22.7269 5.70284 22.7269H9.69952V10.2227Z" fill="url(#paint0_linear_6107_10530)"/>
<g opacity="0.45">
<path d="M9.9262 21.2524H5.5303C3.50074 21.2524 1.65183 20.2818 0.367188 18.7539C1.18124 21.0746 3.2621 22.7274 5.70203 22.7274H9.9262V21.2524Z" fill="#1E88A2"/>
</g>
<path d="M10.706 22.4027C10.706 23.1762 10.1239 23.8032 9.40573 23.8032C8.68757 23.8032 8.10547 23.1762 8.10547 22.4027V10.5471C8.10547 9.7735 8.68757 9.14648 9.40573 9.14648C10.1239 9.14648 10.706 9.7735 10.706 10.5471V22.4027Z" fill="url(#paint1_linear_6107_10530)"/>
<g opacity="0.45">
<path d="M8.10547 20.4822V22.4017C8.10547 23.1753 8.68757 23.8023 9.40573 23.8023C10.1239 23.8023 10.706 23.1753 10.706 22.4017V20.4414C9.88524 20.7825 8.93514 20.7994 8.10547 20.4822Z" fill="#3F5666"/>
</g>
<path d="M10.707 10.5475V16.4765V22.4031L22.416 30.5951V16.4765V2.35547L10.707 10.5475Z" fill="#00FFFF"/>
<path opacity="0.45" d="M10.707 21.1641V22.4013L22.416 30.5933V27.3765L10.707 21.1641Z" fill="#1E88A2"/>
<path d="M25.8355 25.5007C25.5857 25.5007 25.336 25.3926 25.1531 25.1764C24.8096 24.7704 24.8341 24.141 25.2111 23.7686C27.109 21.8996 28.1974 19.2402 28.1974 16.4751C28.1974 13.7076 27.109 11.0482 25.2111 9.17916C24.8341 8.8092 24.8074 8.17738 25.1531 7.77138C25.4988 7.36539 26.0831 7.33656 26.46 7.70892C28.7394 9.95512 30.0486 13.1478 30.0486 16.4727C30.0486 19.7976 28.7416 22.9927 26.46 25.2365C26.2838 25.4143 26.0586 25.5007 25.8355 25.5007Z" fill="url(#paint2_linear_6107_10530)"/>
<g opacity="0.45">
<path d="M25.7168 23.2289C25.5562 23.4139 25.3889 23.5965 25.215 23.7695C24.838 24.1394 24.8113 24.7713 25.157 25.1773C25.3399 25.3911 25.5897 25.5016 25.8394 25.5016C26.0625 25.5016 26.2855 25.4151 26.4639 25.2397C27.3516 24.3653 28.0876 23.3491 28.6608 22.2344C27.9002 23.0368 26.8052 23.4404 25.7168 23.2289Z" fill="#45B29D"/>
</g>
<path d="M30.7874 28.3882C30.5621 28.3882 30.3391 28.3017 30.1607 28.1239C29.786 27.7516 29.7614 27.1198 30.1094 26.7162C34.8733 21.1547 35.0673 12.3693 30.5465 6.71659C30.2142 6.29858 30.2566 5.67156 30.6446 5.31121C31.0305 4.95326 31.6148 4.9989 31.9493 5.41691C37.0723 11.8264 36.8604 21.7745 31.4698 28.0687C31.2847 28.2825 31.0349 28.3882 30.7874 28.3882Z" fill="url(#paint3_linear_6107_10530)"/>
<g opacity="0.45">
<path d="M32.4481 22.9672C31.857 24.3149 31.0787 25.5858 30.1085 26.7197C29.7628 27.1233 29.7851 27.7551 30.1598 28.1274C30.3382 28.3052 30.5635 28.3917 30.7865 28.3917C31.0363 28.3917 31.2838 28.2836 31.4667 28.0722C32.961 26.3281 34.0561 24.3029 34.7519 22.1504C34.1074 22.6933 33.2666 22.9912 32.4481 22.9672Z" fill="#45B29D"/>
</g>
<path d="M32.7521 33.3279C32.5068 33.3279 32.2614 33.2246 32.0808 33.0156C31.7306 32.6168 31.7462 31.985 32.1165 31.6078C39.6169 23.9588 40.2191 11.0197 33.4546 2.76521C33.3387 2.62347 33.2227 2.48413 33.1022 2.3472C32.7543 1.94601 32.7744 1.31419 33.1468 0.939423C33.5215 0.564656 34.1059 0.586277 34.4538 0.98747C34.5854 1.13882 34.7125 1.29257 34.8396 1.44632C42.2531 10.496 41.6019 24.6747 33.3855 33.0541C33.2093 33.2366 32.9796 33.3279 32.7521 33.3279Z" fill="url(#paint4_linear_6107_10530)"/>
<g opacity="0.45">
<path d="M37.09 23.2566C36.1042 26.3509 34.4426 29.2337 32.1165 31.6072C31.7462 31.9844 31.7306 32.6162 32.0808 33.015C32.2637 33.2216 32.5068 33.3273 32.7521 33.3273C32.9796 33.3273 33.2093 33.236 33.3877 33.0534C36.2135 30.1706 38.1449 26.6031 39.1619 22.793C38.5508 23.1797 37.8327 23.3575 37.09 23.2566Z" fill="#45B29D"/>
</g>
<defs>
<linearGradient id="paint0_linear_6107_10530" x1="0.021271" y1="10.9942" x2="9.85777" y2="11.1388" gradientUnits="userSpaceOnUse">
<stop stop-color="#00FFFF"/>
<stop offset="1" stop-color="#0BEBD6"/>
</linearGradient>
<linearGradient id="paint1_linear_6107_10530" x1="8.11117" y1="10.0508" x2="10.749" y2="10.0597" gradientUnits="userSpaceOnUse">
<stop stop-color="#00FFFF"/>
<stop offset="1" stop-color="#0BEBD6"/>
</linearGradient>
<linearGradient id="paint2_linear_6107_10530" x1="24.9214" y1="8.5612" x2="30.1334" y2="8.58931" gradientUnits="userSpaceOnUse">
<stop stop-color="#00FFFF"/>
<stop offset="1" stop-color="#0BEBD6"/>
</linearGradient>
<linearGradient id="paint3_linear_6107_10530" x1="29.876" y1="6.50907" x2="35.7521" y2="6.53674" gradientUnits="userSpaceOnUse">
<stop stop-color="#00FFFF"/>
<stop offset="1" stop-color="#0BEBD6"/>
</linearGradient>
<linearGradient id="paint4_linear_6107_10530" x1="31.846" y1="2.68681" x2="40.1353" y2="2.72613" gradientUnits="userSpaceOnUse">
<stop stop-color="#00FFFF"/>
<stop offset="1" stop-color="#0BEBD6"/>
</linearGradient>
</defs>
</svg>
