<svg width="20" height="18" viewBox="0 0 20 18" fill="none" xmlns="http://www.w3.org/2000/svg">
<g clip-path="url(#clip0_826_14234)">
<path d="M17.7162 18H2.28167C1.45671 18 0.719887 17.5716 0.307407 16.8564C-0.105073 16.1412 -0.105073 15.2844 0.307407 14.5692L8.02819 1.14359C8.43714 0.428403 9.17749 0 9.99893 0C10.8239 0 11.5607 0.428403 11.9732 1.14359L19.6904 14.5657C20.1029 15.2809 20.1029 16.1377 19.6904 16.8529C19.278 17.5716 18.5411 18 17.7162 18ZM9.05058 1.73839L1.33332 15.1605C1.13589 15.5039 1.13589 15.9182 1.33332 16.2616C1.53075 16.605 1.88682 16.8139 2.28167 16.8139H17.7162C18.111 16.8139 18.4671 16.6086 18.6645 16.2616C18.862 15.9182 18.862 15.5039 18.6645 15.1605L10.9508 1.73839C10.7534 1.39496 10.3973 1.18607 10.0025 1.18607C9.60408 1.18607 9.248 1.39142 9.05058 1.73839Z" fill="white"/>
<path d="M10.0023 4.85742C10.8554 4.85742 11.5217 5.60801 11.4195 6.46128L10.792 11.7225C10.7426 12.1261 10.4042 12.4306 9.99874 12.4306C9.59331 12.4306 9.25134 12.1261 9.20551 11.7225L8.58855 6.45774C8.48631 5.60801 9.1491 4.85742 10.0023 4.85742Z" fill="white"/>
<path d="M9.19468 14.9866C8.9761 14.7671 8.86328 14.4945 8.86328 14.1758C8.86328 13.8572 8.97257 13.5845 9.19468 13.365C9.41326 13.1455 9.68472 13.0322 10.002 13.0322C10.3193 13.0322 10.5908 13.142 10.8093 13.365C11.0279 13.5845 11.1407 13.8572 11.1407 14.1758C11.1407 14.4945 11.0314 14.7671 10.8093 14.9866C10.5908 15.2061 10.3193 15.3194 10.002 15.3194C9.68472 15.3194 9.41678 15.2096 9.19468 14.9866Z" fill="white"/>
</g>
<defs>
<clipPath id="clip0_826_14234">
<rect width="20" height="18" fill="white"/>
</clipPath>
</defs>
</svg>
