<svg width="38" height="38" viewBox="0 0 38 38" fill="none" xmlns="http://www.w3.org/2000/svg">
<path fill-rule="evenodd" clip-rule="evenodd" d="M3.8025 3.80266C3.1665 4.43866 3.1665 5.46228 3.1665 7.50952V30.4905C3.1665 32.5377 3.1665 33.5613 3.8025 34.1973C4.4385 34.8333 5.46212 34.8333 7.50936 34.8333H30.4903C32.5376 34.8333 33.5612 34.8333 34.1972 34.1973C34.8332 33.5613 34.8332 32.5377 34.8332 30.4905V7.50952C34.8332 5.46228 34.8332 4.43866 34.1972 3.80266C34.1477 3.75321 34.0959 3.70761 34.0415 3.66555V26.9167H33.4654C32.5778 26.9167 32.134 26.9167 31.735 26.7514C31.3359 26.5861 31.0221 26.2723 30.3945 25.6447L26.8686 22.1188C26.1448 21.395 25.7829 21.033 25.3332 21.033C24.8835 21.033 24.5215 21.395 23.7977 22.1188L20.1338 25.7827C19.62 26.2965 19.3631 26.5534 19.0803 26.4989C18.7974 26.4444 18.6543 26.1105 18.3681 25.4427L15.5132 18.7813C14.9408 17.4456 14.6546 16.7778 14.0889 16.6689C13.5232 16.5599 13.0095 17.0737 11.982 18.1012L5.5415 24.5417V3.20453C4.72182 3.26364 4.19015 3.41501 3.8025 3.80266Z" fill="white" fill-opacity="0.5"/>
<g filter="url(#filter0_b_440_98)">
<path d="M7.50936 3.70948H30.4903C31.5293 3.70948 32.2539 3.71064 32.8006 3.78414C33.3317 3.85555 33.613 3.98616 33.8133 4.18648C34.0136 4.3868 34.1443 4.66806 34.2157 5.19917C34.2892 5.7459 34.2903 6.47052 34.2903 7.50948V30.4904C34.2903 31.5294 34.2892 32.254 34.2157 32.8008C34.1443 33.3319 34.0136 33.6131 33.8133 33.8134C33.613 34.0138 33.3317 34.1444 32.8006 34.2158C32.2539 34.2893 31.5293 34.2904 30.4903 34.2904H7.50936C6.47039 34.2904 5.74578 34.2893 5.19905 34.2158C4.66793 34.1444 4.38668 34.0138 4.18636 33.8134C3.98603 33.6131 3.85543 33.3319 3.78402 32.8008C3.71051 32.254 3.70936 31.5294 3.70936 30.4904V7.50948C3.70936 6.47051 3.71051 5.7459 3.78402 5.19917C3.85543 4.66806 3.98603 4.3868 4.18636 4.18648C4.38668 3.98616 4.66793 3.85555 5.19905 3.78414C5.74578 3.71064 6.47039 3.70948 7.50936 3.70948Z" stroke="#F9EEEE" stroke-opacity="0.5" stroke-width="1.08571"/>
</g>
<g filter="url(#filter1_b_440_98)">
<circle cx="23.7502" cy="14.25" r="3.16667" fill="white" fill-opacity="0.5"/>
</g>
<defs>
<filter id="filter0_b_440_98" x="-18.5478" y="-18.5477" width="75.0953" height="75.0953" filterUnits="userSpaceOnUse" color-interpolation-filters="sRGB">
<feFlood flood-opacity="0" result="BackgroundImageFix"/>
<feGaussianBlur in="BackgroundImage" stdDeviation="10.8571"/>
<feComposite in2="SourceAlpha" operator="in" result="effect1_backgroundBlur_440_98"/>
<feBlend mode="normal" in="SourceGraphic" in2="effect1_backgroundBlur_440_98" result="shape"/>
</filter>
<filter id="filter1_b_440_98" x="-1.13079" y="-10.6309" width="49.7618" height="49.7619" filterUnits="userSpaceOnUse" color-interpolation-filters="sRGB">
<feFlood flood-opacity="0" result="BackgroundImageFix"/>
<feGaussianBlur in="BackgroundImage" stdDeviation="10.8571"/>
<feComposite in2="SourceAlpha" operator="in" result="effect1_backgroundBlur_440_98"/>
<feBlend mode="normal" in="SourceGraphic" in2="effect1_backgroundBlur_440_98" result="shape"/>
</filter>
</defs>
</svg>
