<svg width="19" height="15" viewBox="0 0 19 15" fill="none" xmlns="http://www.w3.org/2000/svg">
<path d="M15.8335 7.49998L18.3335 7.49998L15.0002 4.16665L11.6668 7.49998L14.1668 7.49998C14.1668 10.2583 11.9252 12.5 9.16683 12.5C8.32516 12.5 7.52516 12.2916 6.83349 11.9166L5.61683 13.1333C6.64183 13.7833 7.8585 14.1666 9.16683 14.1666C12.8502 14.1666 15.8335 11.1833 15.8335 7.49998ZM4.16683 7.49998C4.16683 4.74165 6.4085 2.49998 9.16683 2.49998C10.0085 2.49998 10.8085 2.70831 11.5002 3.08331L12.7168 1.86665C11.6918 1.21665 10.4752 0.833313 9.16683 0.833313C5.4835 0.833312 2.50016 3.81665 2.50016 7.49998L0.000161833 7.49998L3.33349 10.8333L6.66683 7.49998L4.16683 7.49998Z" fill="#12B0B4"/>
</svg>
