<svg width="25" height="24" viewBox="0 0 25 24" fill="none" xmlns="http://www.w3.org/2000/svg">
<path d="M12.4275 20.5299C10.1106 20.5299 7.79362 20.1599 5.596 19.4199C4.76071 19.1299 4.12429 18.5399 3.84586 17.7699C3.55749 16.9999 3.65693 16.1499 4.11435 15.3899L5.25791 13.4799C5.49656 13.0799 5.71533 12.2799 5.71533 11.8099V8.91992C5.71533 5.19992 8.72836 2.16992 12.4275 2.16992C16.1267 2.16992 19.1397 5.19992 19.1397 8.91992V11.8099C19.1397 12.2699 19.3585 13.0799 19.5972 13.4899L20.7308 15.3899C21.1584 16.1099 21.2379 16.9799 20.9495 17.7699C20.6612 18.5599 20.0347 19.1599 19.2491 19.4199C17.0614 20.1599 14.7445 20.5299 12.4275 20.5299ZM12.4275 3.66992C9.55371 3.66992 7.20693 6.01992 7.20693 8.91992V11.8099C7.20693 12.5399 6.90861 13.6199 6.54068 14.2499L5.39712 16.1599C5.17836 16.5299 5.11869 16.9199 5.24796 17.2499C5.36729 17.5899 5.66561 17.8499 6.07332 17.9899C10.2299 19.3899 14.6351 19.3899 18.7917 17.9899C19.1497 17.8699 19.4281 17.5999 19.5574 17.2399C19.6867 16.8799 19.6568 16.4899 19.4579 16.1599L18.3144 14.2499C17.9365 13.5999 17.6481 12.5299 17.6481 11.7999V8.91992C17.6481 6.01992 15.3113 3.66992 12.4275 3.66992Z" fill="white"/>
<path d="M14.2769 3.93969C14.2073 3.93969 14.1377 3.92969 14.0681 3.90969C13.7797 3.82969 13.5013 3.76969 13.2328 3.72969C12.3875 3.61969 11.5721 3.67969 10.8064 3.90969C10.528 3.99969 10.2297 3.90969 10.0408 3.69969C9.85184 3.48969 9.79218 3.18969 9.90156 2.91969C10.3093 1.86969 11.3036 1.17969 12.4372 1.17969C13.5709 1.17969 14.5653 1.85969 14.973 2.91969C15.0724 3.18969 15.0227 3.48969 14.8337 3.69969C14.6846 3.85969 14.4758 3.93969 14.2769 3.93969Z" fill="white"/>
<path d="M12.4271 22.8096C11.4426 22.8096 10.488 22.4096 9.79196 21.7096C9.09588 21.0096 8.69812 20.0496 8.69812 19.0596H10.1897C10.1897 19.6496 10.4283 20.2296 10.846 20.6496C11.2636 21.0696 11.8404 21.3096 12.4271 21.3096C13.6601 21.3096 14.6645 20.2996 14.6645 19.0596H16.1561C16.1561 21.1296 14.4855 22.8096 12.4271 22.8096Z" fill="white"/>
</svg>
