<svg width="36" height="36" viewBox="0 0 36 36" fill="none" xmlns="http://www.w3.org/2000/svg">
<path d="M36 18C36 27.9411 27.9411 36 18 36C8.05888 36 0 27.9411 0 18C0 8.05888 8.05888 0 18 0C27.9411 0 36 8.05888 36 18Z" fill="#1A41CA"/>
<path d="M26.4732 10.1359C24.9227 9.43859 23.2441 8.93248 21.4954 8.64005C21.4801 8.63958 21.4649 8.64235 21.4508 8.64818C21.4367 8.65401 21.4241 8.66276 21.4138 8.67379C21.204 9.04495 20.9592 9.52857 20.796 9.89972C18.9413 9.62979 17.0551 9.62979 15.2004 9.89972C15.0372 9.51732 14.7924 9.04495 14.5709 8.67379C14.5592 8.6513 14.5243 8.64005 14.4893 8.64005C12.7407 8.93248 11.0737 9.43859 9.51156 10.1359C9.49991 10.1359 9.48825 10.1472 9.47659 10.1584C6.30576 14.736 5.43145 19.1898 5.86278 23.5986C5.86278 23.6211 5.87443 23.6436 5.89775 23.6549C7.99609 25.1395 10.0128 26.0392 12.0063 26.6353C12.0412 26.6466 12.0762 26.6353 12.0879 26.6128C12.5542 25.9943 12.9738 25.3419 13.3352 24.6559C13.3585 24.6109 13.3352 24.5659 13.2886 24.5546C12.6241 24.3072 11.9946 24.0148 11.3768 23.6774C11.3301 23.6549 11.3301 23.5874 11.3651 23.5536C11.4933 23.4637 11.6216 23.3624 11.7498 23.2725C11.7731 23.25 11.8081 23.25 11.8314 23.2612C15.8416 25.027 20.1665 25.027 24.13 23.2612C24.1533 23.25 24.1883 23.25 24.2116 23.2725C24.3399 23.3737 24.4681 23.4637 24.5963 23.5649C24.6429 23.5986 24.643 23.6661 24.5847 23.6886C23.9785 24.0373 23.3373 24.3184 22.6728 24.5659C22.6262 24.5771 22.6146 24.6334 22.6262 24.6671C22.9992 25.3532 23.4189 26.0055 23.8736 26.6241C23.9085 26.6353 23.9435 26.6466 23.9785 26.6353C25.9836 26.0392 28.0003 25.1395 30.0986 23.6549C30.122 23.6436 30.1336 23.6211 30.1336 23.5986C30.6465 18.5037 29.2826 14.0836 26.5198 10.1584C26.5081 10.1472 26.4965 10.1359 26.4732 10.1359ZM13.9414 20.9106C12.7407 20.9106 11.7381 19.8421 11.7381 18.5262C11.7381 17.2103 12.7174 16.1418 13.9414 16.1418C15.1771 16.1418 16.1563 17.2216 16.1447 18.5262C16.1447 19.8421 15.1654 20.9106 13.9414 20.9106ZM22.0667 20.9106C20.8659 20.9106 19.8634 19.8421 19.8634 18.5262C19.8634 17.2103 20.8426 16.1418 22.0667 16.1418C23.3023 16.1418 24.2816 17.2216 24.2699 18.5262C24.2699 19.8421 23.3023 20.9106 22.0667 20.9106Z" fill="white"/>
</svg>
