<svg width="36" height="36" viewBox="0 0 36 36" fill="none" xmlns="http://www.w3.org/2000/svg">
<path d="M24.75 18C26.82 18 28.485 16.32 28.485 14.25C28.485 12.18 26.82 10.5 24.75 10.5C22.68 10.5 21 12.18 21 14.25C21 16.32 22.68 18 24.75 18ZM13.5 16.5C15.99 16.5 17.985 14.49 17.985 12C17.985 9.51 15.99 7.5 13.5 7.5C11.01 7.5 9 9.51 9 12C9 14.49 11.01 16.5 13.5 16.5ZM24.75 21C22.005 21 16.5 22.38 16.5 25.125V27C16.5 27.825 17.175 28.5 18 28.5H31.5C32.325 28.5 33 27.825 33 27V25.125C33 22.38 27.495 21 24.75 21ZM13.5 19.5C10.005 19.5 3 21.255 3 24.75V27C3 27.825 3.675 28.5 4.5 28.5H13.5V25.125C13.5 23.85 13.995 21.615 17.055 19.92C15.75 19.65 14.49 19.5 13.5 19.5Z" fill="white"/>
</svg>
