<svg width="36" height="36" viewBox="0 0 36 36" fill="none" xmlns="http://www.w3.org/2000/svg">
<rect width="36" height="36" rx="18" fill="#DF9B16"/>
<path d="M23 21.4335C22.3667 21.4335 21.8 21.6835 21.3667 22.0752L15.425 18.6169C15.4667 18.4252 15.5 18.2335 15.5 18.0335C15.5 17.8335 15.4667 17.6419 15.425 17.4502L21.3 14.0252C21.75 14.4419 22.3417 14.7002 23 14.7002C24.3833 14.7002 25.5 13.5835 25.5 12.2002C25.5 10.8169 24.3833 9.7002 23 9.7002C21.6167 9.7002 20.5 10.8169 20.5 12.2002C20.5 12.4002 20.5333 12.5919 20.575 12.7835L14.7 16.2085C14.25 15.7919 13.6583 15.5335 13 15.5335C11.6167 15.5335 10.5 16.6502 10.5 18.0335C10.5 19.4169 11.6167 20.5335 13 20.5335C13.6583 20.5335 14.25 20.2752 14.7 19.8585L20.6333 23.3252C20.5917 23.5002 20.5667 23.6835 20.5667 23.8669C20.5667 25.2085 21.6583 26.3002 23 26.3002C24.3417 26.3002 25.4333 25.2085 25.4333 23.8669C25.4333 22.5252 24.3417 21.4335 23 21.4335ZM23 11.3669C23.4583 11.3669 23.8333 11.7419 23.8333 12.2002C23.8333 12.6585 23.4583 13.0335 23 13.0335C22.5417 13.0335 22.1667 12.6585 22.1667 12.2002C22.1667 11.7419 22.5417 11.3669 23 11.3669ZM13 18.8669C12.5417 18.8669 12.1667 18.4919 12.1667 18.0335C12.1667 17.5752 12.5417 17.2002 13 17.2002C13.4583 17.2002 13.8333 17.5752 13.8333 18.0335C13.8333 18.4919 13.4583 18.8669 13 18.8669ZM23 24.7169C22.5417 24.7169 22.1667 24.3419 22.1667 23.8835C22.1667 23.4252 22.5417 23.0502 23 23.0502C23.4583 23.0502 23.8333 23.4252 23.8333 23.8835C23.8333 24.3419 23.4583 24.7169 23 24.7169Z" fill="white"/>
</svg>
