<svg width="18" height="18" viewBox="0 0 18 18" fill="none" xmlns="http://www.w3.org/2000/svg">
<g filter="url(#filter0_b_433_6101)">
<circle cx="9" cy="9" r="9" fill="url(#paint0_linear_433_6101)" fill-opacity="0.2"/>
<circle cx="9" cy="9" r="8.775" stroke="url(#paint1_linear_433_6101)" stroke-width="0.45"/>
</g>
<path d="M5.79639 13.8998V4.61184H10.2649C10.8589 4.61184 11.3404 4.68384 11.7094 4.82784C12.0784 4.96284 12.3619 5.16534 12.5599 5.43534C12.7579 5.69634 12.8929 6.02034 12.9649 6.40734C13.0369 6.79434 13.0729 7.23984 13.0729 7.74384C13.0729 8.20284 13.0369 8.62584 12.9649 9.01284C12.9019 9.39084 12.7714 9.71934 12.5734 9.99834C12.3844 10.2773 12.1009 10.4933 11.7229 10.6463C11.3449 10.7993 10.8454 10.8758 10.2244 10.8758H8.14539V13.8998H5.79639ZM8.14539 9.09384H9.31989C9.64389 9.09384 9.89589 9.07584 10.0759 9.03984C10.2649 9.00384 10.4044 8.94084 10.4944 8.85084C10.5844 8.75184 10.6429 8.61684 10.6699 8.44584C10.6969 8.26584 10.7104 8.03184 10.7104 7.74384C10.7104 7.45584 10.6969 7.22184 10.6699 7.04184C10.6519 6.86184 10.5979 6.72684 10.5079 6.63684C10.4179 6.53784 10.2829 6.47484 10.1029 6.44784C9.92289 6.41184 9.67539 6.39384 9.36039 6.39384H8.14539V9.09384Z" fill="url(#paint2_linear_433_6101)"/>
<defs>
<filter id="filter0_b_433_6101" x="-15" y="-15" width="48" height="48" filterUnits="userSpaceOnUse" color-interpolation-filters="sRGB">
<feFlood flood-opacity="0" result="BackgroundImageFix"/>
<feGaussianBlur in="BackgroundImage" stdDeviation="7.5"/>
<feComposite in2="SourceAlpha" operator="in" result="effect1_backgroundBlur_433_6101"/>
<feBlend mode="normal" in="SourceGraphic" in2="effect1_backgroundBlur_433_6101" result="shape"/>
</filter>
<linearGradient id="paint0_linear_433_6101" x1="0" y1="0" x2="20.5197" y2="3.58731" gradientUnits="userSpaceOnUse">
<stop stop-color="#CD28E8"/>
<stop offset="1" stop-color="#0BEBD6"/>
</linearGradient>
<linearGradient id="paint1_linear_433_6101" x1="0" y1="0" x2="20.5197" y2="3.58731" gradientUnits="userSpaceOnUse">
<stop stop-color="#CD28E8"/>
<stop offset="1" stop-color="#0BEBD6"/>
</linearGradient>
<linearGradient id="paint2_linear_433_6101" x1="4.83789" y1="1.97447" x2="11.3199" y2="17.1215" gradientUnits="userSpaceOnUse">
<stop stop-color="#74EAE5"/>
<stop offset="1" stop-color="#166C9E"/>
</linearGradient>
</defs>
</svg>
