<svg width="18" height="18" viewBox="0 0 18 18" fill="none" xmlns="http://www.w3.org/2000/svg">
<g filter="url(#filter0_b_433_6084)">
<rect width="18" height="18" rx="9" fill="url(#paint0_linear_433_6084)" fill-opacity="0.2"/>
<path d="M9.07471 11.0157L11.5426 11.017C11.6024 11.017 11.6431 11.0781 11.6196 11.1334L11.2683 11.9582C11.2419 12.0202 11.1812 12.06 11.1142 12.06L7.62263 12.0587C7.50247 12.0587 7.42166 11.936 7.46855 11.8255L10.2789 5.22207C10.3024 5.1668 10.2617 5.10567 10.2019 5.10567H7.31028C7.27678 5.10567 7.24622 5.12577 7.23324 5.15675L4.3136 12.011C4.28387 12.0809 4.18338 12.078 4.15784 12.0064L3.75756 10.8859C3.72908 10.8068 3.73202 10.7197 3.76468 10.6422L6.52269 4.16107C6.54907 4.09952 6.60978 4.05933 6.67678 4.05933H11.6552C11.7754 4.05933 11.8562 4.18201 11.8093 4.29255L8.99767 10.8993C8.97422 10.9546 9.01441 11.0157 9.07471 11.0157Z" fill="url(#paint1_linear_433_6084)"/>
<path d="M14.2349 9.80901L12.5198 13.8391C12.4935 13.901 12.4328 13.9408 12.3658 13.9408H4.96094C4.72102 13.9408 4.55857 13.6954 4.65277 13.4748L7.90026 5.84344C7.92664 5.78148 7.98735 5.7417 8.05434 5.7417L8.95121 5.74212C9.01109 5.74212 9.0517 5.80325 9.02825 5.85852L6.08391 12.7776C6.06047 12.8329 6.10108 12.894 6.16095 12.894H11.677C11.744 12.894 11.8047 12.8538 11.8311 12.7923L12.805 10.5032C12.8284 10.448 12.7878 10.3868 12.7279 10.3868L10.302 10.386C10.2421 10.386 10.2015 10.3249 10.2249 10.2696L10.5762 9.44432C10.6026 9.38235 10.6633 9.34257 10.7303 9.34257L13.9267 9.34383C14.1666 9.34299 14.3287 9.58793 14.2349 9.80901Z" fill="url(#paint2_linear_433_6084)"/>
<rect x="0.15381" y="0.15381" width="17.6924" height="17.6924" rx="8.84619" stroke="url(#paint3_linear_433_6084)" stroke-width="0.307619"/>
</g>
<defs>
<filter id="filter0_b_433_6084" x="-32.381" y="-32.381" width="82.7619" height="82.7619" filterUnits="userSpaceOnUse" color-interpolation-filters="sRGB">
<feFlood flood-opacity="0" result="BackgroundImageFix"/>
<feGaussianBlur in="BackgroundImage" stdDeviation="16.1905"/>
<feComposite in2="SourceAlpha" operator="in" result="effect1_backgroundBlur_433_6084"/>
<feBlend mode="normal" in="SourceGraphic" in2="effect1_backgroundBlur_433_6084" result="shape"/>
</filter>
<linearGradient id="paint0_linear_433_6084" x1="0" y1="0" x2="20.5197" y2="3.58731" gradientUnits="userSpaceOnUse">
<stop stop-color="#CD28E8"/>
<stop offset="1" stop-color="#0BEBD6"/>
</linearGradient>
<linearGradient id="paint1_linear_433_6084" x1="3.73788" y1="8.06074" x2="11.8226" y2="8.06074" gradientUnits="userSpaceOnUse">
<stop stop-color="#0D6FA0"/>
<stop offset="0.1198" stop-color="#0D8CAD"/>
<stop offset="0.287" stop-color="#0CAEBC"/>
<stop offset="0.4579" stop-color="#0CC9C7"/>
<stop offset="0.6317" stop-color="#0BDCCF"/>
<stop offset="0.81" stop-color="#0BE7D4"/>
<stop offset="1" stop-color="#0BEBD6"/>
</linearGradient>
<linearGradient id="paint2_linear_433_6084" x1="4.62573" y1="9.84127" x2="14.2619" y2="9.84127" gradientUnits="userSpaceOnUse">
<stop stop-color="#0D6FA0"/>
<stop offset="0.1198" stop-color="#0D8CAD"/>
<stop offset="0.287" stop-color="#0CAEBC"/>
<stop offset="0.4579" stop-color="#0CC9C7"/>
<stop offset="0.6317" stop-color="#0BDCCF"/>
<stop offset="0.81" stop-color="#0BE7D4"/>
<stop offset="1" stop-color="#0BEBD6"/>
</linearGradient>
<linearGradient id="paint3_linear_433_6084" x1="0" y1="0" x2="20.5197" y2="3.58731" gradientUnits="userSpaceOnUse">
<stop stop-color="#CD28E8"/>
<stop offset="1" stop-color="#0BEBD6"/>
</linearGradient>
</defs>
</svg>
