<svg width="206" height="206" viewBox="0 0 206 206" fill="none" xmlns="http://www.w3.org/2000/svg">
<path d="M103 0.5C46.42 0.5 0.5 46.42 0.5 103C0.5 159.58 46.42 205.5 103 205.5C159.58 205.5 205.5 159.58 205.5 103C205.5 46.42 159.58 0.5 103 0.5ZM103 185C57.695 185 21 148.305 21 103C21 84.0375 27.4575 66.6125 38.3225 52.775L153.225 167.678C139.388 178.543 121.963 185 103 185ZM167.678 153.225L52.775 38.3225C66.6125 27.4575 84.0375 21 103 21C148.305 21 185 57.695 185 103C185 121.963 178.543 139.388 167.678 153.225Z" fill="#CF2727"/>
</svg>
