<svg width="81" height="53" viewBox="0 0 81 53" fill="none" xmlns="http://www.w3.org/2000/svg">
<path d="M67.0602 26.6246C67.0602 41.191 55.2518 52.9993 40.6854 52.9993C26.1191 52.9993 14.3107 41.191 14.3107 26.6246C14.3107 12.0582 26.1191 0.249878 40.6854 0.249878C55.2518 0.249878 67.0602 12.0582 67.0602 26.6246Z" fill="url(#paint0_linear_3202_10253)"/>
<path d="M67.0602 26.6246C67.0602 41.191 55.2518 52.9993 40.6854 52.9993C26.1191 52.9993 14.3107 41.191 14.3107 26.6246C14.3107 12.0582 26.1191 0.249878 40.6854 0.249878C55.2518 0.249878 67.0602 12.0582 67.0602 26.6246Z" fill="url(#paint1_radial_3202_10253)"/>
<path d="M65.0186 26.6246C65.0186 40.0637 54.1241 50.9582 40.685 50.9582C27.246 50.9582 16.3514 40.0637 16.3514 26.6246C16.3514 13.1855 27.246 2.29101 40.685 2.29101C54.1241 2.29101 65.0186 13.1855 65.0186 26.6246Z" fill="url(#paint2_linear_3202_10253)"/>
<path d="M65.0186 26.6246C65.0186 40.0637 54.1241 50.9582 40.685 50.9582C27.246 50.9582 16.3514 40.0637 16.3514 26.6246C16.3514 13.1855 27.246 2.29101 40.685 2.29101C54.1241 2.29101 65.0186 13.1855 65.0186 26.6246Z" fill="url(#paint3_linear_3202_10253)" fill-opacity="0.2"/>
<path d="M68.1211 35.5137C62.8581 34.9932 56.2209 29.6479 52.3121 26.8219C51.7612 27.1371 50.6634 28.3057 50.9727 28.7701C52.1972 30.6089 54.9237 35.6028 59.3723 39.0247C63.4368 42.1512 68.8934 41.1551 69.6132 37.0265C69.6441 36.1833 68.9617 35.5968 68.1211 35.5137Z" fill="url(#paint4_linear_3202_10253)"/>
<path d="M68.2614 39.5378C63.3789 39.5319 58.3275 35.9674 53.3755 29.997C53.5639 29.3097 53.7781 28.6686 54.0133 28.071C57.9681 30.9892 63.5603 35.0627 68.1207 35.5138C68.9613 35.5969 69.6437 36.1834 69.6128 37.0266C69.4312 38.0684 68.9478 38.9108 68.2614 39.5378Z" fill="white"/>
<path d="M75.4467 27.4746C68.7897 28.8282 59.9182 28.435 54.1227 26.4389C53.5548 27.0354 52.527 28.385 53.1165 28.7706C58.4747 32.2756 60.9757 34.415 66.9902 37.0889C72.9519 39.7392 78.3659 34.1229 77.8105 28.7705C77.5543 27.7214 76.51 27.2584 75.4467 27.4746Z" fill="url(#paint5_linear_3202_10253)"/>
<path d="M77.8216 28.7705C78.3716 34.0724 73.0645 39.6333 67.1698 37.1617C67.059 37.1189 67.0012 37.0889 67.0012 37.0889C67.0575 37.1139 67.1137 37.1382 67.1698 37.1617C67.8339 37.4183 70.4026 38.1361 73.8635 35.6293C77.9021 32.704 77.8216 28.7705 77.8216 28.7705Z" fill="url(#paint6_radial_3202_10253)"/>
<path d="M77.143 32.8155C77.7001 31.547 77.9535 30.15 77.8104 28.7706C77.5541 27.7215 76.5098 27.2585 75.4465 27.4747C68.7895 28.8282 59.918 28.4351 54.1225 26.439C53.8538 26.7212 53.4821 27.1721 53.2275 27.6097C61.2453 32.6445 71.9525 36.1646 77.143 32.8155Z" fill="white"/>
<path d="M76.2578 17.8935C69.7129 21.8298 60.4286 24.4856 54.3571 25.1412C54.074 25.9278 53.6727 27.5607 54.3571 27.6977C60.4346 28.9141 67.4117 30.4607 74.2744 30.2449C80.5268 30.0482 81.7413 22.309 79.9017 18.4201C79.1507 16.8327 77.4683 17.1654 76.2578 17.8935Z" fill="url(#paint7_linear_3202_10253)"/>
<path d="M80.6221 21.033C80.5095 20.0727 80.2676 19.174 79.911 18.4201C79.1601 16.8327 77.4776 17.1654 76.2671 17.8935C69.7222 21.8298 60.4379 24.4856 54.3664 25.1412C54.2318 25.5153 54.0704 26.0809 54.0118 26.5859C67.3638 27.6105 75.3861 25.0258 80.6221 21.033Z" fill="white"/>
<path d="M69.315 25.9183C74.1566 24.9292 77.7895 23.1857 80.6125 21.033C80.4999 20.0726 80.2581 19.174 79.9014 18.42C79.1505 16.8326 77.468 17.1653 76.2575 17.8934C74.3466 19.0427 72.2023 20.0828 69.9725 20.9959L69.315 25.9183Z" fill="white"/>
<path d="M75.084 24.1905C77.2288 23.3048 79.0531 22.2325 80.6261 21.033C80.5135 20.0726 80.2716 19.174 79.9149 18.42C79.164 16.8326 77.4816 17.1653 76.271 17.8934C76.0889 18.003 75.9046 18.1115 75.7183 18.2191L75.084 24.1905Z" fill="white"/>
<path d="M13.2494 35.5137C18.5124 34.9932 25.1496 29.6479 29.0584 26.8219C29.6093 27.1371 30.7071 28.3057 30.3978 28.7701C29.1733 30.6089 26.4467 35.6028 21.9982 39.0247C17.9337 42.1512 12.4771 41.1551 11.7572 37.0265C11.7263 36.1833 12.4087 35.5968 13.2494 35.5137Z" fill="url(#paint8_linear_3202_10253)"/>
<path d="M13.1091 39.5378C17.9916 39.5319 23.0429 35.9674 27.995 29.997C27.8066 29.3097 27.5924 28.6686 27.3572 28.071C23.4024 30.9892 17.8102 35.0627 13.2498 35.5138C12.4092 35.5969 11.7268 36.1834 11.7577 37.0266C11.9393 38.0684 12.4226 38.9108 13.1091 39.5378Z" fill="white"/>
<path d="M5.92378 27.4746C12.5808 28.8282 21.4523 28.435 27.2478 26.4389C27.8156 27.0354 28.8435 28.385 28.254 28.7706C22.8958 32.2756 20.3948 34.415 14.3803 37.0889C8.41861 39.7392 3.00463 34.1229 3.55994 28.7705C3.81621 27.7214 4.8605 27.2584 5.92378 27.4746Z" fill="url(#paint9_linear_3202_10253)"/>
<path d="M3.54892 28.7705C2.99885 34.0724 8.30595 39.6333 14.2006 37.1617C14.3115 37.1189 14.3693 37.0889 14.3693 37.0889C14.313 37.1139 14.2568 37.1382 14.2006 37.1617C13.5366 37.4183 10.9679 38.1361 7.507 35.6293C3.46837 32.704 3.54892 28.7705 3.54892 28.7705Z" fill="url(#paint10_radial_3202_10253)"/>
<path d="M4.22745 32.8155C3.67038 31.547 3.417 30.15 3.56012 28.7706C3.81639 27.7215 4.86068 27.2585 5.92396 27.4747C12.581 28.8282 21.4525 28.4351 27.248 26.439C27.5167 26.7212 27.8884 27.1721 28.143 27.6097C20.1251 32.6445 9.41803 36.1646 4.22745 32.8155Z" fill="white"/>
<path d="M5.11273 17.8935C11.6576 21.8298 20.9419 24.4856 27.0134 25.1412C27.2965 25.9278 27.6978 27.5607 27.0134 27.6977C20.9359 28.9141 13.9588 30.4607 7.09604 30.2449C0.843666 30.0482 -0.370845 22.309 1.46881 18.4201C2.21974 16.8327 3.9022 17.1654 5.11273 17.8935Z" fill="url(#paint11_linear_3202_10253)"/>
<path d="M0.748366 21.033C0.86098 20.0727 1.10284 19.174 1.4595 18.4201C2.21043 16.8327 3.89289 17.1654 5.10341 17.8935C11.6483 21.8298 20.9326 24.4856 27.0041 25.1412C27.1387 25.5153 27.3001 26.0809 27.3587 26.5859C14.0066 27.6105 5.98436 25.0258 0.748366 21.033Z" fill="white"/>
<path d="M12.0555 25.9183C7.21393 24.9292 3.58096 23.1857 0.757941 21.033C0.870555 20.0726 1.11242 19.174 1.46907 18.42C2.22 16.8326 3.90247 17.1653 5.11299 17.8934C7.02385 19.0427 9.16822 20.0828 11.398 20.9959L12.0555 25.9183Z" fill="white"/>
<path d="M6.2865 24.1905C4.14172 23.3048 2.31734 22.2325 0.744409 21.033C0.857022 20.0726 1.09888 19.174 1.45554 18.42C2.20647 16.8326 3.88894 17.1653 5.09946 17.8934C5.28161 18.003 5.46588 18.1115 5.65214 18.2191L6.2865 24.1905Z" fill="white"/>
<path d="M63.0813 26.6245C63.0813 38.9935 53.0543 49.0206 40.6853 49.0206C28.3163 49.0206 18.2893 38.9935 18.2893 26.6245C18.2893 14.2556 28.3163 4.22851 40.6853 4.22851C53.0543 4.22851 63.0813 14.2556 63.0813 26.6245Z" fill="url(#paint12_linear_3202_10253)"/>
<path d="M59.1942 26.6245C59.1942 36.8467 50.9075 45.1334 40.6853 45.1334C30.4632 45.1334 22.1765 36.8467 22.1765 26.6245C22.1765 16.4024 30.4632 8.1157 40.6853 8.1157C50.9075 8.1157 59.1942 16.4024 59.1942 26.6245Z" fill="url(#paint13_linear_3202_10253)"/>
<path d="M58.1519 26.6245C58.1519 36.2709 50.332 44.0908 40.6857 44.0908C31.0393 44.0908 23.2194 36.2709 23.2194 26.6245C23.2194 16.9782 31.0393 9.1583 40.6857 9.1583C50.332 9.1583 58.1519 16.9782 58.1519 26.6245Z" fill="url(#paint14_linear_3202_10253)"/>
<path d="M28.8914 4.90055C29.067 5.0761 27.5983 6.82936 25.6111 8.81658C23.6239 10.8038 21.8706 12.2724 21.6951 12.0969C21.5195 11.9213 22.9882 10.1681 24.9754 8.18086C26.9626 6.19365 28.7159 4.72501 28.8914 4.90055Z" fill="url(#paint15_radial_3202_10253)"/>
<path d="M30.4509 13.6565C30.2754 13.832 27.8238 11.6651 24.9752 8.81645C22.1266 5.96784 19.9597 3.51628 20.1352 3.34073C20.3108 3.16518 22.7623 5.33213 25.6109 8.18074C28.4595 11.0293 30.6265 13.4809 30.4509 13.6565Z" fill="url(#paint16_radial_3202_10253)"/>
<path d="M26.8323 6.95952C27.6122 7.73939 27.5553 9.06067 26.7053 9.91069C25.8553 10.7607 24.534 10.8176 23.7541 10.0377C22.9743 9.25783 23.0311 7.93655 23.8812 7.08653C24.7312 6.23652 26.0525 6.17965 26.8323 6.95952Z" fill="url(#paint17_radial_3202_10253)"/>
<path d="M27.7068 6.08554C29.0095 7.38828 28.9853 9.52469 27.6526 10.8573C26.32 12.19 24.1836 12.2142 22.8808 10.9115C21.5781 9.60874 21.6023 7.47233 22.935 6.13968C24.2676 4.80703 26.404 4.78279 27.7068 6.08554Z" fill="url(#paint18_radial_3202_10253)"/>
<path d="M32.0055 39.8125L33.714 29.8552L40.9484 27.5054L32.0055 39.8125Z" fill="url(#paint19_linear_3202_10253)"/>
<path d="M40.9495 27.5054L26.4805 22.8042L33.7151 29.8552L40.9495 27.5054Z" fill="url(#paint20_linear_3202_10253)"/>
<path d="M40.9529 27.5065L32.0066 39.8116L40.9521 35.1129L40.9529 27.5065Z" fill="url(#paint21_linear_3202_10253)"/>
<path d="M49.894 39.8147L40.9519 35.1128L40.9527 27.5064L49.894 39.8147Z" fill="url(#paint22_linear_3202_10253)"/>
<path d="M55.4166 22.8044L48.1834 29.857L40.9504 27.5041L55.4166 22.8044Z" fill="url(#paint23_linear_3202_10253)"/>
<path d="M49.887 39.8144L48.1822 29.8564L40.9488 27.5038L49.887 39.8144Z" fill="url(#paint24_linear_3202_10253)"/>
<path d="M40.9514 12.2907L45.422 21.3507L40.9504 27.5039L40.9514 12.2907Z" fill="url(#paint25_linear_3202_10253)"/>
<path d="M40.9495 27.5038L55.4185 22.8026L45.4211 21.3506L40.9495 27.5038Z" fill="url(#paint26_linear_3202_10253)"/>
<path d="M40.9891 27.5514V12.269L36.5317 21.3695L40.9891 27.5514Z" fill="url(#paint27_linear_3202_10253)"/>
<path d="M26.5023 22.8078L36.5129 21.3429L40.9887 27.5514L26.5023 22.8078Z" fill="url(#paint28_linear_3202_10253)"/>
<path d="M41.0041 18.7248L43.5543 24.022L49.4627 24.8357L45.185 28.9911L46.3513 35.0321L40.958 32.3119L35.5507 35.0356L36.504 29.0435L32.3415 24.8077L38.2825 24.1435L41.0041 18.7248Z" fill="url(#paint29_linear_3202_10253)"/>
<path d="M32.3415 24.8077L36.5006 29.0469L33.061 25.0556L38.6062 24.4166L41.0101 19.7234L43.5525 24.0168L41.0101 18.7108L38.3059 23.9068L32.3415 24.8077Z" fill="white"/>
<path d="M46.3861 35.0322L40.9667 32.3224L45.8136 34.1801L45.199 28.9841L46.3861 35.0322Z" fill="white"/>
<path d="M35.5474 35.0322L36.5255 29.0679L35.8686 34.6131L40.9389 32.3364L35.5474 35.0322Z" fill="white"/>
<defs>
<linearGradient id="paint0_linear_3202_10253" x1="62.9323" y1="49.7618" x2="41.0452" y2="-4.45516" gradientUnits="userSpaceOnUse">
<stop stop-color="#B9EEFF"/>
<stop offset="0.523284" stop-color="#61A2D0"/>
<stop offset="1" stop-color="#FEFEFF"/>
</linearGradient>
<radialGradient id="paint1_radial_3202_10253" cx="0" cy="0" r="1" gradientUnits="userSpaceOnUse" gradientTransform="translate(42.2121 -6.4835) rotate(78.5003) scale(15.7059 23.2844)">
<stop stop-color="white"/>
<stop offset="1" stop-color="white" stop-opacity="0"/>
</radialGradient>
<linearGradient id="paint2_linear_3202_10253" x1="37.7595" y1="0.249878" x2="39.0325" y2="53.0392" gradientUnits="userSpaceOnUse">
<stop stop-color="#61A2D0"/>
<stop offset="1" stop-color="#E8F4FF"/>
</linearGradient>
<linearGradient id="paint3_linear_3202_10253" x1="17.4929" y1="47.3842" x2="30.151" y2="12.8778" gradientUnits="userSpaceOnUse">
<stop stop-color="#3F698F"/>
<stop offset="1" stop-color="#3F518F" stop-opacity="0"/>
</linearGradient>
<linearGradient id="paint4_linear_3202_10253" x1="67.7606" y1="23.4657" x2="77.6632" y2="40.5444" gradientUnits="userSpaceOnUse">
<stop stop-color="#8DCBDE"/>
<stop offset="1" stop-color="#EEFEFF"/>
</linearGradient>
<linearGradient id="paint5_linear_3202_10253" x1="80.8164" y1="20.8777" x2="31.0779" y2="37.4902" gradientUnits="userSpaceOnUse">
<stop stop-color="#8DDED9"/>
<stop offset="1" stop-color="#EEFCFF"/>
</linearGradient>
<radialGradient id="paint6_radial_3202_10253" cx="0" cy="0" r="1" gradientUnits="userSpaceOnUse" gradientTransform="translate(82.889 34.3061) rotate(-170.241) scale(29.2818 133.04)">
<stop stop-color="white"/>
<stop offset="1" stop-color="white" stop-opacity="0"/>
</radialGradient>
<linearGradient id="paint7_linear_3202_10253" x1="26.7988" y1="31.5906" x2="72.2014" y2="41.5194" gradientUnits="userSpaceOnUse">
<stop stop-color="#DEF5FF"/>
<stop offset="1" stop-color="#8DCFDD"/>
</linearGradient>
<linearGradient id="paint8_linear_3202_10253" x1="67.7606" y1="23.4657" x2="77.6632" y2="40.5444" gradientUnits="userSpaceOnUse">
<stop stop-color="#8DCBDE"/>
<stop offset="1" stop-color="#EEFEFF"/>
</linearGradient>
<linearGradient id="paint9_linear_3202_10253" x1="80.8164" y1="20.8777" x2="31.0779" y2="37.4902" gradientUnits="userSpaceOnUse">
<stop stop-color="#8DDED9"/>
<stop offset="1" stop-color="#EEFCFF"/>
</linearGradient>
<radialGradient id="paint10_radial_3202_10253" cx="0" cy="0" r="1" gradientUnits="userSpaceOnUse" gradientTransform="translate(82.889 34.3061) rotate(-170.241) scale(29.2818 133.04)">
<stop stop-color="white"/>
<stop offset="1" stop-color="white" stop-opacity="0"/>
</radialGradient>
<linearGradient id="paint11_linear_3202_10253" x1="26.7988" y1="31.5906" x2="72.2014" y2="41.5194" gradientUnits="userSpaceOnUse">
<stop stop-color="#DEF5FF"/>
<stop offset="1" stop-color="#8DCFDD"/>
</linearGradient>
<linearGradient id="paint12_linear_3202_10253" x1="37.7595" y1="0.249878" x2="39.0325" y2="53.0392" gradientUnits="userSpaceOnUse">
<stop stop-color="#9DE2FF"/>
<stop offset="1" stop-color="#C8E9F8"/>
</linearGradient>
<linearGradient id="paint13_linear_3202_10253" x1="37.7595" y1="0.249878" x2="39.0325" y2="53.0392" gradientUnits="userSpaceOnUse">
<stop stop-color="#8BD6E0"/>
<stop offset="1" stop-color="#6FB6DD"/>
</linearGradient>
<linearGradient id="paint14_linear_3202_10253" x1="11.9311" y1="4.46792" x2="39.8434" y2="61.443" gradientUnits="userSpaceOnUse">
<stop offset="0.25" stop-color="#306583"/>
<stop offset="0.708333" stop-color="#98DAFF"/>
</linearGradient>
<radialGradient id="paint15_radial_3202_10253" cx="0" cy="0" r="1" gradientUnits="userSpaceOnUse" gradientTransform="translate(40.6852 26.6246) rotate(90) scale(26.3747 40)">
<stop stop-color="white"/>
<stop offset="1" stop-color="white" stop-opacity="0"/>
</radialGradient>
<radialGradient id="paint16_radial_3202_10253" cx="0" cy="0" r="1" gradientUnits="userSpaceOnUse" gradientTransform="translate(40.6852 26.6246) rotate(90) scale(26.3747 40)">
<stop stop-color="white"/>
<stop offset="1" stop-color="white" stop-opacity="0"/>
</radialGradient>
<radialGradient id="paint17_radial_3202_10253" cx="0" cy="0" r="1" gradientUnits="userSpaceOnUse" gradientTransform="translate(40.6852 26.6246) rotate(90) scale(26.3747 40)">
<stop stop-color="white"/>
<stop offset="1" stop-color="white" stop-opacity="0"/>
</radialGradient>
<radialGradient id="paint18_radial_3202_10253" cx="0" cy="0" r="1" gradientUnits="userSpaceOnUse" gradientTransform="translate(40.6852 26.6246) rotate(90) scale(26.3747 40)">
<stop stop-color="white"/>
<stop offset="1" stop-color="white" stop-opacity="0"/>
</radialGradient>
<linearGradient id="paint19_linear_3202_10253" x1="47.5767" y1="27.9786" x2="33.6589" y2="2.26209" gradientUnits="userSpaceOnUse">
<stop stop-color="#81E1FF"/>
<stop offset="1" stop-color="#00DCEA"/>
</linearGradient>
<linearGradient id="paint20_linear_3202_10253" x1="42.3112" y1="34.7727" x2="39.5436" y2="13.2773" gradientUnits="userSpaceOnUse">
<stop stop-color="#81F7FF"/>
<stop offset="1" stop-color="#00C0EA"/>
</linearGradient>
<linearGradient id="paint21_linear_3202_10253" x1="-124.928" y1="10.2567" x2="-121.462" y2="-10.6118" gradientUnits="userSpaceOnUse">
<stop stop-color="#81FFF7"/>
<stop offset="1" stop-color="#00CEEA"/>
</linearGradient>
<linearGradient id="paint22_linear_3202_10253" x1="39.7705" y1="33.9774" x2="42.4806" y2="-1.53746" gradientUnits="userSpaceOnUse">
<stop stop-color="#81FFF7"/>
<stop offset="1" stop-color="#00CEEA"/>
</linearGradient>
<linearGradient id="paint23_linear_3202_10253" x1="24.5005" y1="-4.55155" x2="75.7526" y2="21.28" gradientUnits="userSpaceOnUse">
<stop stop-color="#81E8FF"/>
<stop offset="0.555463" stop-color="#00A4EA"/>
</linearGradient>
<linearGradient id="paint24_linear_3202_10253" x1="41.2356" y1="-4.53066" x2="65.4863" y2="18.964" gradientUnits="userSpaceOnUse">
<stop stop-color="#81F0FF"/>
<stop offset="1" stop-color="#00C0EA"/>
</linearGradient>
<linearGradient id="paint25_linear_3202_10253" x1="80.7718" y1="26.605" x2="58.883" y2="53.2964" gradientUnits="userSpaceOnUse">
<stop stop-color="#4FFFEA"/>
<stop offset="1" stop-color="#00C0EA"/>
</linearGradient>
<linearGradient id="paint26_linear_3202_10253" x1="58.7426" y1="15.385" x2="54.9542" y2="40.2459" gradientUnits="userSpaceOnUse">
<stop stop-color="#88EAFF"/>
<stop offset="1" stop-color="#00DCEA"/>
</linearGradient>
<linearGradient id="paint27_linear_3202_10253" x1="42.3112" y1="34.7727" x2="39.5436" y2="13.2773" gradientUnits="userSpaceOnUse">
<stop stop-color="#D9FDFF"/>
<stop offset="1" stop-color="#31CEFF"/>
</linearGradient>
<linearGradient id="paint28_linear_3202_10253" x1="42.3112" y1="34.7727" x2="39.5436" y2="13.2773" gradientUnits="userSpaceOnUse">
<stop stop-color="#D9FDFF"/>
<stop offset="1" stop-color="#31CEFF"/>
</linearGradient>
<linearGradient id="paint29_linear_3202_10253" x1="24.7122" y1="9.73299" x2="46.0101" y2="56.1511" gradientUnits="userSpaceOnUse">
<stop stop-color="#3CDCFF"/>
<stop offset="1" stop-color="#98F9FF"/>
</linearGradient>
</defs>
</svg>
