<svg width="45" height="42" viewBox="0 0 45 42" fill="none" xmlns="http://www.w3.org/2000/svg">
<path d="M43.3802 15.1242C43.6874 14.7461 43.6775 14.2017 43.3567 13.8351L32.4248 1.3415C32.2349 1.12448 31.9606 1 31.6722 1H12.9319C12.6435 1 12.3692 1.12448 12.1793 1.3415L1.24742 13.8351C0.926641 14.2017 0.9167 14.7461 1.22389 15.1242L21.5259 40.1113C21.7158 40.345 22.0009 40.4807 22.3021 40.4807C22.6032 40.4807 22.8883 40.345 23.0782 40.1113L43.3802 15.1242Z" fill="#38ACFF" stroke="#042360" stroke-width="2" stroke-linecap="round" stroke-linejoin="round"/>
<path d="M31.6722 2L42.6041 14.4936H2L12.9319 2H31.6722Z" fill="#63BDFF"/>
<path d="M42.6048 14.4936L22.3027 39.4807V2H31.6729L42.6048 14.4936Z" fill="#2D88F3"/>
<path d="M42.6048 14.4936H22.3027V2H31.6729L42.6048 14.4936Z" fill="#53A1FE"/>
<path d="M2.00067 14.4936L22.3027 39.4807L11.8914 14.4936L22.3027 2H12.9326L2.00067 14.4936Z" fill="#46CAF3"/>
<path d="M13.4531 2L2.00067 14.4936H11.8914L22.3027 2H13.4531Z" fill="#68DBFF"/>
<path d="M2.00067 14.4936L22.3027 39.4807L5.64463 14.4936L16.5765 2H12.9326L2.00067 14.4936Z" fill="#C1E9FF"/>
<path d="M12.9342 2L2.00229 14.4936H5.64625L16.5781 2H12.9342Z" fill="#D8F1FF"/>
<path d="M42.6048 14.4936L22.3027 39.4807L32.714 14.4936L22.3027 2H31.6729L42.6048 14.4936Z" fill="#4E5CDE"/>
<path d="M31.6729 2L42.6048 14.4936H32.714L22.3027 2H31.6729Z" fill="#6A78F5"/>
<path d="M42.6048 14.4936L22.3027 39.4807L38.9608 14.4936L28.029 2H31.6729L42.6048 14.4936Z" fill="#2D88F3"/>
<path d="M31.6713 2L42.6032 14.4936H38.9592L28.0273 2H31.6713Z" fill="#52A1FE"/>
<path d="M4.08008 13.453L10.8474 5.64453" stroke="white" stroke-width="2" stroke-linecap="round" stroke-linejoin="round"/>
<path d="M13.9766 13.453L20.7439 5.64453" stroke="#8FD0FF" stroke-width="2" stroke-linecap="round" stroke-linejoin="round"/>
</svg>
