<svg width="27" height="29" viewBox="0 0 27 29" fill="none" xmlns="http://www.w3.org/2000/svg">
<path d="M8.67312 14.092C8.66378 14.1013 8.65756 14.1106 8.65133 14.1167C8.51435 14.2712 8.36181 14.3855 8.19682 14.4628C8.04739 14.5308 7.88862 14.5678 7.72674 14.5678C7.6458 14.5678 7.56797 14.5586 7.48703 14.5431L8.03805 13.5822C8.38983 13.1836 8.54237 12.3402 8.35559 11.8056C8.21861 11.4163 7.97267 11.37 7.89173 11.3576L7.85749 11.3515C6.3165 10.9374 4.92494 10.1619 3.75441 9.12377C3.57074 8.96002 3.3964 8.79008 3.22207 8.61706C3.03528 8.42241 2.85161 8.22467 2.67727 8.01766C2.28502 7.55111 1.92701 7.05058 1.6157 6.51915C0.74092 5.04536 0.183673 3.34293 0.0373573 1.52618L0 1.08435L0.217918 0.945312L4.82532 1.08435L4.80664 1.50764C4.80664 1.51691 4.76928 2.66319 5.44172 3.37073C5.59426 3.5314 5.77482 3.66117 5.9834 3.75386C6.24178 3.86818 6.54376 3.93306 6.88309 3.93924L7.101 4.8229C6.78347 4.81363 6.25112 4.69931 5.9834 4.61898C5.53511 4.48303 5.1522 4.2513 4.84089 3.9207C4.2276 3.27186 4.05327 2.40365 4.00657 1.89385H0.893462C1.01176 2.8702 1.2577 3.80947 1.6157 4.68386C1.90211 5.38831 2.26012 6.0526 2.67727 6.66745C2.8485 6.91772 3.02906 7.16181 3.22207 7.39353C3.39018 7.60054 3.56762 7.80138 3.75441 7.99294C4.93117 9.21028 6.40055 10.1125 8.05673 10.5605C8.12522 10.5728 8.1937 10.5945 8.25597 10.6161C8.66067 10.7582 8.96576 11.0796 9.12764 11.5399C9.40782 12.3371 9.20235 13.4741 8.67312 14.092Z" fill="url(#paint0_linear_2963_5733)"/>
<path opacity="0.3" d="M4.35802 1.62807L4.00624 1.89687H0.967848L0.833984 1.41797L4.35802 1.62807Z" fill="#FFD058"/>
<path opacity="0.2" d="M8.67242 14.0923C8.66308 14.1016 8.65686 14.1108 8.65063 14.117C8.51365 14.2715 8.36111 14.3858 8.19612 14.463C8.04669 14.531 7.88792 14.5681 7.72604 14.5681C7.6451 14.5681 7.56727 14.5588 7.48633 14.5434L7.70425 14.4043L8.67242 14.0923Z" fill="#FFD058"/>
<path d="M8.87008 13.9808C8.73311 14.1353 8.57745 14.2496 8.41557 14.3268C8.26614 14.3948 8.10737 14.4319 7.94549 14.4319C7.86455 14.4319 7.78672 14.4226 7.70578 14.4072L8.2568 13.4463C8.60858 13.0477 8.76112 12.2042 8.57434 11.6697C8.43736 11.2804 8.19143 11.234 8.11048 11.2186L8.07935 11.2124C6.53836 10.7984 5.1468 10.0229 3.97627 8.98473C3.7926 8.82098 3.61515 8.65104 3.44393 8.47802C3.25715 8.28337 3.07347 8.08563 2.89914 7.87862C2.50689 7.41207 2.14888 6.91154 1.83757 6.38011C0.95967 4.90323 0.402424 3.2008 0.252994 1.38405L0.21875 0.945312H5.04407L5.02539 1.3686C5.02539 1.37787 4.99115 2.52415 5.66047 3.2317C5.81301 3.39236 5.99357 3.51904 6.20215 3.61482C6.46054 3.72914 6.76251 3.79402 7.10184 3.8002L7.08316 4.6128C6.76562 4.60353 6.47299 4.56027 6.20215 4.47994C5.75386 4.34399 5.37095 4.11226 5.05964 3.78166C4.44635 3.13283 4.27202 2.26462 4.22532 1.75482H1.11221C1.23051 2.73116 1.47645 3.67043 1.83445 4.54482C2.12086 5.25237 2.47887 5.91356 2.89602 6.52841C3.06725 6.77868 3.24781 7.02277 3.44082 7.2545C3.60893 7.46151 3.78637 7.66234 3.97316 7.8539C5.14992 9.07125 6.6193 9.97344 8.27548 10.4214C8.34397 10.4338 8.41246 10.4554 8.47472 10.4771C8.87942 10.6192 9.18762 10.9405 9.3495 11.4009C9.62968 12.2073 9.41488 13.3628 8.87008 13.9808Z" fill="url(#paint1_linear_2963_5733)"/>
<path opacity="0.3" d="M8.86858 13.9808C8.7316 14.1353 8.57594 14.2496 8.41406 14.3268C9.25771 12.8283 8.79697 11.2495 8.47321 10.4771C8.87792 10.6192 9.18611 10.9405 9.34799 11.4009C9.62817 12.2073 9.41337 13.3628 8.86858 13.9808Z" fill="#FFD058"/>
<path opacity="0.3" d="M6.19727 3.61475C6.45565 3.72907 6.75763 3.79395 7.09695 3.80013L7.07828 4.61272C6.76074 4.60345 6.46811 4.5602 6.19727 4.47986V3.61475Z" fill="#FFD058"/>
<path d="M26.6753 1.08467L26.638 1.52341C26.5072 3.15168 26.0434 4.68727 25.3211 6.04983C25.1748 6.32173 25.0223 6.58744 24.8573 6.84389C24.6954 7.09724 24.521 7.34442 24.3405 7.58542C24.0447 7.97163 23.7272 8.33622 23.3879 8.67917C22.1302 9.94286 20.5674 10.879 18.8178 11.3487L18.7836 11.3549C18.7026 11.3703 18.4536 11.4136 18.3197 11.8029C18.1672 12.2447 18.2419 12.8997 18.4723 13.3385C18.5221 13.4281 18.5781 13.5115 18.6373 13.5795L19.5089 14.4013L19.1883 14.5404C19.1074 14.5558 19.0264 14.5651 18.9486 14.5651C18.8272 14.5651 18.7089 14.5465 18.5937 14.5064C18.4785 14.4662 18.3664 14.4075 18.2637 14.3303C18.1796 14.2715 18.1018 14.1974 18.0271 14.114C17.4823 13.4991 17.2675 12.3436 17.5508 11.5341C17.722 11.0459 18.0551 10.7153 18.4972 10.5855C18.5377 10.5732 18.5812 10.5639 18.6248 10.5546C20.5083 10.0448 22.152 8.95107 23.3941 7.46801C23.7428 7.0509 24.0634 6.60289 24.3467 6.12707C24.5335 5.81192 24.7078 5.4875 24.8635 5.14764C25.0409 4.7676 25.1935 4.37212 25.3273 3.96428C25.5421 3.29999 25.6978 2.60481 25.785 1.89108H22.6719C22.6252 2.40089 22.4508 3.26909 21.8375 3.91793C21.5231 4.25471 21.134 4.48953 20.6764 4.62239C20.4117 4.69963 20.1253 4.74288 19.8171 4.74906L19.7985 3.93647C20.1316 3.9272 20.4242 3.8685 20.6795 3.75727C20.8974 3.66458 21.0873 3.53172 21.2461 3.36178C21.9091 2.66042 21.878 1.51105 21.878 1.50178L21.8593 1.07849L22.18 0.939453L26.6753 1.08467Z" fill="url(#paint2_linear_2963_5733)"/>
<path opacity="0.2" d="M26.1656 1.71173L25.7827 1.89712H22.6914V1.50781L26.1656 1.71173Z" fill="#FFD058"/>
<path d="M27.0007 0.945473L26.9633 1.38421C26.8326 3.01249 26.3687 4.54807 25.6465 5.91063C25.5002 6.18253 25.3476 6.44824 25.1826 6.70469C25.0177 6.96114 24.8464 7.20522 24.6659 7.44622C24.3732 7.83243 24.0526 8.19702 23.7133 8.53998C22.4556 9.80367 20.8928 10.7398 19.1432 11.2095L19.109 11.2157C19.028 11.2311 18.7821 11.2744 18.6451 11.6668C18.4926 12.1086 18.5673 12.7636 18.7977 13.2023C18.8475 13.2919 18.9035 13.3754 18.9627 13.4433L19.5137 14.4042C19.4327 14.4197 19.3549 14.429 19.274 14.429C19.1526 14.429 19.0343 14.4104 18.916 14.3703C18.8008 14.3301 18.6887 14.2714 18.586 14.1941C18.5019 14.1354 18.4241 14.0613 18.3494 13.9779C17.8046 13.363 17.5898 12.2044 17.8731 11.398C18.0443 10.9098 18.3774 10.5792 18.8194 10.4494C18.8599 10.4371 18.9035 10.4278 18.944 10.4185C20.8274 9.90872 22.4711 8.81496 23.7133 7.3319C24.0619 6.91479 24.3826 6.46678 24.6659 5.99097C24.8527 5.67582 25.027 5.3514 25.1826 5.01153C25.3601 4.63149 25.5157 4.23292 25.6465 3.82817C25.8613 3.16388 26.017 2.4687 26.1041 1.75498H22.9941C22.9474 2.26478 22.7731 3.13299 22.1598 3.78182C21.8454 4.1186 21.4563 4.35342 20.9986 4.48628C20.734 4.56352 20.4476 4.60678 20.1394 4.61296L20.1207 3.80036C20.4538 3.79418 20.7465 3.73239 21.0017 3.62116C21.2197 3.52847 21.4096 3.39561 21.5683 3.22568C22.2314 2.52431 22.2003 1.37494 22.2003 1.36567L22.1816 0.942383H27.0007V0.945473Z" fill="url(#paint3_linear_2963_5733)"/>
<path opacity="0.3" d="M18.586 14.1939C18.5019 14.1352 18.4241 14.0611 18.3494 13.9777C17.8046 13.3628 17.5898 12.2042 17.8731 11.3978C18.0443 10.9096 18.3774 10.579 18.8195 10.4492C18.4614 11.129 17.8637 12.6429 18.586 14.1939Z" fill="#FFD058"/>
<path opacity="0.2" d="M20.9951 3.62402V4.48605C20.7305 4.5633 20.4441 4.60655 20.1359 4.61273L20.1172 3.80014C20.4472 3.79396 20.7398 3.73525 20.9951 3.62402Z" fill="#FFD058"/>
<path d="M20.5083 0.404785C20.5083 0.747743 20.4989 1.10924 20.4865 1.48618C20.4802 1.64376 20.4709 1.80751 20.4616 1.97436C20.3215 4.32562 19.8763 7.13417 19.0389 9.56268C17.9462 12.7327 16.181 15.2539 13.5598 15.2539C8.86211 15.2539 6.92264 7.16816 6.64557 1.73645C6.63935 1.65303 6.63623 1.56961 6.63312 1.48927C6.61755 1.11233 6.61133 0.750832 6.61133 0.407875H20.5083V0.404785Z" fill="url(#paint4_linear_2963_5733)"/>
<path opacity="0.2" d="M19.0389 9.56252C18.2481 11.852 17.1118 13.8016 15.5522 14.71C14.9514 15.0591 14.2883 15.2538 13.5598 15.2538C8.86211 15.2538 6.92264 7.168 6.64557 1.73629C6.63935 1.65287 6.63623 1.56945 6.63312 1.48911C6.61755 1.11217 6.61133 0.750672 6.61133 0.407715H11.0039L10.7953 1.1925C10.7953 1.18941 11.4429 16.604 19.0389 9.56252Z" fill="#FFD058"/>
<path opacity="0.2" d="M15.6969 14.6205C10.2365 12.6308 8.33442 4.05064 7.76784 0.404785H7.01758C7.01758 0.747743 7.02692 1.11233 7.03937 1.48618C7.04248 1.56652 7.0456 1.64994 7.05182 1.73336C7.32578 7.08782 9.21232 15.0191 13.7637 15.2447L15.6969 14.6205Z" fill="#FFD058"/>
<path opacity="0.3" d="M20.5083 0.404785C20.5083 0.747743 20.4989 1.10924 20.4865 1.48618C20.4802 1.64376 20.4709 1.80751 20.4616 1.97436C19.207 1.82914 15.8043 1.48927 11.2187 1.48927C8.32665 1.48927 7.12188 1.60977 6.64557 1.73645C6.63935 1.65303 6.63623 1.56961 6.63312 1.48927C6.61755 1.11233 6.61133 0.750833 6.61133 0.407875H20.5083V0.404785Z" fill="#FFD058"/>
<path d="M21.3805 0L21.2622 0.383124L21.0536 1.0814H6.06711L5.74023 0H21.3805Z" fill="url(#paint5_linear_2963_5733)"/>
<path d="M15.8978 15.7235C15.8978 15.7235 15.8479 15.7637 15.7701 15.8317C15.6394 15.946 15.4308 16.1376 15.2751 16.3322C15.1537 16.4867 15.0634 16.6381 15.0634 16.7586C15.0634 17.2344 14.9981 17.6824 14.8829 18.0748C14.8393 18.2293 14.7864 18.3714 14.7272 18.5043C14.7179 18.5228 14.7117 18.5444 14.7023 18.563C14.6774 18.6186 14.6494 18.6711 14.6214 18.7236C14.3505 19.2273 13.9739 19.5393 13.5598 19.5393C13.3357 19.5393 13.124 19.4497 12.931 19.286C12.7317 19.116 12.5574 18.872 12.4173 18.5661C12.19 18.081 12.0531 17.4507 12.0531 16.7617C12.0531 16.394 11.2188 15.7266 11.2188 15.7266L11.225 15.7081L11.5456 14.6978H15.5709L15.7328 15.2106L15.8511 15.5814L15.8915 15.7081L15.8978 15.7235Z" fill="#FFBD26"/>
<path d="M15.8931 15.7052H11.2266L11.5472 14.6948H15.5725L15.7343 15.2077L15.8526 15.5785L15.8931 15.7052Z" fill="url(#paint6_linear_2963_5733)"/>
<path opacity="0.2" d="M12.9318 19.283C12.415 18.8443 12.057 17.8803 12.057 16.7587C12.057 16.3911 11.2227 15.7237 11.2227 15.7237L11.5495 14.6948H15.5748C15.5748 14.6948 11.4904 14.8771 12.415 15.838C12.4772 15.9987 13.131 16.0419 13.131 16.0419C13.1528 16.0234 12.5177 18.3932 13.3365 18.5662C13.7225 18.6466 13.3863 18.971 12.9318 19.283Z" fill="#FFD058"/>
<path d="M14.9767 19.5392H12.1406L12.4146 18.5659H13.7657C13.7657 18.5659 13.7657 18.5659 13.7688 18.5659H14.6996L14.7681 18.8162L14.93 19.4094L14.9767 19.5392Z" fill="url(#paint7_linear_2963_5733)"/>
<path d="M15.6318 26.4605H11.4883L12.142 19.5396H14.9781L14.9905 19.6724L15.6318 26.4605Z" fill="#FFBD26"/>
<path d="M16.8196 26.8371C16.4429 26.8093 16.0445 26.7876 15.6304 26.7691H15.6273C15.1136 26.7475 14.5782 26.7351 14.0241 26.7289C13.8746 26.7289 13.7221 26.7289 13.5695 26.7289C13.3049 26.7289 13.0434 26.7289 12.7882 26.7351C12.2185 26.7444 11.6705 26.7629 11.1507 26.7876C10.858 26.8031 10.5747 26.8185 10.3008 26.8371L10.4004 26.457H16.72L16.7449 26.559L16.8196 26.8371Z" fill="url(#paint8_linear_2963_5733)"/>
<path d="M20.8071 27.7021H6.3125V28.9998H20.8071V27.7021Z" fill="url(#paint9_linear_2963_5733)"/>
<path d="M20.8071 27.7024H6.3125C6.41523 27.3255 8.01226 26.998 10.3004 26.8373C11.06 26.7848 11.8943 26.7477 12.7784 26.7323C13.0368 26.7292 13.3014 26.7261 13.5692 26.7261C14.7366 26.7261 15.8417 26.7662 16.8192 26.8342C17.9649 26.9145 18.9362 27.035 19.6335 27.1834C19.8701 27.2328 20.0756 27.2853 20.2437 27.3409C20.5768 27.4583 20.7729 27.5788 20.8071 27.7024Z" fill="#FFBD26"/>
<path opacity="0.7" d="M15.8986 15.7235C15.8986 15.7235 15.8488 15.7637 15.7709 15.8316C14.9086 15.844 13.7007 15.7791 13.2773 15.7729C13.5233 15.7637 13.7599 15.742 13.9809 15.705C14.7436 15.5845 15.3538 15.3435 15.7305 15.2075L15.8488 15.5783L15.8892 15.705L15.8986 15.7235Z" fill="white"/>
<path opacity="0.7" d="M14.9899 19.672C14.4793 19.638 13.0566 19.536 13.0566 19.536L14.9307 19.4062L14.9743 19.536L14.9899 19.672Z" fill="white"/>
<path opacity="0.7" d="M16.7457 26.5593L15.8242 26.4604H16.7208L16.7457 26.5593Z" fill="white"/>
<path opacity="0.7" d="M21.3812 0L21.2629 0.383124L9.70703 0H21.3812Z" fill="white"/>
<path opacity="0.3" d="M13.3298 18.5659L13.0932 19.5392H12.1406L12.4177 18.5659H13.3298Z" fill="#FFD058"/>
<path opacity="0.2" d="M13.0946 19.5396L12.746 26.4605H12.6744H11.4883L12.142 19.5396H13.0946Z" fill="#FFD058"/>
<path opacity="0.2" d="M12.533 1.0814H6.06711L5.74023 0H8.51713C8.21827 0.197741 7.34971 0.985617 12.533 1.0814Z" fill="#FFD058"/>
<path opacity="0.2" d="M7.00416 1.0814H6.06711L5.74023 0H6.52474L7.00416 1.0814Z" fill="#FFD058"/>
<mask id="mask0_2963_5733" style="mask-type:alpha" maskUnits="userSpaceOnUse" x="8" y="2" width="4" height="7">
<path d="M11.3571 8.73746C11.3571 8.73746 9.88774 5.36968 10.1741 2.12549H8.82617C8.82617 2.12549 9.16861 6.54995 11.3571 8.73746Z" fill="url(#paint10_linear_2963_5733)"/>
</mask>
<g mask="url(#mask0_2963_5733)">
<path opacity="0.8" d="M11.3571 8.73746C11.3571 8.73746 9.88774 5.36968 10.1741 2.12549H8.82617C8.82617 2.12549 9.16861 6.54995 11.3571 8.73746Z" fill="url(#paint11_linear_2963_5733)"/>
</g>
<mask id="mask1_2963_5733" style="mask-type:alpha" maskUnits="userSpaceOnUse" x="16" y="2" width="4" height="9">
<path d="M16.041 10.3999C16.0472 10.3937 16.0504 10.3597 16.0535 10.2948C16.1126 9.34321 16.041 2.12256 16.041 2.12256H19.895C19.895 2.12565 19.9635 9.79121 16.041 10.3999Z" fill="url(#paint12_linear_2963_5733)"/>
</mask>
<g mask="url(#mask1_2963_5733)">
<path opacity="0.8" d="M16.041 10.3999C16.0472 10.3937 16.0504 10.3597 16.0535 10.2948C16.1126 9.34321 16.041 2.12256 16.041 2.12256H19.895C19.895 2.12565 19.9635 9.79121 16.041 10.3999Z" fill="url(#paint13_linear_2963_5733)"/>
<path opacity="0.7" d="M15.905 10.5204C15.9642 9.56879 15.8926 2.34814 15.8926 2.34814H17.4242C17.4211 4.03204 17.2748 8.5152 15.905 10.5204Z" fill="white"/>
</g>
<defs>
<linearGradient id="paint0_linear_2963_5733" x1="8.50483" y1="7.26581" x2="-3.95917" y2="8.6452" gradientUnits="userSpaceOnUse">
<stop offset="0.00490196" stop-color="#E07022"/>
<stop offset="1" stop-color="#FFBB26"/>
</linearGradient>
<linearGradient id="paint1_linear_2963_5733" x1="6.5128" y1="8.12592" x2="-1.132" y2="-3.32625" gradientUnits="userSpaceOnUse">
<stop offset="0.0147" stop-color="#FFA11F"/>
<stop offset="1" stop-color="#FFE226"/>
</linearGradient>
<linearGradient id="paint2_linear_2963_5733" x1="17.424" y1="7.75702" x2="26.6756" y2="7.75702" gradientUnits="userSpaceOnUse">
<stop offset="0.00490196" stop-color="#E07022"/>
<stop offset="1" stop-color="#FFBB26"/>
</linearGradient>
<linearGradient id="paint3_linear_2963_5733" x1="17.7478" y1="7.68715" x2="26.9996" y2="7.68715" gradientUnits="userSpaceOnUse">
<stop offset="0.0147" stop-color="#FFA11F"/>
<stop offset="1" stop-color="#FFE226"/>
</linearGradient>
<linearGradient id="paint4_linear_2963_5733" x1="6.61049" y1="7.82901" x2="20.5075" y2="7.82901" gradientUnits="userSpaceOnUse">
<stop stop-color="#FFAD39"/>
<stop offset="0.4412" stop-color="#FFBD26"/>
<stop offset="1" stop-color="#FFE226"/>
</linearGradient>
<linearGradient id="paint5_linear_2963_5733" x1="5.74008" y1="0.541811" x2="21.379" y2="0.541811" gradientUnits="userSpaceOnUse">
<stop stop-color="#FFAD39"/>
<stop offset="0.4412" stop-color="#FFBD26"/>
<stop offset="1" stop-color="#FFE226"/>
</linearGradient>
<linearGradient id="paint6_linear_2963_5733" x1="11.2278" y1="15.1998" x2="15.8935" y2="15.1998" gradientUnits="userSpaceOnUse">
<stop offset="0.00490196" stop-color="#FF8C28"/>
<stop offset="0.4412" stop-color="#FFBD26"/>
<stop offset="1" stop-color="#FFE226"/>
</linearGradient>
<linearGradient id="paint7_linear_2963_5733" x1="12.254" y1="19.07" x2="16.4498" y2="19.0151" gradientUnits="userSpaceOnUse">
<stop offset="0.00490196" stop-color="#FF9130"/>
<stop offset="0.4412" stop-color="#FFBD26"/>
<stop offset="1" stop-color="#FFE226"/>
</linearGradient>
<linearGradient id="paint8_linear_2963_5733" x1="10.2997" y1="26.6487" x2="16.8193" y2="26.6487" gradientUnits="userSpaceOnUse">
<stop stop-color="#FFA526"/>
<stop offset="0.4412" stop-color="#FFBD26"/>
<stop offset="1" stop-color="#FFE226"/>
</linearGradient>
<linearGradient id="paint9_linear_2963_5733" x1="6.31138" y1="28.3523" x2="20.8062" y2="28.3523" gradientUnits="userSpaceOnUse">
<stop offset="0.00490196" stop-color="#FF9130"/>
<stop offset="0.4412" stop-color="#FFBD26"/>
<stop offset="1" stop-color="#FFE226"/>
</linearGradient>
<linearGradient id="paint10_linear_2963_5733" x1="8.82577" y1="5.43284" x2="11.3583" y2="5.43284" gradientUnits="userSpaceOnUse">
<stop/>
<stop offset="1" stop-color="white"/>
</linearGradient>
<linearGradient id="paint11_linear_2963_5733" x1="8.82577" y1="5.43284" x2="11.3583" y2="5.43284" gradientUnits="userSpaceOnUse">
<stop stop-color="white"/>
<stop offset="1" stop-color="white"/>
</linearGradient>
<linearGradient id="paint12_linear_2963_5733" x1="16.0397" y1="6.26292" x2="19.895" y2="6.26292" gradientUnits="userSpaceOnUse">
<stop/>
<stop offset="1" stop-color="white"/>
</linearGradient>
<linearGradient id="paint13_linear_2963_5733" x1="16.0397" y1="6.26292" x2="19.895" y2="6.26292" gradientUnits="userSpaceOnUse">
<stop stop-color="white"/>
<stop offset="1" stop-color="white"/>
</linearGradient>
</defs>
</svg>
