<svg width="122" height="126" viewBox="0 0 122 126" fill="none" xmlns="http://www.w3.org/2000/svg">
<g clip-path="url(#clip0_2963_5632)">
<path d="M39.7151 60.8654C39.6733 60.9054 39.6454 60.9454 39.6176 60.9721C39.0049 61.6387 38.3226 62.1321 37.5846 62.4654C36.9163 62.7587 36.2061 62.9187 35.4821 62.9187C35.12 62.9187 34.7719 62.8787 34.4099 62.8121L36.8745 58.6654C38.4479 56.9454 39.1302 53.3054 38.2948 50.9987C37.6821 49.3187 36.5821 49.1187 36.22 49.0653L36.0669 49.0387C29.1743 47.252 22.9502 43.9053 17.7146 39.4253C16.8931 38.7186 16.1133 37.9853 15.3336 37.2386C14.4981 36.3986 13.6766 35.5453 12.8968 34.652C11.1423 32.6386 9.54103 30.4786 8.1486 28.1853C4.23587 21.8252 1.74341 14.4785 1.08897 6.63851L0.921875 4.73184L1.89658 4.13184L22.5046 4.73184L22.421 6.55851C22.421 6.59851 22.2539 11.5452 25.2616 14.5985C25.9439 15.2919 26.7515 15.8519 27.6844 16.2519C28.8402 16.7452 30.1908 17.0252 31.7086 17.0519L32.6833 20.8652C31.263 20.8252 28.8819 20.3319 27.6844 19.9852C25.6793 19.3986 23.9666 18.3986 22.5742 16.9719C19.8311 14.1719 19.0513 10.4252 18.8425 8.22519H4.91816C5.44728 12.4385 6.5473 16.4919 8.1486 20.2652C9.42964 23.3052 11.0309 26.1719 12.8968 28.8253C13.6626 29.9053 14.4702 30.9586 15.3336 31.9586C16.0855 32.8519 16.8792 33.7186 17.7146 34.5453C22.978 39.7986 29.5503 43.692 36.958 45.6253C37.2644 45.6787 37.5707 45.772 37.8492 45.8653C39.6594 46.4787 41.0239 47.8653 41.748 49.852C43.0012 53.292 42.0822 58.1987 39.7151 60.8654Z" fill="url(#paint0_linear_2963_5632)"/>
<path opacity="0.3" d="M20.4166 7.07854L18.8432 8.23855H5.25304L4.6543 6.17188L20.4166 7.07854Z" fill="#FFD058"/>
<path opacity="0.2" d="M39.7153 60.8652C39.6736 60.9052 39.6457 60.9452 39.6179 60.9719C39.0052 61.6386 38.3229 62.1319 37.5849 62.4652C36.9165 62.7586 36.2064 62.9186 35.4823 62.9186C35.1203 62.9186 34.7722 62.8786 34.4102 62.8119L35.3849 62.2119L39.7153 60.8652Z" fill="#FFD058"/>
<path d="M40.5922 60.3854C39.9795 61.0521 39.2833 61.5454 38.5592 61.8787C37.8909 62.1721 37.1807 62.3321 36.4567 62.3321C36.0946 62.3321 35.7465 62.2921 35.3845 62.2254L37.8491 58.0787C39.4225 56.3587 40.1048 52.7187 39.2694 50.412C38.6567 48.732 37.5567 48.532 37.1946 48.4654L37.0554 48.4387C30.1629 46.652 23.9387 43.3053 18.7031 38.8253C17.8816 38.1186 17.0879 37.3853 16.3221 36.6386C15.4866 35.7986 14.6651 34.9453 13.8853 34.052C12.1309 32.0386 10.5296 29.8786 9.13713 27.5853C5.21047 21.2119 2.71802 13.8652 2.04965 6.02518L1.89648 4.13184H23.4792L23.3956 5.95851C23.3956 5.99851 23.2425 10.9452 26.2362 13.9985C26.9185 14.6919 27.7261 15.2385 28.659 15.6519C29.8148 16.1452 31.1654 16.4252 32.6832 16.4519L32.5996 19.9586C31.1793 19.9186 29.8704 19.7319 28.659 19.3852C26.6539 18.7986 24.9412 17.7986 23.5488 16.3719C20.8057 13.5719 20.026 9.82519 19.8171 7.62518H5.89277C6.42189 11.8385 7.52191 15.8919 9.12321 19.6652C10.4042 22.7186 12.0055 25.5719 13.8714 28.2253C14.6372 29.3053 15.4449 30.3586 16.3082 31.3586C17.0601 32.252 17.8538 33.1186 18.6892 33.9453C23.9526 39.1987 30.5249 43.092 37.9326 45.0253C38.239 45.0787 38.5453 45.172 38.8238 45.2653C40.6339 45.8787 42.0125 47.2653 42.7365 49.252C43.9897 52.732 43.0289 57.7187 40.5922 60.3854Z" fill="url(#paint1_linear_2963_5632)"/>
<path opacity="0.3" d="M40.5915 60.3852C39.9789 61.0519 39.2827 61.5452 38.5586 61.8785C42.3321 55.4118 40.2713 48.5985 38.8232 45.2651C40.6333 45.8785 42.0118 47.2651 42.7359 49.2518C43.9891 52.7318 43.0283 57.7185 40.5915 60.3852Z" fill="#FFD058"/>
<path opacity="0.3" d="M28.6445 15.6519C29.8003 16.1452 31.1509 16.4252 32.6687 16.4519L32.5851 19.9585C31.1648 19.9185 29.8559 19.7319 28.6445 19.3852V15.6519Z" fill="#FFD058"/>
<path d="M120.239 4.73165L120.071 6.62499C119.487 13.6517 117.412 20.2784 114.181 26.1584C113.527 27.3317 112.845 28.4784 112.107 29.5851C111.383 30.6784 110.603 31.7451 109.795 32.7851C108.472 34.4518 107.052 36.0251 105.534 37.5051C99.909 42.9585 92.919 46.9985 85.0936 49.0252L84.9404 49.0518C84.5784 49.1185 83.4644 49.3052 82.8657 50.9852C82.1834 52.8918 82.5176 55.7185 83.548 57.6119C83.7707 57.9985 84.0214 58.3585 84.2859 58.6519L88.1848 62.1985L86.7506 62.7985C86.3885 62.8652 86.0265 62.9052 85.6784 62.9052C85.1353 62.9052 84.6062 62.8252 84.091 62.6519C83.5758 62.4785 83.0745 62.2252 82.615 61.8919C82.2391 61.6385 81.891 61.3185 81.5568 60.9585C79.12 58.3052 78.1592 53.3185 79.4264 49.8252C80.1922 47.7185 81.6821 46.2918 83.6594 45.7318C83.8404 45.6785 84.0353 45.6385 84.2303 45.5985C92.6545 43.3985 100.007 38.6785 105.562 32.2784C107.122 30.4784 108.556 28.5451 109.823 26.4917C110.659 25.1317 111.438 23.7317 112.135 22.2651C112.928 20.625 113.611 18.9184 114.209 17.1584C115.17 14.2917 115.866 11.2917 116.256 8.21166H102.332C102.123 10.4117 101.343 14.1584 98.6002 16.9584C97.1938 18.4117 95.4533 19.425 93.4064 19.9984C92.2228 20.3317 90.9418 20.5184 89.5633 20.545L89.4797 17.0384C90.9696 16.9984 92.2785 16.745 93.4203 16.265C94.395 15.865 95.2444 15.2917 95.9545 14.5584C98.9204 11.5317 98.7812 6.57166 98.7812 6.53166L98.6976 4.70498L100.132 4.10498L120.239 4.73165Z" fill="url(#paint2_linear_2963_5632)"/>
<path opacity="0.2" d="M117.956 7.4386L116.243 8.2386H102.416V6.55859L117.956 7.4386Z" fill="#FFD058"/>
<path d="M121.688 4.13199L121.521 6.02533C120.936 13.052 118.861 19.6787 115.631 25.5587C114.977 26.7321 114.294 27.8787 113.556 28.9854C112.818 30.0921 112.052 31.1454 111.245 32.1854C109.936 33.8521 108.502 35.4254 106.984 36.9054C101.359 42.3588 94.3685 46.3988 86.543 48.4255L86.3899 48.4522C86.0278 48.5188 84.9278 48.7055 84.3151 50.3988C83.6329 52.3055 83.967 55.1322 84.9974 57.0255C85.2202 57.4122 85.4709 57.7722 85.7354 58.0655L88.2 62.2122C87.838 62.2789 87.4899 62.3189 87.1279 62.3189C86.5848 62.3189 86.0557 62.2389 85.5266 62.0655C85.0114 61.8922 84.5101 61.6389 84.0506 61.3055C83.6746 61.0522 83.3265 60.7322 82.9923 60.3722C80.5556 57.7189 79.5948 52.7188 80.8619 49.2388C81.6277 47.1322 83.1177 45.7055 85.0949 45.1455C85.2759 45.0921 85.4709 45.0522 85.6519 45.0121C94.0761 42.8121 101.428 38.0921 106.984 31.6921C108.543 29.8921 109.978 27.9587 111.245 25.9054C112.08 24.5454 112.86 23.1454 113.556 21.6787C114.35 20.0387 115.046 18.3187 115.631 16.572C116.592 13.7054 117.288 10.7053 117.678 7.62533H103.767C103.559 9.82534 102.779 13.572 100.036 16.372C98.6294 17.8254 96.8888 18.8387 94.8419 19.412C93.6584 19.7454 92.3773 19.932 90.9988 19.9587L90.9153 16.452C92.4052 16.4254 93.7141 16.1587 94.8559 15.6787C95.8306 15.2787 96.6799 14.7054 97.3901 13.972C100.356 10.9453 100.217 5.98533 100.217 5.94533L100.133 4.11865H121.688V4.13199Z" fill="url(#paint3_linear_2963_5632)"/>
<path opacity="0.3" d="M84.0506 61.3056C83.6746 61.0522 83.3265 60.7322 82.9923 60.3722C80.5556 57.7189 79.5948 52.7189 80.8619 49.2389C81.6277 47.1322 83.1177 45.7055 85.0949 45.1455C83.4936 48.0789 80.8201 54.6122 84.0506 61.3056Z" fill="#FFD058"/>
<path opacity="0.2" d="M94.827 15.6919V19.4119C93.6435 19.7452 92.3624 19.9319 90.9839 19.9586L90.9004 16.4519C92.3764 16.4252 93.6852 16.1719 94.827 15.6919Z" fill="#FFD058"/>
<path d="M92.6563 1.79834C92.6563 3.27835 92.6145 4.83835 92.5588 6.46502C92.5309 7.14503 92.4892 7.8517 92.4474 8.5717C91.8208 18.7184 89.8296 30.8385 86.084 41.3185C81.1965 54.9986 73.3014 65.8786 61.5772 65.8786C40.5653 65.8786 31.8905 30.9851 30.6512 7.54503C30.6234 7.18503 30.6094 6.82503 30.5955 6.47836C30.5259 4.85169 30.498 3.29168 30.498 1.81167H92.6563V1.79834Z" fill="url(#paint4_linear_2963_5632)"/>
<path opacity="0.2" d="M86.084 41.3184C82.5472 51.1984 77.4648 59.6118 70.4887 63.5318C67.8013 65.0384 64.8354 65.8784 61.5772 65.8784C40.5653 65.8784 31.8905 30.985 30.6512 7.54488C30.6234 7.18488 30.6094 6.82488 30.5955 6.47821C30.5259 4.85154 30.498 3.29153 30.498 1.81152H50.1453L49.2123 5.1982C49.2123 5.18487 52.1086 71.7051 86.084 41.3184Z" fill="#FFD058"/>
<path opacity="0.2" d="M71.1277 63.1452C46.7044 54.5585 38.1966 17.5317 35.6624 1.79834H32.3066C32.3066 3.27835 32.3484 4.85169 32.4041 6.46502C32.418 6.81169 32.432 7.17169 32.4598 7.5317C33.6851 30.6385 42.1233 64.8653 62.4807 65.8386L71.1277 63.1452Z" fill="#FFD058"/>
<path opacity="0.3" d="M92.6563 1.79834C92.6563 3.27835 92.6145 4.83835 92.5588 6.46502C92.5309 7.14503 92.4892 7.8517 92.4474 8.5717C86.8359 7.94503 71.6166 6.47836 51.1061 6.47836C38.1704 6.47836 32.7816 6.99836 30.6512 7.54503C30.6234 7.18503 30.6094 6.82503 30.5955 6.47836C30.5259 4.85169 30.498 3.29168 30.498 1.81167H92.6563V1.79834Z" fill="#FFD058"/>
<path d="M96.5535 0.0517578L96.0244 1.7051L95.0914 4.71844H28.0597L26.5977 0.0517578H96.5535Z" fill="url(#paint5_linear_2963_5632)"/>
<path d="M72.0337 67.9052C72.0337 67.9052 71.811 68.0785 71.4628 68.3719C70.878 68.8652 69.9451 69.6919 69.2489 70.5319C68.7058 71.1985 68.302 71.8519 68.302 72.3719C68.302 74.4252 68.0096 76.3586 67.4944 78.0519C67.2995 78.7186 67.0628 79.3319 66.7982 79.9052C66.7564 79.9852 66.7286 80.0786 66.6868 80.1586C66.5754 80.3986 66.4501 80.6252 66.3248 80.8519C65.1133 83.0253 63.4285 84.3719 61.5766 84.3719C60.574 84.3719 59.6272 83.9853 58.7639 83.2786C57.8727 82.5453 57.0929 81.4919 56.4663 80.1719C55.4499 78.0786 54.8372 75.3586 54.8372 72.3852C54.8372 70.7985 51.1055 67.9185 51.1055 67.9185L51.1333 67.8385L52.5675 63.4785H70.5717L71.2958 65.6919L71.8249 67.2919L72.0059 67.8385L72.0337 67.9052Z" fill="#FFBD26"/>
<path d="M72.0054 67.8254H51.1328L52.567 63.4653H70.5712L71.2952 65.6787L71.8244 67.2787L72.0054 67.8254Z" fill="url(#paint6_linear_2963_5632)"/>
<path opacity="0.2" d="M58.7636 83.2654C56.4522 81.3721 54.8509 77.2121 54.8509 72.372C54.8509 70.7854 51.1191 67.9053 51.1191 67.9053L52.5812 63.4653H70.5854C70.5854 63.4653 52.3166 64.252 56.4522 68.3987C56.7306 69.092 59.6548 69.2787 59.6548 69.2787C59.7522 69.1987 56.9117 79.4254 60.5738 80.1721C62.3004 80.5187 60.7966 81.9187 58.7636 83.2654Z" fill="#FFD058"/>
<path d="M67.9116 84.3719H55.2266L56.4519 80.1719H62.4951C62.4951 80.1719 62.4951 80.1719 62.509 80.1719H66.6724L66.9787 81.2519L67.7028 83.8119L67.9116 84.3719Z" fill="url(#paint7_linear_2963_5632)"/>
<path d="M70.836 114.239H52.3027L55.2268 84.3721H67.9119L67.9676 84.9454L70.836 114.239Z" fill="#FFBD26"/>
<path d="M76.1556 115.866C74.4707 115.746 72.6884 115.652 70.8365 115.572H70.8226C68.5251 115.479 66.1301 115.426 63.6515 115.399C62.9832 115.399 62.3009 115.399 61.6186 115.399C60.435 115.399 59.2654 115.399 58.1236 115.426C55.5754 115.466 53.1248 115.546 50.7994 115.652C49.4905 115.719 48.2234 115.786 46.998 115.866L47.4436 114.226H75.71L75.8214 114.666L76.1556 115.866Z" fill="url(#paint8_linear_2963_5632)"/>
<path d="M93.9918 119.599H29.1602V125.199H93.9918V119.599Z" fill="url(#paint9_linear_2963_5632)"/>
<path d="M93.9918 119.599H29.1602C29.6197 117.972 36.7628 116.559 46.9972 115.866C50.3948 115.639 54.1265 115.479 58.081 115.412C59.2367 115.399 60.4203 115.386 61.6178 115.386C66.8394 115.386 71.7825 115.559 76.1548 115.852C81.2789 116.199 85.6233 116.719 88.7423 117.359C89.8006 117.572 90.7196 117.799 91.4715 118.039C92.9614 118.546 93.8386 119.066 93.9918 119.599Z" fill="#FFBD26"/>
<path opacity="0.7" d="M72.0329 67.9054C72.0329 67.9054 71.8101 68.0787 71.462 68.3721C67.6049 68.4254 62.2023 68.1454 60.3086 68.1187C61.4086 68.0787 62.4669 67.9854 63.4555 67.8254C66.867 67.3054 69.5961 66.2654 71.281 65.6787L71.8101 67.2787L71.9911 67.8254L72.0329 67.9054Z" fill="white"/>
<path opacity="0.7" d="M67.9673 84.9455C65.6837 84.7988 59.3203 84.3588 59.3203 84.3588L67.7028 83.7988L67.8977 84.3588L67.9673 84.9455Z" fill="white"/>
<path opacity="0.7" d="M75.8208 114.665L71.6992 114.239H75.7094L75.8208 114.665Z" fill="white"/>
<path opacity="0.7" d="M96.5541 0.0517578L96.025 1.7051L44.3379 0.0517578H96.5541Z" fill="white"/>
<path opacity="0.3" d="M60.5457 80.1719L59.4874 84.3719H55.2266L56.4658 80.1719H60.5457Z" fill="#FFD058"/>
<path opacity="0.2" d="M59.4877 84.3721L57.9282 114.239H57.6079H52.3027L55.2268 84.3721H59.4877Z" fill="#FFD058"/>
<path opacity="0.2" d="M56.9805 4.71844H28.0597L26.5977 0.0517578H39.0182C37.6814 0.905095 33.7965 4.30511 56.9805 4.71844Z" fill="#FFD058"/>
<path opacity="0.2" d="M32.2509 4.71844H28.0597L26.5977 0.0517578H30.1066L32.2509 4.71844Z" fill="#FFD058"/>
<mask id="mask0_2963_5632" style="mask-type:alpha" maskUnits="userSpaceOnUse" x="40" y="9" width="12" height="29">
<path d="M51.717 37.7585C51.717 37.7585 45.1447 23.2252 46.4257 9.2251H40.3965C40.3965 9.2251 41.9282 28.3185 51.717 37.7585Z" fill="url(#paint10_linear_2963_5632)"/>
</mask>
<g mask="url(#mask0_2963_5632)">
<path opacity="0.8" d="M51.717 37.7585C51.717 37.7585 45.1447 23.2252 46.4257 9.2251H40.3965C40.3965 9.2251 41.9282 28.3185 51.717 37.7585Z" fill="url(#paint11_linear_2963_5632)"/>
</g>
<mask id="mask1_2963_5632" style="mask-type:alpha" maskUnits="userSpaceOnUse" x="72" y="9" width="18" height="36">
<path d="M72.6738 44.9321C72.7017 44.9054 72.7156 44.7587 72.7295 44.4787C72.9941 40.372 72.6738 9.21191 72.6738 9.21191H89.9121C89.9121 9.22525 90.2185 42.3054 72.6738 44.9321Z" fill="url(#paint12_linear_2963_5632)"/>
</mask>
<g mask="url(#mask1_2963_5632)">
<path opacity="0.8" d="M72.6738 44.9321C72.7017 44.9054 72.7156 44.7587 72.7295 44.4787C72.9941 40.372 72.6738 9.21191 72.6738 9.21191H89.9121C89.9121 9.22525 90.2185 42.3054 72.6738 44.9321Z" fill="url(#paint13_linear_2963_5632)"/>
<path opacity="0.7" d="M72.0616 45.4519C72.3261 41.3452 72.0059 10.1851 72.0059 10.1851H78.8566C78.8427 17.4518 78.1883 36.7985 72.0616 45.4519Z" fill="white"/>
</g>
</g>
<defs>
<linearGradient id="paint0_linear_2963_5632" x1="38.9623" y1="31.4074" x2="-16.7367" y2="37.7964" gradientUnits="userSpaceOnUse">
<stop offset="0.00490196" stop-color="#E07022"/>
<stop offset="1" stop-color="#FFBB26"/>
</linearGradient>
<linearGradient id="paint1_linear_2963_5632" x1="30.0485" y1="35.1192" x2="-2.47427" y2="-15.3779" gradientUnits="userSpaceOnUse">
<stop offset="0.0147" stop-color="#FFA11F"/>
<stop offset="1" stop-color="#FFE226"/>
</linearGradient>
<linearGradient id="paint2_linear_2963_5632" x1="78.8594" y1="33.5256" x2="120.24" y2="33.5256" gradientUnits="userSpaceOnUse">
<stop offset="0.00490196" stop-color="#E07022"/>
<stop offset="1" stop-color="#FFBB26"/>
</linearGradient>
<linearGradient id="paint3_linear_2963_5632" x1="80.3015" y1="33.2252" x2="121.683" y2="33.2252" gradientUnits="userSpaceOnUse">
<stop offset="0.0147" stop-color="#FFA11F"/>
<stop offset="1" stop-color="#FFE226"/>
</linearGradient>
<linearGradient id="paint4_linear_2963_5632" x1="30.4943" y1="33.837" x2="92.6528" y2="33.837" gradientUnits="userSpaceOnUse">
<stop stop-color="#FFAD39"/>
<stop offset="0.4412" stop-color="#FFBD26"/>
<stop offset="1" stop-color="#FFE226"/>
</linearGradient>
<linearGradient id="paint5_linear_2963_5632" x1="26.597" y1="2.3899" x2="96.5469" y2="2.3899" gradientUnits="userSpaceOnUse">
<stop stop-color="#FFAD39"/>
<stop offset="0.4412" stop-color="#FFBD26"/>
<stop offset="1" stop-color="#FFE226"/>
</linearGradient>
<linearGradient id="paint6_linear_2963_5632" x1="51.1384" y1="65.6447" x2="72.0072" y2="65.6447" gradientUnits="userSpaceOnUse">
<stop offset="0.00490196" stop-color="#FF8C28"/>
<stop offset="0.4412" stop-color="#FFBD26"/>
<stop offset="1" stop-color="#FFE226"/>
</linearGradient>
<linearGradient id="paint7_linear_2963_5632" x1="55.7338" y1="82.3472" x2="74.5006" y2="82.0929" gradientUnits="userSpaceOnUse">
<stop offset="0.00490196" stop-color="#FF9130"/>
<stop offset="0.4412" stop-color="#FFBD26"/>
<stop offset="1" stop-color="#FFE226"/>
</linearGradient>
<linearGradient id="paint8_linear_2963_5632" x1="46.993" y1="115.053" x2="76.1539" y2="115.053" gradientUnits="userSpaceOnUse">
<stop stop-color="#FFA526"/>
<stop offset="0.4412" stop-color="#FFBD26"/>
<stop offset="1" stop-color="#FFE226"/>
</linearGradient>
<linearGradient id="paint9_linear_2963_5632" x1="29.1551" y1="122.405" x2="93.9875" y2="122.405" gradientUnits="userSpaceOnUse">
<stop offset="0.00490196" stop-color="#FF9130"/>
<stop offset="0.4412" stop-color="#FFBD26"/>
<stop offset="1" stop-color="#FFE226"/>
</linearGradient>
<linearGradient id="paint10_linear_2963_5632" x1="40.3947" y1="23.4977" x2="51.7224" y2="23.4977" gradientUnits="userSpaceOnUse">
<stop/>
<stop offset="1" stop-color="white"/>
</linearGradient>
<linearGradient id="paint11_linear_2963_5632" x1="40.3947" y1="23.4977" x2="51.7224" y2="23.4977" gradientUnits="userSpaceOnUse">
<stop stop-color="white"/>
<stop offset="1" stop-color="white"/>
</linearGradient>
<linearGradient id="paint12_linear_2963_5632" x1="72.6681" y1="27.0793" x2="89.9121" y2="27.0793" gradientUnits="userSpaceOnUse">
<stop/>
<stop offset="1" stop-color="white"/>
</linearGradient>
<linearGradient id="paint13_linear_2963_5632" x1="72.6681" y1="27.0793" x2="89.9121" y2="27.0793" gradientUnits="userSpaceOnUse">
<stop stop-color="white"/>
<stop offset="1" stop-color="white"/>
</linearGradient>
<clipPath id="clip0_2963_5632">
<rect width="120.766" height="125.147" fill="white" transform="translate(0.921875 0.0517578)"/>
</clipPath>
</defs>
</svg>
