<svg width="32" height="33" viewBox="0 0 32 33" fill="none" xmlns="http://www.w3.org/2000/svg">
<path d="M27.5192 19.4814C25.7856 25.9512 19.2993 29.8346 13.0316 28.1552C6.764 26.4758 3.08842 19.8695 4.82201 13.3997C6.55559 6.92989 13.0419 3.04649 19.3095 4.7259C25.5772 6.40531 29.2527 13.0116 27.5192 19.4814Z" fill="#A56402"/>
<path fill-rule="evenodd" clip-rule="evenodd" d="M28.2502 19.6782C26.4142 26.5303 19.5281 30.6816 12.8343 28.888C6.14059 27.0944 2.2527 20.0563 4.08871 13.2041C5.92473 6.35204 12.8108 2.20076 19.5046 3.99435C26.1983 5.78793 30.0862 12.8261 28.2502 19.6782ZM13.0305 28.1558C19.2982 29.8352 25.7844 25.9518 27.518 19.482C29.2516 13.0122 25.576 6.40592 19.3084 4.72651C13.0407 3.0471 6.55446 6.9305 4.82088 13.4003C3.08729 19.8702 6.76287 26.4764 13.0305 28.1558Z" fill="#5B3303"/>
<path d="M26.7633 18.725C25.0297 25.1949 18.5434 29.0783 12.2758 27.3989C6.00814 25.7194 2.33256 19.1132 4.06615 12.6434C5.79973 6.17354 12.286 2.29014 18.5537 3.96955C24.8213 5.64896 28.4969 12.2552 26.7633 18.725Z" fill="#FFB423"/>
<path fill-rule="evenodd" clip-rule="evenodd" d="M27.4963 18.9209C25.6603 25.773 18.7742 29.9242 12.0804 28.1307C5.38668 26.3371 1.49879 19.2989 3.33481 12.4468C5.17082 5.59472 12.0569 1.44344 18.7507 3.23702C25.4444 5.03061 29.3323 12.0688 27.4963 18.9209ZM12.2766 27.3985C18.5443 29.0779 25.0305 25.1945 26.7641 18.7247C28.4977 12.2549 24.8221 5.6486 18.5545 3.96919C12.2868 2.28978 5.80056 6.17318 4.06697 12.643C2.33339 19.1128 6.00897 25.7191 12.2766 27.3985Z" fill="#5B3303"/>
<path d="M24.5682 18.1342C23.1597 23.3909 17.9203 26.5544 12.8658 25.2C7.81121 23.8457 4.85553 18.4863 6.26407 13.2296C7.67261 7.97285 12.912 4.80935 17.9665 6.16372C23.0211 7.51808 25.9768 12.8774 24.5682 18.1342Z" fill="#FFCF23"/>
<path fill-rule="evenodd" clip-rule="evenodd" d="M25.2993 18.3329C23.7897 23.9667 18.1542 27.4047 12.6685 25.9348C7.18274 24.4649 4.02121 18.6697 5.53078 13.036C7.04034 7.4022 12.6759 3.96423 18.1616 5.43412C23.6473 6.90401 26.8088 12.6992 25.2993 18.3329ZM12.8646 25.2026C17.9192 26.557 23.1586 23.3935 24.5671 18.1367C25.9756 12.88 23.02 7.52065 17.9654 6.16629C12.9109 4.81192 7.67148 7.97542 6.26294 13.2322C4.85441 18.4889 7.81008 23.8482 12.8646 25.2026Z" fill="#DF8D12"/>
<path fill-rule="evenodd" clip-rule="evenodd" d="M22.453 8.93481C21.4117 8.00682 20.1523 7.30551 18.7256 6.92325C13.6711 5.56889 8.43172 8.73239 7.02318 13.9891C6.11426 17.3813 7.02263 20.8161 9.13956 23.19C6.49154 20.8301 5.2542 17.0042 6.26519 13.2311C7.67372 7.97439 12.9131 4.8109 17.9676 6.16526C19.7605 6.64566 21.2893 7.62995 22.453 8.93481Z" fill="#FFDD65"/>
<path fill-rule="evenodd" clip-rule="evenodd" d="M13.8213 9.63455C14.861 9.25756 15.9973 9.32395 16.9315 9.52381C17.8388 9.71792 18.6068 10.0001 19.2666 10.4431C19.9373 10.8934 20.4015 11.4463 20.7843 12.0375C21.2394 12.7403 21.0386 13.6789 20.3358 14.134C19.633 14.5891 18.6944 14.3883 18.2393 13.6855C18.003 13.3207 17.8061 13.1145 17.5765 12.9604C17.3361 12.7989 16.9649 12.6316 16.2972 12.4887C15.6563 12.3516 15.1543 12.3763 14.8548 12.4849C14.7228 12.5328 14.6494 12.5892 14.6025 12.6421C14.5574 12.693 14.4874 12.7958 14.4411 13.0121C14.3948 13.2284 14.4166 13.3509 14.437 13.4158C14.4581 13.4832 14.502 13.5647 14.6029 13.6624C14.8318 13.884 15.2796 14.112 15.9206 14.2491C16.8547 14.4489 17.9188 14.8533 18.7132 15.6227C19.5859 16.4678 20.0337 17.6687 19.7306 19.0853C19.4275 20.5019 18.5276 21.4145 17.3856 21.8285C16.3459 22.2055 15.2095 22.1391 14.2754 21.9393C12.3276 21.5226 11.013 20.472 10.3764 19.3494C9.96333 18.6211 10.2189 17.6959 10.9472 17.2829C11.6755 16.8698 12.6007 17.1254 13.0137 17.8537C13.1744 18.1371 13.7072 18.7171 14.9097 18.9744C15.5506 19.1115 16.0525 19.0867 16.3521 18.9781C16.4841 18.9303 16.5575 18.8739 16.6044 18.821C16.6495 18.7701 16.7194 18.6673 16.7657 18.451C16.812 18.2347 16.7902 18.1122 16.7699 18.0473C16.7487 17.9799 16.7048 17.8984 16.604 17.8007C16.3751 17.5791 15.9272 17.3511 15.2863 17.214C14.3521 17.0141 13.2881 16.6098 12.4936 15.8404C11.621 14.9953 11.1732 13.7944 11.4762 12.3778C11.7793 10.9612 12.6792 10.0486 13.8213 9.63455Z" fill="#C37808"/>
<path fill-rule="evenodd" clip-rule="evenodd" d="M17.4375 7.1609C18.2563 7.33605 18.778 8.14176 18.6028 8.96049L18.1271 11.1842C17.9519 12.0029 17.1462 12.5246 16.3275 12.3494C15.5088 12.1743 14.9871 11.3686 15.1622 10.5499L15.6379 8.32619C15.8131 7.50746 16.6188 6.98574 17.4375 7.1609Z" fill="#C37808"/>
<path fill-rule="evenodd" clip-rule="evenodd" d="M14.9102 18.9739C15.7289 19.149 16.2506 19.9547 16.0755 20.7735L15.5997 22.9971C15.4246 23.8159 14.6189 24.3376 13.8002 24.1624C12.9814 23.9873 12.4597 23.1816 12.6349 22.3628L13.1106 20.1392C13.2857 19.3205 14.0914 18.7987 14.9102 18.9739Z" fill="#C37808"/>
<path fill-rule="evenodd" clip-rule="evenodd" d="M14.1425 10.5246C14.9509 10.2315 15.889 10.2694 16.7315 10.4496C17.564 10.6277 18.208 10.874 18.7367 11.229C19.2695 11.5867 19.6502 12.0313 19.9872 12.5518C20.1579 12.8153 20.0826 13.1673 19.819 13.338C19.5555 13.5086 19.2035 13.4333 19.0328 13.1698C18.7508 12.7342 18.4703 12.4197 18.1029 12.173C17.7315 11.9236 17.2363 11.7203 16.4936 11.5614C15.7611 11.4047 15.0609 11.401 14.53 11.5935C14.0375 11.772 13.6598 12.1261 13.5128 12.8132C13.3659 13.5002 13.5656 13.9778 13.942 14.3423C14.3476 14.7351 14.988 15.0182 15.7206 15.1749C16.5631 15.3551 17.4346 15.7044 18.0523 16.3026C18.6994 16.9292 19.0344 17.8014 18.8023 18.8863C18.5702 19.9713 17.9076 20.63 17.0609 20.9371C16.2524 21.2302 15.3144 21.1923 14.4718 21.012C12.757 20.6451 11.6867 19.7416 11.1988 18.8813C11.0439 18.6082 11.1397 18.2612 11.4128 18.1063C11.686 17.9514 12.0329 18.0473 12.1878 18.3204C12.4972 18.866 13.2743 19.5931 14.7097 19.9002C15.4422 20.0569 16.1424 20.0606 16.6733 19.8682C17.1658 19.6896 17.5435 19.3355 17.6905 18.6485C17.8375 17.9615 17.6377 17.4838 17.2614 17.1194C16.8557 16.7265 16.2153 16.4435 15.4827 16.2867C14.6402 16.1065 13.7687 15.7573 13.151 15.159C12.5039 14.5324 12.1689 13.6603 12.401 12.5753C12.6331 11.4903 13.2957 10.8316 14.1425 10.5246Z" fill="#FFB423"/>
<path fill-rule="evenodd" clip-rule="evenodd" d="M17.2395 8.08719C17.5465 8.15288 17.7422 8.45502 17.6765 8.76204L17.2008 10.9857C17.1351 11.2927 16.833 11.4884 16.5259 11.4227C16.2189 11.357 16.0233 11.0549 16.0889 10.7478L16.5647 8.52418C16.6303 8.21715 16.9325 8.02151 17.2395 8.08719Z" fill="#FFB423"/>
<path fill-rule="evenodd" clip-rule="evenodd" d="M14.7102 19.9002C15.0172 19.9659 15.2129 20.268 15.1472 20.575L14.6715 22.7987C14.6058 23.1057 14.3037 23.3014 13.9966 23.2357C13.6896 23.17 13.494 22.8679 13.5596 22.5608L14.0354 20.3372C14.101 20.0301 14.4032 19.8345 14.7102 19.9002Z" fill="#FFB423"/>
<path fill-rule="evenodd" clip-rule="evenodd" d="M5.00484 12.0594C4.80877 11.9861 4.70922 11.7678 4.78248 11.5717C6.09067 8.07091 9.02028 5.36157 12.6587 4.35735C12.8605 4.30166 13.0692 4.42009 13.1249 4.62186C13.1806 4.82363 13.0622 5.03234 12.8604 5.08803C9.45798 6.0271 6.71629 8.56214 5.49252 11.8371C5.41926 12.0331 5.20091 12.1327 5.00484 12.0594Z" fill="#FFCF72"/>
<path fill-rule="evenodd" clip-rule="evenodd" d="M24.8533 21.4283C25.0303 21.54 25.0831 21.7741 24.9713 21.9511C24.0848 23.3545 22.9093 24.5571 21.5283 25.4753C21.354 25.5911 21.1188 25.5438 21.0029 25.3695C20.887 25.1952 20.9343 24.9599 21.1086 24.844C22.4009 23.9849 23.501 22.8594 24.3305 21.5463C24.4423 21.3693 24.6764 21.3165 24.8533 21.4283Z" fill="#FFCF72"/>
<path fill-rule="evenodd" clip-rule="evenodd" d="M9.17956 6.90275C9.17949 6.9028 9.17964 6.90269 9.17956 6.90275L8.96934 6.5874C9.17956 6.90275 9.17951 6.90278 9.17956 6.90275L9.1782 6.90366L9.17052 6.9089C9.16334 6.91381 9.15214 6.92154 9.13728 6.93201C9.10755 6.95296 9.06323 6.9848 9.00723 7.0268C8.89513 7.11088 8.73688 7.23518 8.55566 7.39375C8.19111 7.71273 7.74366 8.16166 7.38969 8.69262C7.27359 8.86678 7.03828 8.91384 6.86412 8.79773C6.68996 8.68162 6.6429 8.44632 6.75901 8.27216C7.16303 7.66612 7.66308 7.16756 8.05652 6.8233C8.25429 6.65025 8.42767 6.51398 8.55244 6.4204C8.61488 6.37357 8.6653 6.33732 8.70071 6.31237C8.71842 6.29989 8.73239 6.29023 8.74225 6.28349L8.7539 6.27556L8.75732 6.27325L8.75842 6.27251L8.75882 6.27225C8.75888 6.2722 8.75911 6.27206 8.96934 6.5874L8.75882 6.27225C8.93298 6.15614 9.16857 6.20301 9.28468 6.37717C9.40073 6.55125 9.35354 6.78658 9.17956 6.90275Z" fill="#FFE9AF"/>
<path fill-rule="evenodd" clip-rule="evenodd" d="M10.6971 8.79825C10.6971 8.7983 10.6972 8.7982 10.6971 8.79825L10.4869 8.48291C10.6971 8.79825 10.6971 8.79829 10.6971 8.79825L10.6958 8.79917L10.6881 8.8044C10.6809 8.80932 10.6697 8.81705 10.6549 8.82752C10.6251 8.84847 10.5808 8.88031 10.5248 8.92231C10.4127 9.00639 10.2545 9.13068 10.0732 9.28925C9.70868 9.60824 9.26124 10.0572 8.90727 10.5881C8.79117 10.7623 8.55586 10.8093 8.3817 10.6932C8.20754 10.5771 8.16048 10.3418 8.27658 10.1677C8.68061 9.56163 9.18066 9.06306 9.5741 8.7188C9.77187 8.54575 9.94525 8.40949 10.07 8.31591C10.1325 8.26908 10.1829 8.23282 10.2183 8.20788C10.236 8.1954 10.25 8.18574 10.2598 8.17899L10.2715 8.17106L10.2749 8.16876L10.276 8.16802L10.2764 8.16776C10.2765 8.16771 10.2767 8.16756 10.4869 8.48291L10.2764 8.16776C10.4506 8.05165 10.6862 8.09852 10.8023 8.27268C10.9183 8.44676 10.8711 8.68209 10.6971 8.79825Z" fill="white"/>
</svg>
