<svg width="14" height="15" viewBox="0 0 14 15" fill="none" xmlns="http://www.w3.org/2000/svg">
<path d="M6.37966 3.85124C6.423 3.82622 6.46704 3.80372 6.51162 3.78371V6.40803C5.45219 5.94018 5.35297 4.444 6.37966 3.85124Z" fill="#FFBE45"/>
<path d="M7.48837 10.439V7.81456C8.54793 8.28235 8.64721 9.77864 7.62048 10.3714C7.57709 10.3965 7.533 10.419 7.48837 10.439Z" fill="#FFBE45"/>
<path fill-rule="evenodd" clip-rule="evenodd" d="M0 7.11133C0 3.24533 3.13401 0.111328 7 0.111328C10.866 0.111328 14 3.24533 14 7.11133C14 10.9773 10.866 14.1113 7 14.1113C3.13401 14.1113 0 10.9773 0 7.11133ZM7.48837 2.55319C7.48837 2.28347 7.26972 2.06482 7 2.06482C6.73028 2.06482 6.51162 2.28347 6.51162 2.55319V2.75381C6.29886 2.80718 6.09008 2.89058 5.89129 3.00535C4.11891 4.02864 4.34418 6.65481 6.26494 7.3613L6.51162 7.45204V10.51C6.16334 10.4118 5.85216 10.1828 5.65733 9.8454L5.41278 9.42182C5.27792 9.18824 4.97924 9.1082 4.74565 9.24306C4.51207 9.37792 4.43203 9.67661 4.56689 9.91019L4.81145 10.3338C5.18812 10.9862 5.82313 11.3957 6.51162 11.5089V11.6695C6.51162 11.9392 6.73028 12.1578 7 12.1578C7.26972 12.1578 7.48837 11.9392 7.48837 11.6695V11.4689C7.70118 11.4155 7.91002 11.3321 8.10885 11.2173C9.88122 10.194 9.65596 7.56786 7.7352 6.86137L7.48837 6.77059V3.71259C7.83671 3.81081 8.14795 4.03977 8.3428 4.37726L8.58736 4.80084C8.72222 5.03442 9.0209 5.11446 9.25449 4.9796C9.48807 4.84474 9.5681 4.54605 9.43324 4.31247L9.18869 3.88889C8.81199 3.23643 8.17691 2.82688 7.48837 2.7137V2.55319Z" fill="#FFBE45"/>
</svg>
