<svg width="16" height="16" viewBox="0 0 16 16" fill="none" xmlns="http://www.w3.org/2000/svg">
<path d="M7.29104 4.27418C7.34057 4.24559 7.3909 4.21988 7.44186 4.197V7.19624C6.23108 6.66154 6.11768 4.95162 7.29104 4.27418Z" fill="white"/>
<path d="M8.55814 11.8031V8.8037C9.76907 9.33831 9.88253 11.0484 8.70912 11.7258C8.65953 11.7545 8.60914 11.7802 8.55814 11.8031Z" fill="white"/>
<path fill-rule="evenodd" clip-rule="evenodd" d="M0 8C0 3.58172 3.58172 0 8 0C12.4183 0 16 3.58172 16 8C16 12.4183 12.4183 16 8 16C3.58172 16 0 12.4183 0 8ZM8.55814 2.7907C8.55814 2.48245 8.30825 2.23256 8 2.23256C7.69174 2.23256 7.44186 2.48245 7.44186 2.7907V3.01997C7.1987 3.08098 6.96009 3.17629 6.7329 3.30746C4.70733 4.47692 4.96478 7.47826 7.15993 8.28568L7.44186 8.38939V11.8842C7.04381 11.772 6.68818 11.5103 6.46552 11.1247L6.18603 10.6406C6.03191 10.3736 5.69056 10.2821 5.4236 10.4363C5.15665 10.5904 5.06518 10.9317 5.21931 11.1987L5.4988 11.6828C5.92928 12.4284 6.65501 12.8965 7.44186 13.0258V13.2093C7.44186 13.5176 7.69174 13.7674 8 13.7674C8.30825 13.7674 8.55814 13.5176 8.55814 13.2093V12.9801C8.80135 12.9191 9.04002 12.8237 9.26726 12.6926C11.2928 11.5231 11.0354 8.52175 8.84023 7.71433L8.55814 7.61058V4.11573C8.95624 4.22798 9.31194 4.48964 9.53463 4.87535L9.81412 5.35944C9.96825 5.6264 10.3096 5.71786 10.5766 5.56374C10.8435 5.40961 10.935 5.06826 10.7808 4.8013L10.5014 4.31721C10.0708 3.57155 9.34504 3.10349 8.55814 2.97414V2.7907Z" fill="white"/>
</svg>
