<svg width="20" height="15" viewBox="0 0 20 15" fill="none" xmlns="http://www.w3.org/2000/svg">
<path d="M16.6522 1.34699C15.4463 0.782937 14.1407 0.373543 12.7807 0.137005C12.7687 0.136622 12.7569 0.138868 12.7459 0.143583C12.7349 0.148299 12.7251 0.15537 12.7172 0.164298C12.554 0.46452 12.3636 0.855717 12.2366 1.15594C10.7941 0.937596 9.32707 0.937596 7.88453 1.15594C7.75759 0.846619 7.56719 0.46452 7.39492 0.164298C7.38585 0.146103 7.35864 0.137005 7.33144 0.137005C5.9714 0.373543 4.67484 0.782937 3.45987 1.34699C3.45081 1.34699 3.44173 1.35609 3.43267 1.36518C0.966467 5.06791 0.286454 8.67057 0.62193 12.2368C0.62193 12.255 0.630995 12.2732 0.649129 12.2823C2.28117 13.4832 3.84975 14.211 5.40019 14.6932C5.42739 14.7023 5.45459 14.6932 5.46366 14.675C5.82633 14.1746 6.15275 13.647 6.43382 13.092C6.45195 13.0556 6.43382 13.0192 6.39755 13.0101C5.88074 12.81 5.39113 12.5735 4.91058 12.3005C4.87431 12.2823 4.87431 12.2277 4.90151 12.2004C5.00125 12.1277 5.10098 12.0458 5.20072 11.973C5.21885 11.9548 5.24605 11.9548 5.26419 11.9639C8.38321 13.3922 11.747 13.3922 14.8298 11.9639C14.8479 11.9548 14.8751 11.9548 14.8933 11.973C14.993 12.0549 15.0927 12.1277 15.1925 12.2095C15.2287 12.2368 15.2287 12.2914 15.1834 12.3096C14.7119 12.5916 14.2132 12.8191 13.6964 13.0192C13.6602 13.0283 13.6511 13.0738 13.6602 13.1011C13.9503 13.6561 14.2767 14.1837 14.6303 14.6841C14.6575 14.6932 14.6847 14.7023 14.7119 14.6932C16.2714 14.211 17.84 13.4832 19.472 12.2823C19.4902 12.2732 19.4992 12.255 19.4992 12.2368C19.8982 8.11562 18.8374 4.54025 16.6885 1.36518C16.6794 1.35609 16.6704 1.34699 16.6522 1.34699ZM6.9053 10.0625C5.97141 10.0625 5.19166 9.19823 5.19166 8.13381C5.19166 7.06939 5.95327 6.20512 6.9053 6.20512C7.86639 6.20512 8.62801 7.07849 8.61895 8.13381C8.61895 9.19823 7.85733 10.0625 6.9053 10.0625ZM13.2249 10.0625C12.291 10.0625 11.5113 9.19823 11.5113 8.13381C11.5113 7.06939 12.2729 6.20512 13.2249 6.20512C14.186 6.20512 14.9477 7.07849 14.9386 8.13381C14.9386 9.19823 14.186 10.0625 13.2249 10.0625Z" fill="white"/>
</svg>
