<svg width="14" height="15" viewBox="0 0 14 15" fill="none" xmlns="http://www.w3.org/2000/svg">
<path d="M11.4609 9.01266C10.7151 9.01266 10.0444 9.33551 9.57993 9.84959L5.03645 7.59739C5.0633 7.44875 5.07812 7.2959 5.07812 7.13944C5.07812 7.10793 5.07695 7.07666 5.07578 7.0455L9.77611 4.56714C10.2243 4.96679 10.8142 5.2099 11.4609 5.2099C12.8633 5.2099 14 4.06852 14 2.66062C14 1.25268 12.8633 0.111328 11.4609 0.111328C10.0585 0.111328 8.92181 1.25268 8.92181 2.66062C8.92181 2.7658 8.92892 2.86917 8.94121 2.97105L4.37442 5.37892C3.91212 4.89323 3.26105 4.59017 2.53906 4.59017C1.13675 4.59024 0 5.73159 0 7.13952C0 8.54739 1.13675 9.68877 2.5391 9.68877C3.12981 9.68877 3.67289 9.48567 4.10428 9.14597L8.92252 11.5344C8.92242 11.5438 8.92184 11.5528 8.92184 11.562C8.92184 12.9699 10.0586 14.1113 11.4609 14.1113C12.8633 14.1113 14 12.9699 14 11.562C14 10.154 12.8633 9.01266 11.4609 9.01266Z" fill="white"/>
</svg>
