<svg width="11" height="13" viewBox="0 0 11 13" fill="none" xmlns="http://www.w3.org/2000/svg">
<path d="M5.7977 10.6255L10.6706 10.5993L9.47097 9.30405V4.69702C9.47097 2.99192 8.24034 1.60489 6.66874 1.43766V1.39832H5.17154C5.14984 1.39832 5.13124 1.40487 5.10954 1.40487H4.86156V1.43111C3.28996 1.59834 2.05934 2.98536 2.05934 4.69046V9.29749L0.853516 10.5993L5.7264 10.6255H5.7636H5.7977Z" fill="white"/>
<path d="M5.75819 12.5999C6.48354 12.5999 7.0725 11.9802 7.0818 11.2162H4.43457C4.44387 11.9802 5.03283 12.5999 5.75819 12.5999Z" fill="white"/>
<path d="M6.71843 1.1003C6.71843 1.64134 6.30305 2.08073 5.79159 2.08073C5.28012 2.08073 4.86475 1.64134 4.86475 1.1003C4.86475 0.559262 5.28012 0.119873 5.79159 0.119873C6.30305 0.119873 6.71843 0.559262 6.71843 1.1003Z" fill="white"/>
</svg>
