<svg width="24" height="24" viewBox="0 0 24 24" fill="none" xmlns="http://www.w3.org/2000/svg">
<path d="M23.5814 11.7907C23.5814 18.3025 18.3025 23.5814 11.7907 23.5814C5.27888 23.5814 0 18.3025 0 11.7907C0 5.27888 5.27888 0 11.7907 0C18.3025 0 23.5814 5.27888 23.5814 11.7907Z" fill="url(#paint0_linear_776_1666)"/>
<path d="M15.8236 13.5992C15.1844 13.5992 14.6095 13.8748 14.2114 14.3137L10.317 12.391C10.34 12.2641 10.3527 12.1336 10.3527 12C10.3527 11.9731 10.3517 11.9464 10.3507 11.9198L14.3795 9.804C14.7637 10.1452 15.2693 10.3527 15.8236 10.3527C17.0257 10.3527 18 9.37832 18 8.17637C18 6.97439 17.0257 6 15.8236 6C14.6216 6 13.6473 6.97439 13.6473 8.17637C13.6473 8.26617 13.6534 8.35442 13.6639 8.44139L9.74951 10.497C9.35324 10.0824 8.79518 9.82366 8.17634 9.82366C6.97436 9.82372 6 10.7981 6 12.0001C6 13.202 6.97436 14.1764 8.17637 14.1764C8.6827 14.1764 9.14819 14.003 9.51795 13.713L13.6479 15.7521C13.6478 15.7601 13.6473 15.7678 13.6473 15.7757C13.6473 16.9776 14.6216 17.952 15.8237 17.952C17.0257 17.952 18 16.9776 18 15.7756C18 14.5736 17.0257 13.5993 15.8236 13.5993L15.8236 13.5992Z" fill="white"/>
<defs>
<linearGradient id="paint0_linear_776_1666" x1="0.0517138" y1="1.45501" x2="23.9627" y2="1.90823" gradientUnits="userSpaceOnUse">
<stop stop-color="#1889E4"/>
<stop offset="1" stop-color="#0BEBD6"/>
</linearGradient>
</defs>
</svg>
