<svg width="9" height="11" viewBox="0 0 9 11" fill="none" xmlns="http://www.w3.org/2000/svg">
<path fill-rule="evenodd" clip-rule="evenodd" d="M5.64561 9.79294C6.85517 8.25052 8.37877 6.00963 8.37877 4.50814C8.37877 2.01836 6.50312 0 4.18938 0C1.87565 0 0 2.01836 0 4.50814C0 6.00963 1.5236 8.25052 2.73316 9.79294C3.3642 10.5976 3.67973 11 4.18938 11C4.69904 11 5.01456 10.5976 5.64561 9.79294ZM4.18938 6.28408C3.32173 6.28408 2.61837 5.58071 2.61837 4.71306C2.61837 3.84541 3.32173 3.14204 4.18938 3.14204C5.05703 3.14204 5.7604 3.84541 5.7604 4.71306C5.7604 5.58071 5.05703 6.28408 4.18938 6.28408Z" fill="#FAFAFA"/>
</svg>
