<svg width="16" height="18" viewBox="0 0 16 18" fill="none" xmlns="http://www.w3.org/2000/svg">
<path fill-rule="evenodd" clip-rule="evenodd" d="M8.45084 3.32397V4.78876H7.66211V3.32397H8.45084Z" fill="white"/>
<path fill-rule="evenodd" clip-rule="evenodd" d="M8.45084 14.5352V15.9999H7.66211V14.5352H8.45084Z" fill="white"/>
<path fill-rule="evenodd" clip-rule="evenodd" d="M8.45084 0.338135V1.80292H7.66211V0.338135H8.45084Z" fill="white"/>
<path fill-rule="evenodd" clip-rule="evenodd" d="M9.52051 0.788732L6.59093 0.788732L6.59093 6.26443e-09L9.52051 0L9.52051 0.788732Z" fill="white"/>
<path fill-rule="evenodd" clip-rule="evenodd" d="M8.45084 5.74646V10.0282H7.66211V5.74646H8.45084Z" fill="white"/>
<path fill-rule="evenodd" clip-rule="evenodd" d="M8.39551 10.0282L4.11382 10.0282L4.11382 9.2395L8.39551 9.2395L8.39551 10.0282Z" fill="white"/>
<path fill-rule="evenodd" clip-rule="evenodd" d="M3.21094 10.0282L1.74615 10.0282L1.74614 9.23951L3.21093 9.2395L3.21094 10.0282Z" fill="white"/>
<path fill-rule="evenodd" clip-rule="evenodd" d="M8 16.6197C11.8582 16.6197 14.9859 13.492 14.9859 9.63379C14.9859 5.77557 11.8582 2.64787 8 2.64787C4.14179 2.64787 1.01408 5.77557 1.01408 9.63379C1.01408 13.492 4.14179 16.6197 8 16.6197ZM8 17.6338C12.4183 17.6338 16 14.0521 16 9.63379C16 5.21551 12.4183 1.63379 8 1.63379C3.58172 1.63379 0 5.21551 0 9.63379C0 14.0521 3.58172 17.6338 8 17.6338Z" fill="white"/>
</svg>
