<svg width="38" height="39" viewBox="0 0 38 39" fill="none" xmlns="http://www.w3.org/2000/svg">
<path d="M27.4453 1L27.4453 7.33333M10.5564 1L10.5564 7.33334" stroke="url(#paint0_linear_2963_5617)" stroke-width="2" stroke-linecap="round"/>
<path fill-rule="evenodd" clip-rule="evenodd" d="M25.4446 3.11084H25.3333H12.6667H12.5557L12.5557 7.33309C12.5557 8.43766 11.6602 9.33309 10.5557 9.33309C9.4511 9.33309 8.55567 8.43766 8.55567 7.33309L8.55568 3.14418C5.20905 3.23811 3.22409 3.59673 1.85499 4.96583C0 6.82082 0 9.80639 0 15.7775V26.3331C0 32.3042 0 35.2898 1.85499 37.1448C3.70998 38.9997 6.69553 38.9997 12.6666 38.9997H12.6667H25.3333H25.3334C31.3045 38.9997 34.29 38.9997 36.145 37.1448C38 35.2898 38 32.3042 38 26.3331V15.7775C38 9.80639 38 6.82082 36.145 4.96583C34.776 3.59676 32.7911 3.23813 29.4446 3.14418L29.4446 7.33308C29.4446 8.43765 28.5491 9.33308 27.4446 9.33308C26.34 9.33308 25.4446 8.43765 25.4446 7.33308L25.4446 3.11084ZM9.55637 19.9998C9.55637 19.4475 10.0041 18.9998 10.5564 18.9998H27.4453C27.9975 18.9998 28.4453 19.4475 28.4453 19.9998C28.4453 20.5521 27.9976 20.9998 27.4453 20.9998H10.5564C10.0041 20.9998 9.55637 20.5521 9.55637 19.9998ZM10.5564 27.4446C10.0041 27.4446 9.55637 27.8923 9.55637 28.4446C9.55637 28.9968 10.0041 29.4446 10.5564 29.4446H27.4453C27.9976 29.4446 28.4453 28.9968 28.4453 28.4446C28.4453 27.8923 27.9975 27.4446 27.4453 27.4446H10.5564Z" fill="url(#paint1_linear_2963_5617)"/>
<defs>
<linearGradient id="paint0_linear_2963_5617" x1="27.4453" y1="1" x2="26.9596" y2="8.40871" gradientUnits="userSpaceOnUse">
<stop stop-color="#CD28E8"/>
<stop offset="1" stop-color="#0BEBD6"/>
</linearGradient>
<linearGradient id="paint1_linear_2963_5617" x1="0" y1="3.11084" x2="43.1643" y2="11.1008" gradientUnits="userSpaceOnUse">
<stop stop-color="#CD28E8"/>
<stop offset="1" stop-color="#0BEBD6"/>
</linearGradient>
</defs>
</svg>
