<svg width="9" height="12" viewBox="0 0 9 12" fill="none" xmlns="http://www.w3.org/2000/svg">
<path fill-rule="evenodd" clip-rule="evenodd" d="M6.00597 10.4647C7.29273 8.86057 8.91358 6.53004 8.91358 4.9685C8.91358 2.37913 6.91821 0.280029 4.45679 0.280029C1.99537 0.280029 0 2.37913 0 4.9685C0 6.53004 1.62085 8.86057 2.90761 10.4647C3.57894 11.3016 3.9146 11.72 4.45679 11.72C4.99898 11.72 5.33464 11.3016 6.00597 10.4647ZM4.45679 6.81547C3.53376 6.81547 2.78549 6.08396 2.78549 5.18161C2.78549 4.27925 3.53376 3.54775 4.45679 3.54775C5.37982 3.54775 6.12809 4.27925 6.12809 5.18161C6.12809 6.08396 5.37982 6.81547 4.45679 6.81547Z" fill="#0BEBD6"/>
</svg>
