<svg width="218" height="218" viewBox="0 0 218 218" fill="none" xmlns="http://www.w3.org/2000/svg">
<circle cx="108.928" cy="108.928" r="20" transform="rotate(1.15411 108.928 108.928)" fill="white"/>
<path d="M70.7702 69.2009C67.0557 65.3337 60.8413 65.1729 57.565 69.4178C49.0444 80.4574 44.2152 94.0072 43.931 108.118C43.6467 122.229 47.9263 135.963 55.9952 147.337C59.0979 151.71 65.3138 151.8 69.181 148.085V148.085C73.0483 144.371 73.0653 138.261 70.2419 133.703C65.5971 126.203 63.165 117.464 63.3454 108.509C63.5258 99.5544 66.3079 90.9207 71.2509 83.6145C74.2557 79.1733 74.4847 73.0682 70.7702 69.2009V69.2009Z" fill="white"/>
<path d="M149.654 70.7902C153.522 67.0757 159.737 67.1653 162.84 71.5388C170.909 82.9126 175.189 96.6459 174.904 110.757C174.62 124.868 169.791 138.418 161.27 149.457C157.994 153.702 151.78 153.542 148.065 149.674V149.674C144.351 145.807 144.58 139.702 147.584 135.261C152.527 127.955 155.31 119.321 155.49 110.366C155.67 101.411 153.238 92.672 148.593 85.1728C145.77 80.6141 145.787 74.5048 149.654 70.7902V70.7902Z" fill="white"/>
<path d="M45.9068 39.4093C41.3933 34.4304 33.6367 34.0116 29.2076 39.0657C22.3107 46.9358 16.6022 55.801 12.285 65.3825C6.29756 78.6708 3.11484 93.0511 2.93572 107.625C2.75659 122.199 5.58492 136.653 11.244 150.085C15.3244 159.769 20.8132 168.772 27.5146 176.809C31.8182 181.971 39.5827 181.743 44.2173 176.876V176.876C48.8518 172.01 48.5784 164.354 44.4539 159.049C40.0803 153.423 36.4511 147.235 33.6707 140.636C29.3109 130.288 27.1319 119.152 27.2699 107.924C27.4079 96.6962 29.8599 85.6173 34.4728 75.3798C37.4145 68.8511 41.1947 62.7539 45.7052 57.2371C49.9589 52.0345 50.4204 44.3882 45.9068 39.4093V39.4093Z" fill="white"/>
<path d="M174.697 42.0039C179.408 37.2108 187.175 37.1047 191.397 42.3331C197.971 50.4746 203.318 59.5625 207.246 69.3101C212.693 82.8288 215.294 97.3256 214.886 111.895C214.478 126.464 211.07 140.793 204.875 153.985C200.407 163.498 194.56 172.272 187.541 180.033C183.033 185.017 175.284 184.476 170.849 179.427V179.427C166.414 174.378 166.996 166.74 171.331 161.605C175.927 156.16 179.803 150.123 182.847 143.641C187.62 133.477 190.245 122.438 190.56 111.214C190.874 99.9893 188.87 88.8207 184.673 78.4057C181.997 71.7638 178.465 65.5193 174.181 59.8253C170.14 54.4556 169.987 46.7969 174.697 42.0039V42.0039Z" fill="white"/>
</svg>
