<svg width="217" height="217" viewBox="0 0 217 217" fill="white" xmlns="http://www.w3.org/2000/svg">
<circle cx="108.113" cy="108.114" r="20" transform="rotate(1.15411 108.113 108.114)" fill="#ffffff"/>
<path d="M69.9559 68.3867C66.2413 64.5195 60.0269 64.3587 56.7506 68.6036C48.2301 79.6432 43.4009 93.193 43.1166 107.304C42.8324 121.415 47.1119 135.148 55.1809 146.522C58.2836 150.896 64.4994 150.985 68.3667 147.271V147.271C72.234 143.556 72.251 137.447 69.4275 132.888C64.7828 125.389 62.3507 116.65 62.5311 107.695C62.7115 98.7402 65.4936 90.1064 70.4366 82.8003C73.4414 78.3591 73.6704 72.254 69.9559 68.3867V68.3867Z" fill="white"/>
<path d="M148.84 69.976C152.707 66.2615 158.923 66.3511 162.026 70.7246C170.095 82.0984 174.374 95.8317 174.09 109.943C173.806 124.054 168.977 137.604 160.456 148.643C157.18 152.888 150.965 152.727 147.251 148.86V148.86C143.536 144.993 143.765 138.888 146.77 134.447C151.713 127.14 154.495 118.507 154.676 109.552C154.856 100.597 152.424 91.8578 147.779 84.3586C144.956 79.7999 144.973 73.6906 148.84 69.976V69.976Z" fill="white"/>
<path d="M45.0926 38.5951C40.5791 33.6162 32.8225 33.1974 28.3934 38.2515C21.4965 46.1216 15.788 54.9868 11.4708 64.5682C5.48335 77.8566 2.30063 92.2369 2.12151 106.811C1.94238 121.385 4.77071 135.839 10.4298 149.27C14.5102 158.955 19.999 167.958 26.7004 175.995C31.004 181.157 38.7685 180.928 43.4031 176.062V176.062C48.0376 171.196 47.7642 163.54 43.6397 158.235C39.2661 152.609 35.6369 146.42 32.8565 139.821C28.4967 129.474 26.3177 118.338 26.4557 107.11C26.5937 95.882 29.0457 84.8031 33.6586 74.5656C36.6003 68.0368 40.3805 61.9397 44.891 56.4229C49.1447 51.2203 49.6062 43.574 45.0926 38.5951V38.5951Z" fill="white"/>
<path d="M173.883 41.1897C178.594 36.3966 186.361 36.2905 190.583 41.5189C197.157 49.6604 202.504 58.7483 206.432 68.4959C211.879 82.0146 214.48 96.5114 214.072 111.081C213.664 125.65 210.256 139.979 204.06 153.171C199.593 162.684 193.746 171.458 186.727 179.219C182.219 184.203 174.47 183.662 170.035 178.613V178.613C165.6 173.564 166.182 165.926 170.516 160.791C175.113 155.345 178.989 149.308 182.032 142.827C186.805 132.663 189.431 121.624 189.745 110.399C190.06 99.1751 188.056 88.0065 183.859 77.5915C181.183 70.9496 177.651 64.7051 173.367 59.0111C169.326 53.6414 169.173 45.9827 173.883 41.1897V41.1897Z" fill="white"/>
</svg>
