<svg width="10" height="10" viewBox="0 0 10 10" fill="none" xmlns="http://www.w3.org/2000/svg">
<path d="M4.5569 2.67136C4.58786 2.65349 4.61931 2.63743 4.65116 2.62313V4.49765C3.89442 4.16346 3.82355 3.09476 4.5569 2.67136Z" fill="#FAFAFA"/>
<path d="M5.34883 7.37692V5.50231C6.10567 5.83644 6.17658 6.90522 5.4432 7.32864C5.41221 7.34653 5.38072 7.36261 5.34883 7.37692Z" fill="#FAFAFA"/>
<path fill-rule="evenodd" clip-rule="evenodd" d="M0 5C0 2.23858 2.23858 0 5 0C7.76142 0 10 2.23858 10 5C10 7.76142 7.76142 10 5 10C2.23858 10 0 7.76142 0 5ZM5.34883 1.74419C5.34883 1.55153 5.19265 1.39535 5 1.39535C4.80734 1.39535 4.65116 1.55153 4.65116 1.74419V1.88748C4.49918 1.92561 4.35005 1.98518 4.20806 2.06716C2.94208 2.79808 3.10299 4.67391 4.47496 5.17855L4.65116 5.24337V7.42764C4.40238 7.35747 4.18011 7.19394 4.04095 6.95291L3.86627 6.65035C3.76994 6.48351 3.5566 6.42634 3.38975 6.52267C3.2229 6.619 3.16574 6.83234 3.26207 6.99919L3.43675 7.30175C3.7058 7.76775 4.15938 8.06028 4.65116 8.14115V8.25581C4.65116 8.44847 4.80734 8.60465 5 8.60465C5.19266 8.60465 5.34883 8.44847 5.34883 8.25581V8.11255C5.50085 8.07442 5.65001 8.01484 5.79204 7.93284C7.05802 7.20193 6.89711 5.32609 5.52514 4.82146L5.34883 4.75661V2.57233C5.59765 2.64249 5.81996 2.80603 5.95914 3.04709L6.13383 3.34965C6.23015 3.5165 6.4435 3.57366 6.61035 3.47733C6.77719 3.38101 6.83436 3.16766 6.73803 3.00081L6.56335 2.69826C6.29428 2.23222 5.84065 1.93968 5.34883 1.85883V1.74419Z" fill="#FAFAFA"/>
</svg>
