<svg width="46" height="46" viewBox="0 0 46 46" fill="none" xmlns="http://www.w3.org/2000/svg">
<path d="M22 4H2V44H42V24" stroke="white" stroke-width="3" stroke-linecap="round"/>
<path d="M20.9342 22.9445C20.3513 23.5331 20.3559 24.4828 20.9445 25.0658C21.5331 25.6487 22.4828 25.6441 23.0658 25.0555L20.9342 22.9445ZM45.2879 1.99274C45.2838 1.16432 44.609 0.496006 43.7806 0.500019L30.2808 0.565419C29.4523 0.569432 28.784 1.24425 28.788 2.07267C28.7921 2.90109 29.4669 3.5694 30.2953 3.56538L42.2952 3.50725L42.3533 15.5071C42.3573 16.3355 43.0321 17.0038 43.8605 16.9998C44.689 16.9958 45.3573 16.321 45.3533 15.4926L45.2879 1.99274ZM23.0658 25.0555L44.8537 3.05551L42.7221 0.944492L20.9342 22.9445L23.0658 25.0555Z" fill="white"/>
</svg>
