<svg width="11" height="11" viewBox="0 0 11 11" fill="none" xmlns="http://www.w3.org/2000/svg">
<path d="M4.84777 3.09817C4.8807 3.07958 4.91416 3.06287 4.94804 3.048V4.9975C4.143 4.64995 4.06761 3.5385 4.84777 3.09817Z" fill="#FFBE45"/>
<path d="M5.69025 7.99195V6.04235C6.49539 6.38985 6.57083 7.50138 5.79064 7.94173C5.75767 7.96034 5.72417 7.97706 5.69025 7.99195Z" fill="#FFBE45"/>
<path fill-rule="evenodd" clip-rule="evenodd" d="M0 5.51995C0 2.64807 2.38146 0.319946 5.31915 0.319946C8.25683 0.319946 10.6383 2.64807 10.6383 5.51995C10.6383 8.39183 8.25683 10.7199 5.31915 10.7199C2.38146 10.7199 0 8.39183 0 5.51995ZM5.69025 2.1339C5.69025 1.93354 5.5241 1.77111 5.31915 1.77111C5.11419 1.77111 4.94804 1.93354 4.94804 2.1339V2.28293C4.78637 2.32258 4.62772 2.38453 4.47666 2.46979C3.12987 3.22995 3.30105 5.18082 4.76059 5.70564L4.94804 5.77305V8.0447C4.68339 7.97172 4.44693 7.80165 4.29889 7.55097L4.11305 7.23631C4.01058 7.06279 3.78361 7.00334 3.60612 7.10352C3.42862 7.2037 3.36781 7.42558 3.47028 7.5991L3.65612 7.91376C3.94234 8.39841 4.42487 8.70264 4.94804 8.78674V8.90599C4.94804 9.10636 5.11419 9.26878 5.31915 9.26878C5.5241 9.26878 5.69025 9.10636 5.69025 8.90599V8.75699C5.85196 8.71734 6.01065 8.65538 6.16174 8.5701C7.50853 7.80995 7.33736 5.85908 5.87781 5.33426L5.69025 5.26682V2.99517C5.95495 3.06813 6.19145 3.23821 6.33952 3.48892L6.52535 3.80358C6.62782 3.9771 6.85479 4.03656 7.03228 3.93637C7.20978 3.83619 7.27059 3.61431 7.16812 3.44079L6.98229 3.12613C6.69604 2.64145 6.21346 2.33721 5.69025 2.25313V2.1339Z" fill="#FFBE45"/>
</svg>
