<svg width="752" height="248" viewBox="0 0 752 248" fill="none" xmlns="http://www.w3.org/2000/svg">
<g opacity="0.48">
<path d="M12.3952 208.152L21.8912 199.624L95.9599 32.387H161.482C164.521 32.387 164.015 34.5979 163.381 35.7033C139.641 89.7119 91.8766 198.487 90.7371 201.519C89.5976 204.551 91.2119 204.993 92.1615 204.835H185.222L195.668 196.308C197.884 191.254 202.695 180.295 204.214 176.884C205.734 173.473 203.581 172.936 202.315 173.094H138.692C135.653 173.094 136.16 171.199 136.793 170.251C159.267 118.611 204.879 13.9104 207.538 8.22529C208.677 1.78217 204.214 0.80308 201.84 1.11893H84.5647C83.0454 -0.0180947 76.0183 7.2778 72.6947 11.0679L1 174.989V184.464C3.05746 190.465 7.45727 203.225 8.59679 206.257C9.73631 209.289 11.6039 208.783 12.3952 208.152Z" stroke="url(#paint0_linear_8385_12621)" stroke-opacity="0.5"/>
<path d="M115.901 43.2835L105.456 52.2849C80.1333 110.241 28.6333 228.239 25.2148 236.577C21.7962 244.915 29.1714 247 33.2864 247H208.487C213.045 247 215.135 245.737 215.609 245.105C218.3 242.736 223.871 237.904 224.631 237.525C225.39 237.146 226.53 235.472 227.005 234.682C239.349 206.888 264.704 149.5 267.363 142.299C270.021 135.098 263.722 132.35 260.241 131.876H180.474C179.335 131.876 177.784 132.824 177.151 133.298L167.655 141.352C165.281 146.879 160.248 158.502 159.108 160.776C157.969 163.05 159.9 163.934 161.007 164.092H221.307C225.865 163.713 225.105 166.777 224.156 168.356L204.214 215.258H70.3207C66.9022 215.258 66.9971 213.363 67.4719 212.416C91.5285 157.775 139.831 47.9263 140.591 45.6523C141.351 43.3782 139.641 42.4939 138.692 42.336H117.801C117.041 42.336 116.218 42.9676 115.901 43.2835Z" stroke="url(#paint1_linear_8385_12621)" stroke-opacity="0.5"/>
<path d="M83.8126 1.11911C82.6769 1.4983 75.768 7.91294 72.4555 11.0729L1 175.547V184.079C3.0506 190.083 7.43573 202.849 8.57145 205.882C9.70717 208.916 11.5684 208.726 12.3571 208.252L20.8751 200.194H19.4554L18.509 197.35L12.3571 178.865C10.0856 172.039 10.7797 166.857 11.4106 165.119C35.0714 110.926 82.6769 2.25668 83.8126 1.11911Z" stroke="url(#paint2_linear_8385_12621)" stroke-opacity="0.5"/>
<path d="M98.4825 25.7665L95.6432 32.4023H160.474C163.881 32.4023 163.471 34.9303 162.84 36.1943C139.494 90.0709 92.4253 198.583 90.911 201.616C89.3967 204.65 91.542 205.092 92.8039 204.934H184.608L194.545 196.876H104.161C99.6182 196.876 99.7444 194.348 100.375 193.084C124.036 138.734 171.642 29.4636 172.777 27.1885C173.913 25.2925 172.099 24.1865 171.05 23.8706H101.795C99.9021 23.8706 98.7979 25.1345 98.4825 25.7665Z" stroke="url(#paint3_linear_8385_12621)" stroke-opacity="0.5"/>
<path d="M176.563 133.362L167.099 141.42C164.89 146.634 160.19 157.725 159.054 160.379C157.918 163.034 160.158 164.013 161.42 164.171H221.519C224.169 164.171 224.2 166.383 223.885 167.489L203.063 215.362C202.905 215.52 203.252 215.836 205.902 215.836C208.552 215.836 209.53 213.94 209.688 212.992C216.786 196.718 231.456 163.223 233.349 159.431C235.242 155.639 232.56 155.323 230.983 155.639H170.411C167.761 155.639 168.045 153.427 168.518 152.321L176.563 133.362Z" stroke="url(#paint4_linear_8385_12621)" stroke-opacity="0.5"/>
<path d="M115.991 42.8301L105.581 51.8359C79.5538 111.4 26.9322 232.046 24.6608 238.113C22.3894 244.18 28.131 246.645 31.2858 247.119H208.742C211.013 247.119 213.789 245.539 214.894 244.749L221.519 239.061H41.2233C32.8947 239.061 33.3364 232.425 34.5983 229.108L115.991 42.8301Z" stroke="url(#paint5_linear_8385_12621)" stroke-opacity="0.5"/>
<g filter="url(#filter0_d_8385_12621)">
<path d="M635.298 155.742C635.215 155.658 635.129 155.56 635.043 155.447M635.043 155.447C634.309 154.489 633.602 152.537 635.298 150.482C637.193 148.187 646.827 134.863 651.407 128.488C651.881 127.85 653.492 126.575 656.145 126.575C658.799 126.575 716.634 126.575 745.22 126.575C747.431 126.735 751.001 127.914 747.589 131.357C744.178 134.799 737.955 141.079 735.27 143.788C734.639 144.426 732.617 145.701 729.585 145.701C726.552 145.701 687.258 145.701 667.99 145.701L660.883 152.873C660.409 153.67 659.746 155.646 660.883 157.176C662.02 158.706 664.516 161.958 665.621 163.392L729.585 163.87C729.901 163.711 731.006 163.966 732.901 166.261C734.797 168.556 743.483 180.287 747.589 185.865C748.221 186.662 749.105 188.829 747.589 191.125C746.073 193.42 736.534 206.425 731.954 212.641L640.984 213.119C638.772 212.96 635.203 211.78 638.614 208.338C642.026 204.895 649.196 197.34 652.355 193.993L717.266 193.515L722.004 188.256C722.478 187.618 723.141 185.961 722.004 184.431C720.867 182.901 718.371 179.968 717.266 178.693H654.724C653.776 178.852 651.597 178.693 650.46 176.78C649.322 174.868 639.708 161.761 635.043 155.447ZM288.474 128.966C288.316 128.328 288.379 126.767 289.895 125.619C291.411 124.471 304.109 117.172 310.269 113.665C311.532 113.028 314.059 112.422 314.059 115.1C314.059 117.777 314.059 166.58 314.059 190.646C313.901 191.762 314.438 193.993 317.85 193.993C321.261 193.993 361.597 193.675 381.339 193.515C382.919 193.993 385.509 195.523 383.234 197.819C380.96 200.114 373.127 208.338 369.494 212.163C368.862 212.482 367.03 213.119 364.756 213.119C362.482 213.119 314.533 213.119 290.843 213.119C289.895 212.96 288 212.067 288 209.772C288 207.477 288.316 154.945 288.474 128.966ZM386.551 129.444C386.551 128.488 387.12 126.575 389.394 126.575C391.668 126.575 403.608 126.575 409.294 126.575C410.241 126.575 412.136 127.149 412.136 129.444C412.136 131.739 412.136 171.202 412.136 190.646C411.979 191.762 412.516 193.993 415.927 193.993C419.338 193.993 447.356 193.993 460.938 193.993C462.202 193.993 464.729 193.037 464.729 189.212C464.729 185.387 464.729 147.773 464.729 129.444C464.571 128.488 464.918 126.193 467.571 124.663C470.225 123.133 480.996 117.012 486.05 114.144C487.471 113.347 490.314 112.518 490.314 115.578C490.314 118.638 490.314 168.492 490.314 193.037L472.31 211.207C471.678 211.685 469.94 212.641 468.045 212.641C466.15 212.641 426.824 212.641 407.398 212.641C406.767 212.641 405.219 212.258 404.082 210.728C402.945 209.198 392.553 198.934 387.499 193.993C387.183 193.515 386.551 192.176 386.551 190.646C386.551 189.116 386.551 149.207 386.551 129.444ZM577.02 213.119L592.182 198.297C593.129 196.703 593.887 193.515 589.339 193.515C584.79 193.515 545.433 193.515 526.323 193.515C525.218 193.675 523.006 193.324 523.006 190.646C523.006 187.969 523.006 162.436 523.006 150.004C523.006 148.57 523.67 145.701 526.323 145.701C528.976 145.701 562.174 145.701 578.441 145.701C579.389 145.701 581.474 145.414 582.232 144.267C582.99 143.119 591.076 134.863 595.025 130.879C596.446 129.285 597.773 126.097 591.708 126.097C585.643 126.097 539.274 126.097 516.847 126.097L497.421 145.701V193.515L516.847 213.119H577.02ZM603.079 129.444C602.921 128.488 603.079 126.288 604.974 125.141C606.87 123.993 618.715 117.331 624.4 114.144C625.822 113.347 628.665 112.709 628.665 116.534C628.665 120.359 628.665 180.605 628.665 210.25C628.823 211.207 628.475 213.119 625.822 213.119C623.169 213.119 611.766 213.119 606.396 213.119C605.29 213.119 603.079 212.545 603.079 210.25C603.079 207.955 603.079 155.423 603.079 129.444Z" stroke="url(#paint6_linear_8385_12621)" stroke-opacity="0.8" shape-rendering="crispEdges"/>
</g>
</g>
<defs>
<filter id="filter0_d_8385_12621" x="272.325" y="111.671" width="479.072" height="118.072" filterUnits="userSpaceOnUse" color-interpolation-filters="sRGB">
<feFlood flood-opacity="0" result="BackgroundImageFix"/>
<feColorMatrix in="SourceAlpha" type="matrix" values="0 0 0 0 0 0 0 0 0 0 0 0 0 0 0 0 0 0 127 0" result="hardAlpha"/>
<feOffset dx="-6.63893" dy="7.58735"/>
<feGaussianBlur stdDeviation="4.26788"/>
<feComposite in2="hardAlpha" operator="out"/>
<feColorMatrix type="matrix" values="0 0 0 0 0 0 0 0 0 0 0 0 0 0 0 0 0 0 1 0"/>
<feBlend mode="normal" in2="BackgroundImageFix" result="effect1_dropShadow_8385_12621"/>
<feBlend mode="normal" in="SourceGraphic" in2="effect1_dropShadow_8385_12621" result="shape"/>
</filter>
<linearGradient id="paint0_linear_8385_12621" x1="134" y1="247" x2="15.2064" y2="92.1083" gradientUnits="userSpaceOnUse">
<stop offset="0.284536" stop-color="white" stop-opacity="0.54"/>
<stop offset="1" stop-color="#0BEBD6"/>
</linearGradient>
<linearGradient id="paint1_linear_8385_12621" x1="134" y1="247" x2="15.2064" y2="92.1083" gradientUnits="userSpaceOnUse">
<stop offset="0.284536" stop-color="white" stop-opacity="0.54"/>
<stop offset="1" stop-color="#0BEBD6"/>
</linearGradient>
<linearGradient id="paint2_linear_8385_12621" x1="117" y1="177" x2="31.0601" y2="75.8098" gradientUnits="userSpaceOnUse">
<stop stop-color="white" stop-opacity="0.52"/>
<stop offset="1" stop-color="#0BEBD6"/>
</linearGradient>
<linearGradient id="paint3_linear_8385_12621" x1="117" y1="177" x2="31.0601" y2="75.8098" gradientUnits="userSpaceOnUse">
<stop stop-color="white" stop-opacity="0.52"/>
<stop offset="1" stop-color="#0BEBD6"/>
</linearGradient>
<linearGradient id="paint4_linear_8385_12621" x1="117" y1="177" x2="31.0601" y2="75.8098" gradientUnits="userSpaceOnUse">
<stop stop-color="white" stop-opacity="0.52"/>
<stop offset="1" stop-color="#0BEBD6"/>
</linearGradient>
<linearGradient id="paint5_linear_8385_12621" x1="117" y1="177" x2="31.0601" y2="75.8098" gradientUnits="userSpaceOnUse">
<stop stop-color="white" stop-opacity="0.52"/>
<stop offset="1" stop-color="#0BEBD6"/>
</linearGradient>
<linearGradient id="paint6_linear_8385_12621" x1="518.5" y1="113.119" x2="518.5" y2="213.119" gradientUnits="userSpaceOnUse">
<stop stop-color="white" stop-opacity="0.57"/>
<stop offset="1" stop-color="white" stop-opacity="0.79"/>
</linearGradient>
</defs>
</svg>