<svg width="144" height="115" viewBox="0 0 144 115" fill="none" xmlns="http://www.w3.org/2000/svg">
<path d="M130.013 79.2602C130.61 79.1398 130.963 78.5175 130.728 77.9558C128.61 72.8897 124.469 68.4266 118.854 65.1823C112.844 61.7101 105.48 59.8281 97.9053 59.8281C90.3301 59.8281 82.9665 61.7101 76.9567 65.1823C71.3413 68.4266 67.201 72.8897 65.0823 77.9557C64.8474 78.5175 65.2004 79.1397 65.7973 79.2602L89.9947 84.1419C95.2158 85.1953 100.595 85.1953 105.816 84.1419L130.013 79.2602Z" fill="url(#paint0_linear_2963_5723)"/>
<ellipse cx="97.9067" cy="37.4669" rx="19.1177" ry="18.507" fill="url(#paint1_linear_2963_5723)"/>
<path d="M99.9506 96.4005C100.548 96.2801 100.9 95.6582 100.672 95.0937C98.0066 88.5061 92.671 82.6993 85.3952 78.4957C77.7247 74.0642 68.3265 71.6621 58.6582 71.6621C48.9898 71.6621 39.5916 74.0642 31.9212 78.4957C24.6453 82.6993 19.3098 88.5061 16.6444 95.0937C16.416 95.6582 16.7688 96.28 17.3657 96.4005L50.7476 103.135C55.9687 104.189 61.3476 104.189 66.5687 103.135L99.9506 96.4005Z" fill="url(#paint2_linear_2963_5723)"/>
<ellipse cx="58.658" cy="43.1222" rx="24.4002" ry="23.6207" fill="url(#paint3_linear_2963_5723)"/>
<defs>
<linearGradient id="paint0_linear_2963_5723" x1="131.359" y1="59.8281" x2="113.924" y2="102.585" gradientUnits="userSpaceOnUse">
<stop stop-color="#3BE2CD"/>
<stop offset="1" stop-color="#33AFD4"/>
</linearGradient>
<linearGradient id="paint1_linear_2963_5723" x1="117.148" y1="18.96" x2="81.5321" y2="54.1253" gradientUnits="userSpaceOnUse">
<stop stop-color="#3BE2CD"/>
<stop offset="1" stop-color="#33AFD4"/>
</linearGradient>
<linearGradient id="paint2_linear_2963_5723" x1="16.2344" y1="71.6621" x2="99.2186" y2="108.885" gradientUnits="userSpaceOnUse">
<stop stop-color="#CD28E8"/>
<stop offset="1" stop-color="#0BEBD6"/>
</linearGradient>
<linearGradient id="paint3_linear_2963_5723" x1="34.2578" y1="19.5015" x2="89.7789" y2="29.5281" gradientUnits="userSpaceOnUse">
<stop stop-color="#CD28E8"/>
<stop offset="1" stop-color="#0BEBD6"/>
</linearGradient>
</defs>
</svg>
