<svg width="60" height="48" viewBox="0 0 60 48" fill="none" xmlns="http://www.w3.org/2000/svg">
<path fill-rule="evenodd" clip-rule="evenodd" d="M40.0176 20.7664C49.6778 20.7664 54.6539 29.0562 57.6509 38.1351L59.9222 45.2738C60.3652 46.5734 58.829 47.7245 57.5096 47.7245H52.2412C52.8256 46.7127 52.9764 45.6358 52.6088 44.4755L50.2621 37.2718C48.1416 30.8571 44.9184 24.2939 39.5087 20.7664C39.6501 20.7664 39.8009 20.7664 40.0176 20.7664ZM20.0376 20.7664C28.9626 20.7664 33.9388 27.8308 36.9452 36.1206L37.0206 36.3342L37.096 36.4084V36.5569L37.1714 36.7797L37.2468 36.854V37.0025L37.3222 37.216L37.3976 37.2903V37.5038L37.473 37.7173H37.5484V37.9309L37.6238 38.1444L39.9705 45.2831V45.3573L40.0459 45.4316C40.1213 45.7937 40.0459 46.0814 39.8951 46.4435H39.8197L39.16 47.7431H37.5484H22.5257H2.47028C1.15085 47.7431 -0.309956 46.592 0.0576007 45.2924L2.39489 38.1536C5.32591 29.0562 10.3021 20.7664 20.0376 20.7664ZM40.0176 0C45.1446 0 49.3102 4.11242 49.3102 9.22743C49.3102 14.2774 45.1351 18.3806 40.0176 18.3806C39.2825 18.3806 38.6228 18.3063 37.9725 18.1671C40.536 16.0041 42.1476 12.7643 42.1476 9.22743C42.1476 5.62557 40.536 2.45075 37.9725 0.213512C38.6322 0.074265 39.2825 0 40.0176 0ZM29.9899 20.7664C39.7255 20.7664 44.7016 29.0562 47.6326 38.1351L49.9794 45.2738C50.3469 46.5734 48.8767 47.7245 47.4913 47.7245H42.2984C42.8073 46.7127 42.9581 45.6358 42.5905 44.4755L40.2438 37.2718C38.1893 30.8571 34.9001 24.2939 29.481 20.7664C29.6224 20.7664 29.8486 20.7664 29.9899 20.7664ZM29.9899 0C35.1828 0 39.3579 4.11242 39.3579 9.22743C39.3579 14.2774 35.1828 18.3806 29.9899 18.3806C29.3302 18.3806 28.6045 18.3063 27.9448 18.1671C30.5083 16.0041 32.1199 12.7643 32.1199 9.22743C32.1199 5.62557 30.5083 2.45075 27.9448 0.213512C28.6045 0.074265 29.3302 0 29.9899 0ZM20.0376 0C25.1646 0 29.3302 4.11242 29.3302 9.22743C29.3302 14.2774 25.1551 18.3806 20.0376 18.3806C14.8447 18.3806 10.6696 14.2682 10.6696 9.22743C10.6696 4.11242 14.8447 0 20.0376 0Z" fill="white" fill-opacity="0.8"/>
</svg>
