<svg width="25" height="26" viewBox="0 0 25 26" fill="none" xmlns="http://www.w3.org/2000/svg">
<path d="M3.95785 20.2091C3.56733 19.8186 2.93416 19.8186 2.54364 20.2091C2.15311 20.5997 2.15311 21.2328 2.54364 21.6234L3.95785 20.2091ZM9.22427 24.1092L9.41936 23.1284L9.41936 23.1284L9.22427 24.1092ZM21.2008 6.18502L22.0323 5.62945L22.0323 5.62945L21.2008 6.18502ZM15.965 1.88808L16.3477 0.964198L16.3477 0.964198L15.965 1.88808ZM2.54364 3.70998C2.15312 4.10051 2.15312 4.73367 2.54364 5.1242C2.93416 5.51472 3.56733 5.51472 3.95785 5.1242L2.54364 3.70998ZM15 12.6673L15.7809 13.292L16.2806 12.6673L15.7809 12.0426L15 12.6673ZM1 11.6673C0.447715 11.6673 0 12.115 0 12.6673C0 13.2196 0.447715 13.6673 1 13.6673V11.6673ZM2.54364 21.6234C4.3151 23.3948 6.57209 24.6012 9.02918 25.09L9.41936 23.1284C7.35023 22.7168 5.44961 21.7009 3.95785 20.2091L2.54364 21.6234ZM9.02918 25.09C11.4863 25.5787 14.0331 25.3279 16.3476 24.3691L15.5823 22.5214C13.6332 23.3287 11.4885 23.54 9.41936 23.1284L9.02918 25.09ZM16.3476 24.3691C18.6622 23.4104 20.6404 21.7869 22.0323 19.7039L20.3693 18.5928C19.1973 20.3469 17.5314 21.7141 15.5823 22.5214L16.3476 24.3691ZM22.0323 19.7039C23.4241 17.6209 24.167 15.1719 24.167 12.6667H22.167C22.167 14.7763 21.5414 16.8386 20.3693 18.5928L22.0323 19.7039ZM24.167 12.6667C24.167 10.1614 23.4241 7.71247 22.0323 5.62945L20.3693 6.74059C21.5414 8.49471 22.167 10.557 22.167 12.6667H24.167ZM22.0323 5.62945C20.6404 3.54643 18.6622 1.92291 16.3477 0.964198L15.5823 2.81196C17.5314 3.61929 19.1973 4.98647 20.3693 6.74059L22.0323 5.62945ZM16.3477 0.964198C14.0331 0.0054881 11.4863 -0.245354 9.02918 0.243391L9.41936 2.20496C11.4885 1.79339 13.6332 2.00462 15.5823 2.81196L16.3477 0.964198ZM9.02918 0.243391C6.57209 0.732137 4.31511 1.93852 2.54364 3.70998L3.95785 5.1242C5.44961 3.63244 7.35023 2.61654 9.41936 2.20496L9.02918 0.243391ZM9.55247 7.45868L14.2191 13.292L15.7809 12.0426L11.1142 6.20929L9.55247 7.45868ZM14.2191 12.0426L9.55247 17.876L11.1142 19.1254L15.7809 13.292L14.2191 12.0426ZM15 11.6673H1V13.6673H15V11.6673Z" fill="white"/>
</svg>
