<svg width="25" height="24" viewBox="0 0 25 24" fill="none" xmlns="http://www.w3.org/2000/svg">
<path fill-rule="evenodd" clip-rule="evenodd" d="M6.83906 4.25C3.48527 4.25 0.909032 7.22043 1.38333 10.5405L1.61423 12.1568L3.0705 17.2537C3.49266 18.7313 4.84317 19.75 6.37986 19.75C7.55097 19.75 8.64173 19.1545 9.27501 18.1694L9.64938 17.587C10.9129 15.6216 13.786 15.6216 15.0495 17.587L15.2785 17.9433C16.0024 19.0693 17.2492 19.75 18.5878 19.75C20.5457 19.75 22.2056 18.3104 22.4825 16.3722L23.3156 10.5405C23.7899 7.22043 21.2136 4.25 17.8598 4.25C17.0887 4.25 16.3262 4.41182 15.6215 4.725L15.0906 4.96099C14.0652 5.41669 13.6501 5.597 13.232 5.68577C12.6501 5.80929 12.0488 5.80929 11.4669 5.68577C11.0487 5.597 10.6336 5.41669 9.60832 4.96099L9.07734 4.725C8.3727 4.41182 7.61017 4.25 6.83906 4.25ZM7.34943 8.25C7.76364 8.25 8.09943 8.58579 8.09943 9V10.25H9.34943C9.76364 10.25 10.0994 10.5858 10.0994 11C10.0994 11.4142 9.76364 11.75 9.34943 11.75H8.09943V13C8.09943 13.4142 7.76364 13.75 7.34943 13.75C6.93521 13.75 6.59943 13.4142 6.59943 13V11.75H5.34943C4.93521 11.75 4.59943 11.4142 4.59943 11C4.59943 10.5858 4.93521 10.25 5.34943 10.25H6.59943V9C6.59943 8.58579 6.93521 8.25 7.34943 8.25ZM17.3495 10C17.9018 10 18.3495 9.55228 18.3495 9C18.3495 8.44772 17.9018 8 17.3495 8C16.7972 8 16.3495 8.44772 16.3495 9C16.3495 9.55228 16.7972 10 17.3495 10ZM15.3495 12C15.9018 12 16.3495 11.5523 16.3495 11C16.3495 10.4477 15.9018 10 15.3495 10C14.7972 10 14.3495 10.4477 14.3495 11C14.3495 11.5523 14.7972 12 15.3495 12ZM20.3495 11C20.3495 11.5523 19.9018 12 19.3495 12C18.7972 12 18.3495 11.5523 18.3495 11C18.3495 10.4477 18.7972 10 19.3495 10C19.9018 10 20.3495 10.4477 20.3495 11ZM17.3495 14C17.9018 14 18.3495 13.5523 18.3495 13C18.3495 12.4477 17.9018 12 17.3495 12C16.7972 12 16.3495 12.4477 16.3495 13C16.3495 13.5523 16.7972 14 17.3495 14Z" fill="#FAFAFA"/>
</svg>
