<svg width="14" height="14" viewBox="0 0 14 14" fill="none" xmlns="http://www.w3.org/2000/svg">
<path d="M6.26574 3.67313C6.3083 3.64855 6.35156 3.62646 6.39535 3.6068V6.18427C5.35483 5.72476 5.25738 4.2553 6.26574 3.67313Z" fill="#FAFAFA"/>
<path d="M7.35465 10.1433V7.56568C8.39529 8.02511 8.4928 9.49468 7.4844 10.0769C7.44179 10.1015 7.39848 10.1236 7.35465 10.1433Z" fill="#FAFAFA"/>
<path fill-rule="evenodd" clip-rule="evenodd" d="M0 6.875C0 3.07804 3.07804 0 6.875 0C10.672 0 13.75 3.07804 13.75 6.875C13.75 10.672 10.672 13.75 6.875 13.75C3.07804 13.75 0 10.672 0 6.875ZM7.35465 2.39826C7.35465 2.13335 7.1399 1.9186 6.875 1.9186C6.61009 1.9186 6.39535 2.13335 6.39535 2.39826V2.59529C6.18638 2.64772 5.98133 2.72962 5.78609 2.84235C4.04536 3.84736 4.26661 6.42663 6.15306 7.12051L6.39535 7.20963V10.213C6.05328 10.1165 5.74766 9.89167 5.55631 9.56025L5.31612 9.14423C5.18367 8.91482 4.89032 8.83622 4.66091 8.96867C4.43149 9.10112 4.35289 9.39447 4.48534 9.62389L4.72553 10.0399C5.09547 10.6807 5.71915 11.0829 6.39535 11.1941V11.3517C6.39535 11.6166 6.61009 11.8314 6.875 11.8314C7.1399 11.8314 7.35465 11.6166 7.35465 11.3517V11.1547C7.56366 11.1023 7.76876 11.0204 7.96405 10.9077C9.70477 9.90265 9.48353 7.32338 7.59707 6.6295L7.35465 6.54034V3.53696C7.69677 3.63342 8.00245 3.85829 8.19382 4.18975L8.43401 4.60577C8.56646 4.83518 8.85981 4.91379 9.08923 4.78133C9.31864 4.64888 9.39724 4.35553 9.26479 4.12612L9.0246 3.7101C8.65463 3.0693 8.0309 2.66706 7.35465 2.5559V2.39826Z" fill="#FAFAFA"/>
</svg>
