<svg width="12" height="13" viewBox="0 0 12 13" fill="none" xmlns="http://www.w3.org/2000/svg">
<path d="M3.08333 5.91667H4.25V7.08333H3.08333V5.91667ZM11.25 3V11.1667C11.25 11.8083 10.725 12.3333 10.0833 12.3333H1.91667C1.26917 12.3333 0.75 11.8083 0.75 11.1667L0.755833 3C0.755833 2.35833 1.26917 1.83333 1.91667 1.83333H2.5V0.666668H3.66667V1.83333H8.33333V0.666668H9.5V1.83333H10.0833C10.725 1.83333 11.25 2.35833 11.25 3ZM1.91667 4.16667H10.0833V3H1.91667V4.16667ZM10.0833 11.1667V5.33333H1.91667V11.1667H10.0833ZM7.75 7.08333H8.91667V5.91667H7.75V7.08333ZM5.41667 7.08333H6.58333V5.91667H5.41667V7.08333Z" fill="#00F9FF"/>
</svg>
