<svg width="24" height="24" viewBox="0 0 24 24" fill="none" xmlns="http://www.w3.org/2000/svg">
<path d="M9.65011 8.586L11.504 5.57344C11.7233 5.21708 12.1118 5 12.5302 5C13.2687 5 13.8335 5.65827 13.7212 6.38818L13.5192 7.7012C13.3006 9.1215 14.3995 10.4024 15.8366 10.4024H16.4098C18.5184 10.4024 19.8899 12.6214 18.9469 14.5074L17.9923 16.4166C17.2884 17.8244 15.8494 18.7138 14.2754 18.7138H11.8569C10.7366 18.7138 9.74574 18.1597 9.14342 17.3106C9.15154 17.2253 9.15569 17.1389 9.15569 17.0515V10.4024C9.15569 10.1273 9.11456 9.86178 9.03812 9.6117C9.18542 9.34113 9.38153 9.02244 9.65011 8.586Z" fill="#0BEBD6"/>
<path d="M7.90898 17.0515C7.90898 17.8548 7.25778 18.506 6.45449 18.506C5.6512 18.506 5 17.8548 5 17.0515V10.4024C5 9.5991 5.6512 8.9479 6.45449 8.9479C7.25778 8.9479 7.90898 9.5991 7.90898 10.4024V17.0515Z" fill="#0BEBD6"/>
</svg>
