<svg width="19" height="17" viewBox="0 0 19 17" fill="none" xmlns="http://www.w3.org/2000/svg">
<path d="M3.34961 3.75C3.34961 1.67893 5.02854 0 7.09961 0C9.17068 0 10.8496 1.67893 10.8496 3.75C10.8496 5.82107 9.17068 7.5 7.09961 7.5C5.02854 7.5 3.34961 5.82107 3.34961 3.75Z" fill="#FAFAFA"/>
<path d="M10.449 0.381879C11.3141 1.24219 11.8496 2.43355 11.8496 3.75C11.8496 5.06645 11.3141 6.25781 10.449 7.11812C10.947 7.36267 11.5073 7.5 12.0996 7.5C14.1707 7.5 15.8496 5.82107 15.8496 3.75C15.8496 1.67893 14.1707 0 12.0996 0C11.5073 0 10.947 0.137327 10.449 0.381879Z" fill="#FAFAFA"/>
<path d="M0.349609 12.75C0.349609 10.6789 2.02854 9 4.09961 9H10.0996C12.1707 9 13.8496 10.6789 13.8496 12.75C13.8496 14.8211 12.1707 16.5 10.0996 16.5H4.09961C2.02854 16.5 0.349609 14.8211 0.349609 12.75Z" fill="#FAFAFA"/>
<path d="M14.8496 12.75C14.8496 13.7749 14.525 14.7239 13.9731 15.5H15.0996C17.1707 15.5 18.8496 13.8211 18.8496 11.75C18.8496 9.67893 17.1707 8 15.0996 8H10.0996C12.723 8 14.8496 10.1266 14.8496 12.75Z" fill="#FAFAFA"/>
</svg>
