<svg width="15" height="14" viewBox="0 0 15 14" fill="none" xmlns="http://www.w3.org/2000/svg">
<path d="M7.56131 9.46872C9.74479 9.46872 11.6092 9.91069 11.6092 11.6793C11.6092 13.4472 9.75676 13.9053 7.56131 13.9053C5.37783 13.9053 3.51344 13.4633 3.51344 11.6954C3.51344 9.92679 5.36587 9.46872 7.56131 9.46872ZM11.0524 8.40374C11.8872 8.38398 12.7846 8.53033 13.1163 8.63424C13.8188 8.81059 14.2809 9.1706 14.4724 9.6938C14.6342 10.1233 14.6342 10.6216 14.4724 11.0505C14.1795 11.862 13.2353 12.1225 12.8684 12.1898C12.7926 12.2044 12.7316 12.1203 12.7396 12.0229C12.9271 9.77429 11.4359 8.70814 11.0502 8.46301C11.0336 8.45203 11.0302 8.4352 11.0319 8.42496C11.0331 8.41764 11.0399 8.40593 11.0524 8.40374ZM4.13549 8.40403C4.14803 8.40623 4.1543 8.41793 4.15544 8.42452C4.15715 8.43549 4.15373 8.45159 4.13777 8.4633C3.75145 8.70843 2.26028 9.77458 2.44774 12.0225C2.45572 12.1206 2.39532 12.204 2.31954 12.1901C1.95258 12.1227 1.00842 11.8622 0.715545 11.0507C0.553152 10.6212 0.553152 10.1236 0.715545 9.69409C0.906999 9.1709 1.36854 8.81088 2.0711 8.6338C2.4033 8.53062 3.30017 8.38427 4.13549 8.40403ZM7.56131 0.905273C9.04793 0.905273 10.24 2.43462 10.24 4.34447C10.24 6.25358 9.04793 7.78439 7.56131 7.78439C6.0747 7.78439 4.88268 6.25358 4.88268 4.34447C4.88268 2.43462 6.0747 0.905273 7.56131 0.905273ZM11.1977 1.47881C12.6336 1.47881 13.7613 3.21378 13.3772 5.14631C13.118 6.44735 12.1795 7.31154 11.1339 7.27641C11.0291 7.27275 10.9259 7.26031 10.8262 7.23836C10.7539 7.22226 10.7174 7.11763 10.7584 7.04006C11.1573 6.28637 11.3846 5.37974 11.3846 4.40652C11.3846 3.39086 11.1362 2.44398 10.7049 1.6676C10.6912 1.64346 10.6809 1.60614 10.6946 1.57833C10.706 1.55565 10.7271 1.54394 10.747 1.53808C10.8923 1.50003 11.0416 1.47881 11.1977 1.47881ZM3.98934 1.47874C4.14547 1.47874 4.29475 1.49996 4.44062 1.53801C4.46 1.54387 4.48165 1.55631 4.49305 1.57826C4.50615 1.60606 4.49646 1.64338 4.48279 1.66753C4.05145 2.44391 3.80302 3.39078 3.80302 4.40644C3.80302 5.37966 4.03037 6.28629 4.42923 7.03999C4.47025 7.11755 4.43379 7.22219 4.36142 7.23829C4.26114 7.26097 4.15857 7.27268 4.05373 7.27634C3.00814 7.31146 2.06968 6.44728 1.81042 5.14624C1.4258 3.2137 2.55344 1.47874 3.98934 1.47874Z" fill="white"/>
</svg>
