<svg width="21" height="20" viewBox="0 0 21 20" fill="none" xmlns="http://www.w3.org/2000/svg">
<path fill-rule="evenodd" clip-rule="evenodd" d="M9.59089 4.80273C8.95982 4.24085 8.16159 3.90527 7.29354 3.90527C5.2502 3.90527 3.59375 5.76471 3.59375 8.05845C3.59375 8.77325 3.75462 9.44588 4.03793 10.0332L4.39468 12.354C4.40907 13.766 5.43318 14.9056 6.6944 14.9056C7.81845 14.9056 8.75416 14.0004 8.95459 12.8039C9.13874 12.6371 9.3538 12.4841 9.59417 12.3688C10.1724 12.0916 10.8971 12.0329 11.69 12.5275C11.8801 12.6461 12.0741 12.7964 12.271 12.9833C12.5306 14.0897 13.428 14.9056 14.4952 14.9056C15.7225 14.9056 16.7252 13.8265 16.7916 12.4674L17.3082 9.65368C17.4904 9.16253 17.591 8.62367 17.591 8.05845C17.591 5.76471 15.9345 3.90527 13.8912 3.90527C13.0232 3.90527 12.2249 4.24085 11.5939 4.80273H9.59089Z" fill="white"/>
<path d="M7.44913 6.88986V10.3335M8.94905 8.49692H5.94922" stroke="black" stroke-width="1.10198" stroke-linecap="round"/>
<path d="M13.664 8.61212C13.664 9.0559 13.3282 9.41565 12.914 9.41565C12.4998 9.41565 12.1641 9.0559 12.1641 8.61212C12.1641 8.16834 12.4998 7.80859 12.914 7.80859C13.3282 7.80859 13.664 8.16834 13.664 8.61212Z" fill="black"/>
<ellipse cx="14.1992" cy="7.23419" rx="0.749958" ry="0.803527" fill="black"/>
<ellipse cx="15.4843" cy="8.61212" rx="0.749958" ry="0.803527" fill="black"/>
<ellipse cx="14.1992" cy="9.98907" rx="0.749958" ry="0.803527" fill="black"/>
</svg>
