<svg width="40" height="40" viewBox="0 0 40 40" fill="none" xmlns="http://www.w3.org/2000/svg">
<circle cx="20" cy="20" r="20" fill="white"/>
<path d="M28.8566 11.575C27.1358 10.846 25.2904 10.3089 23.3609 10.0013C23.3257 9.99535 23.2906 10.0102 23.2725 10.0399C23.0352 10.4296 22.7723 10.938 22.5882 11.3376C20.513 11.0508 18.4483 11.0508 16.4156 11.3376C16.2315 10.9291 15.959 10.4296 15.7206 10.0399C15.7025 10.0112 15.6674 9.99634 15.6323 10.0013C13.7039 10.3079 11.8585 10.845 10.1366 11.575C10.1216 11.5809 10.1089 11.5908 10.1004 11.6037C6.60007 16.4316 5.64118 21.1409 6.11158 25.7918C6.11371 25.8145 6.12754 25.8363 6.1467 25.8501C8.45611 27.4159 10.6932 28.3665 12.8887 28.9965C12.9238 29.0064 12.9611 28.9946 12.9834 28.9679C13.5028 28.3131 13.9657 27.6227 14.3627 26.8966C14.3861 26.8541 14.3637 26.8036 14.3158 26.7868C13.5815 26.5297 12.8823 26.2161 12.2097 25.86C12.1565 25.8313 12.1522 25.7611 12.2012 25.7275C12.3427 25.6295 12.4843 25.5277 12.6194 25.4248C12.6439 25.406 12.678 25.402 12.7067 25.4139C17.1254 27.2765 21.9092 27.2765 26.2758 25.4139C26.3046 25.4011 26.3386 25.405 26.3642 25.4238C26.4994 25.5267 26.6409 25.6295 26.7835 25.7275C26.8324 25.7611 26.8292 25.8313 26.776 25.86C26.1034 26.223 25.4042 26.5297 24.6688 26.7858C24.6209 26.8027 24.5997 26.8541 24.6231 26.8966C25.0285 27.6216 25.4915 28.3121 26.0013 28.9669C26.0226 28.9946 26.0608 29.0064 26.096 28.9965C28.3022 28.3665 30.5392 27.4159 32.8486 25.8501C32.8688 25.8363 32.8816 25.8155 32.8837 25.7928C33.4467 20.4158 31.9408 15.7452 28.8917 11.6047C28.8843 11.5908 28.8715 11.5809 28.8566 11.575ZM15.0225 22.9599C13.6922 22.9599 12.596 21.8323 12.596 20.4475C12.596 19.0627 13.6709 17.9351 15.0225 17.9351C16.3847 17.9351 17.4703 19.0726 17.449 20.4475C17.449 21.8323 16.3741 22.9599 15.0225 22.9599ZM23.9941 22.9599C22.6638 22.9599 21.5676 21.8323 21.5676 20.4475C21.5676 19.0627 22.6425 17.9351 23.9941 17.9351C25.3563 17.9351 26.4419 19.0726 26.4206 20.4475C26.4206 21.8323 25.3563 22.9599 23.9941 22.9599Z" fill="black"/>
</svg>
