<svg width="63" height="63" viewBox="0 0 63 63" fill="none" xmlns="http://www.w3.org/2000/svg">
<path fill-rule="evenodd" clip-rule="evenodd" d="M34.3108 14.6891L46.6716 2.32837C48.0049 0.995036 48.6716 0.328369 49.5 0.328369C50.3284 0.328369 50.9951 0.995036 52.3284 2.32837L60.6716 10.6715C62.0049 12.0049 62.6716 12.6715 62.6716 13.4999C62.6716 14.3284 62.0049 14.995 60.6716 16.3284L48.3848 28.6151C42.6012 25.1955 37.7708 20.4005 34.3108 14.6891ZM32.8567 16.1433L4.8564 44.1436C4.43134 44.5686 4.21881 44.7812 4.07907 45.0423C3.93934 45.3033 3.88039 45.5981 3.7625 46.1875L0.647104 61.7645C0.580582 62.0971 0.547321 62.2634 0.641929 62.358C0.736525 62.4526 0.902799 62.4194 1.23532 62.3529L1.23542 62.3529L16.8124 59.2375C17.4019 59.1196 17.6966 59.0606 17.9577 58.9209C18.2188 58.7812 18.4313 58.5686 18.8564 58.1436L46.9269 30.073C41.194 26.5894 36.3778 21.8076 32.8567 16.1433Z" fill="white"/>
</svg>
