<svg width="40" height="40" viewBox="0 0 40 40" fill="none" xmlns="http://www.w3.org/2000/svg">
<mask id="mask0_178_527" style="mask-type:alpha" maskUnits="userSpaceOnUse" x="0" y="0" width="40" height="40">
<circle cx="20" cy="20" r="20" fill="#0BEBD6"/>
</mask>
<g mask="url(#mask0_178_527)">
<mask id="mask1_178_527" style="mask-type:alpha" maskUnits="userSpaceOnUse" x="11" y="10" width="18" height="32">
<path d="M16.623 27.8984V41.4216C16.623 41.6413 16.8011 41.8193 17.0207 41.8193H22.5891C22.8088 41.8193 22.9869 41.6413 22.9869 41.4216V27.8984C22.9869 27.6787 23.1649 27.5006 23.3846 27.5006H27.362C27.5817 27.5006 27.7598 27.3226 27.7598 27.1029V22.33C27.7598 22.1103 27.5817 21.9323 27.362 21.9323H23.3846C23.1649 21.9323 22.9869 21.7544 22.9869 21.5348V17.9548C22.9869 16.3639 24.9756 15.5684 25.7711 15.5684H28.1575C28.3772 15.5684 28.5553 15.3903 28.5553 15.1706V10.3977C28.5553 10.1781 28.3772 10 28.1576 10H22.9869C19.1685 10 16.623 13.9774 16.623 16.3639V21.5345C16.623 21.7542 16.4449 21.9323 16.2253 21.9323H12.2478C12.0282 21.9323 11.8501 22.1103 11.8501 22.33V27.1029C11.8501 27.3226 12.0282 27.5006 12.2478 27.5006H16.2253C16.4449 27.5006 16.623 27.6787 16.623 27.8984Z" fill="white"/>
</mask>
<g mask="url(#mask1_178_527)">
<rect x="11.8501" y="10" width="16.904" height="31.8193" fill="black"/>
</g>
</g>
</svg>
