<svg width="50" height="51" viewBox="0 0 50 51" fill="none" xmlns="http://www.w3.org/2000/svg">
<circle cx="25" cy="25.3618" r="24.5" fill="url(#paint0_linear_3025_114)" fill-opacity="0.5" stroke="white"/>
<path d="M40.3843 26.101C40.3179 29.6262 38.9402 33.1009 36.113 35.9429C33.3044 38.7636 29.856 40.2152 25.8873 40.2418C21.7699 40.271 18.2074 38.7955 15.3138 35.8419C12.5238 32.9973 11.1274 29.5305 11.1407 25.5613C11.154 21.6453 12.545 18.2158 15.2979 15.411C18.2631 12.3856 21.9133 10.9048 26.1448 11.0031C33.8618 11.1813 40.3445 17.4474 40.3843 26.101ZM15.4545 26.4705C14.8147 26.4705 14.1723 26.4705 13.5326 26.4705C13.3627 26.4705 13.1928 26.4705 13.0202 26.4732C12.9246 26.4732 12.8583 26.5157 12.8742 26.6247C12.9432 27.1405 12.9884 27.6616 13.0919 28.172C13.3043 29.2195 13.6361 30.2297 14.106 31.1921C14.459 31.9152 14.8678 32.6038 15.3377 33.2578C15.4359 33.3934 15.5315 33.4067 15.6642 33.3269C15.7545 33.2711 15.8474 33.2206 15.943 33.1754C16.9225 32.6809 17.926 32.2502 18.964 31.894C19.1285 31.8381 19.1445 31.7557 19.0914 31.6015C18.9321 31.131 18.7702 30.6604 18.6427 30.1819C18.5047 29.6581 18.3852 29.1264 18.295 28.592C18.1941 27.9806 18.1277 27.3638 18.0614 26.7497C18.0348 26.5051 18.0295 26.4785 17.78 26.4785C17.0075 26.4679 16.2323 26.4705 15.4545 26.4705ZM36.0758 26.4679C35.3006 26.4679 34.5255 26.4732 33.7477 26.4652C33.5751 26.4626 33.4981 26.529 33.4796 26.6885C33.4716 26.7577 33.4716 26.8294 33.4663 26.8986C33.4371 27.1777 33.4132 27.4568 33.3734 27.736C33.3176 28.1241 33.2592 28.5096 33.1822 28.8925C33.1026 29.3045 33.015 29.7166 32.9035 30.1207C32.7628 30.6258 32.5982 31.1256 32.4363 31.6254C32.3938 31.7557 32.4416 31.8089 32.5531 31.8488C32.7469 31.9152 32.946 31.9711 33.1318 32.0561C34.0185 32.4549 34.9051 32.8537 35.7811 33.2711C36.0785 33.4146 36.0652 33.4014 36.2537 33.1435C37.2651 31.7451 37.9633 30.1978 38.3455 28.5176C38.4756 27.9434 38.5314 27.3505 38.6083 26.7656C38.6455 26.4705 38.6322 26.4679 38.3323 26.4679C37.5783 26.4679 36.8271 26.4679 36.0758 26.4679ZM15.428 24.785C16.1925 24.785 16.957 24.785 17.7216 24.785C18.0003 24.785 17.9897 24.785 18.003 24.5165C18.0163 24.2241 18.0428 23.9316 18.0773 23.6392C18.1357 23.1527 18.2047 22.6662 18.2764 22.1796C18.3215 21.8845 18.364 21.5868 18.4383 21.2997C18.587 20.7228 18.7516 20.1512 18.9215 19.5822C18.9666 19.4281 18.9162 19.3669 18.7861 19.3191C18.5498 19.234 18.3083 19.1542 18.0773 19.0532C17.3022 18.7102 16.5243 18.3673 15.7571 18.0057C15.42 17.8462 15.4359 17.8329 15.2236 18.144C14.6289 19 14.106 19.896 13.7529 20.8796C13.5087 21.5602 13.2936 22.2567 13.1211 22.9613C12.999 23.4744 12.9671 24.0114 12.8928 24.5378C12.8609 24.7611 12.8795 24.785 13.0998 24.785C13.8777 24.7877 14.6528 24.7877 15.428 24.785ZM36.0811 24.7877C36.8456 24.7877 37.6102 24.7877 38.3747 24.7877C38.6349 24.7877 38.6482 24.7691 38.6163 24.5165C38.5765 24.1975 38.5552 23.8758 38.5021 23.5568C38.4358 23.1527 38.3721 22.7459 38.2579 22.3524C38.088 21.7755 37.8942 21.204 37.6766 20.643C37.3049 19.6939 36.7846 18.8219 36.1873 17.9978C36.105 17.8834 36.028 17.8675 35.9086 17.934C34.9025 18.4896 33.8565 18.9628 32.7708 19.3456C32.6035 19.4041 32.5849 19.4812 32.6301 19.6328C32.7442 19.9996 32.8637 20.3692 32.9513 20.744C33.0973 21.3741 33.2513 22.0068 33.3468 22.6475C33.4397 23.2723 33.4636 23.9077 33.5114 24.5378C33.53 24.7637 33.5433 24.7877 33.7716 24.7877C34.5414 24.7877 35.3113 24.7877 36.0811 24.7877ZM22.2823 24.7877C23.076 24.7877 23.8697 24.7877 24.6635 24.785C24.9051 24.785 24.9157 24.777 24.9157 24.5404C24.9157 23.2883 24.9157 22.0334 24.9157 20.7812C24.9157 20.5632 24.8971 20.55 24.6688 20.542C24.3768 20.5287 24.0795 20.526 23.7901 20.4862C23.222 20.4091 22.6566 20.3213 22.0938 20.2176C21.6292 20.1326 21.17 20.0209 20.7107 19.9146C20.5913 19.888 20.5169 19.9119 20.4824 20.0342C20.4426 20.1751 20.4081 20.316 20.3603 20.4569C20.0789 21.297 19.917 22.1637 19.7896 23.0357C19.7179 23.5275 19.702 24.03 19.6701 24.5271C19.6542 24.785 19.6674 24.7877 19.9356 24.7877C20.716 24.7877 21.4991 24.7877 22.2823 24.7877ZM30.9762 19.9146C30.7479 19.9731 30.5568 20.0289 30.363 20.0688C29.8082 20.1804 29.2534 20.3054 28.6932 20.3825C28.0906 20.4649 27.4827 20.4994 26.8748 20.5446C26.612 20.5632 26.5961 20.5659 26.5961 20.8291C26.5961 22.0573 26.5961 23.2856 26.5961 24.5165C26.5961 24.7744 26.6093 24.7903 26.8615 24.7903C28.4304 24.7903 29.9993 24.7903 31.5682 24.7903C31.8443 24.7903 31.8762 24.7797 31.8496 24.5032C31.7779 23.7748 31.7063 23.0463 31.5948 22.3259C31.5151 21.8128 31.3797 21.3103 31.2523 20.8078C31.1806 20.5074 31.0745 20.223 30.9762 19.9146ZM29.2454 26.4705C29.2454 26.4679 29.2454 26.4679 29.2454 26.4705C28.457 26.4679 27.6712 26.4679 26.8828 26.4705C26.6226 26.4705 26.5987 26.4971 26.5987 26.7523C26.5987 27.9806 26.5987 29.2088 26.5987 30.4371C26.5987 30.6737 26.6359 30.7189 26.8801 30.7428C27.0208 30.7561 27.1615 30.7481 27.3022 30.7561C27.5411 30.7694 27.7853 30.7721 28.0216 30.8066C28.5924 30.889 29.1631 30.9847 29.7339 31.0831C29.9914 31.1283 30.2515 31.1788 30.5037 31.2479C30.732 31.3091 30.7639 31.3117 30.8435 31.0911C31.1594 30.2217 31.4036 29.3311 31.5762 28.4246C31.685 27.8556 31.7328 27.2787 31.8018 26.7018C31.8284 26.4865 31.8098 26.4732 31.5921 26.4732C30.809 26.4679 30.0259 26.4705 29.2454 26.4705ZM22.3115 26.4705C22.3115 26.4679 22.3115 26.4679 22.3115 26.4705C21.5124 26.4705 20.7134 26.4705 19.9117 26.4679C19.771 26.4679 19.6993 26.5077 19.7179 26.6593C19.7657 27.0607 19.7949 27.4622 19.8639 27.8609C19.9435 28.3262 20.0364 28.7914 20.1586 29.246C20.3311 29.8894 20.5355 30.5248 20.7213 31.1629C20.7612 31.3038 20.8355 31.325 20.9682 31.2931C21.377 31.1921 21.7832 31.0884 22.1973 31.0193C22.7681 30.9262 23.3441 30.8624 23.9175 30.796C24.1803 30.7641 24.4431 30.7455 24.706 30.7348C24.8652 30.7269 24.913 30.6604 24.913 30.5035C24.9077 29.2381 24.9104 27.9753 24.9104 26.7098C24.9104 26.4812 24.8997 26.4732 24.6688 26.4705C23.8883 26.4679 23.0999 26.4705 22.3115 26.4705ZM26.5987 15.8683C26.5987 15.8683 26.5961 15.8683 26.5987 15.8683C26.5987 15.956 26.5987 16.0437 26.5987 16.1341C26.5987 16.9875 26.5987 17.8382 26.6014 18.6916C26.6014 18.9043 26.6385 18.9415 26.8509 18.9282C27.0845 18.915 27.3181 18.891 27.5517 18.8698C27.7615 18.8511 27.9738 18.8379 28.1809 18.806C28.4756 18.7634 28.7676 18.7102 29.0596 18.6544C29.4498 18.58 29.8374 18.5029 30.225 18.4205C30.3444 18.3965 30.3683 18.3274 30.3073 18.2131C30.1878 17.9845 30.0816 17.7505 29.9675 17.5192C29.2242 15.9959 28.2711 14.6161 27.1695 13.3347C27.042 13.1885 26.912 13.0449 26.7766 12.904C26.7474 12.8747 26.6863 12.8482 26.6571 12.8588C26.6279 12.8721 26.6093 12.9306 26.5987 12.9731C26.5881 13.0236 26.5934 13.0795 26.5934 13.1326C26.5987 14.0445 26.5987 14.9564 26.5987 15.8683ZM24.9157 12.8535C24.8997 12.8428 24.8812 12.8349 24.8652 12.8242C24.8175 12.8615 24.7617 12.8907 24.7219 12.9359C24.5042 13.1752 24.2865 13.4118 24.0795 13.659C23.1689 14.7251 22.3964 15.8842 21.7301 17.1178C21.5575 17.4368 21.4009 17.7665 21.247 18.0935C21.2098 18.1732 21.1248 18.2849 21.2894 18.3327C21.5071 18.3939 21.7274 18.4603 21.9504 18.5029C22.4044 18.5906 22.8557 18.6757 23.3123 18.7395C23.7582 18.8033 24.2095 18.8485 24.6582 18.8857C24.913 18.907 24.9157 18.891 24.9157 18.6385C24.9157 16.7748 24.9157 14.9085 24.9157 13.0449C24.9157 12.9811 24.9157 12.9173 24.9157 12.8535ZM26.5987 35.3182C26.5987 35.3182 26.5961 35.3182 26.5987 35.3182C26.5987 36.1928 26.5961 37.0701 26.6014 37.9448C26.6014 38.0325 26.6359 38.1203 26.6571 38.208C26.7261 38.1522 26.8084 38.107 26.8615 38.0405C27.865 36.7804 28.7623 35.4511 29.5294 34.0341C29.7047 33.7097 29.8719 33.3801 30.0365 33.0504C30.1214 32.8803 30.0896 32.8138 29.917 32.7739C29.7577 32.7394 29.5985 32.6995 29.4365 32.6756C29.0967 32.6197 28.7569 32.5666 28.4145 32.524C27.9048 32.4629 27.3925 32.4044 26.8801 32.3592C26.62 32.3379 26.6014 32.3698 26.6014 32.6357C26.5961 33.5316 26.5987 34.4249 26.5987 35.3182ZM28.9932 38.083C29.0994 38.083 29.1631 38.0963 29.2189 38.0804C29.4445 38.0166 29.6701 37.9554 29.8905 37.8757C30.7931 37.5434 31.6717 37.1605 32.492 36.6474C33.299 36.1423 34.0503 35.5627 34.7379 34.9034C34.9582 34.6907 34.9609 34.6801 34.6954 34.5445C33.8008 34.0766 32.8796 33.6752 31.9266 33.3455C31.8098 33.3056 31.7567 33.3562 31.7089 33.4545C31.4939 33.8958 31.2789 34.3372 31.0532 34.7732C30.5568 35.7249 29.9967 36.6395 29.3781 37.5168C29.2481 37.6922 29.1339 37.8704 28.9932 38.083ZM24.8467 38.2452C24.8679 38.2319 24.8891 38.2213 24.9077 38.208C24.9104 38.1442 24.9157 38.0804 24.9157 38.0166C24.9157 36.2274 24.9157 34.4408 24.9157 32.6516C24.9157 32.3565 24.8812 32.33 24.5892 32.3698C24.1963 32.4257 23.8007 32.4655 23.4078 32.532C22.8265 32.6277 22.2478 32.7367 21.669 32.8484C21.4753 32.8856 21.4487 32.9361 21.5443 33.1089C22.0274 33.9809 22.4867 34.8662 23.0123 35.709C23.4769 36.4534 24.0157 37.1499 24.5281 37.865C24.6237 38.0006 24.7405 38.1203 24.8467 38.2452ZM22.5398 38.1017C22.5106 38.0272 22.5026 37.9927 22.4867 37.9661C22.1363 37.453 21.754 36.9585 21.4434 36.4215C20.8965 35.4777 20.3895 34.5126 19.8825 33.5476C19.7922 33.3748 19.7073 33.396 19.5825 33.4492C18.6773 33.8347 17.7747 34.2175 16.8721 34.6083C16.6119 34.72 16.6146 34.7359 16.8217 34.9353C17.4322 35.5229 18.0959 36.0386 18.8073 36.4986C19.8878 37.1977 21.0505 37.7055 22.2823 38.0671C22.3539 38.091 22.4309 38.0884 22.5398 38.1017ZM29.3595 13.2017C29.3436 13.2204 29.3277 13.239 29.3118 13.2602C29.3489 13.3214 29.3808 13.3878 29.4233 13.4463C29.8454 14.0817 30.2993 14.6958 30.6789 15.3552C31.1275 16.1341 31.5125 16.9529 31.9186 17.7558C31.9717 17.8622 32.0301 17.8834 32.1416 17.8462C33.0628 17.5245 33.9441 17.1204 34.8069 16.6685C34.9343 16.602 34.9317 16.5302 34.8361 16.4372C34.7007 16.3069 34.568 16.174 34.4299 16.049C33.2884 15.0149 32.0062 14.2067 30.578 13.6298C30.1772 13.4729 29.7657 13.3453 29.3595 13.2017ZM22.2318 13.239C22.2132 13.2177 22.1947 13.1964 22.1787 13.1752C21.5921 13.4038 20.9948 13.6112 20.4187 13.8637C19.7046 14.1748 19.0144 14.547 18.3932 15.0255C17.8278 15.4615 17.2862 15.9294 16.7367 16.384C16.6252 16.4771 16.6332 16.5568 16.7686 16.6206C16.9756 16.719 17.1774 16.828 17.3871 16.9157C18.0667 17.2029 18.7489 17.482 19.4285 17.7665C19.548 17.817 19.6117 17.7851 19.6595 17.6681C19.7312 17.482 19.8108 17.2986 19.8984 17.1204C20.5488 15.8045 21.2921 14.5417 22.1761 13.3666C22.2026 13.332 22.2132 13.2815 22.2318 13.239Z" fill="white"/>
<defs>
<linearGradient id="paint0_linear_3025_114" x1="0" y1="0.361816" x2="30.5684" y2="60.2759" gradientUnits="userSpaceOnUse">
<stop stop-color="white" stop-opacity="0.4"/>
<stop offset="1" stop-color="white" stop-opacity="0"/>
</linearGradient>
</defs>
</svg>
