<svg width="50" height="50" viewBox="0 0 50 50" fill="none" xmlns="http://www.w3.org/2000/svg">
<path d="M31.2409 19.1402C30.0181 18.6125 28.7069 18.2236 27.3359 18.0009C27.3109 17.9966 27.286 18.0074 27.2731 18.0289C27.1045 18.311 26.9177 18.6791 26.7869 18.9684C25.3123 18.7607 23.8452 18.7607 22.4009 18.9684C22.27 18.6726 22.0765 18.311 21.9071 18.0289C21.8942 18.0081 21.8693 17.9974 21.8443 18.0009C20.474 18.2229 19.1628 18.6118 17.9393 19.1402C17.9287 19.1445 17.9196 19.1517 17.9136 19.161C15.4264 22.6563 14.745 26.0656 15.0793 29.4327C15.0808 29.4491 15.0906 29.4649 15.1042 29.4749C16.7452 30.6085 18.3348 31.2966 19.8948 31.7528C19.9198 31.7599 19.9462 31.7514 19.9621 31.732C20.3311 31.258 20.6601 30.7581 20.9421 30.2325C20.9588 30.2017 20.9429 30.1652 20.9089 30.153C20.3871 29.9669 19.8903 29.7398 19.4123 29.4821C19.3745 29.4613 19.3715 29.4104 19.4063 29.3861C19.5069 29.3152 19.6075 29.2414 19.7035 29.167C19.7209 29.1534 19.7451 29.1505 19.7655 29.1591C22.9052 30.5075 26.3044 30.5075 29.4071 29.1591C29.4275 29.1498 29.4517 29.1527 29.4699 29.1663C29.5659 29.2407 29.6665 29.3152 29.7678 29.3861C29.8026 29.4104 29.8003 29.4613 29.7625 29.4821C29.2846 29.7449 28.7878 29.9669 28.2652 30.1523C28.2312 30.1645 28.2161 30.2017 28.2327 30.2325C28.5208 30.7574 28.8498 31.2572 29.212 31.7313C29.2271 31.7514 29.2543 31.7599 29.2793 31.7528C30.8469 31.2966 32.4365 30.6085 34.0774 29.4749C34.0918 29.4649 34.1009 29.4498 34.1024 29.4334C34.5024 25.5407 33.4324 22.1593 31.2659 19.1617C31.2606 19.1517 31.2515 19.1445 31.2409 19.1402ZM21.411 27.3825C20.4657 27.3825 19.6868 26.5661 19.6868 25.5636C19.6868 24.5611 20.4506 23.7447 21.411 23.7447C22.3789 23.7447 23.1503 24.5682 23.1351 25.5636C23.1351 26.5661 22.3714 27.3825 21.411 27.3825ZM27.7858 27.3825C26.8406 27.3825 26.0617 26.5661 26.0617 25.5636C26.0617 24.5611 26.8254 23.7447 27.7858 23.7447C28.7538 23.7447 29.5251 24.5682 29.51 25.5636C29.51 26.5661 28.7538 27.3825 27.7858 27.3825Z" fill="white"/>
<circle cx="25" cy="25" r="24.5" stroke="white"/>
</svg>
