<svg width="50" height="50" viewBox="0 0 50 50" fill="none" xmlns="http://www.w3.org/2000/svg">
<circle cx="25" cy="25" r="24.5" stroke="white"/>
<path d="M35.3838 14.5777C33.4837 13.6092 31.4265 12.9062 29.2836 12.5001C29.2648 12.4994 29.2461 12.5033 29.2289 12.5114C29.2116 12.5195 29.1961 12.5316 29.1836 12.5469C28.9265 13.0624 28.6265 13.7341 28.4265 14.2496C26.1535 13.8747 23.842 13.8747 21.5691 14.2496C21.3691 13.7185 21.0691 13.0624 20.7977 12.5469C20.7834 12.5157 20.7405 12.5001 20.6977 12.5001C18.5548 12.9062 16.5118 13.6092 14.5975 14.5777C14.5832 14.5777 14.5689 14.5933 14.5546 14.6089C10.6688 20.9666 9.59737 27.1525 10.126 33.2759C10.126 33.3071 10.1402 33.3384 10.1688 33.354C12.7403 35.4159 15.2118 36.6656 17.6547 37.4935C17.6976 37.5092 17.7404 37.4935 17.7547 37.4623C18.3262 36.6031 18.8405 35.6971 19.2833 34.7442C19.3119 34.6818 19.2833 34.6193 19.2262 34.6037C18.4119 34.26 17.6404 33.8539 16.8833 33.3852C16.8261 33.354 16.8261 33.2603 16.869 33.2134C17.0261 33.0884 17.1833 32.9478 17.3404 32.8229C17.369 32.7916 17.4119 32.7916 17.4404 32.8073C22.3549 35.2597 27.655 35.2597 32.5123 32.8073C32.5409 32.7916 32.5837 32.7916 32.6123 32.8229C32.7694 32.9635 32.9266 33.0884 33.0837 33.229C33.1409 33.2759 33.1409 33.3696 33.0694 33.4008C32.3266 33.8851 31.5408 34.2756 30.7265 34.6193C30.6694 34.6349 30.6551 34.713 30.6694 34.7599C31.1265 35.7127 31.6408 36.6188 32.198 37.4779C32.2408 37.4935 32.2837 37.5092 32.3266 37.4935C34.7838 36.6656 37.2553 35.4159 39.8268 33.354C39.8553 33.3384 39.8696 33.3071 39.8696 33.2759C40.4982 26.1996 38.8267 20.0606 35.4409 14.6089C35.4266 14.5933 35.4124 14.5777 35.3838 14.5777ZM20.0262 29.5425C18.5548 29.5425 17.3262 28.0585 17.3262 26.2309C17.3262 24.4032 18.5262 22.9192 20.0262 22.9192C21.5406 22.9192 22.7406 24.4188 22.7263 26.2309C22.7263 28.0585 21.5263 29.5425 20.0262 29.5425ZM29.9836 29.5425C28.5122 29.5425 27.2836 28.0585 27.2836 26.2309C27.2836 24.4032 28.4836 22.9192 29.9836 22.9192C31.498 22.9192 32.698 24.4188 32.6837 26.2309C32.6837 28.0585 31.498 29.5425 29.9836 29.5425Z" fill="white"/>
</svg>
