<svg width="50" height="50" viewBox="0 0 50 50" fill="none" xmlns="http://www.w3.org/2000/svg">
<circle cx="25" cy="25" r="24.5" fill="url(#paint0_linear_3025_97)" fill-opacity="0.5" stroke="white"/>
<mask id="mask0_3025_97" style="mask-type:alpha" maskUnits="userSpaceOnUse" x="14" y="9" width="22" height="41">
<path d="M20.1807 32.4995V49.4995C20.1807 49.7757 20.4045 49.9995 20.6807 49.9995H27.6807C27.9568 49.9995 28.1807 49.7757 28.1807 49.4995V32.4995C28.1807 32.2234 28.4045 31.9995 28.6807 31.9995H33.6807C33.9568 31.9995 34.1807 31.7757 34.1807 31.4995V25.4995C34.1807 25.2234 33.9568 24.9995 33.6807 24.9995H28.6807C28.4045 24.9995 28.1807 24.776 28.1807 24.4998V19.9995C28.1807 17.9995 30.6807 16.9995 31.6807 16.9995H34.6807C34.9568 16.9995 35.1807 16.7757 35.1807 16.4995V10.4995C35.1807 10.2234 34.9569 9.99951 34.6807 9.99951H28.1807C23.3807 9.99951 20.1807 14.9995 20.1807 17.9995V24.4995C20.1807 24.7757 19.9568 24.9995 19.6807 24.9995H14.6807C14.4045 24.9995 14.1807 25.2234 14.1807 25.4995V31.4995C14.1807 31.7757 14.4045 31.9995 14.6807 31.9995H19.6807C19.9568 31.9995 20.1807 32.2234 20.1807 32.4995Z" fill="black"/>
</mask>
<g mask="url(#mask0_3025_97)">
<rect x="14.1807" y="9.99951" width="21.25" height="40" fill="white"/>
</g>
<defs>
<linearGradient id="paint0_linear_3025_97" x1="0" y1="0" x2="30.5684" y2="59.9141" gradientUnits="userSpaceOnUse">
<stop stop-color="white" stop-opacity="0.4"/>
<stop offset="1" stop-color="white" stop-opacity="0"/>
</linearGradient>
</defs>
</svg>
