<svg width="50" height="51" viewBox="0 0 50 51" fill="none" xmlns="http://www.w3.org/2000/svg">
<circle cx="25" cy="25.3618" r="24.5" fill="url(#paint0_linear_3025_106)" fill-opacity="0.5" stroke="white"/>
<path d="M36.7422 19.2568C36.7422 19.5303 36.7422 19.8037 36.7422 20.0381C36.7422 28.124 30.5703 37.46 19.3203 37.46C15.8438 37.46 12.6406 36.4443 9.90625 34.7256C10.375 34.7647 10.8828 34.8037 11.3516 34.8037C14.2031 34.8037 16.8594 33.8272 18.9688 32.1865C16.2734 32.1475 14.0078 30.3506 13.2656 27.9287C13.6563 28.0068 14.0078 28.0459 14.4375 28.0459C14.9844 28.0459 15.5313 27.9678 16.0391 27.8115C13.2266 27.2647 11.1172 24.8037 11.1172 21.835C11.1172 21.7959 11.1172 21.7959 11.1172 21.7568C11.9375 22.2256 12.875 22.499 13.8906 22.5381C12.25 21.4443 11.1563 19.5693 11.1563 17.4209C11.1563 16.2881 11.4688 15.2334 11.9766 14.335C14.9844 18.0459 19.5156 20.4678 24.5938 20.7412C24.4766 20.3115 24.4375 19.8037 24.4375 19.335C24.4375 15.9365 27.1719 13.2021 30.5703 13.2021C32.3281 13.2021 33.9297 13.9443 35.0234 15.1162C36.4297 14.8428 37.7188 14.335 38.9297 13.6318C38.4609 15.0771 37.4844 16.249 36.2344 17.0303C37.4844 16.874 38.6563 16.5615 39.75 16.0537C38.9688 17.3037 37.9531 18.3975 36.7422 19.2568Z" fill="white"/>
<defs>
<linearGradient id="paint0_linear_3025_106" x1="0" y1="0.361816" x2="30.5684" y2="60.2759" gradientUnits="userSpaceOnUse">
<stop stop-color="white" stop-opacity="0.4"/>
<stop offset="1" stop-color="white" stop-opacity="0"/>
</linearGradient>
</defs>
</svg>
