<svg width="50" height="50" viewBox="0 0 50 50" fill="none" xmlns="http://www.w3.org/2000/svg">
<circle cx="25" cy="25" r="24.5" fill="url(#paint0_linear_3025_102)" fill-opacity="0.5" stroke="white"/>
<path d="M11.1967 24.8674L11.2041 24.8646L11.2114 24.8615C19.023 21.5645 24.2278 19.3927 26.8295 18.3444C30.5518 16.8446 32.7882 15.9691 34.2184 15.4664C35.6569 14.9607 36.2294 14.8515 36.6461 14.8443C36.7188 14.8431 36.8573 14.8518 37.0067 14.8864C37.1598 14.9218 37.2857 14.9755 37.3669 15.0393C37.4892 15.1354 37.5352 15.2683 37.5648 15.4361C37.5954 15.6088 37.634 16.0212 37.6044 16.3221C37.2038 20.4001 35.4634 30.3387 34.5755 34.9374C34.2111 36.8243 33.5559 37.1628 33.1909 37.1953C32.5556 37.2519 31.9763 37.0541 31.3419 36.6931C31.0231 36.5116 30.7009 36.2952 30.3543 36.0567C30.2976 36.0176 30.2401 35.978 30.182 35.9378C29.8902 35.7363 29.5813 35.5229 29.2587 35.3181C28.0835 34.5718 27.1639 33.9664 26.2503 33.3637L26.129 33.2837C25.2558 32.7076 24.3775 32.1282 23.2802 31.4277C22.6439 31.0215 22.3407 30.703 22.2134 30.4669C22.1071 30.2696 22.1123 30.113 22.1978 29.924C22.2998 29.6986 22.5132 29.4429 22.8411 29.1197C22.9826 28.9802 23.1355 28.8374 23.2997 28.6841C23.3208 28.6644 23.3421 28.6445 23.3635 28.6245C23.5498 28.4504 23.7474 28.2645 23.9429 28.0677C24.0298 27.9804 24.4627 27.5906 25.0821 27.0329C25.7942 26.3917 26.7529 25.5286 27.7154 24.6479C28.6062 23.833 29.4925 23.0099 30.1658 22.3547C30.5017 22.0278 30.7897 21.7378 31 21.5093C31.1045 21.3956 31.196 21.2906 31.2662 21.1999C31.3011 21.1547 31.3359 21.1066 31.3657 21.058C31.3901 21.0182 31.4342 20.9419 31.4571 20.8472C31.4817 20.746 31.491 20.5991 31.4681 20.4493C31.445 20.2984 31.3769 20.0675 31.1728 19.8917C30.9732 19.7198 30.7438 19.6815 30.5767 19.6802C30.417 19.679 30.2681 19.7118 30.187 19.7296L30.1844 19.7302C30.0987 19.749 30.015 19.792 29.9818 19.809L29.9782 19.8109C29.9256 19.8378 29.8616 19.8732 29.7888 19.9149C29.6422 19.999 29.442 20.1193 29.1903 20.2742C28.6859 20.5846 27.9618 21.0421 27.0193 21.6456C25.1336 22.853 22.3656 24.6502 18.7162 27.0366L18.7162 27.0366L18.7129 27.0388C17.69 27.7193 16.8221 28.0102 16.0946 27.9949C15.6751 27.9862 15.0216 27.8672 14.2739 27.6856C13.5374 27.5067 12.7466 27.2764 12.0693 27.0631C11.8509 26.9943 11.6439 26.9312 11.4486 26.8717C10.8598 26.6922 10.3777 26.5452 10.011 26.3732C9.77227 26.2612 9.64036 26.1631 9.57399 26.084C9.52474 26.0254 9.50928 25.9782 9.51952 25.8991C9.52264 25.8749 9.56185 25.7457 9.85934 25.5317C10.1416 25.3286 10.5799 25.1051 11.1967 24.8674Z" fill="white" stroke="white"/>
<defs>
<linearGradient id="paint0_linear_3025_102" x1="0" y1="0" x2="30.5684" y2="59.9141" gradientUnits="userSpaceOnUse">
<stop stop-color="white" stop-opacity="0.4"/>
<stop offset="1" stop-color="white" stop-opacity="0"/>
</linearGradient>
</defs>
</svg>
