<svg width="20" height="21" viewBox="0 0 20 21" fill="none" xmlns="http://www.w3.org/2000/svg">
<path d="M13.1296 12.3796H12.4712L12.2379 12.1546C13.0546 11.2046 13.5462 9.97122 13.5462 8.62956C13.5462 5.63789 11.1212 3.21289 8.12956 3.21289C5.13789 3.21289 2.71289 5.63789 2.71289 8.62956C2.71289 11.6212 5.13789 14.0462 8.12956 14.0462C9.47122 14.0462 10.7046 13.5546 11.6546 12.7379L11.8796 12.9712V13.6296L16.0462 17.7879L17.2879 16.5462L13.1296 12.3796ZM8.12956 12.3796C6.05456 12.3796 4.37956 10.7046 4.37956 8.62956C4.37956 6.55456 6.05456 4.87956 8.12956 4.87956C10.2046 4.87956 11.8796 6.55456 11.8796 8.62956C11.8796 10.7046 10.2046 12.3796 8.12956 12.3796Z" fill="#DBE0E8"/>
</svg>
