<svg width="11" height="20" viewBox="0 0 11 20" fill="none" xmlns="http://www.w3.org/2000/svg">
<mask id="mask0_183_375" style="mask-type:alpha" maskUnits="userSpaceOnUse" x="0" y="0" width="11" height="20">
<path d="M2.9729 11.1484V19.5716C2.9729 19.7084 3.08382 19.8193 3.22064 19.8193H6.68903C6.82585 19.8193 6.93677 19.7084 6.93677 19.5716V11.1484C6.93677 11.0116 7.04769 10.9006 7.18451 10.9006H9.66193C9.79875 10.9006 9.90967 10.7897 9.90967 10.6529V7.67999C9.90967 7.54317 9.79875 7.43225 9.66193 7.43225H7.18451C7.04769 7.43225 6.93677 7.3215 6.93677 7.18467V4.95483C6.93677 3.96387 8.17548 3.46838 8.67096 3.46838H10.1574C10.2942 3.46838 10.4052 3.35747 10.4052 3.22064V0.247742C10.4052 0.110918 10.2943 0 10.1574 0H6.93677C4.55845 0 2.9729 2.47742 2.9729 3.96387V7.18451C2.9729 7.32133 2.86198 7.43225 2.72516 7.43225H0.247742C0.110918 7.43225 0 7.54317 0 7.67999V10.6529C0 10.7897 0.110918 10.9006 0.247742 10.9006H2.72516C2.86198 10.9006 2.9729 11.0116 2.9729 11.1484Z" fill="white"/>
</mask>
<g mask="url(#mask0_183_375)">
<rect width="10.529" height="19.8193" fill="white"/>
</g>
</svg>
