<svg width="40" height="32" viewBox="0 0 40 32" fill="none" xmlns="http://www.w3.org/2000/svg">
<path fill-rule="evenodd" clip-rule="evenodd" d="M5.66721e-05 5.66648C0.164642 5.66634 0.331561 5.70691 0.485643 5.79251L20 16.6338L39.5144 5.79251C39.6684 5.70691 39.8354 5.66635 39.9999 5.66649C39.9986 3.05901 39.9648 1.72212 39.1213 0.87868C38.2426 0 36.8284 0 34 0H6C3.17157 0 1.75736 0 0.87868 0.87868C0.0352379 1.72212 0.00141315 3.05901 5.66721e-05 5.66648ZM40 7.81062L20.9713 18.3821C20.3672 18.7177 19.6328 18.7177 19.0287 18.3821L0 7.81063V25.1111C0 27.9395 0 29.3538 0.87868 30.2324C1.75736 31.1111 3.17157 31.1111 6 31.1111H34C36.8284 31.1111 38.2426 31.1111 39.1213 30.2324C40 29.3538 40 27.9395 40 25.1111V7.81062Z" fill="white"/>
</svg>
