<svg width="39" height="39" viewBox="0 0 39 39" fill="none" xmlns="http://www.w3.org/2000/svg">
<path d="M2.67963 6.84669L8.81921 0.707107C9.20973 0.316583 9.8429 0.316582 10.2334 0.707106L17.2403 7.71395C17.6308 8.10447 17.6308 8.73763 17.2403 9.12816L12.6509 13.7175C12.0422 14.3263 11.8913 15.2562 12.2762 16.0262L12.4135 16.3006C14.639 20.7518 18.2483 24.361 22.6994 26.5865L22.9738 26.7238C23.7438 27.1087 24.6737 26.9578 25.2825 26.3491L29.8718 21.7597C30.2624 21.3692 30.8955 21.3692 31.2861 21.7597L38.2929 28.7666C38.6834 29.1571 38.6834 29.7903 38.2929 30.1808L32.1533 36.3204C30.042 38.4317 26.6994 38.6693 24.3107 36.8777L14.2602 29.3399C12.5166 28.0322 10.9678 26.4834 9.66015 24.7398L2.12226 14.6893C0.330722 12.3006 0.568275 8.95804 2.67963 6.84669Z" fill="white"/>
</svg>
