<svg width="40" height="40" viewBox="0 0 40 40" fill="none" xmlns="http://www.w3.org/2000/svg">
<path fill-rule="evenodd" clip-rule="evenodd" d="M18.9989 -1.57524e-09V12.3013C17.1018 12.2177 15.2373 11.8968 13.4844 11.3522C11.4239 10.7121 9.56644 9.77826 8.01344 8.61351C7.03474 7.87948 6.19163 7.06489 5.49704 6.19182C8.92995 2.58725 13.6929 0.260957 18.9989 -1.57524e-09ZM20.9989 4.31397e-06V12.3013C22.896 12.2177 24.7605 11.8968 26.5134 11.3522C28.5739 10.7121 30.4314 9.77826 31.9844 8.61351C32.9631 7.8795 33.8061 7.06492 34.5007 6.19187C31.0678 2.58729 26.3049 0.260983 20.9989 4.31397e-06ZM35.8254 7.73122C35.0678 8.63339 34.1814 9.46572 33.1844 10.2135C31.4319 11.5279 29.3651 12.5606 27.1068 13.2622C25.1578 13.8676 23.0927 14.2183 20.9989 14.3031V18.9978L39.9976 18.9978C39.7891 14.7629 38.265 10.874 35.8254 7.73122ZM39.9977 20.9978L20.9989 20.9978V25.6924C23.0927 25.7772 25.1578 26.1279 27.1068 26.7334C29.3651 27.4349 31.4319 28.4676 33.1844 29.782C34.1818 30.5301 35.0684 31.3628 35.8262 32.2653C38.2657 29.1222 39.7896 25.2329 39.9977 20.9978ZM34.5016 33.8048C33.8069 32.9313 32.9635 32.1164 31.9844 31.382C30.4314 30.2173 28.5739 29.2834 26.5134 28.6433C24.7605 28.0987 22.896 27.7778 20.9989 27.6942V39.9976C26.3053 39.7366 31.0687 37.4099 34.5016 33.8048ZM18.9989 39.9976V27.6942C17.1018 27.7778 15.2373 28.0988 13.4844 28.6433C11.4239 29.2834 9.56643 30.2173 8.01344 31.382C7.03431 32.1164 6.19089 32.9314 5.49613 33.8049C8.92911 37.41 13.6925 39.7367 18.9989 39.9976ZM4.17156 32.2654C4.92934 31.3628 5.81599 30.5301 6.81344 29.782C8.56594 28.4676 10.6327 27.4349 12.891 26.7334C14.84 26.1279 16.9051 25.7772 18.9989 25.6924V20.9978L-8.12634e-10 20.9978C0.208083 25.233 1.73201 29.1222 4.17156 32.2654ZM0.000103155 18.9978L18.9989 18.9978V14.3031C16.9051 14.2183 14.84 13.8676 12.891 13.2622C10.6327 12.5606 8.56594 11.5279 6.81344 10.2135C5.81636 9.4657 4.93 8.63336 4.1724 7.73116C1.73277 10.874 0.20861 14.7629 0.000103155 18.9978Z" fill="white"/>
</svg>
