<svg width="40" height="40" viewBox="0 0 40 40" fill="none" xmlns="http://www.w3.org/2000/svg">
<circle cx="20" cy="20" r="20" fill="white"/>
<path fill-rule="evenodd" clip-rule="evenodd" d="M9.58113 19.1794C15.7551 16.498 19.8721 14.7303 21.932 13.8763C27.8136 11.4377 29.0357 11.0141 29.8323 11.0001C30.0075 10.9971 30.3992 11.0404 30.6529 11.2456C30.8672 11.4189 30.9262 11.653 30.9544 11.8173C30.9826 11.9816 31.0177 12.3559 30.9898 12.6484C30.6711 15.9865 29.2919 24.0874 28.5903 27.8262C28.2935 29.4082 27.7089 29.9387 27.143 29.9906C25.9131 30.1034 24.9792 29.1804 23.788 28.402C21.924 27.1841 20.8709 26.4259 19.0616 25.2373C16.9706 23.8638 18.3261 23.1089 19.5178 21.8751C19.8296 21.5522 25.2485 16.6391 25.3534 16.1933C25.3665 16.1376 25.3787 15.9298 25.2549 15.8201C25.131 15.7104 24.9483 15.7479 24.8164 15.7777C24.6294 15.82 21.6517 17.782 15.8831 21.6635C15.0379 22.242 14.2723 22.5239 13.5864 22.5091C12.8302 22.4929 11.3756 22.0829 10.2942 21.7326C8.96791 21.3028 7.91378 21.0756 8.00557 20.3457C8.05338 19.9656 8.57857 19.5768 9.58113 19.1794Z" fill="black"/>
</svg>
