<svg width="40" height="40" viewBox="0 0 40 40" fill="none" xmlns="http://www.w3.org/2000/svg">
<circle cx="20" cy="20" r="20" fill="white"/>
<path d="M30.6961 16.3463C30.6961 16.5877 30.6961 16.8292 30.6961 17.0361C30.6961 24.176 25.2464 32.4196 15.3126 32.4196C12.2428 32.4196 9.41445 31.5228 7 30.0052C7.41391 30.0397 7.8623 30.0742 8.27621 30.0742C10.7941 30.0742 13.1396 29.2119 15.0022 27.7632C12.6222 27.7287 10.6217 26.1421 9.96633 24.0035C10.3112 24.0725 10.6217 24.107 11.0011 24.107C11.484 24.107 11.9669 24.038 12.4153 23.9001C9.93183 23.4172 8.06926 21.2442 8.06926 18.6228C8.06926 18.5883 8.06926 18.5883 8.06926 18.5538C8.79359 18.9677 9.62141 19.2091 10.5182 19.2436C9.06953 18.2778 8.10375 16.6222 8.10375 14.7252C8.10375 13.7249 8.37969 12.7936 8.82809 12.0003C11.484 15.277 15.4851 17.4155 19.9691 17.657C19.8656 17.2776 19.8311 16.8292 19.8311 16.4153C19.8311 13.4145 22.2455 11 25.2464 11C26.7985 11 28.2127 11.6554 29.1785 12.6901C30.4202 12.4487 31.5584 12.0003 32.6277 11.3794C32.2138 12.6556 31.3515 13.6904 30.2477 14.3802C31.3515 14.2423 32.3862 13.9663 33.352 13.5179C32.6622 14.6217 31.7654 15.5875 30.6961 16.3463Z" fill="black"/>
</svg>
