<svg width="20" height="14" viewBox="0 0 20 14" fill="none" xmlns="http://www.w3.org/2000/svg">
<path d="M16.4108 1.14024C15.188 0.612471 13.8768 0.223636 12.5058 0.000934206C12.4808 -0.00336387 12.4559 0.00737726 12.443 0.02886C12.2744 0.310996 12.0876 0.679065 11.9568 0.968366C10.4822 0.760706 9.01515 0.760706 7.57079 0.968366C7.43996 0.672634 7.24638 0.310996 7.07698 0.02886C7.06412 0.00809403 7.03918 -0.0026471 7.01421 0.000934206C5.64397 0.222925 4.33272 0.61176 3.10917 1.14024C3.09858 1.14453 3.0895 1.1517 3.08348 1.161C0.596302 4.65625 -0.085039 8.06559 0.249204 11.4327C0.250716 11.4491 0.260547 11.4649 0.274159 11.4749C1.91512 12.6085 3.50468 13.2966 5.06472 13.7528C5.08969 13.7599 5.11614 13.7514 5.13203 13.732C5.50106 13.258 5.83001 12.7581 6.11206 12.2325C6.1287 12.2017 6.11281 12.1652 6.07879 12.153C5.55702 11.9669 5.06018 11.7398 4.58226 11.4821C4.54445 11.4613 4.54143 11.4104 4.5762 11.3861C4.67678 11.3152 4.77738 11.2414 4.87341 11.167C4.89078 11.1534 4.91499 11.1505 4.93542 11.1591C8.07517 12.5075 11.4743 12.5075 14.577 11.1591C14.5974 11.1498 14.6217 11.1527 14.6398 11.1663C14.7359 11.2407 14.8364 11.3152 14.9378 11.3861C14.9725 11.4104 14.9703 11.4613 14.9325 11.4821C14.4545 11.7449 13.9577 11.9669 13.4352 12.1523C13.4011 12.1645 13.386 12.2017 13.4027 12.2325C13.6908 12.7574 14.0197 13.2572 14.3819 13.7313C14.3971 13.7514 14.4243 13.7599 14.4492 13.7528C16.0168 13.2966 17.6064 12.6085 19.2474 11.4749C19.2617 11.4649 19.2708 11.4498 19.2723 11.4334C19.6723 7.54067 18.6023 4.15929 16.4358 1.16172C16.4305 1.1517 16.4214 1.14453 16.4108 1.14024ZM6.58093 9.38246C5.63565 9.38246 4.85676 8.56613 4.85676 7.56359C4.85676 6.56105 5.62054 5.74472 6.58093 5.74472C7.54885 5.74472 8.3202 6.56822 8.30507 7.56359C8.30507 8.56613 7.54129 9.38246 6.58093 9.38246ZM12.9557 9.38246C12.0105 9.38246 11.2316 8.56613 11.2316 7.56359C11.2316 6.56105 11.9953 5.74472 12.9557 5.74472C13.9237 5.74472 14.695 6.56822 14.6799 7.56359C14.6799 8.56613 13.9237 9.38246 12.9557 9.38246Z" fill="white"/>
</svg>
