<svg width="22" height="17" viewBox="0 0 22 17" fill="none" xmlns="http://www.w3.org/2000/svg">
<path fill-rule="evenodd" clip-rule="evenodd" d="M2.12006 7.22169C7.72918 4.8543 11.4695 3.29357 13.3409 2.5395C18.6844 0.386484 19.7947 0.0124815 20.5184 0.000131676C20.6775 -0.00258452 21.0334 0.0356287 21.2639 0.216839C21.4586 0.369849 21.5122 0.576544 21.5378 0.721615C21.5634 0.866685 21.5953 1.19716 21.57 1.45538C21.2804 4.4027 20.0275 11.5551 19.3901 14.8561C19.1203 16.2529 18.5893 16.7212 18.0751 16.7671C16.9578 16.8667 16.1093 16.0517 15.0271 15.3645C13.3336 14.2891 12.3769 13.6197 10.7331 12.5704C8.83345 11.3576 10.0649 10.6911 11.1476 9.6018C11.4309 9.31673 16.354 4.9788 16.4493 4.58529C16.4612 4.53607 16.4723 4.35262 16.3597 4.25574C16.2472 4.15887 16.0812 4.192 15.9614 4.21835C15.7915 4.25569 13.0862 5.98789 7.84544 9.41495C7.07754 9.92576 6.38201 10.1746 5.75883 10.1616C5.07183 10.1472 3.75032 9.7853 2.76791 9.47595C1.56295 9.09651 0.605263 8.89589 0.688656 8.25149C0.732092 7.91584 1.20923 7.57258 2.12006 7.22169Z" fill="white"/>
</svg>
