<svg width="28" height="28" viewBox="0 0 28 28" fill="none" xmlns="http://www.w3.org/2000/svg">
  <path d="M14 26C16.7763 26 19.4666 25.0374 21.6127 23.2761C23.7588 21.5149 25.2278 19.064 25.7694 16.3411C26.311 13.6182 25.8918 10.7917 24.5831 8.34324C23.2743 5.89479 21.1571 3.97588 18.5922 2.91345C16.0273 1.85102 13.1733 1.71081 10.5166 2.51672C7.85987 3.32262 5.56478 5.02478 4.02237 7.33315C2.47996 9.64153 1.78566 12.4133 2.05778 15.1762C2.3299 17.9391 3.5516 20.5222 5.51472 22.4853" stroke="#0BEBD6" stroke-width="4" stroke-linecap="round"/>
  <path d="M19 11L14.1878 17.1596C13.5197 18.0148 13.1856 18.4425 12.7258 18.4631C12.2661 18.4838 11.895 18.088 11.1527 17.2962L9 15" stroke="#0BEBD6" stroke-width="4" stroke-linecap="round"/>
</svg>
