<svg width="16" height="16" viewBox="0 0 16 16" fill="none" xmlns="http://www.w3.org/2000/svg">
  <path d="M8.00021 14.8574C9.58664 14.8574 11.124 14.3073 12.3503 13.3009C13.5767 12.2944 14.4161 10.8939 14.7256 9.33797C15.0351 7.78202 14.7955 6.16689 14.0477 4.76778C13.2998 3.36866 12.09 2.27214 10.6243 1.66504C9.15865 1.05793 7.52781 0.977814 6.00969 1.43833C4.49156 1.89885 3.18008 2.87151 2.2987 4.19058C1.41733 5.50966 1.02059 7.09353 1.17609 8.67232C1.33158 10.2511 2.0297 11.7272 3.15148 12.8489" stroke="#0BEBD6" stroke-width="2" stroke-linecap="round"/>
  <path d="M10.8569 6.28564L8.72331 9.01668C8.05516 9.87191 7.72109 10.2995 7.26134 10.3202C6.8016 10.3409 6.43047 9.94503 5.68819 9.15327L5.14265 8.57136" stroke="#0BEBD6" stroke-width="2" stroke-linecap="round"/>
</svg>
