<svg width="23" height="18" viewBox="0 0 23 18" fill="none" xmlns="http://www.w3.org/2000/svg">
<path d="M19.958 4.3479C19.958 4.54425 19.958 4.74061 19.958 4.90892C19.958 10.7155 15.526 17.4196 7.44729 17.4196C4.95076 17.4196 2.65058 16.6903 0.687012 15.4561C1.02362 15.4841 1.38829 15.5122 1.7249 15.5122C3.77262 15.5122 5.68008 14.8109 7.19483 13.6328C5.25932 13.6047 3.63236 12.3144 3.09939 10.5752C3.3799 10.6313 3.63236 10.6594 3.94092 10.6594C4.33363 10.6594 4.72635 10.6033 5.09101 10.4911C3.07134 10.0983 1.55659 8.33113 1.55659 6.19926C1.55659 6.17121 1.55659 6.17121 1.55659 6.14316C2.14566 6.47977 2.81888 6.67613 3.54821 6.70418C2.37007 5.91875 1.58464 4.5723 1.58464 3.0295C1.58464 2.21602 1.80905 1.45865 2.17371 0.813477C4.33364 3.47832 7.58754 5.21748 11.2342 5.41383C11.15 5.10527 11.122 4.74061 11.122 4.404C11.122 1.96357 13.0855 0 15.526 0C16.7883 0 17.9383 0.532968 18.7238 1.3745C19.7336 1.17814 20.6593 0.813477 21.5289 0.30856C21.1923 1.34645 20.491 2.18797 19.5934 2.74899C20.491 2.63679 21.3325 2.41238 22.1179 2.04772C21.5569 2.94535 20.8276 3.73078 19.958 4.3479Z" fill="white"/>
</svg>
