<svg width="20" height="20" viewBox="0 0 20 20" fill="none" xmlns="http://www.w3.org/2000/svg">
<path d="M20 10.3287C19.9546 12.7396 19.0123 15.116 17.0788 17.0597C15.158 18.9888 12.7996 19.9815 10.0854 19.9997C7.26947 20.0197 4.83302 19.0106 2.85409 16.9906C0.945958 15.0451 -0.00901357 12.6742 6.4109e-05 9.95961C0.00914179 7.2814 0.960482 4.93592 2.84319 3.01772C4.87114 0.948608 7.36751 -0.0641299 10.2615 0.00314354C15.5392 0.124963 19.9728 4.41046 20 10.3287ZM2.95031 10.5814C2.51276 10.5814 2.07341 10.5814 1.63586 10.5814C1.51967 10.5814 1.40347 10.5814 1.28546 10.5832C1.2201 10.5832 1.17472 10.6123 1.18561 10.6869C1.23281 11.0396 1.26368 11.396 1.33448 11.7451C1.47973 12.4615 1.70667 13.1524 2.02802 13.8106C2.26948 14.3051 2.54908 14.776 2.87043 15.2233C2.9376 15.316 3.00296 15.3251 3.09374 15.2706C3.15546 15.2324 3.21901 15.1978 3.28437 15.1669C3.9543 14.8287 4.64057 14.5342 5.35045 14.2906C5.46301 14.2524 5.4739 14.196 5.43759 14.0906C5.32866 13.7687 5.21791 13.4469 5.13077 13.1196C5.03636 12.7615 4.95466 12.3978 4.89293 12.0324C4.82394 11.6142 4.77855 11.1923 4.73316 10.7723C4.71501 10.6051 4.71138 10.5869 4.54072 10.5869C4.0124 10.5796 3.48226 10.5814 2.95031 10.5814ZM17.0534 10.5796C16.5232 10.5796 15.9931 10.5832 15.4612 10.5778C15.3432 10.576 15.2905 10.6214 15.2778 10.7305C15.2723 10.7778 15.2723 10.8269 15.2687 10.8742C15.2487 11.0651 15.2324 11.256 15.2052 11.4469C15.167 11.7124 15.1271 11.976 15.0745 12.2378C15.02 12.5196 14.9601 12.8015 14.8838 13.0778C14.7876 13.4233 14.675 13.7651 14.5643 14.1069C14.5352 14.196 14.5679 14.2324 14.6442 14.2597C14.7767 14.3051 14.9129 14.3433 15.04 14.4015C15.6463 14.6742 16.2527 14.9469 16.8519 15.2324C17.0552 15.3306 17.0461 15.3215 17.175 15.1451C17.8667 14.1887 18.3442 13.1305 18.6057 11.9814C18.6946 11.5887 18.7328 11.1833 18.7854 10.7833C18.8108 10.5814 18.8017 10.5796 18.5966 10.5796C18.081 10.5796 17.5672 10.5796 17.0534 10.5796ZM2.93215 9.42869C3.45503 9.42869 3.9779 9.42869 4.50078 9.42869C4.69141 9.42869 4.68414 9.42869 4.69322 9.24505C4.7023 9.04505 4.72046 8.84505 4.74406 8.64505C4.784 8.31232 4.8312 7.97959 4.88022 7.64686C4.91109 7.44504 4.94014 7.2414 4.99097 7.04503C5.09264 6.65048 5.2052 6.25957 5.3214 5.87047C5.35226 5.76502 5.31777 5.7232 5.22881 5.69047C5.06722 5.63229 4.90201 5.57774 4.74406 5.50865C4.21392 5.27411 3.68197 5.03956 3.15728 4.79228C2.92671 4.68319 2.9376 4.6741 2.79236 4.88683C2.38568 5.47229 2.02802 6.08502 1.78655 6.75776C1.61952 7.22322 1.47246 7.69958 1.35445 8.18141C1.27094 8.53232 1.24915 8.8996 1.19832 9.2596C1.17653 9.41233 1.18924 9.42869 1.33993 9.42869C1.87188 9.43051 2.40202 9.43051 2.93215 9.42869ZM17.057 9.43051C17.5799 9.43051 18.1028 9.43051 18.6256 9.43051C18.8036 9.43051 18.8126 9.41778 18.7909 9.24505C18.7636 9.02687 18.7491 8.80687 18.7128 8.58868C18.6674 8.31232 18.6238 8.03413 18.5458 7.76504C18.4296 7.37049 18.297 6.97958 18.1482 6.59594C17.894 5.94684 17.5381 5.35047 17.1296 4.78683C17.0734 4.70865 17.0207 4.69774 16.939 4.74319C16.2509 5.1232 15.5356 5.44683 14.793 5.70866C14.6787 5.74866 14.666 5.80138 14.6968 5.90502C14.7749 6.15593 14.8566 6.40866 14.9165 6.66503C15.0164 7.09594 15.1217 7.52867 15.187 7.96686C15.2506 8.39414 15.2669 8.82869 15.2996 9.2596C15.3123 9.41415 15.3214 9.43051 15.4775 9.43051C16.004 9.43051 16.5305 9.43051 17.057 9.43051ZM7.61987 9.43051C8.16271 9.43051 8.70555 9.43051 9.2484 9.42869C9.41361 9.42869 9.42088 9.42324 9.42088 9.26142C9.42088 8.40505 9.42088 7.54685 9.42088 6.69048C9.42088 6.54139 9.40817 6.5323 9.25203 6.52685C9.05232 6.51775 8.84898 6.51594 8.65109 6.48866C8.26256 6.43594 7.87586 6.37593 7.49096 6.30502C7.17324 6.24684 6.85916 6.17048 6.54507 6.09775C6.46337 6.07957 6.41253 6.09593 6.38893 6.17957C6.3617 6.27593 6.3381 6.3723 6.30542 6.46866C6.11297 7.04321 6.00222 7.63595 5.91508 8.23232C5.86606 8.56868 5.85517 8.91232 5.83338 9.25233C5.82249 9.42869 5.83156 9.43051 6.01493 9.43051C6.5487 9.43051 7.08428 9.43051 7.61987 9.43051ZM13.5657 6.09775C13.4096 6.13775 13.2789 6.17593 13.1464 6.20321C12.7669 6.27957 12.3875 6.36503 12.0044 6.41775C11.5923 6.47412 11.1765 6.49775 10.7607 6.52866C10.581 6.54139 10.5701 6.54321 10.5701 6.72321C10.5701 7.56322 10.5701 8.40323 10.5701 9.24505C10.5701 9.42142 10.5792 9.43233 10.7517 9.43233C11.8246 9.43233 12.8976 9.43233 13.9706 9.43233C14.1594 9.43233 14.1812 9.42506 14.1631 9.23596C14.114 8.73778 14.065 8.23959 13.9888 7.74686C13.9343 7.39594 13.8417 7.05231 13.7546 6.70867C13.7055 6.50321 13.6329 6.30866 13.5657 6.09775ZM12.382 10.5814C12.382 10.5796 12.382 10.5796 12.382 10.5814C11.8428 10.5796 11.3054 10.5796 10.7662 10.5814C10.5883 10.5814 10.5719 10.5996 10.5719 10.7742C10.5719 11.6142 10.5719 12.4542 10.5719 13.2942C10.5719 13.456 10.5973 13.4869 10.7644 13.5033C10.8606 13.5124 10.9568 13.5069 11.053 13.5124C11.2164 13.5215 11.3835 13.5233 11.5451 13.5469C11.9354 13.6033 12.3257 13.6687 12.7161 13.736C12.8922 13.7669 13.0701 13.8015 13.2426 13.8487C13.3987 13.8906 13.4205 13.8924 13.475 13.7415C13.691 13.1469 13.858 12.5378 13.9761 11.9178C14.0505 11.5287 14.0832 11.1342 14.1304 10.7396C14.1485 10.5923 14.1358 10.5832 13.9869 10.5832C13.4514 10.5796 12.9158 10.5814 12.382 10.5814ZM7.63984 10.5814C7.63984 10.5796 7.63984 10.5796 7.63984 10.5814C7.09336 10.5814 6.54688 10.5814 5.99859 10.5796C5.90237 10.5796 5.85335 10.6069 5.86606 10.7105C5.89874 10.9851 5.91871 11.2596 5.96591 11.5323C6.02038 11.8505 6.08392 12.1687 6.16744 12.4796C6.28545 12.9196 6.42524 13.3542 6.55233 13.7906C6.57956 13.8869 6.6304 13.9015 6.72118 13.8796C7.00077 13.8106 7.27854 13.7396 7.56177 13.6924C7.95211 13.6287 8.34608 13.5851 8.73824 13.5396C8.91797 13.5178 9.09771 13.5051 9.27745 13.4978C9.38638 13.4924 9.41906 13.4469 9.41906 13.3396C9.41543 12.4742 9.41724 11.6105 9.41724 10.7451C9.41724 10.5887 9.40998 10.5832 9.25203 10.5814C8.71826 10.5796 8.17905 10.5814 7.63984 10.5814ZM10.5719 3.33045C10.5719 3.33045 10.5701 3.33045 10.5719 3.33045C10.5719 3.39045 10.5719 3.45045 10.5719 3.51227C10.5719 4.09591 10.5719 4.67774 10.5737 5.26138C10.5737 5.40683 10.5992 5.43229 10.7444 5.4232C10.9042 5.41411 11.0639 5.39774 11.2237 5.3832C11.3671 5.37047 11.5124 5.36138 11.654 5.33956C11.8555 5.31047 12.0552 5.27411 12.2549 5.23592C12.5218 5.18501 12.7869 5.13229 13.0519 5.07592C13.1336 5.05956 13.15 5.01228 13.1082 4.9341C13.0265 4.77774 12.9539 4.61774 12.8758 4.45955C12.3675 3.41772 11.7157 2.47408 10.9623 1.59771C10.8751 1.4977 10.7862 1.39952 10.6936 1.30316C10.6736 1.28316 10.6318 1.26497 10.6119 1.27225C10.5919 1.28134 10.5792 1.32134 10.5719 1.35043C10.5647 1.38498 10.5683 1.42316 10.5683 1.45952C10.5719 2.08316 10.5719 2.70681 10.5719 3.33045ZM9.42088 1.26861C9.40998 1.26134 9.39727 1.25588 9.38638 1.24861C9.3537 1.27407 9.31558 1.29407 9.28834 1.32497C9.13947 1.48861 8.99059 1.65043 8.84898 1.81953C8.22625 2.54862 7.69793 3.34136 7.24223 4.185C7.12422 4.40319 7.01711 4.62864 6.91181 4.85228C6.88639 4.90683 6.82829 4.98319 6.94086 5.01592C7.08973 5.05774 7.24042 5.10319 7.39292 5.13229C7.70338 5.19229 8.01202 5.25047 8.32429 5.29411C8.6293 5.33774 8.93794 5.36865 9.24477 5.39411C9.41906 5.40865 9.42088 5.39774 9.42088 5.22501C9.42088 3.95046 9.42088 2.67408 9.42088 1.39952C9.42088 1.35588 9.42088 1.31225 9.42088 1.26861ZM10.5719 16.6324C10.5719 16.6324 10.5701 16.6324 10.5719 16.6324C10.5719 17.2306 10.5701 17.8306 10.5737 18.4288C10.5737 18.4888 10.5973 18.5488 10.6119 18.6088C10.6591 18.5706 10.7154 18.5397 10.7517 18.4942C11.4379 17.6324 12.0516 16.7233 12.5763 15.7542C12.6961 15.5324 12.8105 15.3069 12.923 15.0815C12.9811 14.9651 12.9594 14.9197 12.8413 14.8924C12.7324 14.8687 12.6235 14.8415 12.5127 14.8251C12.2803 14.7869 12.048 14.7506 11.8138 14.7215C11.4652 14.6797 11.1148 14.6397 10.7644 14.6087C10.5864 14.5942 10.5737 14.616 10.5737 14.7978C10.5701 15.4106 10.5719 16.0215 10.5719 16.6324ZM12.2095 18.5233C12.2822 18.5233 12.3257 18.5324 12.3639 18.5215C12.5182 18.4779 12.6725 18.4361 12.8232 18.3815C13.4405 18.1542 14.0414 17.8924 14.6024 17.5415C15.1543 17.196 15.6681 16.7997 16.1384 16.3488C16.289 16.2033 16.2909 16.196 16.1093 16.1033C15.4975 15.7833 14.8675 15.5088 14.2157 15.2833C14.1358 15.256 14.0995 15.2906 14.0668 15.3578C13.9198 15.6597 13.7727 15.9615 13.6184 16.2597C13.2789 16.9106 12.8958 17.536 12.4728 18.1361C12.3838 18.2561 12.3058 18.3779 12.2095 18.5233ZM9.37367 18.6342C9.3882 18.6251 9.40272 18.6179 9.41543 18.6088C9.41724 18.5651 9.42088 18.5215 9.42088 18.4779C9.42088 17.2542 9.42088 16.0324 9.42088 14.8087C9.42088 14.6069 9.39727 14.5887 9.19757 14.616C8.92887 14.6542 8.65835 14.6815 8.38965 14.7269C7.99205 14.7924 7.59626 14.8669 7.20048 14.9433C7.06794 14.9687 7.04979 15.0033 7.11515 15.1215C7.44557 15.7178 7.75966 16.3233 8.11914 16.8997C8.43686 17.4088 8.80541 17.8851 9.15581 18.3742C9.22117 18.467 9.30105 18.5488 9.37367 18.6342ZM7.79597 18.5361C7.776 18.4851 7.77056 18.4615 7.75966 18.4433C7.52001 18.0924 7.25857 17.7542 7.04616 17.387C6.67216 16.7415 6.32539 16.0815 5.97862 15.4215C5.91689 15.3033 5.8588 15.3178 5.77347 15.3542C5.15437 15.6178 4.53709 15.8797 3.9198 16.1469C3.74188 16.2233 3.7437 16.2342 3.88531 16.3706C4.30288 16.7724 4.75677 17.1251 5.24333 17.4397C5.98225 17.9179 6.77746 18.2651 7.61987 18.5124C7.66889 18.5288 7.72154 18.527 7.79597 18.5361ZM12.4601 1.5068C12.4492 1.51952 12.4383 1.53225 12.4274 1.5468C12.4528 1.58861 12.4746 1.63407 12.5037 1.67407C12.7923 2.10862 13.1028 2.52862 13.3624 2.97954C13.6692 3.51227 13.9325 4.07228 14.2103 4.62137C14.2466 4.6941 14.2865 4.70865 14.3628 4.68319C14.9928 4.46319 15.5955 4.18682 16.1856 3.87773C16.2727 3.83227 16.2709 3.78318 16.2055 3.71954C16.1129 3.63045 16.0222 3.53954 15.9278 3.45409C15.1471 2.74681 14.2702 2.19407 13.2934 1.79953C13.0193 1.69225 12.7379 1.60498 12.4601 1.5068ZM7.58537 1.53225C7.57266 1.5177 7.55995 1.50316 7.54906 1.48861C7.14783 1.64498 6.73933 1.7868 6.34536 1.95953C5.85698 2.17226 5.38494 2.4268 4.96011 2.75408C4.5734 3.05226 4.20303 3.37227 3.82721 3.68318C3.75096 3.74682 3.75641 3.80136 3.849 3.845C3.99061 3.91227 4.12859 3.98682 4.27202 4.04682C4.7368 4.24319 5.20339 4.4341 5.66816 4.62864C5.74986 4.66319 5.79344 4.64137 5.82612 4.56137C5.87514 4.4341 5.9296 4.30864 5.98952 4.18682C6.43432 3.28681 6.94267 2.42317 7.54724 1.61952C7.5654 1.59589 7.57266 1.56134 7.58537 1.53225Z" fill="white"/>
</svg>
