<svg width="20" height="22" viewBox="0 0 20 22" fill="none" xmlns="http://www.w3.org/2000/svg">
<path d="M14.5005 17.5221C13.9956 17.5112 13.5895 17.0974 13.5895 16.5964C13.5785 16.0955 13.9846 15.6828 14.4896 15.6719H14.5005C15.0165 15.6719 15.4336 16.0857 15.4336 16.5964C15.4336 17.1083 15.0165 17.5221 14.5005 17.5221ZM10.022 13.5146C9.51701 13.5374 9.09989 13.1443 9.07794 12.6445C9.07794 12.1435 9.47311 11.7297 9.97805 11.7068C10.472 11.7068 10.8782 12.0891 10.8891 12.578C10.9111 13.0801 10.5159 13.4939 10.022 13.5146ZM10.022 17.4676C9.51701 17.4905 9.09989 17.0974 9.07794 16.5964C9.07794 16.0955 9.47311 15.6828 9.97805 15.6599C10.472 15.6599 10.8782 16.0421 10.8891 16.5322C10.9111 17.0331 10.5159 17.447 10.022 17.4676ZM5.51043 13.5146C5.00549 13.5374 4.58836 13.1443 4.56641 12.6445C4.56641 12.1435 4.96158 11.7297 5.46652 11.7068C5.96048 11.7068 6.36663 12.0891 6.37761 12.578C6.39956 13.0801 6.00439 13.4939 5.51043 13.5146ZM5.49945 17.4676C4.99451 17.4905 4.57739 17.0974 4.55543 16.5964C4.55543 16.0955 4.9506 15.6828 5.45554 15.6599C5.94951 15.6599 6.35565 16.0421 6.36663 16.5322C6.38858 17.0331 5.99341 17.447 5.49945 17.4676ZM13.6004 12.6336C13.6004 12.1326 13.9956 11.7297 14.5005 11.7188C14.9945 11.7188 15.3897 12.1098 15.4116 12.59C15.4226 13.091 15.0274 13.5048 14.5335 13.5146C14.0285 13.5255 13.6114 13.1443 13.6004 12.6445V12.6336ZM0 7.90295V16.1935C0 19.6348 2.21734 21.7801 5.69704 21.7801H14.292C17.8046 21.7801 20 19.6783 20 16.2599V7.90295H0Z" fill="url(#paint0_linear_1358_6073)"/>
<path opacity="0.4" d="M0.00390625 7.90282C0.0181763 7.26358 0.073061 5.99489 0.176244 5.58652C0.703138 3.28982 2.49238 1.83056 5.05001 1.62256H14.9512C17.4869 1.84145 19.2981 3.31051 19.825 5.58652C19.9271 5.984 19.982 7.26249 19.9962 7.90282H0.00390625Z" fill="url(#paint1_linear_1358_6073)"/>
<path d="M5.89405 4.99851C6.37704 4.99851 6.73928 4.64023 6.73928 4.15998V0.839619C6.73928 0.35937 6.37704 0 5.89405 0C5.41107 0 5.04883 0.35937 5.04883 0.839619V4.15998C5.04883 4.64023 5.41107 4.99851 5.89405 4.99851Z" fill="url(#paint2_linear_1358_6073)"/>
<path d="M14.106 4.99851C14.578 4.99851 14.9512 4.64023 14.9512 4.15998V0.839619C14.9512 0.35937 14.578 0 14.106 0C13.623 0 13.2607 0.35937 13.2607 0.839619V4.15998C13.2607 4.64023 13.623 4.99851 14.106 4.99851Z" fill="url(#paint3_linear_1358_6073)"/>
<defs>
<linearGradient id="paint0_linear_1358_6073" x1="0.0438599" y1="8.7592" x2="20.3156" y2="9.31297" gradientUnits="userSpaceOnUse">
<stop stop-color="#00FFFF"/>
<stop offset="1" stop-color="#0BEBD6"/>
</linearGradient>
<linearGradient id="paint1_linear_1358_6073" x1="0.0477493" y1="2.01006" x2="20.2532" y2="3.22923" gradientUnits="userSpaceOnUse">
<stop stop-color="#00FFFF"/>
<stop offset="1" stop-color="#0BEBD6"/>
</linearGradient>
<linearGradient id="paint2_linear_1358_6073" x1="5.05254" y1="0.308417" x2="6.76716" y2="0.319408" gradientUnits="userSpaceOnUse">
<stop stop-color="#00FFFF"/>
<stop offset="1" stop-color="#0BEBD6"/>
</linearGradient>
<linearGradient id="paint3_linear_1358_6073" x1="13.2644" y1="0.308417" x2="14.9791" y2="0.319408" gradientUnits="userSpaceOnUse">
<stop stop-color="#00FFFF"/>
<stop offset="1" stop-color="#0BEBD6"/>
</linearGradient>
</defs>
</svg>
