<svg width="17" height="15" viewBox="0 0 17 15" fill="none" xmlns="http://www.w3.org/2000/svg">
<path d="M6 3.25V4.5M6 5.75V7M6 8.25V9.5M6 11.0625V12.3125M1 2V3.71875C1.625 4.13542 2.5 5.21875 1 6.21875C1 6.34375 1 6.58333 1 6.6875C1.625 7.05208 2.5 8.0625 1 9.1875C1 9.3125 1 9.44792 1 9.5C1.57292 9.91667 2.375 11.0313 1 12.1562C1 12.5313 1 13.25 1 13.5625H16V12.3125C15.4271 11.7917 14.625 10.5312 16 9.65625C16 9.53125 16 9.29167 16 9.1875C15.4271 8.77083 14.625 7.6875 16 6.6875C16 6.5625 16 6.32292 16 6.21875C15.4792 5.69792 14.75 4.40625 16 3.40625C16 3.03125 16 2.3125 16 2H1Z" stroke="white"/>
<rect x="11" width="6" height="6" rx="3" fill="#26F814"/>
<path d="M13.1983 3.96873L12.1558 2.92623L11.8008 3.27873L13.1983 4.67623L16.1983 1.67623L15.8458 1.32373L13.1983 3.96873Z" fill="white"/>
</svg>
