<svg width="360" height="130" viewBox="0 0 360 130" fill="none" xmlns="http://www.w3.org/2000/svg">
<g clip-path="url(#clip0_1358_6027)">
<path d="M350.452 96.4923C351.766 95.9665 352.765 94.5682 353.056 92.8224C354.548 83.8502 354.595 68.0966 354.595 68.0966C354.595 68.0966 354.548 52.3484 353.056 43.3713C352.765 41.6304 351.766 40.2319 350.452 39.7016L340.485 35.6847V100.51L350.452 96.4923Z" fill="url(#paint0_linear_1358_6027)"/>
<path style="mix-blend-mode:overlay" opacity="0.51" d="M353.045 43.3712C352.764 41.6866 351.816 40.3209 350.562 39.7578C351.197 40.5296 351.611 41.4588 351.76 42.4468C353.308 51.757 353.359 68.0965 353.359 68.0965C353.359 68.0965 353.308 84.4418 351.76 93.7514C351.61 94.7395 351.196 95.6678 350.562 96.441C351.816 95.8772 352.764 94.5122 353.045 92.8223C354.537 83.8501 354.585 68.0965 354.585 68.0965C354.585 68.0965 354.537 52.3483 353.045 43.3712Z" fill="url(#paint1_radial_1358_6027)"/>
<g style="mix-blend-mode:overlay" opacity="0.33">
<g style="mix-blend-mode:overlay">
<g style="mix-blend-mode:overlay">
<path d="M340.477 68.0966V100.51L344.676 98.8197C347.248 64.7603 344.962 43.207 344.165 37.1723L340.477 35.6847V68.0966Z" fill="black"/>
</g>
</g>
</g>
<path d="M8.03469 95.7735C6.72566 95.252 5.72149 93.8652 5.43531 92.1338C3.94317 83.2352 3.8916 67.6109 3.8916 67.6109C3.8916 67.6109 3.94317 51.9919 5.43531 43.0885C5.72149 41.3619 6.72566 39.9749 8.03469 39.4489L18.0055 35.465V99.7578L8.03469 95.7735Z" fill="url(#paint2_linear_1358_6027)"/>
<path style="mix-blend-mode:overlay" opacity="0.51" d="M5.43531 43.0889C5.7121 41.4181 6.65997 40.0636 7.91278 39.5051C7.27846 40.2706 6.86502 41.1922 6.71628 42.172C5.16783 51.4058 5.11626 67.6113 5.11626 67.6113C5.11626 67.6113 5.16783 83.8224 6.71628 93.0556C6.86681 94.0355 7.28009 94.9562 7.91278 95.7231C6.65997 95.1639 5.7121 93.8102 5.43531 92.1341C3.94317 83.2355 3.8916 67.6113 3.8916 67.6113C3.8916 67.6113 3.94317 51.9923 5.43531 43.0889Z" fill="url(#paint3_radial_1358_6027)"/>
<g style="mix-blend-mode:overlay" opacity="0.33">
<g style="mix-blend-mode:overlay">
<g style="mix-blend-mode:overlay">
<path d="M18.0054 67.6109V99.7578L13.7826 98.0818C11.2113 64.3019 13.4964 42.9256 14.294 36.9403L17.9868 35.465L18.0054 67.6109Z" fill="black"/>
</g>
</g>
</g>
<g filter="url(#filter0_i_1358_6027)">
<path d="M311.358 130H47.3534C42.7233 129.997 38.205 129.015 34.4027 127.185C30.6005 125.355 27.6957 122.766 26.0766 119.761C16.7186 102.469 11.8607 84.1652 11.7284 65.6988C11.6189 46.9997 16.3581 28.4393 25.7203 10.9004C27.4342 7.69921 30.5228 4.9384 34.5708 2.98962C38.6187 1.04084 43.4315 -0.00239732 48.3614 0.000371709H311.358C315.863 0.00490985 320.267 0.936382 324.007 2.67649C327.747 4.41659 330.656 6.88695 332.366 9.77413C342.856 27.3477 348.247 46.1798 348.233 65.1958C348.181 84.0906 342.788 102.795 332.359 120.255C330.645 123.136 327.734 125.601 323.996 127.336C320.257 129.071 315.858 129.998 311.358 130Z" fill="url(#paint4_linear_1358_6027)"/>
</g>
<path opacity="0.6" d="M47.026 124.616C44.0348 124.606 41.1183 123.967 38.6626 122.784C36.2068 121.6 34.3274 119.927 33.2731 117.986C24.2125 101.26 19.5169 83.5503 19.4057 65.6845C19.2828 47.5931 23.864 29.6344 32.9295 12.6696C34.0825 10.536 36.1459 8.69669 38.8449 7.39684C41.5438 6.09699 44.75 5.39841 48.0362 5.39417H311.604C314.518 5.39316 317.368 5.9945 319.788 7.12156C322.207 8.24861 324.087 9.85022 325.188 11.7217C335.328 28.6658 340.525 46.8354 340.477 65.1805C340.457 83.4076 335.26 101.454 325.181 118.289C324.079 120.159 322.199 121.758 319.781 122.884C317.363 124.011 314.517 124.612 311.604 124.612L47.026 124.616Z" fill="#1B1501"/>
<path d="M47.4166 118.463C46.074 118.457 44.7656 118.17 43.6649 117.641C42.5641 117.112 41.7227 116.365 41.2521 115.499C32.5522 99.5594 28.0431 82.6806 27.9359 65.652C27.818 48.4097 32.2151 31.2939 40.9162 15.125C41.4901 14.0737 42.5164 13.1679 43.8578 12.5287C45.1994 11.8893 46.7922 11.547 48.4238 11.5472H311.215C312.526 11.5485 313.806 11.8188 314.892 12.3235C315.978 12.8283 316.821 13.5446 317.312 14.3808C327.016 30.4794 331.99 47.7421 331.945 65.1715C331.923 82.4842 326.948 99.6251 317.305 115.616C316.816 116.451 315.974 117.168 314.889 117.673C313.805 118.178 312.525 118.448 311.215 118.449L47.4166 118.463Z" fill="url(#paint5_linear_1358_6027)"/>
<g style="mix-blend-mode:overlay">
<g style="mix-blend-mode:overlay">
<g style="mix-blend-mode:overlay">
<path d="M311.236 15.8334C320.597 31.4716 325.393 48.2388 325.349 65.1676C325.334 81.9864 320.539 98.6391 311.236 114.176H47.4534C39.0402 98.6529 34.6801 82.218 34.5772 65.6376C34.4652 48.8323 38.7269 32.1505 47.1577 16.3919C47.2554 16.2265 47.4219 16.085 47.6362 15.9855C47.8505 15.886 48.1028 15.8331 48.3607 15.8334H311.236ZM311.331 11.1792H48.3607C46.7279 11.179 45.1338 11.5236 43.7912 12.1674C42.4487 12.811 41.4216 13.723 40.8472 14.7816C32.1393 31.0616 27.7388 48.2952 27.8568 65.6561C27.9641 82.8018 32.4767 99.7967 41.1834 115.846C41.6543 116.718 42.4964 117.47 43.5981 118.003C44.6997 118.535 46.0091 118.824 47.3527 118.83H311.357C312.668 118.829 313.949 118.557 315.034 118.048C316.12 117.54 316.962 116.819 317.452 115.977C327.106 99.8728 332.085 82.6087 332.103 65.1723C332.147 47.6245 327.169 30.2448 317.459 14.0369C316.968 13.1949 316.124 12.4737 315.037 11.9655C313.95 11.4573 312.669 11.1851 311.357 11.1839L311.331 11.1792Z" fill="white"/>
</g>
</g>
</g>
<path style="mix-blend-mode:multiply" opacity="0.64" d="M32.5869 96.156C34.8111 103.385 39.8155 118 44.2639 118.769C45.0123 119.065 50.6296 119.224 51.4925 119.231H309.499C310.362 119.224 313.199 119.065 313.947 118.769C318.396 118.384 322.844 106.462 327.292 96.156H32.5869Z" fill="url(#paint6_linear_1358_6027)"/>
<path style="mix-blend-mode:multiply" opacity="0.64" d="M31.0361 33.0839C33.2954 21.886 37.5314 12.6152 43.9593 10.4708C44.7098 10.1766 45.5563 10.0177 46.4201 10.0087H311.908C312.772 10.0177 313.619 10.1766 314.369 10.4708C320.797 12.6199 325.033 21.886 327.293 33.0839H31.0361Z" fill="url(#paint7_linear_1358_6027)"/>
<path opacity="0.4" d="M30.2609 69.6556C30.2746 69.4718 30.2746 69.2872 30.2609 69.1041C30.2437 68.918 30.2123 68.7334 30.167 68.5526C30.0703 68.2049 29.9306 67.8703 29.7511 67.5573C29.4015 66.935 28.886 66.4227 28.2623 66.0782L20.2146 61.6669L5.46041 53.5971C5.04418 53.373 4.58878 53.2314 4.11911 53.1802C3.66573 53.1406 3.20901 53.1956 2.77781 53.3415C2.46388 53.4361 2.1656 53.5765 1.89261 53.7585C1.48344 54.0363 1.1287 54.3874 0.846407 54.7941C0.753575 54.9327 0.668498 55.0764 0.591565 55.2245C0.279487 55.8315 0.118486 56.505 0.122131 57.188V82.1362C0.121666 82.65 0.212481 83.16 0.39039 83.6423C0.509978 83.9538 0.662837 84.2515 0.846407 84.5299C1.03285 84.7999 1.2538 85.0437 1.5036 85.256L1.89261 85.566L2.36205 85.8214C2.82644 86.0452 3.33558 86.1606 3.85085 86.1575C4.14021 86.1552 4.42824 86.119 4.7093 86.0498C4.99811 85.969 5.27707 85.8567 5.54091 85.7137L28.3428 73.2461C28.8078 72.9877 29.2143 72.6346 29.5366 72.2108C29.6442 72.0693 29.7427 71.9208 29.8316 71.767C30.0111 71.4539 30.1508 71.1193 30.2474 70.7717C30.3332 70.4055 30.3783 70.0309 30.3816 69.6556H30.2609Z" fill="black"/>
<path d="M4.49444 52.4401C4.23332 52.3069 3.94172 52.2452 3.6491 52.2613C3.35657 52.2774 3.0735 52.3707 2.82843 52.5318C2.58336 52.6929 2.38513 52.916 2.25375 53.1785C2.1223 53.4411 2.06243 53.7339 2.08011 54.0271V78.9753C2.05987 79.2699 2.11795 79.5637 2.24832 79.8283C2.37869 80.0929 2.57676 80.3183 2.82222 80.4806C3.06768 80.6436 3.35176 80.7383 3.64554 80.7544C3.93931 80.7713 4.23231 80.7098 4.49444 80.576L27.2964 68.0945C27.5717 67.9322 27.7999 67.7 27.9584 67.4215C28.1169 67.1431 28.2003 66.8285 28.2003 66.5077C28.2003 66.1878 28.1169 65.8724 27.9584 65.594C27.7999 65.3155 27.5717 65.084 27.2964 64.9209L4.49444 52.4401Z" fill="url(#paint8_linear_1358_6027)"/>
<path opacity="0.4" d="M5.29911 79.5136C5.0573 79.6374 4.78733 79.6943 4.51643 79.6797C4.24554 79.6651 3.98325 79.5797 3.75609 79.4305C3.52886 79.2821 3.34482 79.0759 3.22244 78.8329C3.10006 78.5906 3.04376 78.3198 3.05912 78.0475V54.9692C3.04376 54.6976 3.10006 54.4268 3.22244 54.1839C3.34482 53.9412 3.52886 53.735 3.75609 53.5863C3.98325 53.4376 4.24554 53.3517 4.51643 53.3371C4.78733 53.3225 5.0573 53.3798 5.29911 53.5032L26.3708 65.0292C26.6267 65.18 26.8389 65.3954 26.9863 65.653C27.1338 65.9115 27.2113 66.2045 27.2113 66.5022C27.2113 66.7991 27.1338 67.0922 26.9863 67.3506C26.8389 67.6083 26.6267 67.8236 26.3708 67.9744L5.29911 79.5136ZM5.82221 75.95L23.0712 66.5353L5.82221 57.1213V75.95Z" fill="#231F20"/>
<path d="M5.43337 82.6064L28.2353 70.1258C28.8644 69.7681 29.3858 69.2466 29.7445 68.6174C30.1033 67.9883 30.2863 67.2729 30.2741 66.5484C30.2863 65.823 30.1033 65.1085 29.7445 64.4785C29.3858 63.8493 28.8644 63.3286 28.2353 62.9709L5.43337 50.4898C4.86939 50.1775 4.23035 50.0273 3.58665 50.0558C2.94295 50.0842 2.31957 50.2903 1.78515 50.6512C1.22955 51.0276 0.776556 51.5373 0.467347 52.1339C0.158139 52.7304 0.00248893 53.3952 0.0145874 54.0673V78.9752C0.000239866 79.6497 0.154727 80.3166 0.46409 80.9158C0.773376 81.515 1.22761 82.0272 1.78515 82.4049C2.36308 82.798 3.04509 83.0087 3.74346 83.0095C4.33163 83.0195 4.91282 82.881 5.43337 82.6064ZM25.6199 66.4676L4.15923 78.2083V54.7667L25.6199 66.4676Z" fill="url(#paint9_linear_1358_6027)"/>
<g style="mix-blend-mode:overlay" opacity="0.81">
<path style="mix-blend-mode:overlay" opacity="0.81" d="M30.2603 66.468C30.2725 67.1925 30.0896 67.9079 29.7308 68.537C29.372 69.167 28.8507 69.6877 28.2217 70.0454L5.41978 82.526C4.90288 82.8145 4.32138 82.9675 3.72972 82.9699C3.03135 82.9683 2.34934 82.7576 1.77141 82.3645C1.21387 81.9868 0.759713 81.4753 0.450427 80.8762C0.141141 80.277 -0.0135009 79.6093 0.000924204 78.9348V54.0273C-0.0112518 53.355 0.144399 52.6905 0.453607 52.0939C0.762815 51.4973 1.21581 50.9877 1.77141 50.6112C2.30583 50.2503 2.92921 50.0442 3.57291 50.0158C4.21669 49.9872 4.85573 50.1375 5.41978 50.4499L28.2217 62.9305C28.8447 63.2851 29.3621 63.7997 29.7205 64.4212C30.0789 65.0434 30.2652 65.7495 30.2603 66.468ZM28.785 66.468C28.786 66.0357 28.6721 65.6111 28.4553 65.2373C28.2384 64.8642 27.9263 64.555 27.5511 64.3427L4.74909 51.862C4.43585 51.6929 4.08546 51.6051 3.72972 51.6065C3.31109 51.608 2.9016 51.7294 2.54935 51.9562C2.21525 52.1871 1.94265 52.4966 1.75559 52.8577C1.56852 53.2188 1.47267 53.6204 1.47639 54.0273V78.9755C1.4691 79.3832 1.56341 79.7862 1.75078 80.1477C1.93815 80.5093 2.21269 80.8185 2.54935 81.0469C2.87159 81.2638 3.24664 81.3884 3.63425 81.4069C4.02187 81.4261 4.40739 81.3384 4.74909 81.1538L27.5511 68.6732C27.9263 68.4609 28.2384 68.1525 28.4553 67.7786C28.6721 67.4056 28.786 66.9802 28.785 66.5487V66.468Z" fill="url(#paint10_linear_1358_6027)"/>
</g>
<path opacity="0.4" d="M329.741 68.8802C329.727 68.6964 329.727 68.5118 329.741 68.3287C329.758 68.1426 329.789 67.958 329.835 67.7772C329.932 67.4295 330.071 67.0949 330.251 66.7819C330.6 66.1596 331.116 65.6474 331.74 65.3028L339.787 60.8915L354.541 52.8217C354.958 52.5976 355.413 52.456 355.883 52.4048C356.336 52.3652 356.793 52.4202 357.224 52.5661C357.538 52.6607 357.837 52.8011 358.11 52.9831C358.518 53.2609 358.874 53.612 359.156 54.0187C359.248 54.1573 359.333 54.301 359.41 54.4491C359.723 55.0561 359.883 55.7296 359.88 56.4126V81.3608C359.88 81.8747 359.789 82.3846 359.612 82.8669C359.492 83.1784 359.339 83.4761 359.156 83.7545C358.969 84.0245 358.748 84.2683 358.498 84.4806L358.11 84.7906L357.64 85.046C357.176 85.2698 356.666 85.3852 356.151 85.3821C355.862 85.3798 355.574 85.3436 355.293 85.2744C355.004 85.1937 354.725 85.0814 354.461 84.9383L331.659 72.4707C331.194 72.2123 330.787 71.8592 330.465 71.4354C330.358 71.2939 330.259 71.1454 330.17 70.9916C329.991 70.6785 329.851 70.3439 329.754 69.9963C329.669 69.6301 329.623 69.2556 329.62 68.8802H329.741Z" fill="black"/>
<path d="M355.507 51.6647C355.767 51.5315 356.059 51.4698 356.352 51.4859C356.644 51.5021 356.928 51.5954 357.173 51.7564C357.418 51.9175 357.615 52.1406 357.747 52.4031C357.878 52.6657 357.939 52.9585 357.921 53.2517V78.1999C357.941 78.4945 357.883 78.7883 357.753 79.0529C357.622 79.3175 357.424 79.5429 357.179 79.7052C356.933 79.8682 356.649 79.9629 356.355 79.979C356.061 79.9959 355.769 79.9344 355.507 79.8006L332.704 67.3192C332.429 67.1569 332.201 66.9246 332.043 66.6461C331.884 66.3677 331.801 66.0531 331.801 65.7323C331.801 65.4124 331.884 65.097 332.043 64.8186C332.201 64.5401 332.429 64.3086 332.704 64.1455L355.507 51.6647Z" fill="url(#paint11_linear_1358_6027)"/>
<g style="mix-blend-mode:multiply" opacity="0.4">
<g style="mix-blend-mode:multiply">
<g style="mix-blend-mode:multiply">
<path d="M354.701 78.7387C354.942 78.8625 355.213 78.9194 355.484 78.9048C355.754 78.8902 356.016 78.8048 356.244 78.6556C356.471 78.5072 356.656 78.301 356.777 78.058C356.9 77.8157 356.956 77.5449 356.941 77.2726V54.1943C356.956 53.9227 356.9 53.6519 356.777 53.409C356.656 53.1663 356.471 52.9601 356.244 52.8114C356.016 52.6627 355.754 52.5768 355.484 52.5622C355.213 52.5476 354.942 52.6049 354.701 52.7283L333.629 64.2543C333.373 64.4051 333.161 64.6205 333.014 64.8781C332.867 65.1366 332.789 65.4296 332.789 65.7273C332.789 66.0242 332.867 66.3173 333.014 66.5757C333.161 66.8334 333.373 67.0487 333.629 67.1995L354.701 78.7387ZM354.178 75.1751L336.929 65.7604L354.178 56.3464V75.1751Z" fill="#231F20"/>
</g>
</g>
</g>
<path d="M354.569 81.8319L331.767 69.3513C331.137 68.9936 330.616 68.4721 330.258 67.8429C329.899 67.2137 329.716 66.4984 329.728 65.7738C329.716 65.0485 329.899 64.3339 330.258 63.704C330.616 63.0748 331.137 62.5541 331.767 62.1964L354.569 49.7153C355.133 49.4029 355.772 49.2528 356.415 49.2812C357.059 49.3097 357.682 49.5158 358.217 49.8767C358.772 50.2531 359.226 50.7627 359.534 51.3593C359.844 51.9559 360 52.6206 359.987 53.2928V78.2006C360.001 78.8752 359.847 79.5421 359.538 80.1413C359.229 80.7404 358.774 81.2527 358.217 81.6304C357.639 82.0234 356.957 82.2342 356.259 82.235C355.67 82.245 355.089 82.1065 354.569 81.8319ZM334.382 65.6931L355.843 77.4338V53.9921L334.382 65.6931Z" fill="url(#paint12_linear_1358_6027)"/>
<g style="mix-blend-mode:overlay" opacity="0.81">
<path style="mix-blend-mode:overlay" opacity="0.81" d="M329.741 65.6929C329.728 66.4175 329.911 67.1328 330.271 67.762C330.629 68.392 331.15 68.9127 331.78 69.2704L354.581 81.751C355.098 82.0395 355.68 82.1925 356.271 82.1948C356.969 82.1933 357.652 81.9825 358.23 81.5895C358.787 81.2118 359.242 80.7003 359.55 80.1011C359.86 79.5019 360.015 78.8343 360 78.1597V53.2523C360.012 52.58 359.857 51.9155 359.547 51.3189C359.239 50.7223 358.786 50.2127 358.23 49.8362C357.695 49.4752 357.072 49.2692 356.428 49.2407C355.784 49.2122 355.145 49.3625 354.581 49.6749L331.78 62.1555C331.156 62.5101 330.639 63.0247 330.281 63.6462C329.922 64.2684 329.735 64.9745 329.741 65.6929ZM331.216 65.6929C331.215 65.2607 331.329 64.8361 331.546 64.4623C331.763 64.0892 332.074 63.78 332.45 63.5677L355.252 51.087C355.565 50.9179 355.915 50.8301 356.271 50.8315C356.69 50.833 357.1 50.9544 357.452 51.1811C357.786 51.4121 358.058 51.7216 358.245 52.0827C358.433 52.4438 358.528 52.8454 358.525 53.2523V78.2005C358.532 78.6082 358.437 79.0112 358.25 79.3727C358.063 79.7342 357.788 80.0434 357.452 80.2719C357.13 80.4888 356.754 80.6134 356.367 80.6319C355.979 80.6511 355.593 80.5634 355.252 80.3788L332.45 67.8982C332.074 67.6859 331.763 67.3774 331.546 67.0036C331.329 66.6306 331.215 66.2052 331.216 65.7737V65.6929Z" fill="url(#paint13_linear_1358_6027)"/>
</g>
<path d="M85 16H86V114H85V16Z" fill="url(#paint14_linear_1358_6027)"/>
<path d="M132 16H133V114H132V16Z" fill="url(#paint15_linear_1358_6027)"/>
<path d="M179 16H180V114H179V16Z" fill="url(#paint16_linear_1358_6027)"/>
<path d="M226 16H227V114H226V16Z" fill="url(#paint17_linear_1358_6027)"/>
<path d="M273 16H274V114H273V16Z" fill="url(#paint18_linear_1358_6027)"/>
</g>
<defs>
<filter id="filter0_i_1358_6027" x="11.7266" y="0.000366211" width="336.507" height="140.857" filterUnits="userSpaceOnUse" color-interpolation-filters="sRGB">
<feFlood flood-opacity="0" result="BackgroundImageFix"/>
<feBlend mode="normal" in="SourceGraphic" in2="BackgroundImageFix" result="shape"/>
<feColorMatrix in="SourceAlpha" type="matrix" values="0 0 0 0 0 0 0 0 0 0 0 0 0 0 0 0 0 0 127 0" result="hardAlpha"/>
<feOffset dy="10.8576"/>
<feGaussianBlur stdDeviation="15.5108"/>
<feComposite in2="hardAlpha" operator="arithmetic" k2="-1" k3="1"/>
<feColorMatrix type="matrix" values="0 0 0 0 0.0448785 0 0 0 0 0.375473 0 0 0 0 0.979167 0 0 0 0.7 0"/>
<feBlend mode="normal" in2="shape" result="effect1_innerShadow_1358_6027"/>
</filter>
<linearGradient id="paint0_linear_1358_6027" x1="347.529" y1="34.0001" x2="347.529" y2="102.879" gradientUnits="userSpaceOnUse">
<stop offset="0.04" stop-color="#5C3B00"/>
<stop offset="0.09" stop-color="#785216"/>
<stop offset="0.19" stop-color="#AE8042"/>
<stop offset="0.24" stop-color="#C8A35C"/>
<stop offset="0.3" stop-color="#E6CC7A"/>
<stop offset="0.32" stop-color="#ECD98E"/>
<stop offset="0.36" stop-color="#F7EDAE"/>
<stop offset="0.39" stop-color="#FDF9C1"/>
<stop offset="0.41" stop-color="#FFFDC8"/>
<stop offset="0.46" stop-color="#FFFDC8"/>
<stop offset="0.53" stop-color="#FFFDC8"/>
<stop offset="0.85" stop-color="#CCA000"/>
<stop offset="0.89" stop-color="#AD8104"/>
<stop offset="0.93" stop-color="#8D6308"/>
<stop offset="0.97" stop-color="#7A500A"/>
<stop offset="1" stop-color="#73490B"/>
</linearGradient>
<radialGradient id="paint1_radial_1358_6027" cx="0" cy="0" r="1" gradientUnits="userSpaceOnUse" gradientTransform="translate(352.65 68.0965) scale(15.4959 20.1269)">
<stop stop-color="white"/>
<stop offset="1" stop-color="white"/>
</radialGradient>
<linearGradient id="paint2_linear_1358_6027" x1="10.9368" y1="33.7942" x2="10.9368" y2="102.108" gradientUnits="userSpaceOnUse">
<stop offset="0.04" stop-color="#5C3B00"/>
<stop offset="0.09" stop-color="#785216"/>
<stop offset="0.19" stop-color="#AE8042"/>
<stop offset="0.24" stop-color="#C8A35C"/>
<stop offset="0.3" stop-color="#E6CC7A"/>
<stop offset="0.32" stop-color="#ECD98E"/>
<stop offset="0.36" stop-color="#F7EDAE"/>
<stop offset="0.39" stop-color="#FDF9C1"/>
<stop offset="0.41" stop-color="#FFFDC8"/>
<stop offset="0.46" stop-color="#FFFDC8"/>
<stop offset="0.53" stop-color="#FFFDC8"/>
<stop offset="0.85" stop-color="#CCA000"/>
<stop offset="0.89" stop-color="#AD8104"/>
<stop offset="0.93" stop-color="#8D6308"/>
<stop offset="0.97" stop-color="#7A500A"/>
<stop offset="1" stop-color="#73490B"/>
</linearGradient>
<radialGradient id="paint3_radial_1358_6027" cx="0" cy="0" r="1" gradientUnits="userSpaceOnUse" gradientTransform="translate(3499.86 86002.3) rotate(180) scale(132.8 2411.17)">
<stop stop-color="white"/>
<stop offset="1" stop-color="white"/>
</radialGradient>
<linearGradient id="paint4_linear_1358_6027" x1="179.7" y1="-14.8836" x2="179.7" y2="142.194" gradientUnits="userSpaceOnUse">
<stop offset="0.04" stop-color="#5C3B00"/>
<stop offset="0.09" stop-color="#785216"/>
<stop offset="0.19" stop-color="#AE8042"/>
<stop offset="0.24" stop-color="#C8A35C"/>
<stop offset="0.3" stop-color="#E6CC7A"/>
<stop offset="0.32" stop-color="#ECD98E"/>
<stop offset="0.36" stop-color="#F7EDAE"/>
<stop offset="0.39" stop-color="#FDF9C1"/>
<stop offset="0.41" stop-color="#FFFDC8"/>
<stop offset="0.46" stop-color="#FFFDC8"/>
<stop offset="0.53" stop-color="#FFFDC8"/>
<stop offset="0.85" stop-color="#CCA000"/>
<stop offset="0.89" stop-color="#AD8104"/>
<stop offset="0.93" stop-color="#8D6308"/>
<stop offset="0.97" stop-color="#7A500A"/>
<stop offset="1" stop-color="#73490B"/>
</linearGradient>
<linearGradient id="paint5_linear_1358_6027" x1="179.94" y1="13.6088" x2="179.94" y2="119.655" gradientUnits="userSpaceOnUse">
<stop stop-color="#051732"/>
<stop offset="0.494792" stop-color="#04285F"/>
<stop offset="1" stop-color="#051732"/>
</linearGradient>
<linearGradient id="paint6_linear_1358_6027" x1="180.499" y1="117.535" x2="180.499" y2="100.745" gradientUnits="userSpaceOnUse">
<stop/>
<stop offset="0.07" stop-color="#181818"/>
<stop offset="0.34" stop-color="#696969"/>
<stop offset="0.57" stop-color="#A9A9A9"/>
<stop offset="0.76" stop-color="#D8D8D8"/>
<stop offset="0.91" stop-color="#F4F4F4"/>
<stop offset="1" stop-color="white"/>
</linearGradient>
<linearGradient id="paint7_linear_1358_6027" x1="-216850" y1="-23078.6" x2="-216850" y2="-22240.3" gradientUnits="userSpaceOnUse">
<stop/>
<stop offset="0.07" stop-color="#181818"/>
<stop offset="0.34" stop-color="#696969"/>
<stop offset="0.57" stop-color="#A9A9A9"/>
<stop offset="0.76" stop-color="#D8D8D8"/>
<stop offset="0.91" stop-color="#F4F4F4"/>
<stop offset="1" stop-color="white"/>
</linearGradient>
<linearGradient id="paint8_linear_1358_6027" x1="15.1308" y1="56.1654" x2="15.1308" y2="79.1768" gradientUnits="userSpaceOnUse">
<stop stop-color="#FF0093"/>
<stop offset="0.48" stop-color="#FF6CCF"/>
<stop offset="0.822917" stop-color="#FF0093"/>
</linearGradient>
<linearGradient id="paint9_linear_1358_6027" x1="30.4351" y1="91.2543" x2="-11.2645" y2="41.0515" gradientUnits="userSpaceOnUse">
<stop offset="0.04" stop-color="#5C3B00"/>
<stop offset="0.12" stop-color="#785216"/>
<stop offset="0.26" stop-color="#AE8042"/>
<stop offset="0.33" stop-color="#C8A34E"/>
<stop offset="0.42" stop-color="#E6CC5C"/>
<stop offset="0.43" stop-color="#E7CF62"/>
<stop offset="0.49" stop-color="#F2E38E"/>
<stop offset="0.54" stop-color="#F9F1AE"/>
<stop offset="0.58" stop-color="#FDFAC1"/>
<stop offset="0.61" stop-color="#FFFDC8"/>
<stop offset="0.85" stop-color="#E2A000"/>
<stop offset="0.86" stop-color="#D99901"/>
<stop offset="0.9" stop-color="#AD7605"/>
<stop offset="0.94" stop-color="#8D5E08"/>
<stop offset="0.98" stop-color="#7A4E0A"/>
<stop offset="1" stop-color="#73490B"/>
</linearGradient>
<linearGradient id="paint10_linear_1358_6027" x1="15.1441" y1="61.3837" x2="15.1441" y2="76.245" gradientUnits="userSpaceOnUse">
<stop stop-color="white"/>
<stop offset="1"/>
</linearGradient>
<linearGradient id="paint11_linear_1358_6027" x1="344.87" y1="55.39" x2="344.87" y2="78.4014" gradientUnits="userSpaceOnUse">
<stop stop-color="#FF0093"/>
<stop offset="0.48" stop-color="#FF6CCF"/>
<stop offset="0.822917" stop-color="#FF0093"/>
</linearGradient>
<linearGradient id="paint12_linear_1358_6027" x1="329.567" y1="90.4797" x2="371.267" y2="40.2769" gradientUnits="userSpaceOnUse">
<stop offset="0.04" stop-color="#5C3B00"/>
<stop offset="0.12" stop-color="#785216"/>
<stop offset="0.26" stop-color="#AE8042"/>
<stop offset="0.33" stop-color="#C8A34E"/>
<stop offset="0.42" stop-color="#E6CC5C"/>
<stop offset="0.43" stop-color="#E7CF62"/>
<stop offset="0.49" stop-color="#F2E38E"/>
<stop offset="0.54" stop-color="#F9F1AE"/>
<stop offset="0.58" stop-color="#FDFAC1"/>
<stop offset="0.61" stop-color="#FFFDC8"/>
<stop offset="0.85" stop-color="#E2A000"/>
<stop offset="0.86" stop-color="#D99901"/>
<stop offset="0.9" stop-color="#AD7605"/>
<stop offset="0.94" stop-color="#8D5E08"/>
<stop offset="0.98" stop-color="#7A4E0A"/>
<stop offset="1" stop-color="#73490B"/>
</linearGradient>
<linearGradient id="paint13_linear_1358_6027" x1="344.857" y1="60.6087" x2="344.857" y2="75.4699" gradientUnits="userSpaceOnUse">
<stop stop-color="white"/>
<stop offset="1"/>
</linearGradient>
<linearGradient id="paint14_linear_1358_6027" x1="85.5" y1="113" x2="85" y2="16" gradientUnits="userSpaceOnUse">
<stop stop-color="#00F9FF" stop-opacity="0"/>
<stop offset="0.53125" stop-color="#00F9FF"/>
<stop offset="1" stop-color="#00F9FF" stop-opacity="0"/>
</linearGradient>
<linearGradient id="paint15_linear_1358_6027" x1="132.5" y1="113" x2="132" y2="16" gradientUnits="userSpaceOnUse">
<stop stop-color="#00F9FF" stop-opacity="0"/>
<stop offset="0.53125" stop-color="#00F9FF"/>
<stop offset="1" stop-color="#00F9FF" stop-opacity="0"/>
</linearGradient>
<linearGradient id="paint16_linear_1358_6027" x1="179.5" y1="113" x2="179" y2="16" gradientUnits="userSpaceOnUse">
<stop stop-color="#00F9FF" stop-opacity="0"/>
<stop offset="0.53125" stop-color="#00F9FF"/>
<stop offset="1" stop-color="#00F9FF" stop-opacity="0"/>
</linearGradient>
<linearGradient id="paint17_linear_1358_6027" x1="226.5" y1="113" x2="226" y2="16" gradientUnits="userSpaceOnUse">
<stop stop-color="#00F9FF" stop-opacity="0"/>
<stop offset="0.53125" stop-color="#00F9FF"/>
<stop offset="1" stop-color="#00F9FF" stop-opacity="0"/>
</linearGradient>
<linearGradient id="paint18_linear_1358_6027" x1="273.5" y1="113" x2="273" y2="16" gradientUnits="userSpaceOnUse">
<stop stop-color="#00F9FF" stop-opacity="0"/>
<stop offset="0.53125" stop-color="#00F9FF"/>
<stop offset="1" stop-color="#00F9FF" stop-opacity="0"/>
</linearGradient>
<clipPath id="clip0_1358_6027">
<rect width="360" height="130" fill="white"/>
</clipPath>
</defs>
</svg>
