<svg width="36" height="36" viewBox="0 0 36 36" fill="none" xmlns="http://www.w3.org/2000/svg">
<circle cx="17.9526" cy="17.9526" r="17.4526" fill="url(#paint0_linear_94_1407)" fill-opacity="0.5" stroke="url(#paint1_linear_94_1407)"/>
<path d="M24.5666 12.7237C23.3438 12.196 22.0326 11.8071 20.6616 11.5844C20.6366 11.5801 20.6117 11.5909 20.5988 11.6124C20.4302 11.8945 20.2434 12.2626 20.1125 12.5519C18.6379 12.3442 17.1709 12.3442 15.7266 12.5519C15.5957 12.2561 15.4021 11.8945 15.2327 11.6124C15.2199 11.5916 15.1949 11.5808 15.17 11.5844C13.7997 11.8064 12.4885 12.1953 11.2649 12.7237C11.2543 12.728 11.2453 12.7352 11.2392 12.7445C8.75206 16.2397 8.07072 19.6491 8.40497 23.0161C8.40648 23.0326 8.41631 23.0484 8.42992 23.0584C10.0709 24.192 11.6604 24.8801 13.2205 25.3363C13.2454 25.3434 13.2719 25.3349 13.2878 25.3155C13.6568 24.8415 13.9858 24.3416 14.2678 23.816C14.2845 23.7852 14.2686 23.7487 14.2346 23.7365C13.7128 23.5503 13.2159 23.3233 12.738 23.0656C12.7002 23.0448 12.6972 22.9939 12.732 22.9696C12.8325 22.8987 12.9331 22.8249 13.0292 22.7505C13.0465 22.7369 13.0708 22.734 13.0912 22.7426C16.2309 24.091 19.6301 24.091 22.7328 22.7426C22.7532 22.7333 22.7774 22.7362 22.7956 22.7498C22.8916 22.8242 22.9922 22.8987 23.0935 22.9696C23.1283 22.9939 23.126 23.0448 23.0882 23.0656C22.6103 23.3284 22.1135 23.5503 21.5909 23.7358C21.5569 23.748 21.5418 23.7852 21.5584 23.816C21.8465 24.3409 22.1755 24.8407 22.5377 25.3148C22.5528 25.3349 22.58 25.3434 22.605 25.3363C24.1726 24.8801 25.7621 24.192 27.4031 23.0584C27.4175 23.0484 27.4266 23.0333 27.4281 23.0169C27.8281 19.1242 26.7581 15.7428 24.5915 12.7452C24.5862 12.7352 24.5772 12.728 24.5666 12.7237ZM14.7367 20.966C13.7914 20.966 13.0125 20.1496 13.0125 19.1471C13.0125 18.1446 13.7763 17.3282 14.7367 17.3282C15.7046 17.3282 16.476 18.1517 16.4608 19.1471C16.4608 20.1496 15.697 20.966 14.7367 20.966ZM21.1115 20.966C20.1662 20.966 19.3874 20.1496 19.3874 19.1471C19.3874 18.1446 20.1511 17.3282 21.1115 17.3282C22.0794 17.3282 22.8508 18.1517 22.8357 19.1471C22.8357 20.1496 22.0794 20.966 21.1115 20.966Z" fill="url(#paint2_linear_94_1407)"/>
<defs>
<linearGradient id="paint0_linear_94_1407" x1="0" y1="0" x2="21.9513" y2="43.0245" gradientUnits="userSpaceOnUse">
<stop stop-color="white" stop-opacity="0.4"/>
<stop offset="1" stop-color="white" stop-opacity="0"/>
</linearGradient>
<linearGradient id="paint1_linear_94_1407" x1="0" y1="0" x2="40.9313" y2="7.15573" gradientUnits="userSpaceOnUse">
<stop stop-color="#FFFFFF"/>
<stop offset="1" stop-color="#FFFFFF"/>
</linearGradient>
<linearGradient id="paint2_linear_94_1407" x1="8.32568" y1="11.5835" x2="29.5998" y2="16.7708" gradientUnits="userSpaceOnUse">
<stop stop-color="#FFFFFF"/>
<stop offset="1" stop-color="#FFFFFF"/>
</linearGradient>
</defs>
</svg>
