<svg width="50" height="50" viewBox="0 0 50 50" fill="none" xmlns="http://www.w3.org/2000/svg">
<circle cx="17.9526" cy="17.9526" r="17.4526" fill="url(#paint0_linear_94_1393)" fill-opacity="0.5" stroke="url(#paint1_linear_94_1393)"/>
<path d="M25 13C18.373 13 13 17.974 13 24.111C13.0148 25.7965 13.4238 27.4551 14.1945 28.9542C14.9651 30.4533 16.0759 31.7511 17.438 32.744L17.469 32.765V37L21.557 34.758C22.588 35.053 23.772 35.222 24.996 35.222H25C31.627 35.222 37 30.247 37 24.112C37 17.977 31.627 13 25 13ZM26.191 27.963L23.136 24.7L17.173 27.96L23.732 21L26.863 24.259L32.752 21L26.191 27.963Z" fill="white"/>
<rect x="0.5" y="0.5" width="49" height="49" rx="24.5" stroke="white"/>
</svg>
