<svg width="28" height="28" viewBox="0 0 28 28" fill="none" xmlns="http://www.w3.org/2000/svg">
<path d="M5.75075 22.2497C7.38236 23.8814 9.46116 24.9925 11.7243 25.4427C13.9874 25.8928 16.3332 25.6618 18.465 24.7788C20.5968 23.8957 22.4189 22.4004 23.7008 20.4818C24.9828 18.5632 25.667 16.3076 25.667 14.0002C25.667 11.6927 24.9828 9.43708 23.7008 7.51851C22.4189 5.59994 20.5968 4.10459 18.465 3.22157C16.3332 2.33855 13.9874 2.10751 11.7243 2.55767C9.46116 3.00783 7.38236 4.11897 5.75075 5.75058" stroke="white" stroke-width="4"/>
<path d="M17.5 13.9998L19.0617 12.7504L20.0612 13.9998L19.0617 15.2492L17.5 13.9998ZM3.5 15.9998C2.39543 15.9998 1.5 15.1044 1.5 13.9998C1.5 12.8953 2.39543 11.9998 3.5 11.9998V15.9998ZM14.3951 6.91711L19.0617 12.7504L15.9383 15.2492L11.2716 9.41589L14.3951 6.91711ZM19.0617 15.2492L14.3951 21.0826L11.2716 18.5838L15.9383 12.7504L19.0617 15.2492ZM17.5 15.9998H3.5V11.9998H17.5V15.9998Z" fill="white"/>
</svg>
