<svg width="36" height="36" viewBox="0 0 36 36" fill="none" xmlns="http://www.w3.org/2000/svg">
<circle cx="17.9526" cy="17.9526" r="17.4526" fill="url(#paint0_linear_94_1398)" fill-opacity="0.5" stroke="url(#paint1_linear_94_1398)"/>
<path d="M8.09082 17.9891L8.09821 17.9862L8.1055 17.9831C13.7153 15.6155 17.4518 14.0563 19.3188 13.3041C21.9923 12.2268 23.5953 11.5994 24.6189 11.2396C25.6506 10.8769 26.0432 10.8055 26.3179 10.8008C26.3594 10.8001 26.4472 10.8053 26.5427 10.8274C26.6416 10.8503 26.7101 10.8825 26.746 10.9107C26.7918 10.9468 26.8168 10.9985 26.8364 11.1094C26.8569 11.2251 26.883 11.5077 26.8634 11.7073C26.5764 14.6283 25.3279 21.7592 24.6901 25.0621C24.4317 26.4007 23.985 26.5553 23.8217 26.5698C23.4058 26.6069 23.0195 26.4793 22.5762 26.2271C22.353 26.1 22.1259 25.9476 21.8772 25.7765C21.8368 25.7487 21.7958 25.7204 21.7542 25.6916C21.5447 25.5469 21.3203 25.3919 21.0861 25.2432C20.2433 24.708 19.5838 24.2738 18.9278 23.8411L18.8406 23.7836C18.2136 23.3699 17.5821 22.9533 16.7932 22.4497C16.3433 22.1625 16.1497 21.9496 16.0754 21.8116C16.0219 21.7125 16.0233 21.6466 16.0685 21.5468C16.1301 21.4106 16.2665 21.2426 16.501 21.0115C16.6012 20.9127 16.7095 20.8116 16.8276 20.7013C16.8427 20.6872 16.858 20.6729 16.8734 20.6584C17.0072 20.5334 17.1508 20.3983 17.2932 20.2551C17.3537 20.1942 17.6573 19.9209 18.0943 19.5275C18.605 19.0677 19.2979 18.4439 19.9975 17.8039C20.6374 17.2185 21.2752 16.6262 21.7602 16.1542C22.0021 15.9188 22.2111 15.7084 22.3647 15.5414C22.4409 15.4586 22.5097 15.3798 22.5636 15.3101C22.5904 15.2754 22.6187 15.2364 22.6437 15.1957C22.6634 15.1636 22.7045 15.0937 22.7262 15.0037C22.7484 14.9122 22.7555 14.7882 22.7364 14.6636C22.7172 14.5378 22.659 14.3344 22.477 14.1776C22.2995 14.0248 22.0975 13.9927 21.9581 13.9916C21.8274 13.9906 21.7076 14.017 21.649 14.0299L21.645 14.0308C21.5646 14.0485 21.4897 14.0871 21.4664 14.0992C21.4651 14.0998 21.464 14.1004 21.463 14.1009C21.4223 14.1217 21.3742 14.1484 21.321 14.1789C21.2139 14.2403 21.0687 14.3276 20.8875 14.4391C20.5243 14.6627 20.0034 14.9917 19.3264 15.4252C17.9717 16.2926 15.9835 17.5835 13.3628 19.2973L13.3628 19.2972L13.3595 19.2994C12.638 19.7794 12.0432 19.9726 11.5603 19.9625C11.2756 19.9565 10.8193 19.8745 10.2832 19.7443C9.75832 19.6168 9.19361 19.4524 8.7091 19.2998C8.54701 19.2488 8.39516 19.2025 8.25324 19.1592C7.83432 19.0315 7.50199 18.9301 7.24857 18.8112C7.08435 18.7342 7.01114 18.6743 6.9828 18.6405C6.97709 18.6337 6.97477 18.6317 6.97416 18.6293C6.97406 18.6289 6.974 18.6285 6.97398 18.6281C6.97885 18.6194 7.01196 18.557 7.1621 18.449C7.35073 18.3133 7.65274 18.1578 8.09082 17.9891Z" fill="url(#paint2_linear_94_1398)" stroke="url(#paint3_linear_94_1398)"/>
<defs>
<linearGradient id="paint0_linear_94_1398" x1="0" y1="0" x2="21.9513" y2="43.0245" gradientUnits="userSpaceOnUse">
<stop stop-color="white" stop-opacity="0.4"/>
<stop offset="1" stop-color="white" stop-opacity="0"/>
</linearGradient>
<linearGradient id="paint1_linear_94_1398" x1="0" y1="0" x2="40.9313" y2="7.15573" gradientUnits="userSpaceOnUse">
<stop stop-color="#FFFFFF"/>
<stop offset="1" stop-color="#FFFFFF"/>
</linearGradient>
<linearGradient id="paint2_linear_94_1398" x1="6.47461" y1="10.3008" x2="29.9119" y2="15.4045" gradientUnits="userSpaceOnUse">
<stop stop-color="#FFFFFF"/>
<stop offset="1" stop-color="#FFFFFF"/>
</linearGradient>
<linearGradient id="paint3_linear_94_1398" x1="6.47461" y1="10.3008" x2="29.9119" y2="15.4045" gradientUnits="userSpaceOnUse">
<stop stop-color="#FFFFFF"/>
<stop offset="1" stop-color="#FFFFFF"/>
</linearGradient>
</defs>
</svg>
