<svg width="36" height="37" viewBox="0 0 36 37" fill="none" xmlns="http://www.w3.org/2000/svg">
<circle cx="17.9526" cy="18.3144" r="17.4526" fill="url(#paint0_linear_142_14)" fill-opacity="0.5" stroke="url(#paint1_linear_142_14)"/>
<path d="M29 18.8451C28.9523 21.3766 27.963 23.8718 25.9327 25.9127C23.9159 27.9382 21.4396 28.9806 18.5896 28.9997C15.6329 29.0207 13.0747 27.9611 10.9968 25.8401C8.99326 23.7974 7.99054 21.3079 8.00007 18.4576C8.0096 15.6455 9.00851 13.1827 10.9854 11.1686C13.1147 8.99604 15.7359 7.93266 18.7745 8.0033C24.3162 8.13121 28.9714 12.631 29 18.8451ZM11.0978 19.1105C10.6384 19.1105 10.1771 19.1105 9.71765 19.1105C9.59565 19.1105 9.47365 19.1105 9.34974 19.1124C9.28111 19.1124 9.23345 19.143 9.24489 19.2212C9.29445 19.5916 9.32686 19.9658 9.40121 20.3323C9.55371 21.0845 9.792 21.81 10.1294 22.5011C10.383 23.0204 10.6765 23.5148 11.0139 23.9845C11.0845 24.0818 11.1531 24.0914 11.2484 24.0341C11.3132 23.994 11.38 23.9577 11.4486 23.9253C12.152 23.5702 12.8726 23.2609 13.618 23.0051C13.7362 22.965 13.7476 22.9058 13.7095 22.7951C13.5951 22.4572 13.4788 22.1193 13.3873 21.7756C13.2882 21.3995 13.2024 21.0177 13.1376 20.634C13.0651 20.1949 13.0175 19.752 12.9698 19.311C12.9508 19.1353 12.9469 19.1162 12.7678 19.1162C12.213 19.1086 11.6564 19.1105 11.0978 19.1105ZM25.9061 19.1086C25.3494 19.1086 24.7928 19.1124 24.2342 19.1067C24.1103 19.1048 24.055 19.1525 24.0417 19.267C24.036 19.3167 24.036 19.3682 24.0322 19.4179C24.0112 19.6183 23.994 19.8188 23.9654 20.0192C23.9254 20.298 23.8835 20.5748 23.8282 20.8497C23.771 21.1456 23.7081 21.4415 23.628 21.7317C23.527 22.0944 23.4088 22.4534 23.2925 22.8123C23.262 22.9058 23.2963 22.944 23.3764 22.9726C23.5155 23.0204 23.6585 23.0605 23.792 23.1215C24.4287 23.4079 25.0654 23.6943 25.6945 23.994C25.908 24.0971 25.8984 24.0876 26.0338 23.9024C26.7601 22.8982 27.2614 21.7871 27.536 20.5805C27.6294 20.1682 27.6694 19.7424 27.7247 19.3224C27.7514 19.1105 27.7418 19.1086 27.5264 19.1086C26.985 19.1086 26.4455 19.1086 25.9061 19.1086ZM11.0788 17.9001C11.6278 17.9001 12.1768 17.9001 12.7258 17.9001C12.926 17.9001 12.9184 17.9001 12.9279 17.7073C12.9374 17.4973 12.9565 17.2873 12.9813 17.0773C13.0232 16.7279 13.0728 16.3786 13.1242 16.0292C13.1566 15.8173 13.1871 15.6035 13.2405 15.3973C13.3473 14.983 13.4655 14.5725 13.5875 14.164C13.6199 14.0533 13.5837 14.0094 13.4902 13.975C13.3206 13.9139 13.1471 13.8566 12.9813 13.7841C12.4246 13.5378 11.8661 13.2915 11.3151 13.0319C11.073 12.9174 11.0845 12.9078 10.932 13.1312C10.505 13.7459 10.1294 14.3893 9.87588 15.0956C9.7005 15.5844 9.54609 16.0846 9.42218 16.5905C9.33449 16.9589 9.31161 17.3446 9.25823 17.7226C9.23536 17.8829 9.2487 17.9001 9.40693 17.9001C9.96547 17.902 10.5221 17.902 11.0788 17.9001ZM25.9099 17.902C26.4589 17.902 27.0079 17.902 27.5569 17.902C27.7437 17.902 27.7533 17.8887 27.7304 17.7073C27.7018 17.4782 27.6866 17.2472 27.6484 17.0181C27.6008 16.7279 27.555 16.4358 27.473 16.1533C27.351 15.739 27.2119 15.3286 27.0556 14.9257C26.7887 14.2442 26.415 13.618 25.9861 13.0262C25.927 12.9441 25.8717 12.9326 25.786 12.9804C25.0635 13.3794 24.3124 13.7192 23.5327 13.9941C23.4126 14.0361 23.3993 14.0915 23.4317 14.2003C23.5136 14.4637 23.5994 14.7291 23.6623 14.9983C23.7672 15.4507 23.8777 15.9051 23.9464 16.3652C24.0131 16.8138 24.0302 17.2701 24.0646 17.7226C24.0779 17.8849 24.0874 17.902 24.2514 17.902C24.8042 17.902 25.357 17.902 25.9099 17.902ZM16.0009 17.902C16.5708 17.902 17.1408 17.902 17.7108 17.9001C17.8843 17.9001 17.8919 17.8944 17.8919 17.7245C17.8919 16.8253 17.8919 15.9242 17.8919 15.025C17.8919 14.8685 17.8786 14.8589 17.7146 14.8532C17.5049 14.8436 17.2914 14.8417 17.0836 14.8131C16.6757 14.7577 16.2696 14.6947 15.8655 14.6203C15.5319 14.5592 15.2021 14.479 14.8723 14.4026C14.7865 14.3835 14.7332 14.4007 14.7084 14.4885C14.6798 14.5897 14.655 14.6909 14.6207 14.7921C14.4186 15.3954 14.3023 16.0177 14.2108 16.6439C14.1594 16.9971 14.1479 17.3579 14.125 17.7149C14.1136 17.9001 14.1231 17.902 14.3157 17.902C14.8761 17.902 15.4385 17.902 16.0009 17.902ZM22.244 14.4026C22.0801 14.4446 21.9428 14.4847 21.8037 14.5134C21.4053 14.5935 21.0068 14.6833 20.6046 14.7386C20.1719 14.7978 19.7353 14.8226 19.2988 14.8551C19.1101 14.8685 19.0986 14.8704 19.0986 15.0594C19.0986 15.9414 19.0986 16.8234 19.0986 17.7073C19.0986 17.8925 19.1081 17.9039 19.2892 17.9039C20.4159 17.9039 21.5425 17.9039 22.6691 17.9039C22.8674 17.9039 22.8903 17.8963 22.8712 17.6978C22.8197 17.1747 22.7683 16.6516 22.6882 16.1342C22.631 15.7657 22.5338 15.4049 22.4423 15.0441C22.3908 14.8284 22.3146 14.6241 22.244 14.4026ZM21.0011 19.1105C21.0011 19.1086 21.0011 19.1086 21.0011 19.1105C20.4349 19.1086 19.8707 19.1086 19.3045 19.1105C19.1177 19.1105 19.1005 19.1296 19.1005 19.3129C19.1005 20.1949 19.1005 21.0769 19.1005 21.9589C19.1005 22.1288 19.1272 22.1613 19.3026 22.1784C19.4036 22.188 19.5047 22.1823 19.6057 22.188C19.7773 22.1975 19.9526 22.1994 20.1223 22.2243C20.5322 22.2834 20.942 22.3522 21.3519 22.4228C21.5368 22.4553 21.7236 22.4915 21.9047 22.5412C22.0686 22.5851 22.0915 22.587 22.1487 22.4285C22.3756 21.8043 22.5509 21.1647 22.6749 20.5137C22.753 20.1052 22.7873 19.6909 22.8369 19.2766C22.856 19.122 22.8426 19.1124 22.6863 19.1124C22.1239 19.1086 21.5616 19.1105 21.0011 19.1105ZM16.0218 19.1105C16.0218 19.1086 16.0218 19.1086 16.0218 19.1105C15.448 19.1105 14.8742 19.1105 14.2985 19.1086C14.1975 19.1086 14.146 19.1372 14.1594 19.246C14.1937 19.5343 14.2146 19.8226 14.2642 20.109C14.3214 20.4431 14.3881 20.7772 14.4758 21.1036C14.5997 21.5656 14.7465 22.0219 14.8799 22.4801C14.9085 22.5813 14.9619 22.5965 15.0572 22.5736C15.3508 22.5011 15.6425 22.4266 15.9399 22.377C16.3497 22.3102 16.7634 22.2644 17.1751 22.2166C17.3639 22.1937 17.5526 22.1804 17.7413 22.1727C17.8557 22.167 17.89 22.1193 17.89 22.0066C17.8862 21.0979 17.8881 20.1911 17.8881 19.2823C17.8881 19.1181 17.8805 19.1124 17.7146 19.1105C17.1542 19.1086 16.588 19.1105 16.0218 19.1105ZM19.1005 11.497C19.1005 11.497 19.0986 11.497 19.1005 11.497C19.1005 11.56 19.1005 11.623 19.1005 11.6879C19.1005 12.3007 19.1005 12.9116 19.1024 13.5244C19.1024 13.6772 19.1291 13.7039 19.2816 13.6944C19.4494 13.6848 19.6171 13.6676 19.7849 13.6524C19.9355 13.639 20.088 13.6294 20.2367 13.6065C20.4483 13.576 20.658 13.5378 20.8677 13.4977C21.1479 13.4443 21.4262 13.3889 21.7045 13.3297C21.7903 13.3125 21.8075 13.2629 21.7636 13.1808C21.6779 13.0166 21.6016 12.8486 21.5196 12.6825C20.9859 11.5886 20.3015 10.5978 19.5104 9.67759C19.4189 9.57259 19.3255 9.4695 19.2282 9.36831C19.2073 9.34731 19.1634 9.32822 19.1425 9.33586C19.1215 9.34541 19.1081 9.38741 19.1005 9.41795C19.0929 9.45422 19.0967 9.49432 19.0967 9.5325C19.1005 10.1873 19.1005 10.8421 19.1005 11.497ZM17.8919 9.33204C17.8805 9.3244 17.8671 9.31868 17.8557 9.31104C17.8214 9.33777 17.7814 9.35877 17.7528 9.39122C17.5964 9.56304 17.4401 9.73295 17.2914 9.9105C16.6376 10.6761 16.0828 11.5084 15.6043 12.3943C15.4804 12.6233 15.368 12.8601 15.2574 13.0949C15.2307 13.1522 15.1697 13.2324 15.2879 13.2667C15.4442 13.3106 15.6024 13.3584 15.7626 13.3889C16.0885 13.4519 16.4126 13.513 16.7405 13.5588C17.0608 13.6046 17.3848 13.6371 17.707 13.6638C17.89 13.6791 17.8919 13.6676 17.8919 13.4863C17.8919 12.148 17.8919 10.8078 17.8919 9.4695C17.8919 9.42368 17.8919 9.37786 17.8919 9.33204ZM19.1005 25.464C19.1005 25.464 19.0986 25.464 19.1005 25.464C19.1005 26.0921 19.0986 26.7221 19.1024 27.3502C19.1024 27.4132 19.1272 27.4762 19.1425 27.5392C19.192 27.4991 19.2511 27.4667 19.2892 27.419C20.0098 26.514 20.6542 25.5595 21.2051 24.5419C21.3309 24.309 21.451 24.0723 21.5692 23.8356C21.6302 23.7134 21.6073 23.6656 21.4834 23.637C21.369 23.6122 21.2547 23.5835 21.1384 23.5664C20.8944 23.5263 20.6504 23.4881 20.4044 23.4575C20.0384 23.4136 19.6705 23.3716 19.3026 23.3392C19.1158 23.3239 19.1024 23.3468 19.1024 23.5377C19.0986 24.1811 19.1005 24.8226 19.1005 25.464ZM20.82 27.4495C20.8963 27.4495 20.942 27.459 20.9821 27.4476C21.1441 27.4018 21.3061 27.3579 21.4643 27.3006C22.1125 27.0619 22.7435 26.787 23.3325 26.4186C23.9121 26.0558 24.4515 25.6397 24.9453 25.1662C25.1035 25.0135 25.1054 25.0058 24.9148 24.9085C24.2723 24.5725 23.6109 24.2842 22.9265 24.0475C22.8426 24.0188 22.8045 24.0551 22.7702 24.1257C22.6158 24.4426 22.4613 24.7596 22.2993 25.0727C21.9428 25.7561 21.5406 26.4128 21.0964 27.0429C21.003 27.1689 20.921 27.2968 20.82 27.4495ZM17.8424 27.566C17.8576 27.5564 17.8729 27.5488 17.8862 27.5392C17.8881 27.4934 17.8919 27.4476 17.8919 27.4018C17.8919 26.1169 17.8919 24.834 17.8919 23.5492C17.8919 23.3373 17.8671 23.3182 17.6574 23.3468C17.3753 23.3869 17.0913 23.4155 16.8091 23.4633C16.3917 23.532 15.9761 23.6103 15.5605 23.6905C15.4213 23.7172 15.4023 23.7535 15.4709 23.8776C15.8179 24.5037 16.1476 25.1395 16.5251 25.7447C16.8587 26.2792 17.2457 26.7794 17.6136 27.2929C17.6822 27.3903 17.7661 27.4762 17.8424 27.566ZM16.1858 27.4629C16.1648 27.4094 16.1591 27.3846 16.1476 27.3655C15.896 26.997 15.6215 26.6419 15.3985 26.2563C15.0058 25.5786 14.6417 24.8856 14.2776 24.1926C14.2127 24.0685 14.1517 24.0837 14.0621 24.1219C13.4121 24.3987 12.7639 24.6737 12.1158 24.9543C11.929 25.0345 11.9309 25.0459 12.0796 25.1891C12.518 25.611 12.9946 25.9814 13.5055 26.3117C14.2814 26.8138 15.1163 27.1784 16.0009 27.438C16.0523 27.4552 16.1076 27.4533 16.1858 27.4629ZM21.0831 9.58213C21.0716 9.5955 21.0602 9.60886 21.0488 9.62414C21.0755 9.66804 21.0983 9.71577 21.1288 9.75777C21.4319 10.2141 21.7579 10.6551 22.0305 11.1285C22.3527 11.6879 22.6291 12.2759 22.9208 12.8524C22.9589 12.9288 23.0008 12.9441 23.0809 12.9174C23.7424 12.6863 24.3753 12.3962 24.9948 12.0716C25.0863 12.0239 25.0844 11.9723 25.0158 11.9055C24.9186 11.812 24.8233 11.7165 24.7241 11.6268C23.9044 10.8841 22.9837 10.3038 21.9581 9.8895C21.6702 9.77686 21.3748 9.68523 21.0831 9.58213ZM15.9646 9.60886C15.9513 9.59359 15.938 9.57832 15.9265 9.56304C15.5052 9.72723 15.0763 9.87614 14.6626 10.0575C14.1498 10.2809 13.6542 10.5481 13.2081 10.8918C12.8021 11.2049 12.4132 11.5409 12.0186 11.8673C11.9385 11.9342 11.9442 11.9914 12.0414 12.0373C12.1901 12.1079 12.335 12.1862 12.4856 12.2492C12.9736 12.4553 13.4636 12.6558 13.9516 12.8601C14.0374 12.8963 14.0831 12.8734 14.1174 12.7894C14.1689 12.6558 14.2261 12.5241 14.289 12.3962C14.756 11.4512 15.2898 10.5443 15.9246 9.7005C15.9437 9.67568 15.9513 9.63941 15.9646 9.60886Z" fill="url(#paint2_linear_142_14)"/>
<defs>
<linearGradient id="paint0_linear_142_14" x1="0" y1="0.361816" x2="21.9513" y2="43.3864" gradientUnits="userSpaceOnUse">
<stop stop-color="white" stop-opacity="0.4"/>
<stop offset="1" stop-color="white" stop-opacity="0"/>
</linearGradient>
<linearGradient id="paint1_linear_142_14" x1="0" y1="0.361816" x2="40.9313" y2="7.51755" gradientUnits="userSpaceOnUse">
<stop stop-color="#FFFFFF"/>
<stop offset="1" stop-color="#FFFFFF"/>
</linearGradient>
<linearGradient id="paint2_linear_142_14" x1="8" y1="8" x2="31.9396" y2="12.1852" gradientUnits="userSpaceOnUse">
<stop stop-color="#FFFFFF"/>
<stop offset="1" stop-color="#FFFFFF"/>
</linearGradient>
</defs>
</svg>
