<svg width="20" height="20" viewBox="0 0 20 20" fill="none" xmlns="http://www.w3.org/2000/svg">
<path fill-rule="evenodd" clip-rule="evenodd" d="M10.8353 1.45223C10.3927 0.947692 9.60729 0.947692 9.16471 1.45223L0.786039 11.0039C0.361139 11.4883 0.436015 12.2314 0.949012 12.6212L9.32768 18.989C9.72503 19.291 10.275 19.291 10.6723 18.989L19.051 12.6213C19.564 12.2314 19.6389 11.4883 19.214 11.0039L10.8353 1.45223ZM13.5295 9.15382C13.1321 8.85183 12.5822 8.85183 12.1848 9.15382L10.6027 10.3562C10.2391 10.6326 9.7434 10.6583 9.35316 10.421L7.17943 9.09938C6.73935 8.83181 6.17309 8.90174 5.81133 9.26833L5.08115 10.0082C4.64431 10.4509 4.65584 11.1659 5.10673 11.5943L9.23472 15.5158C9.66357 15.9233 10.3364 15.9233 10.7653 15.5158L14.7672 11.714C15.2637 11.2424 15.2194 10.4382 14.6742 10.0238L13.5295 9.15382Z" fill="#DBE0E8" stroke="#DBE0E8" stroke-width="1.11111"/>
</svg>
