<svg width="16" height="19" viewBox="0 0 16 19" fill="none" xmlns="http://www.w3.org/2000/svg">
<path fill-rule="evenodd" clip-rule="evenodd" d="M8.8323 1.74808C8.43647 1.15434 7.56402 1.15434 7.16819 1.74808L1.45499 10.3179C1.19057 10.7145 1.24287 11.2426 1.57993 11.5797L7.29314 17.2929C7.68366 17.6834 8.31683 17.6834 8.70735 17.2929L14.4206 11.5797C14.7576 11.2426 14.8099 10.7145 14.5455 10.3179L8.8323 1.74808ZM10.7074 8.70711C10.3168 8.31658 9.68366 8.31658 9.29314 8.70711L8.63313 9.36711C8.27283 9.72742 7.69922 9.75918 7.30133 9.44087L6.3059 8.64452C5.86508 8.29187 5.21992 8.37377 4.8812 8.82539L4.46506 9.38024C4.19144 9.74508 4.1993 10.2488 4.48419 10.6049L7.21938 14.0239C7.6197 14.5243 8.38079 14.5243 8.78111 14.0239L11.4411 10.6989C11.7594 10.301 11.7277 9.72742 11.3674 9.36711L10.7074 8.70711Z" fill="url(#paint0_linear_1408_3448)" fill-opacity="0.5" stroke="url(#paint1_linear_1408_3448)" stroke-opacity="0.5"/>
<defs>
<linearGradient id="paint0_linear_1408_3448" x1="1.03095" y1="1.57978" x2="15.2285" y2="1.79507" gradientUnits="userSpaceOnUse">
<stop stop-color="#1889E4"/>
<stop offset="1" stop-color="#0BEBD6"/>
</linearGradient>
<linearGradient id="paint1_linear_1408_3448" x1="1.03095" y1="1.57978" x2="15.2285" y2="1.79507" gradientUnits="userSpaceOnUse">
<stop stop-color="#1889E4"/>
<stop offset="1" stop-color="#0BEBD6"/>
</linearGradient>
</defs>
</svg>
