<svg width="19" height="20" viewBox="0 0 19 20" fill="none" xmlns="http://www.w3.org/2000/svg">
<path d="M8.43406 19.7549L7.98978 14.7858L11.3139 9.32219L9.11028 8.82277C8.66326 8.78941 7.7478 8.96545 7.66215 9.93648C7.55509 11.1503 7.07417 11.5677 5.85601 10.4825C4.63785 9.39718 4.04641 10.3963 4.27563 11.4353C4.50486 12.4743 3.75779 13.251 2.0228 10.9311C0.28781 8.6112 0.366285 12.9921 2.16363 15.4761C3.96097 17.96 5.8006 19.1843 8.43406 19.7549Z" fill="#D9D9D9"/>
<path d="M14.6482 5.56747L15.332 5.87053L10.9987 15.4717C10.9144 15.6445 10.8312 16.028 11.1732 16.1796C11.5151 16.3311 11.7174 16.0117 11.7758 15.8331L16.1247 6.27298L16.837 6.58867L13.5042 17.0763L9.46465 19.9731L8.89081 14.9124L14.6482 5.56747Z" fill="#D9D9D9"/>
<path d="M13.7195 4.1844L18.5348 6.3185C18.6442 6.19087 18.8479 5.87097 18.7875 5.6124C18.712 5.28919 18.5228 5.10306 17.44 4.62321L18.5104 1.70585C18.5861 1.55193 18.6065 1.186 18.0822 0.953644C17.5579 0.721293 17.2806 0.984714 17.2075 1.14547L15.7227 3.84504C15.3185 3.59206 14.4052 3.19637 13.9854 3.63753C13.907 3.72209 13.7441 3.94984 13.7195 4.1844Z" fill="#D9D9D9"/>
<path d="M7.28983 6.92062C7.83854 6.71198 8.11423 6.09803 7.90559 5.54931C7.69695 5.0006 7.083 4.72492 6.53428 4.93356C5.98557 5.1422 5.70989 5.75615 5.91853 6.30486C6.12716 6.85357 6.74112 7.12926 7.28983 6.92062Z" fill="#D9D9D9"/>
</svg>
