<svg width="18" height="21" viewBox="0 0 18 21" fill="none" xmlns="http://www.w3.org/2000/svg">
<path fill-rule="evenodd" clip-rule="evenodd" d="M2.09591 3.90814C2.82652 2.77209 5.21927 0.5 8.94538 0.5C12.6715 0.5 15.0642 2.77209 15.7948 3.90814C16.3428 4.76017 17.3291 7.08907 16.8908 9.58837C16.3428 12.7125 16.8908 12.4285 16.8908 13.5645C16.8908 14.7006 15.7948 16.9727 14.6989 16.9727C13.603 16.9727 12.5071 16.9727 12.5071 18.6767C12.5071 20.04 9.94997 20.3808 8.6714 20.3808C7.66681 20.4755 5.60284 20.2672 5.38366 18.6767C5.10968 16.6887 4.28774 17.2567 3.19183 16.9727C2.09591 16.6887 1 15.2686 1 14.1325C1 12.9965 1.54796 12.7125 1.27398 10.1564C1 7.60029 1 5.32819 2.09591 3.90814ZM7.69451 16.6514C7.61931 16.4955 7.61931 16.3138 7.69451 16.1579L8.1948 15.1207C8.4979 14.4923 9.39286 14.4923 9.69596 15.1207L10.1962 16.1579C10.2715 16.3138 10.2715 16.4955 10.1962 16.6514L10.1833 16.6783C10.0965 16.8583 9.91428 16.9727 9.71445 16.9727C9.57315 16.9727 9.43792 16.9152 9.33982 16.8135L9.33406 16.8076C9.1217 16.5874 8.76906 16.5874 8.5567 16.8076L8.55094 16.8135C8.45284 16.9152 8.31761 16.9727 8.17631 16.9727C7.97648 16.9727 7.79429 16.8583 7.70747 16.6783L7.69451 16.6514ZM13.0551 11.0084C11.7192 11.0084 10.7018 12.1567 10.2199 12.9536C10.0971 13.1566 10.0879 13.4093 10.2036 13.6165C10.9092 14.8798 12.2737 15.2422 12.9774 15.2672C13.0292 15.269 13.0827 15.2637 13.1333 15.2529C16.0496 14.6362 14.9561 11.0084 13.0551 11.0084ZM4.8357 11.0084C6.17158 11.0084 7.18898 12.1567 7.6709 12.9536C7.79366 13.1566 7.80283 13.4093 7.68715 13.6165C6.9816 14.8798 5.61703 15.2422 4.91333 15.2672C4.86158 15.269 4.80809 15.2637 4.75743 15.2529C1.8412 14.6362 2.93465 11.0084 4.8357 11.0084Z" fill="#DBE0E8" stroke="white" stroke-width="0.0833333"/>
</svg>
