<svg width="22" height="20" viewBox="0 0 22 20" fill="none" xmlns="http://www.w3.org/2000/svg">
<path d="M2.08042 0.5L3.09945 3.87256L15.3401 14.7809L16.2977 13.8173L5.40761 1.47594L2.08042 0.5Z" fill="#DBE0E8"/>
<path d="M15.6102 15.275L15.0823 14.7809L12.6759 15.9174L13.7808 17.1034L15.6102 15.275Z" fill="#DBE0E8"/>
<path d="M16.2977 13.5702L16.7766 14.1014L18.6059 12.2731L17.415 11.0748L16.2977 13.5702Z" fill="#DBE0E8"/>
<path d="M15.7821 15.1268L16.6415 14.2497L19.9196 17.5481L21 18.1782L19.6863 19.5L19.0724 18.4623L15.7821 15.1268Z" fill="#DBE0E8"/>
<path d="M19.9196 0.5L18.9006 3.87256L6.65991 14.7809L5.70227 13.8173L16.5924 1.47594L19.9196 0.5Z" fill="#DBE0E8"/>
<path d="M6.38981 15.275L6.91774 14.7809L9.32413 15.9174L8.21915 17.1034L6.38981 15.275Z" fill="#DBE0E8"/>
<path d="M5.70227 13.5702L5.22345 14.1014L3.39411 12.2731L4.58502 11.0748L5.70227 13.5702Z" fill="#DBE0E8"/>
<path d="M6.21793 15.1268L5.3585 14.2497L2.08042 17.5481L1 18.1782L2.31369 19.5L2.92756 18.4623L6.21793 15.1268Z" fill="#DBE0E8"/>
<path d="M2.08042 0.5L3.09945 3.87256L15.3401 14.7809L16.2977 13.8173L5.40761 1.47594L2.08042 0.5Z" stroke="#DBE0E8" stroke-width="0.0563726"/>
<path d="M15.6102 15.275L15.0823 14.7809L12.6759 15.9174L13.7808 17.1034L15.6102 15.275Z" stroke="#DBE0E8" stroke-width="0.0563726"/>
<path d="M16.2977 13.5702L16.7766 14.1014L18.6059 12.2731L17.415 11.0748L16.2977 13.5702Z" stroke="#DBE0E8" stroke-width="0.0563726"/>
<path d="M15.7821 15.1268L16.6415 14.2497L19.9196 17.5481L21 18.1782L19.6863 19.5L19.0724 18.4623L15.7821 15.1268Z" stroke="#DBE0E8" stroke-width="0.0563726"/>
<path d="M19.9196 0.5L18.9006 3.87256L6.65991 14.7809L5.70227 13.8173L16.5924 1.47594L19.9196 0.5Z" stroke="#DBE0E8" stroke-width="0.0563726"/>
<path d="M6.38981 15.275L6.91774 14.7809L9.32413 15.9174L8.21915 17.1034L6.38981 15.275Z" stroke="#DBE0E8" stroke-width="0.0563726"/>
<path d="M5.70227 13.5702L5.22345 14.1014L3.39411 12.2731L4.58502 11.0748L5.70227 13.5702Z" stroke="#DBE0E8" stroke-width="0.0563726"/>
<path d="M6.21793 15.1268L5.3585 14.2497L2.08042 17.5481L1 18.1782L2.31369 19.5L2.92756 18.4623L6.21793 15.1268Z" stroke="#DBE0E8" stroke-width="0.0563726"/>
</svg>
