<svg width="18" height="20" viewBox="0 0 18 20" fill="none" xmlns="http://www.w3.org/2000/svg">
<path d="M3.07877 4.22769C3.08768 3.271 3.48252 1.30423 4.99057 1.09064C6.87564 0.823657 7.70453 2.62579 7.39704 3.48013L4.56275 3.70707C4.25526 3.73377 3.52797 3.8993 3.07877 4.34783V4.22769Z" fill="#DBE0E8"/>
<path d="M7.50399 0.930451C7.87387 1.26418 8.56284 2.24133 8.35962 3.48013C8.92113 3.35999 10.1698 3.25587 10.6725 3.80051C10.9087 3.16866 11.1137 1.71004 10.0441 0.930451C8.97461 0.150862 7.90507 0.605623 7.50399 0.930451Z" fill="#DBE0E8"/>
<path d="M11.6485 1.58456C11.7732 1.91384 11.9479 2.81801 11.6485 3.80051C11.2741 5.02864 11.4479 5.48251 11.0602 6.17666C10.6725 6.87082 10.5121 7.44483 9.20189 7.9788C9.41134 8.55726 10.1698 9.62608 11.5281 9.27366C11.9426 9.22027 12.8437 8.81979 13.1324 7.64507C13.4212 6.47035 13.7252 4.74386 13.841 4.02745C13.9569 3.15531 13.6806 1.44573 11.6485 1.58456Z" fill="#DBE0E8"/>
<path d="M14.7501 2.86608C14.817 3.12861 14.9106 3.84858 14.7501 4.62817C14.5897 5.40775 14.2644 7.24904 14.1218 8.07224C14.0326 8.51276 13.595 9.50327 12.5576 9.94112C12.9275 10.4261 14.0309 11.1452 15.4854 10.1414C15.6548 9.94112 16.0149 9.41783 16.1004 8.92659C16.186 8.43534 16.6085 6.29236 16.809 5.28227C16.9204 4.54362 16.6646 3.02627 14.7501 2.86608Z" fill="#DBE0E8"/>
<path d="M17.4106 7.1645C17.268 7.9432 16.9507 9.56467 16.8224 9.82098C16.6619 10.1414 16.1272 11.2894 14.5095 11.6098C12.8918 11.9301 11.9961 10.7955 11.5281 10.2615C10.6591 10.3149 8.78209 9.97049 8.22593 8.16568C8.02094 8.17013 7.52003 8.13899 7.15639 7.9788L6.99596 8.16568C7.92289 8.57951 9.88639 10.0452 10.3249 12.5976C10.4319 13.0248 10.5121 13.8871 9.9773 13.9192C9.30884 13.9592 9.42916 13.225 9.40242 12.7444C9.37569 12.2639 8.70722 9.72753 5.96653 8.6863L5.79273 8.7664L5.96653 10.088C6.02446 10.3282 6.04407 10.8222 5.65903 10.8756C5.18009 10.942 5.1248 10.6383 5.04522 10.2012L5.04405 10.1948C4.97988 9.84233 4.84797 9.09567 4.79003 8.7664C4.74101 8.61955 4.76062 8.25646 5.23122 7.9788C5.70182 7.70114 6.44336 7.31134 6.75531 7.15115C6.84444 7.07996 7.14302 6.98028 7.62431 7.15115C8.22593 7.36474 10.111 7.2179 10.2179 5.21553C10.2269 5.00639 10.1725 4.55608 9.88372 4.42793C9.59494 4.29978 8.05213 4.41903 7.31682 4.49467L4.22852 4.73496C3.40854 5.26447 1.62687 6.48903 1.06001 7.15115C0.351439 7.9788 0.324701 8.53946 0.926317 10.5018C1.52793 12.4641 1.50121 12.7044 1.96913 13.4653C2.43705 14.2262 4.7633 17.8438 4.79004 18.5647C4.81678 19.2855 4.87026 19.4857 5.25797 19.4991C5.56813 19.5098 10.8686 19.4234 13.4801 19.379C13.6227 19.3656 13.9186 19.2561 13.9614 18.9251C14.0148 18.5113 14.1619 17.4567 15.4854 15.748C16.809 14.0393 17.8117 9.31371 17.4106 7.1645Z" fill="#DBE0E8"/>
<path d="M5.04405 10.1948C4.97988 9.84234 4.84797 9.09567 4.79003 8.7664C4.74101 8.61955 4.76062 8.25646 5.23122 7.9788C5.70181 7.70113 6.44336 7.31134 6.75531 7.15115C6.84444 7.07996 7.14302 6.98028 7.62431 7.15115C8.22593 7.36474 10.111 7.2179 10.2179 5.21553C10.2269 5.00639 10.1725 4.55608 9.88372 4.42793C9.59494 4.29978 8.05213 4.41903 7.31682 4.49467L4.22852 4.73496C3.40854 5.26447 1.62687 6.48903 1.06001 7.15115C0.351439 7.9788 0.324701 8.53946 0.926317 10.5018C1.52793 12.4641 1.50121 12.7044 1.96913 13.4653C2.43705 14.2262 4.7633 17.8438 4.79004 18.5647C4.81678 19.2855 4.87026 19.4857 5.25797 19.4991C5.56813 19.5098 10.8686 19.4234 13.4801 19.379C13.6227 19.3656 13.9186 19.2561 13.9614 18.9251C14.0148 18.5113 14.1619 17.4567 15.4854 15.748C16.809 14.0393 17.8117 9.31371 17.4106 7.1645C17.268 7.9432 16.9507 9.56467 16.8224 9.82098C16.6619 10.1414 16.1272 11.2894 14.5095 11.6098C12.8918 11.9301 11.9961 10.7955 11.5281 10.2615C10.6591 10.3149 8.78209 9.97049 8.22593 8.16568C8.02094 8.17013 7.52003 8.13899 7.15639 7.9788L6.99596 8.16568C7.92289 8.57951 9.88639 10.0452 10.3249 12.5976C10.4319 13.0248 10.5121 13.8871 9.9773 13.9192C9.30884 13.9592 9.42916 13.225 9.40242 12.7444C9.37569 12.2639 8.70722 9.72753 5.96653 8.6863L5.79273 8.7664L5.96653 10.088C6.02446 10.3282 6.04407 10.8222 5.65903 10.8756C5.18009 10.942 5.1248 10.6383 5.04522 10.2012M5.04405 10.1948L5.04522 10.2012M5.04405 10.1948C5.04444 10.1969 5.04483 10.1991 5.04522 10.2012M3.07877 4.22769C3.08768 3.271 3.48252 1.30423 4.99057 1.09064C6.87564 0.823657 7.70453 2.62579 7.39704 3.48013L4.56275 3.70707C4.25526 3.73377 3.52797 3.8993 3.07877 4.34783V4.22769ZM7.50399 0.930451C7.87387 1.26418 8.56284 2.24133 8.35962 3.48013C8.92113 3.35999 10.1698 3.25587 10.6725 3.80051C10.9087 3.16866 11.1137 1.71004 10.0441 0.930451C8.97461 0.150862 7.90507 0.605623 7.50399 0.930451ZM11.6485 1.58456C11.7732 1.91384 11.9479 2.81801 11.6485 3.80051C11.2741 5.02864 11.4479 5.48251 11.0602 6.17666C10.6725 6.87082 10.5121 7.44483 9.20189 7.9788C9.41134 8.55726 10.1698 9.62608 11.5281 9.27366C11.9426 9.22027 12.8437 8.81979 13.1324 7.64507C13.4212 6.47035 13.7252 4.74386 13.841 4.02745C13.9569 3.15531 13.6806 1.44573 11.6485 1.58456ZM14.7501 2.86608C14.817 3.12861 14.9106 3.84858 14.7501 4.62817C14.5897 5.40775 14.2644 7.24904 14.1218 8.07224C14.0326 8.51276 13.595 9.50327 12.5576 9.94112C12.9275 10.4261 14.0309 11.1452 15.4854 10.1414C15.6548 9.94112 16.0149 9.41783 16.1004 8.92658C16.186 8.43534 16.6085 6.29236 16.809 5.28227C16.9204 4.54362 16.6646 3.02627 14.7501 2.86608Z" stroke="#DBE0E8" stroke-width="0.0833333"/>
</svg>
