<svg width="20" height="20" viewBox="0 0 20 20" fill="none" xmlns="http://www.w3.org/2000/svg">
<path d="M19.5557 8.75097C19.3095 8.75097 19.1099 9.00678 19.1099 9.32304C19.1099 9.49825 19.1714 9.65507 19.2685 9.7602C18.8155 10.4391 18.3097 11.1426 17.7463 11.8487C17.0258 12.752 16.3314 13.5115 15.6883 14.1484C15.4752 12.7318 15.278 11.2075 15.1107 9.58235C15.0041 8.54597 14.9173 7.54375 14.8471 6.57832C15.0917 6.57657 15.2898 6.32164 15.2898 6.00713C15.2898 5.69174 15.0901 5.43506 14.8439 5.43506C14.5977 5.43506 14.3981 5.69087 14.3981 6.00713C14.3981 6.18409 14.4604 6.34179 14.5591 6.44691C14.2063 7.29407 13.8071 8.1824 13.3525 9.09263C12.8799 10.0397 12.4111 10.8859 11.9613 11.6385C11.6204 10.292 11.2835 8.86135 10.9599 7.34663C10.7003 6.13065 10.331 4.16739 10.1353 3.11698C10.3152 3.0434 10.4462 2.82788 10.4462 2.57207C10.4462 2.25669 10.2466 2 10.0004 2C9.75419 2 9.55454 2.25581 9.55454 2.57207C9.55454 2.82788 9.68553 3.0434 9.86545 3.11698C9.66896 4.16739 9.30045 6.13065 9.04083 7.34663C8.7173 8.86135 8.38114 10.292 8.03945 11.6385C7.58966 10.8859 7.12014 10.0397 6.64825 9.09263C6.20556 8.20518 5.81495 7.33962 5.46932 6.51262C5.61057 6.41713 5.70763 6.22614 5.70763 6.00713C5.70763 5.69174 5.50799 5.43506 5.26178 5.43506C5.01558 5.43506 4.81594 5.69087 4.81594 6.00713C4.81594 6.27608 4.96034 6.50123 5.15525 6.56168C5.08502 7.53236 4.99822 8.54071 4.8909 9.58235C4.72361 11.2075 4.52633 12.7318 4.31327 14.1484C3.67015 13.5115 2.97494 12.7528 2.25528 11.8487C1.69343 11.1444 1.1884 10.4418 0.73624 9.7637C0.831722 9.65857 0.891694 9.50351 0.891694 9.33005C0.891694 9.01466 0.692049 8.75798 0.445847 8.75798C0.199645 8.75798 0 9.01379 0 9.33005C0 9.64631 0.199645 9.90212 0.445847 9.90212C0.481357 9.90212 0.515289 9.89599 0.547642 9.88635C0.710199 10.8018 0.864075 11.783 1.00217 12.8291C1.16236 14.0407 1.28151 15.1892 1.36989 16.2606H9.9996H18.6293C18.7177 15.1883 18.8368 14.0398 18.997 12.8291C19.1359 11.7813 19.2906 10.7975 19.4531 9.87934C19.4855 9.88898 19.5194 9.89423 19.5541 9.89423C19.8003 9.89423 20 9.63842 20 9.32216C20.0016 9.00678 19.8019 8.75097 19.5557 8.75097Z" fill="#DBE0E8"/>
<path d="M18.4617 18.0003H1.59053L1.4043 16.6748H18.6487L18.4617 18.0003Z" fill="#DBE0E8"/>
</svg>
