<svg width="64" height="64" viewBox="0 0 64 64" fill="none" xmlns="http://www.w3.org/2000/svg">
<g clip-path="url(#clip0_3204_10365)">
<path d="M32.0001 64C49.6732 64 64.0001 49.6731 64.0001 32C64.0001 14.3269 49.6732 0 32.0001 0C14.327 0 6.10352e-05 14.3269 6.10352e-05 32C6.10352e-05 49.6731 14.327 64 32.0001 64Z" fill="#3C5A9A"/>
<path d="M42.4043 9.82227H35.3155C31.1088 9.82227 26.4297 11.5916 26.4297 17.6894C26.4503 19.8141 26.4297 21.8489 26.4297 24.139H21.5631V31.8833H26.5803V54.1775H35.7997V31.7361H41.8848L42.4354 24.1173H35.6408C35.6408 24.1173 35.656 20.7281 35.6408 19.7439C35.6408 17.3342 38.1482 17.4722 38.2991 17.4722C39.4922 17.4722 41.8122 17.4756 42.4078 17.4722V9.82227H42.4043Z" fill="white"/>
</g>
<defs>
<clipPath id="clip0_3204_10365">
<rect width="64" height="64" rx="32" fill="white"/>
</clipPath>
</defs>
</svg>
