<svg width="64" height="64" viewBox="0 0 64 64" fill="none" xmlns="http://www.w3.org/2000/svg">
<path d="M0 31.9999C0 49.6732 14.3268 64 32.0001 64C49.6733 64 64.0001 49.6732 64.0001 31.9999C64.0001 14.3267 49.6733 -0.000126719 32.0001 -0.000126719C14.3268 -0.000126719 0 14.3267 0 31.9999" fill="url(#paint0_linear_3204_10369)"/>
<path d="M21.6611 34.3388L25.4577 44.8473C25.4577 44.8473 25.9323 45.8301 26.4407 45.8301C26.9492 45.8301 34.5086 37.9657 34.5086 37.9657L42.9154 21.7283L21.7967 31.6267L21.6611 34.3388Z" fill="#C8DAEA"/>
<path d="M26.6948 37.0337L25.9659 44.7794C25.9659 44.7794 25.6608 47.1523 28.0337 44.7794C30.4066 42.4065 32.6778 40.576 32.6778 40.576" fill="#A9C6D8"/>
<path d="M21.7294 34.7137L13.9206 32.1691C13.9206 32.1691 12.9885 31.7908 13.2879 30.932C13.3497 30.7549 13.4742 30.6044 13.8471 30.3443C15.5778 29.1383 45.8754 18.2483 45.8754 18.2483C45.8754 18.2483 46.731 17.9603 47.2367 18.1517C47.4678 18.2393 47.6153 18.3383 47.7395 18.6995C47.7848 18.8311 47.8108 19.1107 47.8073 19.3889C47.8046 19.5896 47.7802 19.7753 47.7623 20.0669C47.5779 23.0445 42.0565 45.265 42.0565 45.265C42.0565 45.265 41.7262 46.5654 40.5425 46.6096C40.1107 46.6258 39.5868 46.5382 38.9604 45.9994C36.6377 44.0013 28.6086 38.6055 26.8348 37.419C26.7345 37.3523 26.7062 37.2653 26.6892 37.1804C26.6642 37.0556 26.7976 36.9 26.7976 36.9C26.7976 36.9 40.7779 24.4728 41.1499 23.169C41.1787 23.0678 41.0705 23.0179 40.9238 23.0616C39.9952 23.4033 23.8986 33.5674 22.1224 34.6901C22.0185 34.7557 21.7273 34.7134 21.7273 34.7134" fill="white"/>
<defs>
<linearGradient id="paint0_linear_3204_10369" x1="32.0001" y1="63.9997" x2="32.0001" y2="-0.000400887" gradientUnits="userSpaceOnUse">
<stop stop-color="#1D93D2"/>
<stop offset="1" stop-color="#38B0E3"/>
</linearGradient>
</defs>
</svg>
