<svg width="64" height="64" viewBox="0 0 64 64" fill="none" xmlns="http://www.w3.org/2000/svg">
<g clip-path="url(#clip0_3204_10377)">
<path d="M32.0001 64C49.6732 64 64.0001 49.6731 64.0001 32C64.0001 14.3269 49.6732 0 32.0001 0C14.3269 0 6.10352e-05 14.3269 6.10352e-05 32C6.10352e-05 49.6731 14.3269 64 32.0001 64Z" fill="#2DAAE1"/>
<path d="M52.5175 19.2707C51.0081 19.9405 49.3869 20.3933 47.6824 20.5968C49.422 19.5551 50.7547 17.9043 51.3839 15.9397C49.7314 16.9212 47.9229 17.6121 46.037 17.9826C44.5021 16.3466 42.3135 15.3252 39.8922 15.3252C35.2445 15.3252 31.4753 19.0929 31.4753 23.7433C31.4753 24.4022 31.5495 25.045 31.6922 25.6622C24.6957 25.3106 18.4929 21.9592 14.3411 16.8668C13.6161 18.1106 13.2012 19.5566 13.2012 21.0994C13.2012 24.0196 14.6875 26.5961 16.946 28.1054C15.609 28.064 14.3014 27.7031 13.1324 27.0529V27.1593C13.1324 31.2384 16.0337 34.6396 19.885 35.4132C19.1775 35.607 18.435 35.7083 17.6669 35.7083C17.1238 35.7083 16.597 35.6569 16.0822 35.5601C17.1535 38.9034 20.2624 41.337 23.9451 41.4058C21.064 43.6643 17.4337 45.0105 13.4908 45.0105C12.8117 45.0105 12.1405 44.97 11.4816 44.8906C15.2076 47.2798 19.6317 48.6745 24.3858 48.6745C39.8693 48.6745 48.3373 35.8471 48.3373 24.7231C48.3373 24.3579 48.3292 23.9954 48.3116 23.6342C49.9614 22.4409 51.3856 20.9633 52.5175 19.2707Z" fill="white"/>
</g>
<defs>
<clipPath id="clip0_3204_10377">
<rect width="64" height="64" fill="white"/>
</clipPath>
</defs>
</svg>
