<svg width="14" height="14" viewBox="0 0 14 14" fill="none" xmlns="http://www.w3.org/2000/svg">
<g clip-path="url(#clip0_433_5390)">
<path fill-rule="evenodd" clip-rule="evenodd" d="M2.15347 2.39768C2.65576 1.59846 4.30077 0 6.86247 0C9.42417 0 11.0692 1.59846 11.5715 2.39768C11.9482 2.99711 12.6263 4.63552 12.3249 6.39383C11.9482 8.5917 12.3249 8.3919 12.3249 9.19112C12.3249 9.99035 11.5715 11.5888 10.818 11.5888C10.0646 11.5888 9.31116 11.5888 9.31116 12.7877C9.31116 13.7467 7.55313 13.9865 6.67411 13.9865C5.98346 14.0531 4.56448 13.9066 4.41379 12.7877C4.22543 11.389 3.66035 11.7886 2.90691 11.5888C2.15347 11.389 1.40002 10.39 1.40002 9.59074C1.40002 8.79151 1.77675 8.5917 1.58838 6.79344C1.40002 4.99518 1.40002 3.39672 2.15347 2.39768ZM6.00098 11.3596C5.95012 11.2517 5.95012 11.1267 6.00098 11.0188L6.33482 10.3106C6.54512 9.8644 7.17983 9.8644 7.39013 10.3106L7.72396 11.0188C7.77482 11.1267 7.77482 11.2517 7.72396 11.3596L7.71149 11.386C7.65314 11.5098 7.52859 11.5888 7.39175 11.5888C7.29439 11.5888 7.20133 11.5486 7.13455 11.4778L7.13025 11.4732C6.98498 11.3191 6.73996 11.3191 6.5947 11.4732L6.5904 11.4778C6.52361 11.5486 6.43056 11.5888 6.3332 11.5888C6.19635 11.5888 6.0718 11.5098 6.01346 11.386L6.00098 11.3596ZM9.68788 7.39286C8.76674 7.39286 8.06585 8.20551 7.73574 8.76632C7.65325 8.90646 7.64707 9.07931 7.72457 9.22227C8.20806 10.1141 9.14694 10.3706 9.63234 10.3889C9.66939 10.3903 9.7076 10.3864 9.74383 10.3785C11.7461 9.94322 10.9944 7.39286 9.68788 7.39286ZM4.03707 7.39286C4.95821 7.39286 5.6591 8.20551 5.9892 8.76632C6.07169 8.90646 6.07788 9.07931 6.00037 9.22227C5.51688 10.1141 4.578 10.3706 4.0926 10.3889C4.05556 10.3903 4.01735 10.3864 3.98112 10.3785C1.97889 9.94322 2.73056 7.39286 4.03707 7.39286Z" fill="#DBE0E8" stroke="white" stroke-width="0.0583333"/>
</g>
<defs>
<clipPath id="clip0_433_5390">
<rect width="14" height="14" fill="white"/>
</clipPath>
</defs>
</svg>
