<svg width="20" height="21" viewBox="0 0 20 21" fill="none" xmlns="http://www.w3.org/2000/svg">
<g clip-path="url(#clip0_403_7380)">
<path fill-rule="evenodd" clip-rule="evenodd" d="M3.09591 3.63494C3.82652 2.4989 6.21927 0.226807 9.94538 0.226807C13.6715 0.226807 16.0642 2.4989 16.7948 3.63494C17.3428 4.48698 18.3291 6.81587 17.8908 9.31517C17.3428 12.4393 17.8908 12.1553 17.8908 13.2913C17.8908 14.4274 16.7948 16.6995 15.6989 16.6995C14.603 16.6995 13.5071 16.6995 13.5071 18.4035C13.5071 19.7668 10.95 20.1076 9.6714 20.1076C8.66681 20.2023 6.60284 19.994 6.38366 18.4035C6.10968 16.4155 5.28774 16.9835 4.19183 16.6995C3.09591 16.4155 2 14.9954 2 13.8594C2 12.7233 2.54796 12.4393 2.27398 9.88319C2 7.32709 2 5.055 3.09591 3.63494ZM8.69451 16.3782C8.61931 16.2223 8.61931 16.0406 8.69451 15.8847L9.1948 14.8475C9.4979 14.2191 10.3929 14.2191 10.696 14.8475L11.1962 15.8847C11.2715 16.0406 11.2715 16.2223 11.1962 16.3782L11.1833 16.4051C11.0965 16.5851 10.9143 16.6995 10.7144 16.6995C10.5732 16.6995 10.4379 16.642 10.3398 16.5403L10.3341 16.5344C10.1217 16.3142 9.76906 16.3142 9.5567 16.5344L9.55094 16.5403C9.45284 16.642 9.31761 16.6995 9.17631 16.6995C8.97648 16.6995 8.79429 16.5851 8.70747 16.4051L8.69451 16.3782ZM14.0551 10.7352C12.7192 10.7352 11.7018 11.8835 11.2199 12.6804C11.0971 12.8834 11.0879 13.1361 11.2036 13.3433C11.9092 14.6066 13.2737 14.969 13.9774 14.994C14.0292 14.9958 14.0827 14.9905 14.1333 14.9798C17.0496 14.363 15.9561 10.7352 14.0551 10.7352ZM5.8357 10.7352C7.17158 10.7352 8.18898 11.8835 8.6709 12.6804C8.79366 12.8834 8.80283 13.1361 8.68715 13.3433C7.9816 14.6066 6.61703 14.969 5.91333 14.994C5.86158 14.9958 5.80809 14.9905 5.75743 14.9798C2.8412 14.363 3.93465 10.7352 5.8357 10.7352Z" fill="#DBE0E8" stroke="white" stroke-width="0.0833333"/>
</g>
<defs>
<clipPath id="clip0_403_7380">
<rect width="20" height="20" fill="white" transform="translate(0 0.226807)"/>
</clipPath>
</defs>
</svg>
