<svg width="14" height="14" viewBox="0 0 14 14" fill="none" xmlns="http://www.w3.org/2000/svg">
<path d="M6.32472 1.45353C6.29936 1.25136 6.27688 1.06999 6.25796 0.912221C6.38325 0.894231 6.5238 0.880369 6.67179 0.873776C6.94932 0.861411 7.21894 0.876176 7.43836 0.920257C7.44718 0.922029 7.45583 0.923831 7.46432 0.925661L7.01243 7.85259C6.93336 6.6009 6.77693 5.15077 6.62429 3.86715C6.54007 3.15899 6.45573 2.49144 6.38434 1.92647C6.36322 1.75931 6.34323 1.60113 6.32472 1.45353Z" stroke="white" stroke-width="1.73913"/>
<mask id="path-2-inside-1_433_5392" fill="white">
<path d="M3.95652 11.4007L4.1087 8.93823H9.43478L9.8913 11.4007L14 13.1792V14H0V13.1792L3.95652 11.4007Z"/>
</mask>
<path d="M4.1087 8.93823V1.63388H-2.7582L-3.18175 8.4877L4.1087 8.93823ZM3.95652 11.4007L6.9512 18.0629L10.9749 16.2543L11.247 11.8512L3.95652 11.4007ZM0 13.1792L-2.99468 6.51693L-7.30435 8.45413V13.1792H0ZM0 14H-7.30435V21.3043H0V14ZM14 14V21.3043H21.3043V14H14ZM14 13.1792H21.3043V8.38161L16.9015 6.47584L14 13.1792ZM9.8913 11.4007L2.70934 12.7322L3.41866 16.5583L6.98976 18.104L9.8913 11.4007ZM9.43478 8.93823L16.6168 7.60676L15.5094 1.63388H9.43478V8.93823ZM-3.18175 8.4877L-3.33392 10.9502L11.247 11.8512L11.3991 9.38876L-3.18175 8.4877ZM0.961846 4.73847L-2.99468 6.51693L2.99468 19.8414L6.9512 18.0629L0.961846 4.73847ZM-7.30435 13.1792V14H7.30435V13.1792H-7.30435ZM0 21.3043H14V6.69565H0V21.3043ZM21.3043 14V13.1792H6.69565V14H21.3043ZM16.9015 6.47584L12.7928 4.69739L6.98976 18.104L11.0985 19.8825L16.9015 6.47584ZM17.0733 10.0692L16.6168 7.60676L2.25281 10.2697L2.70934 12.7322L17.0733 10.0692ZM9.43478 1.63388H4.1087V16.2426H9.43478V1.63388Z" fill="white" mask="url(#path-2-inside-1_433_5392)"/>
<mask id="path-4-inside-2_433_5392" fill="white">
<path d="M2.13025 6.06539C2.13025 5.18984 2.94184 5.42697 3.34764 5.65498C3.39836 6.29339 3.46938 7.59757 3.34764 7.70701C3.19547 7.84381 2.4346 7.15979 2.13025 6.06539Z"/>
</mask>
<path d="M3.34764 5.65498L4.73457 5.54478L4.67582 4.80537L4.02917 4.44202L3.34764 5.65498ZM2.13025 6.06539H0.738945V6.25524L0.789812 6.43816L2.13025 6.06539ZM3.34764 7.70701L2.41748 6.67235L2.41748 6.67235L3.34764 7.70701ZM4.02917 4.44202C3.7416 4.28045 3.13825 4.00288 2.46838 4.06009C2.08145 4.09314 1.58288 4.25055 1.20168 4.70067C0.835333 5.13326 0.738945 5.64717 0.738945 6.06539H3.52155C3.52155 6.04583 3.52661 6.26106 3.32512 6.49898C3.10877 6.75444 2.83846 6.82122 2.70516 6.83261C2.59284 6.8422 2.54428 6.81957 2.58032 6.83056C2.60556 6.83826 2.6403 6.85342 2.66611 6.86793L4.02917 4.44202ZM0.789812 6.43816C0.999496 7.19216 1.36669 7.8149 1.73625 8.24937C1.91531 8.45987 2.13652 8.67533 2.38948 8.83617C2.50851 8.91186 2.71019 9.02452 2.97108 9.08073C3.2163 9.13356 3.78538 9.18436 4.2778 8.74167L2.41748 6.67235C2.87186 6.26386 3.38388 6.32321 3.55717 6.36054C3.74613 6.40126 3.86102 6.47437 3.88257 6.48807C3.94055 6.52494 3.92399 6.52664 3.85577 6.44644C3.73077 6.29949 3.56535 6.03302 3.47069 5.69262L0.789812 6.43816ZM4.2778 8.74167C4.52437 8.52 4.62848 8.27039 4.6638 8.18019C4.70992 8.0624 4.73457 7.95741 4.74822 7.89015C4.77589 7.75372 4.78795 7.62033 4.79446 7.52091C4.80806 7.31336 4.80803 7.07319 4.80331 6.84992C4.79367 6.39444 4.76121 5.88007 4.73457 5.54478L1.96071 5.76517C1.98479 6.06829 2.01321 6.52521 2.02132 6.90879C2.02547 7.10505 2.02355 7.25135 2.0178 7.33905C2.01464 7.38727 2.01268 7.37871 2.02113 7.33705C2.02516 7.31717 2.03891 7.25204 2.07272 7.1657C2.09028 7.12083 2.11989 7.05308 2.16697 6.97498C2.21256 6.89935 2.29155 6.78556 2.41748 6.67235L4.2778 8.74167Z" fill="white" mask="url(#path-4-inside-2_433_5392)"/>
<path d="M10.579 6.61585C10.6642 6.45595 10.7425 6.27425 10.8036 6.07475C10.8023 6.06117 10.8008 6.04972 10.7991 6.04017C10.7594 6.04134 10.7004 6.05018 10.6242 6.07341C10.619 6.07502 10.6137 6.07666 10.6085 6.07834C10.5975 6.24598 10.587 6.43136 10.579 6.61585ZM10.7886 6.00042C10.7882 5.99968 10.7881 5.99934 10.788 5.99935C10.788 5.99936 10.7882 5.99973 10.7886 6.00042Z" stroke="white" stroke-width="1.04348"/>
<path d="M4.57203 2.30695C4.61021 2.22458 4.67116 2.10988 4.84781 1.98112V8.07779C4.54328 7.52691 4.21817 6.60876 4.2809 5.31179C4.29709 4.97697 4.30774 4.68428 4.3174 4.41884C4.33254 4.00294 4.34525 3.65391 4.37301 3.3145C4.41651 2.78267 4.48631 2.4919 4.57203 2.30695Z" stroke="white" stroke-width="2.78261"/>
<path d="M8.97124 2.30695C8.93306 2.22458 8.87212 2.10988 8.69547 1.98112V8.07779C8.99999 7.52691 9.3251 6.60876 9.26238 5.31179C9.24618 4.97697 9.23553 4.68428 9.22587 4.41884C9.21073 4.00294 9.19803 3.65391 9.17026 3.3145C9.12676 2.78267 9.05696 2.4919 8.97124 2.30695Z" stroke="white" stroke-width="2.78261"/>
<path d="M5.63988 4.60852C5.57227 4.71293 5.5272 4.82825 5.46306 4.93422C5.39026 5.05422 5.30878 5.18045 5.28798 5.31758C5.35559 5.30512 5.42839 5.11655 5.48213 5.06357C5.51853 5.02928 5.56707 5.00591 5.60174 4.97006C5.65028 4.92331 5.67455 4.85942 5.73002 4.81734C5.77335 4.78462 5.82882 4.7628 5.86523 4.72384C5.9051 4.68176 5.9467 4.63657 6.0039 4.61319C6.04724 4.59605 6.11485 4.58514 6.15818 4.6054C6.19979 4.6241 6.21019 4.67241 6.25352 4.69111C6.26393 4.62566 6.3558 4.63968 6.3974 4.67085C6.46154 4.72228 6.44421 4.83137 6.45287 4.89994C6.46501 4.995 6.49968 5.08538 6.51181 5.17889C6.52048 5.25525 6.51008 5.35031 6.56208 5.41576C6.58982 5.36122 6.55515 5.27707 6.55688 5.21785C6.55862 5.13993 6.56382 5.06201 6.57768 4.98409C6.58982 4.91864 6.60542 4.85318 6.62102 4.78773C6.63315 4.73786 6.7285 4.72072 6.7337 4.7815C6.73023 4.74098 6.72329 4.67397 6.78397 4.66306C6.81517 4.65683 6.8429 4.6802 6.87411 4.67553C6.91571 4.66929 6.93825 4.63189 6.98158 4.62566C7.05439 4.61631 7.08732 4.65371 7.14279 4.59605C7.19133 4.54618 7.29014 4.59917 7.34908 4.60073C7.41322 4.60228 7.41322 4.53839 7.47215 4.53839C7.55016 4.53839 7.6195 4.56177 7.68017 4.60384C7.73564 4.6428 7.78245 4.688 7.83618 4.72851C7.90552 4.77838 7.99566 4.80176 8.05807 4.85942C7.98699 4.76436 7.88299 4.68955 7.83272 4.58202C7.81191 4.53995 7.79285 4.49164 7.83618 4.45735C7.88125 4.42307 7.86045 4.38567 7.84832 4.34047C7.83098 4.27814 7.88645 4.24074 7.91246 4.18775C7.94192 4.13009 7.93846 4.07087 7.93846 4.0101C7.94019 3.86517 8.18808 3.94464 8.28168 3.91659C8.19674 3.8714 8.06847 3.79348 8.21408 3.70933C8.30942 3.65478 8.4377 3.68283 8.54517 3.67504C8.29555 3.52855 8.70292 3.50985 8.82599 3.54881C8.71852 3.51453 8.61104 3.48648 8.50183 3.45531C8.43423 3.43505 8.33716 3.42414 8.27822 3.38674C8.14301 3.30103 8.38223 3.12649 8.44116 3.07506C8.38916 3.07194 8.32329 3.11246 8.27475 3.08597C8.32502 3.02519 8.43076 2.97377 8.51397 2.96597C8.44116 2.97221 8.17941 2.98779 8.25568 2.8787C8.28862 2.83195 8.35449 2.76962 8.37356 2.72131C8.38569 2.69014 8.36142 2.66209 8.39263 2.6356C8.42036 2.61222 8.46197 2.6091 8.4949 2.59352C8.44636 2.55612 8.11354 2.58884 8.13434 2.50469C8.03206 2.47508 8.07887 2.36288 7.97486 2.34418C7.82058 2.31768 7.96619 2.26626 7.99393 2.19145C7.91419 2.21795 7.62643 2.38158 7.60043 2.21951C7.59003 2.15094 7.62123 2.05432 7.64377 1.99042C7.65243 1.96549 7.67844 1.87354 7.70791 1.86263C7.68017 1.87198 7.65243 1.8751 7.6247 1.87198C7.66284 1.78783 7.74778 1.71459 7.80845 1.64446C7.85178 1.59459 7.95579 1.52602 7.97139 1.46213C7.85178 1.45901 7.70617 1.68186 7.63683 1.75043C7.56923 1.81744 7.48429 1.86731 7.41842 1.93432C7.39588 1.95614 7.29014 2.03873 7.29361 1.9577C7.2676 1.96393 7.24334 1.96705 7.2156 1.96705C7.2156 1.91406 7.24854 1.86887 7.2572 1.81744C7.2676 1.74731 7.21733 1.68654 7.2208 1.61797C7.2156 1.65849 7.05959 1.72705 7.06826 1.74887C7.06132 1.73952 7.05439 1.73017 7.04919 1.72082C6.98678 1.75199 6.96771 1.83303 6.87931 1.80809C6.84464 1.79874 6.83077 1.76913 6.8065 1.74887C6.76837 1.71615 6.72503 1.73017 6.67996 1.73952C6.51875 1.77225 6.43034 1.51044 6.38353 1.41382C6.38353 1.53381 6.36793 1.66316 6.30206 1.77069C6.28993 1.78939 6.27606 1.80653 6.26046 1.82367C6.24486 1.81588 6.22406 1.81121 6.21192 1.82835C6.19285 1.85796 6.20499 1.90004 6.20499 1.93276C6.06631 1.93588 6.0039 1.83614 5.8895 1.80186C5.8895 1.82212 5.89296 1.84238 5.8999 1.86108C5.80282 1.84238 5.78549 1.71615 5.73002 1.65849C5.71442 1.70212 5.76642 1.75199 5.78029 1.79095C5.80629 1.86419 5.83402 1.93588 5.85656 2.00912C5.87389 2.06523 5.9051 2.13847 5.89816 2.19769C5.89296 2.25067 5.84096 2.26002 5.86869 2.31768C5.76815 2.31145 5.5792 2.34574 5.522 2.24444C5.54627 2.28807 5.57227 2.35197 5.53933 2.39716C5.50293 2.44703 5.42839 2.41119 5.39026 2.45326C5.36945 2.47664 5.37986 2.51248 5.36599 2.53898C5.34865 2.5717 5.31918 2.59664 5.29145 2.62157C5.23944 2.66988 5.17704 2.6465 5.11463 2.63092C5.16144 2.67144 5.22904 2.69637 5.26198 2.75092C5.28451 2.78832 5.21864 2.78676 5.21518 2.82104C5.20998 2.85845 5.18571 2.8491 5.1441 2.84598C5.09557 2.84442 5.05396 2.84442 5.00889 2.86312C4.92569 2.89585 4.83555 2.91922 4.75407 2.95507C4.80434 2.99403 4.89448 2.99247 4.95689 3.00338C4.99329 3.00961 5.11463 3.02208 5.1337 3.05636C5.14757 3.07974 5.13024 3.08285 5.11117 3.0922C5.07997 3.10935 5.1285 3.16545 5.14237 3.17947C5.19437 3.23713 5.23598 3.27609 5.18571 3.3509C5.16144 3.38674 5.04356 3.47089 5.05396 3.51297C5.06783 3.5753 5.09383 3.59401 5.02623 3.64855C4.88062 3.76543 4.7142 3.86205 4.56512 3.97737C4.74194 3.98049 4.86675 3.84179 5.02969 3.80283C5.1025 3.78569 5.19437 3.77478 5.26545 3.79971C5.31052 3.8153 5.32612 3.84179 5.34172 3.88075C5.35905 3.92438 5.39546 3.94308 5.43359 3.97114C5.46133 3.99139 5.46306 4.00854 5.47866 4.03347C5.5012 4.06931 5.548 4.04438 5.57574 4.07243C5.62601 4.1223 5.58267 4.21892 5.56187 4.27191C5.52893 4.36073 5.46653 4.42151 5.40239 4.4932C5.33305 4.57112 5.28972 4.66306 5.23251 4.74877C5.38852 4.67864 5.4908 4.4932 5.68321 4.4932C5.68841 4.53371 5.66068 4.57423 5.63988 4.60852ZM5.59827 3.28389C5.59827 2.76806 6.08884 2.32703 6.66262 2.32703C7.2364 2.32703 7.72697 2.76806 7.72697 3.28389C7.72697 3.79971 7.2364 4.24074 6.66262 4.24074C6.08884 4.2423 5.59827 3.80127 5.59827 3.28389Z" fill="#A7ACAD"/>
<path d="M6.66419 4.51205C7.4186 4.51205 8.03017 3.96225 8.03017 3.28404C8.03017 2.60583 7.4186 2.05603 6.66419 2.05603C5.90979 2.05603 5.29822 2.60583 5.29822 3.28404C5.29822 3.96225 5.90979 4.51205 6.66419 4.51205Z" fill="url(#paint0_radial_433_5392)"/>
<path d="M6.66457 3.90126C7.04943 3.90126 7.36142 3.62078 7.36142 3.27479C7.36142 2.9288 7.04943 2.64832 6.66457 2.64832C6.2797 2.64832 5.96771 2.9288 5.96771 3.27479C5.96771 3.62078 6.2797 3.90126 6.66457 3.90126Z" fill="url(#paint1_radial_433_5392)"/>
<path d="M6.20342 3.59718C6.20342 3.59718 6.10634 3.47251 5.97113 3.499C6.04047 3.4616 6.14101 3.44602 6.14101 3.27304C6.14101 3.16707 6.45997 3.67978 6.20342 3.59718Z" fill="black"/>
<path d="M6.47362 2.76514C6.47362 2.76514 6.69377 2.73553 6.68684 2.4519C6.69724 2.50956 6.71977 2.69969 6.86192 2.75267C6.94859 2.7854 6.32454 2.91163 6.47362 2.76514Z" fill="black"/>
<path d="M5.78012 1.79083C5.76625 1.75187 5.71425 1.702 5.72985 1.65836C5.74545 1.67551 5.75759 1.69732 5.76972 1.71914C5.76279 1.76122 5.80612 1.80641 5.81999 1.84225C5.84426 1.91394 5.87199 1.98407 5.8928 2.05575C5.9084 2.1103 5.9396 2.18198 5.93267 2.23964C5.92747 2.29263 5.87893 2.30198 5.90493 2.35808C5.80959 2.35341 5.63451 2.38457 5.57557 2.29263C5.65704 2.33315 5.79052 2.31289 5.87026 2.31756C5.84253 2.2599 5.89453 2.25055 5.89973 2.19757C5.90493 2.13835 5.87546 2.0651 5.85813 2.009C5.83386 1.9342 5.80612 1.86251 5.78012 1.79083ZM5.83733 1.82667C5.85986 1.86719 5.8876 1.90303 5.9344 1.91238C5.92747 1.89368 5.924 1.87498 5.924 1.85472C6.03321 1.88901 6.09388 1.98563 6.22562 1.98251C6.22562 1.95134 6.21349 1.90926 6.23256 1.88121C6.24296 1.86407 6.26376 1.86875 6.27936 1.87654C6.29496 1.8594 6.3071 1.84225 6.31923 1.82355C6.38337 1.71914 6.39724 1.59291 6.39724 1.47447C6.44057 1.56954 6.52725 1.82511 6.67979 1.79238C6.72313 1.78303 6.763 1.77057 6.80113 1.80174C6.82367 1.82199 6.83754 1.85005 6.87047 1.8594C6.95541 1.88277 6.97275 1.80329 7.03342 1.77368C7.03862 1.78303 7.04555 1.79238 7.05249 1.80018C7.04382 1.77836 7.19463 1.71135 7.1981 1.67239C7.19463 1.7394 7.24317 1.80018 7.23277 1.86875C7.22583 1.91861 7.1929 1.96381 7.1929 2.01523C7.2189 2.01523 7.24317 2.01212 7.26744 2.00588C7.26397 2.08692 7.36625 2.00433 7.38705 1.98407C7.45119 1.91861 7.53266 1.8703 7.5968 1.80485C7.66267 1.73784 7.80135 1.52123 7.91749 1.52278C7.91402 1.53681 7.90709 1.54928 7.89669 1.5633C7.93136 1.53058 7.96429 1.49629 7.97123 1.46356C7.85162 1.46045 7.70601 1.6833 7.63667 1.75187C7.56906 1.81888 7.48412 1.86875 7.41825 1.93576C7.39571 1.95757 7.28997 2.04017 7.29344 1.95913C7.26744 1.96537 7.24317 1.96848 7.21543 1.96848C7.21543 1.9155 7.24837 1.8703 7.25704 1.81888C7.26744 1.74875 7.21717 1.68797 7.22063 1.6194C7.21543 1.65992 7.05942 1.72849 7.06809 1.75031C7.06115 1.74096 7.05422 1.73161 7.04902 1.72226C6.98662 1.75343 6.96755 1.83446 6.87914 1.80953C6.84447 1.80018 6.8306 1.77057 6.80633 1.75031C6.7682 1.71758 6.72486 1.73161 6.67979 1.74096C6.51858 1.77213 6.43017 1.51032 6.38337 1.4137C6.38337 1.53369 6.36777 1.66304 6.3019 1.77057C6.28976 1.78927 6.27589 1.80641 6.26029 1.82355C6.24469 1.81576 6.22389 1.81109 6.21175 1.82823C6.19269 1.85784 6.20482 1.89991 6.20482 1.93264C6.06614 1.93576 6.00374 1.83602 5.88933 1.80174C5.88933 1.82199 5.8928 1.84225 5.89973 1.86095C5.87373 1.85628 5.85466 1.84381 5.83733 1.82667ZM8.49994 3.45674C8.43233 3.43649 8.33526 3.42558 8.27632 3.38818C8.14111 3.30246 8.38033 3.12792 8.43926 3.0765C8.38726 3.07338 8.32139 3.1139 8.27285 3.08741C8.29885 3.05624 8.34046 3.02663 8.38553 3.00481C8.31619 3.02351 8.24338 3.06559 8.20525 3.1139C8.25205 3.14039 8.31445 3.09987 8.36299 3.10299C8.30752 3.15442 8.0787 3.32584 8.20698 3.40843C8.26245 3.44428 8.35779 3.45674 8.42193 3.47545C8.48953 3.4957 8.55714 3.51596 8.62474 3.53466C8.69755 3.52999 8.77902 3.53778 8.82236 3.55025C8.71662 3.51752 8.60914 3.48791 8.49994 3.45674ZM8.25552 2.87858C8.28845 2.83183 8.35432 2.7695 8.37339 2.72119C8.38553 2.69158 8.36472 2.66508 8.38899 2.64015C8.36472 2.64794 8.33872 2.65417 8.32139 2.67132C8.29192 2.69781 8.31445 2.72586 8.30232 2.75547C8.28325 2.80378 8.21911 2.86456 8.18964 2.90975C8.12551 3.00325 8.30925 3.00325 8.40286 2.99858C8.43926 2.98299 8.47913 2.97053 8.5138 2.96741C8.441 2.97209 8.17924 2.98767 8.25552 2.87858ZM7.60026 2.21938C7.58986 2.15081 7.62107 2.05419 7.6436 1.9903C7.65227 1.96537 7.67827 1.87342 7.70774 1.86251C7.68 1.87186 7.65227 1.87498 7.62453 1.87186C7.6332 1.8516 7.64707 1.83134 7.66094 1.81109C7.62973 1.84693 7.602 1.88277 7.58466 1.92173C7.6124 1.92485 7.6384 1.92173 7.6644 1.91238C7.63667 1.92173 7.61067 2.01212 7.60373 2.03705C7.58293 2.09939 7.55173 2.19289 7.56386 2.26146C7.58813 2.42042 7.86375 2.2599 7.94002 2.23497C7.91402 2.30977 7.77361 2.35808 7.92096 2.38457C8.01976 2.40172 7.97469 2.51236 8.0735 2.54197C8.05443 2.61989 8.34392 2.59496 8.41153 2.62301C8.43753 2.60898 8.47047 2.60431 8.49647 2.59184C8.4462 2.556 8.11337 2.58872 8.13417 2.50457C8.0319 2.47496 8.0787 2.36276 7.97469 2.34405C7.82041 2.31756 7.96603 2.26614 7.99376 2.19133C7.91229 2.21783 7.62627 2.38146 7.60026 2.21938ZM4.83711 2.98299C4.91512 2.94715 5.00006 2.92533 5.0798 2.89261C5.12314 2.87547 5.16301 2.87391 5.20981 2.87702C5.24968 2.88014 5.27395 2.88793 5.27741 2.85209C5.28088 2.81936 5.34329 2.81936 5.32248 2.78352C5.29302 2.73054 5.22714 2.7056 5.18207 2.66664C5.24101 2.68067 5.29995 2.70404 5.35022 2.65573C5.37622 2.6308 5.40569 2.60742 5.42129 2.5747C5.43516 2.5482 5.42476 2.51392 5.44556 2.49054C5.48196 2.45003 5.55304 2.48587 5.58771 2.43756C5.61891 2.39392 5.59637 2.3347 5.57384 2.29263C5.55304 2.28016 5.53397 2.26614 5.52183 2.24432C5.5461 2.28795 5.5721 2.35185 5.53917 2.39704C5.50277 2.44691 5.42823 2.41107 5.39009 2.45314C5.36929 2.47652 5.37969 2.51236 5.36582 2.53885C5.34849 2.57158 5.31902 2.59651 5.29128 2.62145C5.23928 2.66976 5.17687 2.64638 5.11447 2.6308C5.16127 2.67132 5.22888 2.69625 5.26181 2.75079C5.28435 2.7882 5.21848 2.78664 5.21501 2.82092C5.20981 2.85832 5.18554 2.84897 5.14394 2.84586C5.0954 2.8443 5.0538 2.8443 5.00873 2.863C4.92552 2.89572 4.83538 2.9191 4.75391 2.95494C4.77817 2.97364 4.81111 2.98299 4.84578 2.98923C4.84231 2.98767 4.84058 2.98611 4.83711 2.98299Z" fill="#878286"/>
<path d="M5.41448 5.1617C5.37288 5.23183 5.32781 5.30975 5.28621 5.31754C5.30701 5.1804 5.38848 5.05417 5.46129 4.93418C5.52543 4.82821 5.57223 4.71289 5.6381 4.60847C5.66064 4.57419 5.68837 4.53211 5.67971 4.49004C5.48902 4.49159 5.38502 4.67548 5.229 4.74561C5.28621 4.6599 5.32954 4.56796 5.39888 4.49004C5.41448 4.47289 5.43009 4.45575 5.44395 4.44017C5.37981 4.51497 5.33821 4.60068 5.28447 4.68016C5.43355 4.61315 5.53409 4.43393 5.71784 4.43393C5.72651 4.47445 5.69877 4.51341 5.67797 4.5477C5.61383 4.64899 5.56876 4.75964 5.50636 4.86249C5.43529 4.97781 5.35728 5.09937 5.33648 5.23183C5.36421 5.22715 5.39022 5.19755 5.41448 5.1617ZM8.21231 3.71084C8.29031 3.66565 8.38912 3.67656 8.48099 3.67812C8.46713 3.67032 8.45152 3.66097 8.43766 3.65162C8.34232 3.65318 8.23484 3.63604 8.15337 3.68435C8.01469 3.76383 8.13777 3.84019 8.21924 3.88382C8.13083 3.91032 7.89161 3.83551 7.88988 3.97421C7.88815 4.03343 7.89335 4.08953 7.86388 4.14563C7.83788 4.19706 7.78414 4.2329 7.80147 4.29368C7.81361 4.33731 7.83268 4.37472 7.78934 4.40744C7.746 4.44017 7.7668 4.48692 7.78587 4.52744C7.80147 4.56172 7.82401 4.59133 7.84828 4.62094C7.84134 4.61003 7.83441 4.59912 7.82921 4.58822C7.80841 4.54614 7.78934 4.49783 7.83268 4.46354C7.87775 4.42926 7.85694 4.39186 7.84481 4.34666C7.82747 4.28433 7.88295 4.24693 7.90895 4.19394C7.93842 4.13628 7.93495 4.07706 7.93495 4.01629C7.93668 3.87136 8.18457 3.95083 8.27818 3.92278C8.1967 3.87291 8.06669 3.79499 8.21231 3.71084ZM6.56551 5.32845C6.51697 5.26456 6.52737 5.17261 6.5187 5.09937C6.50657 5.00898 6.47363 4.92171 6.46323 4.83132C6.45457 4.76587 6.4719 4.65834 6.4095 4.61003C6.37136 4.57886 6.28122 4.5664 6.27255 4.62873C6.23095 4.61003 6.22055 4.56484 6.18068 4.54614C6.13907 4.52588 6.0732 4.53679 6.0316 4.55393C5.97613 4.57575 5.93626 4.61938 5.89812 4.6599C5.86172 4.69886 5.80972 4.71912 5.76811 4.75029C5.71437 4.79081 5.69184 4.85314 5.64504 4.89833C5.61037 4.93262 5.56356 4.95444 5.52889 4.98716C5.50636 5.00898 5.48209 5.05262 5.45609 5.09781C5.46475 5.08378 5.47342 5.07287 5.48209 5.06508C5.51849 5.0308 5.56703 5.00742 5.6017 4.97158C5.65024 4.92483 5.6745 4.86093 5.72998 4.81886C5.77331 4.78613 5.82878 4.76431 5.86519 4.72535C5.90506 4.68328 5.94666 4.63808 6.00386 4.61471C6.0472 4.59757 6.11481 4.58666 6.15814 4.60692C6.19975 4.62562 6.21015 4.67393 6.25348 4.69263C6.26388 4.62718 6.35576 4.6412 6.39736 4.67237C6.4615 4.7238 6.44417 4.83288 6.45283 4.90145C6.46497 4.99651 6.49964 5.0869 6.51177 5.1804C6.52044 5.25676 6.51004 5.35183 6.56204 5.41728C6.57591 5.39079 6.57418 5.35494 6.56898 5.32066C6.56724 5.32378 6.56724 5.32533 6.56551 5.32845ZM7.79107 4.66613C7.73907 4.62873 7.694 4.58354 7.64026 4.54614C7.58132 4.50562 7.51545 4.4838 7.44091 4.48224C7.38371 4.48224 7.38371 4.54458 7.3213 4.54146C7.26583 4.53991 7.17049 4.48848 7.12369 4.53679C7.06995 4.59289 7.03875 4.55705 6.96941 4.56484C6.9278 4.56951 6.90527 4.60692 6.8654 4.61315C6.8342 4.61782 6.80819 4.59601 6.77873 4.60068C6.72152 4.61159 6.72845 4.67704 6.73192 4.716C6.72672 4.65678 6.63485 4.67393 6.62445 4.72224C6.60885 4.78457 6.59324 4.84847 6.58284 4.91236C6.57244 4.97314 6.56724 5.03236 6.56377 5.09313C6.56724 5.05729 6.57071 5.02145 6.57764 4.98716C6.58978 4.92171 6.60538 4.85626 6.62098 4.79081C6.63311 4.74094 6.72845 4.72379 6.73366 4.78457C6.73019 4.74405 6.72325 4.67704 6.78393 4.66613C6.81513 4.6599 6.84286 4.68328 6.87407 4.6786C6.91567 4.67237 6.9382 4.63497 6.98154 4.62873C7.05435 4.61938 7.08728 4.65678 7.14275 4.59912C7.19129 4.54926 7.2901 4.60224 7.34904 4.6038C7.41318 4.60536 7.41318 4.54146 7.47211 4.54146C7.55012 4.54146 7.61946 4.56484 7.68013 4.60692C7.7356 4.64588 7.7824 4.69107 7.83614 4.73159C7.90548 4.78146 7.99562 4.80483 8.05803 4.86249C8.03376 4.82977 8.00602 4.80016 7.97829 4.77055C7.91935 4.72847 7.84654 4.70665 7.79107 4.66613ZM5.33995 3.88226C5.35728 3.9259 5.39368 3.9446 5.43182 3.97265C5.45955 3.99291 5.46129 4.01005 5.47689 4.03499C5.49942 4.07083 5.54623 4.0459 5.57396 4.07395C5.62423 4.12382 5.5809 4.22044 5.5601 4.27342C5.53929 4.32796 5.50809 4.37316 5.47169 4.41523C5.52543 4.35602 5.5757 4.29991 5.60343 4.22511C5.6225 4.17368 5.6641 4.08174 5.61557 4.03343C5.58956 4.00849 5.54449 4.03187 5.52196 3.99603C5.50636 3.97265 5.50462 3.95551 5.47862 3.93681C5.44395 3.9072 5.40755 3.89006 5.39195 3.84798C5.37808 3.81058 5.36248 3.78564 5.31914 3.77006C5.25154 3.74513 5.16313 3.75604 5.09379 3.77318C5.04526 3.78564 5.00018 3.8059 4.95685 3.82928C4.98112 3.81993 5.00539 3.81058 5.02965 3.80435C5.10246 3.7872 5.19433 3.77629 5.26541 3.80123C5.30874 3.81681 5.32608 3.8433 5.33995 3.88226Z" fill="#9D979C"/>
<defs>
<radialGradient id="paint0_radial_433_5392" cx="0" cy="0" r="1" gradientUnits="userSpaceOnUse" gradientTransform="translate(6.66338 3.28467) rotate(180) scale(1.36673 1.22869)">
<stop offset="0.3697"/>
<stop offset="0.391" stop-color="#1C211E"/>
<stop offset="0.4059" stop-color="#2C332F"/>
<stop offset="0.4141" stop-color="#414543"/>
<stop offset="0.4249" stop-color="#575758"/>
<stop offset="0.4354" stop-color="#646164"/>
<stop offset="0.4452" stop-color="#686568"/>
<stop offset="0.5187" stop-color="#6F6D70"/>
<stop offset="0.6341" stop-color="#838486"/>
<stop offset="0.7764" stop-color="#A4A8A9"/>
<stop offset="0.79" stop-color="#A7ACAD"/>
<stop offset="1" stop-color="#A7ACAD"/>
</radialGradient>
<radialGradient id="paint1_radial_433_5392" cx="0" cy="0" r="1" gradientUnits="userSpaceOnUse" gradientTransform="translate(6.66436 3.27513) rotate(180) scale(0.697478 0.627033)">
<stop offset="0.8355"/>
<stop offset="0.8395" stop-color="#070707"/>
<stop offset="0.9" stop-color="#707070"/>
<stop offset="0.9486" stop-color="#BDBDBD"/>
<stop offset="0.9829" stop-color="#EDEDED"/>
<stop offset="1" stop-color="white"/>
</radialGradient>
</defs>
</svg>
