<svg width="20" height="21" viewBox="0 0 20 21" fill="none" xmlns="http://www.w3.org/2000/svg">
<path d="M8.66553 2.34966C8.609 1.89893 8.56223 1.51851 8.52912 1.22509C8.7947 1.16681 9.14107 1.1194 9.51454 1.10276C9.93163 1.08417 10.3485 1.10554 10.6996 1.17609C10.8414 1.20458 10.9589 1.23834 11.0547 1.27388L10.3135 12.6355H9.70418C9.63578 10.6514 9.36163 8.05258 9.0932 5.79531C8.97308 4.78517 8.85282 3.8334 8.75086 3.02645C8.72065 2.78739 8.69205 2.56105 8.66553 2.34966Z" stroke="white" stroke-width="1.73913"/>
<mask id="path-2-inside-1_956_1106" fill="white">
<path d="M5.65217 16.5136L5.86957 12.9957H13.4783L14.1304 16.5136L20 19.0542V20.2268H0V19.0542L5.65217 16.5136Z"/>
</mask>
<path d="M5.86957 12.9957V5.69138H-0.997329L-1.42088 12.5452L5.86957 12.9957ZM5.65217 16.5136L8.64685 23.1758L12.6705 21.3672L12.9426 16.9641L5.65217 16.5136ZM0 19.0542L-2.99468 12.392L-7.30435 14.3292V19.0542H0ZM0 20.2268H-7.30435V27.5312H0V20.2268ZM20 20.2268V27.5312H27.3043V20.2268H20ZM20 19.0542H27.3043V14.2566L22.9015 12.3509L20 19.0542ZM14.1304 16.5136L6.94847 17.845L7.65779 21.6711L11.2289 23.2169L14.1304 16.5136ZM13.4783 12.9957L20.6602 11.6643L19.5529 5.69138L13.4783 5.69138V12.9957ZM-1.42088 12.5452L-1.63827 16.063L12.9426 16.9641L13.16 13.4463L-1.42088 12.5452ZM2.6575 9.85132L-2.99468 12.392L2.99468 25.7164L8.64685 23.1758L2.6575 9.85132ZM-7.30435 19.0542V20.2268H7.30435V19.0542H-7.30435ZM0 27.5312H20V12.9225H0V27.5312ZM27.3043 20.2268V19.0542H12.6957V20.2268H27.3043ZM22.9015 12.3509L17.032 9.81023L11.2289 23.2169L17.0985 25.7575L22.9015 12.3509ZM21.3124 15.1821L20.6602 11.6643L6.29629 14.3272L6.94847 17.845L21.3124 15.1821ZM13.4783 5.69138H5.86957V20.3001H13.4783V5.69138Z" fill="white" mask="url(#path-2-inside-1_956_1106)"/>
<path d="M4.17085 9.77477C4.0075 9.50104 3.85433 9.17335 3.7421 8.80379C3.74597 8.75504 3.75269 8.72166 3.75867 8.7001C3.82078 8.69564 3.92451 8.70675 4.06308 8.74902C4.08158 8.75466 4.10006 8.76066 4.11845 8.76697C4.13914 9.07719 4.15884 9.43296 4.17085 9.77477ZM3.77094 8.6671C3.77096 8.66712 3.77075 8.6675 3.77028 8.66823L3.77094 8.6671ZM4.87088 10.5959C4.87089 10.5959 4.86994 10.5955 4.86802 10.5944C4.86991 10.5953 4.87087 10.5958 4.87088 10.5959Z" stroke="white" stroke-width="1.3913"/>
<path d="M14.8695 10.4503C15.1569 10.1006 15.4687 9.57502 15.6595 8.93048C15.6503 8.74531 15.6046 8.68226 15.5945 8.67029L15.5944 8.6702C15.5886 8.66335 15.5695 8.64081 15.4863 8.6337C15.3413 8.62132 15.1389 8.66983 14.9417 8.75011C14.9121 9.17383 14.8829 9.70395 14.873 10.172C14.8709 10.2691 14.8697 10.3623 14.8695 10.4503Z" stroke="white" stroke-width="1.04348"/>
<path d="M6.88431 12.7772C6.31412 12.0772 5.39291 10.414 5.51999 7.78633C5.5422 7.32705 5.55724 6.91569 5.57105 6.53759C5.59323 5.93064 5.61228 5.4094 5.65287 4.91325C5.71676 4.13223 5.82324 3.63259 5.99049 3.27176C6.1702 2.88404 6.50442 2.46993 7.52171 2.0968V12.7772H6.88431Z" stroke="white" stroke-width="2.78261"/>
<path d="M12.4632 12.7772C13.0334 12.0772 13.9546 10.414 13.8275 7.78633C13.8053 7.32705 13.7903 6.91569 13.7765 6.53759C13.7543 5.93064 13.7353 5.4094 13.6947 4.91325C13.6308 4.13223 13.5243 3.63259 13.357 3.27176C13.1773 2.88404 12.8431 2.46993 11.8258 2.0968V12.7772H12.4632Z" stroke="white" stroke-width="2.78261"/>
</svg>
