<svg width="22" height="22" viewBox="0 0 22 22" fill="none" xmlns="http://www.w3.org/2000/svg">
<path d="M7.99219 1.20831L1.05309 10.8745C1.02129 10.9188 1.02093 10.9783 1.05221 11.023L7.57631 20.3427C7.62692 20.415 7.73369 20.4158 7.78548 20.3444L10.1016 17.1493M11.1562 1.20831L4.16406 10.9484M11.5078 5.03074L14.0591 1.35931C14.1101 1.28601 14.2184 1.28575 14.2697 1.35882L20.949 10.8758C20.9797 10.9195 20.9801 10.9776 20.9501 11.0218L14.1641 21M17.8359 11.1749L10.7656 21" stroke="white" stroke-width="0.642055"/>
<path d="M9.23367 12.9382L11.8553 12.93L11.8635 11.9931H9.9651C9.55967 11.9931 9.31586 11.8205 9.23367 11.4754C9.23367 11.3877 9.23367 11.2946 9.23367 11.1959C9.23915 11.0973 9.24189 11.0042 9.24189 10.9165H9.23367V9.49475C9.27751 9.28107 9.35969 9.12766 9.48022 9.03452C9.60076 8.94138 9.76239 8.89481 9.9651 8.89481H13.3182V9.45366C13.3182 9.47557 13.3209 9.48927 13.3264 9.49475C13.3264 9.57693 13.3236 9.66185 13.3182 9.74952C13.3182 9.8317 13.3182 9.91388 13.3182 9.99607L10.7048 10.0043V10.9165L12.595 10.9083C12.7977 10.9083 12.9593 10.9549 13.0798 11.048C13.2004 11.1411 13.2826 11.2946 13.3264 11.5082C13.3264 11.5192 13.3236 11.5329 13.3182 11.5493C13.3182 11.5603 13.3182 11.5712 13.3182 11.5822H13.3346V13.4971C13.2524 13.8422 13.0086 14.0148 12.6032 14.0148L11.543 14.0312V14.0395L9.23367 14.0723V12.9382Z" fill="white"/>
</svg>
