<svg width="22" height="22" viewBox="0 0 22 22" fill="none" xmlns="http://www.w3.org/2000/svg">
<path d="M7.99219 1.20831L1.05309 10.8745C1.02129 10.9188 1.02093 10.9783 1.05221 11.023L7.57631 20.3427C7.62692 20.415 7.73369 20.4158 7.78548 20.3444L10.1016 17.1493M11.1562 1.20831L4.16406 10.9484M11.5078 5.03074L14.0591 1.35931C14.1101 1.28601 14.2184 1.28575 14.2697 1.35882L20.949 10.8758C20.9797 10.9195 20.9801 10.9776 20.9501 11.0218L14.1641 21M17.8359 11.1749L10.7656 21" stroke="white" stroke-width="0.642055"/>
<path d="M9.24132 12.4533V8.90303H10.6302V11.3767L11.904 11.385V8.89481H13.3012V8.90303H13.3094L13.3012 8.92769V11.763H13.2929V12.9136H13.3094L13.2929 12.9629V14.0312H11.904V12.4533H9.24132Z" fill="white"/>
</svg>
