<svg width="20" height="21" viewBox="0 0 20 21" fill="none" xmlns="http://www.w3.org/2000/svg">
<path d="M3.57877 3.95449C3.58768 2.9978 3.98252 1.03103 5.49057 0.817447C7.37564 0.550464 8.20453 2.3526 7.89704 3.20694L5.06275 3.43388C4.75526 3.46058 4.02797 3.6261 3.57877 4.07464V3.95449Z" fill="#DBE0E8"/>
<path d="M8.00399 0.657258C8.37387 0.990986 9.06284 1.96814 8.85962 3.20694C9.42113 3.0868 10.6698 2.98268 11.1725 3.52732C11.4087 2.89546 11.6137 1.43685 10.5441 0.657258C9.47461 -0.122331 8.40507 0.332429 8.00399 0.657258Z" fill="#DBE0E8"/>
<path d="M12.1485 1.31137C12.2732 1.64065 12.4479 2.54482 12.1485 3.52732C11.7741 4.75545 11.9479 5.20932 11.5602 5.90347C11.1725 6.59763 11.0121 7.17164 9.70189 7.7056C9.91134 8.28407 10.6698 9.35289 12.0281 9.00047C12.4426 8.94707 13.3437 8.5466 13.6324 7.37188C13.9212 6.19715 14.2252 4.47066 14.341 3.75426C14.4569 2.88212 14.1806 1.17254 12.1485 1.31137Z" fill="#DBE0E8"/>
<path d="M15.2501 2.59289C15.317 2.85542 15.4106 3.57538 15.2501 4.35497C15.0897 5.13456 14.7644 6.97585 14.6218 7.79905C14.5326 8.23957 14.095 9.23007 13.0576 9.66792C13.4275 10.1529 14.5309 10.872 15.9854 9.86816C16.1548 9.66792 16.5149 9.14464 16.6004 8.65339C16.686 8.16214 17.1085 6.01916 17.309 5.00908C17.4204 4.27043 17.1646 2.75308 15.2501 2.59289Z" fill="#DBE0E8"/>
<path d="M17.9106 6.89131C17.768 7.67001 17.4507 9.29148 17.3224 9.54778C17.1619 9.86816 16.6272 11.0162 15.0095 11.3366C13.3918 11.6569 12.4961 10.5223 12.0281 9.9883C11.1591 10.0417 9.28209 9.69729 8.72593 7.89249C8.52094 7.89694 8.02003 7.86579 7.65639 7.7056L7.49596 7.89249C8.42289 8.30631 10.3864 9.77205 10.8249 12.3244C10.9319 12.7516 11.0121 13.6139 10.4773 13.646C9.80884 13.686 9.92916 12.9518 9.90242 12.4712C9.87569 11.9907 9.20722 9.45434 6.46653 8.41311L6.29273 8.4932L6.46653 9.81477C6.52446 10.055 6.54407 10.549 6.15903 10.6024C5.68009 10.6688 5.6248 10.3651 5.54522 9.92801L5.54405 9.92156C5.47988 9.56914 5.34797 8.82248 5.29003 8.4932C5.24101 8.34636 5.26062 7.98327 5.73122 7.7056C6.20182 7.42794 6.94336 7.03815 7.25531 6.87796C7.34444 6.80676 7.64302 6.70709 8.12431 6.87796C8.72593 7.09154 10.611 6.9447 10.7179 4.94233C10.7269 4.7332 10.6725 4.28289 10.3837 4.15474C10.0949 4.02658 8.55213 4.14584 7.81682 4.22148L4.72852 4.46177C3.90854 4.99128 2.12687 6.21584 1.56001 6.87796C0.851439 7.7056 0.824701 8.26627 1.42632 10.2286C2.02793 12.1909 2.00121 12.4312 2.46913 13.1921C2.93705 13.953 5.2633 17.5706 5.29004 18.2915C5.31678 19.0123 5.37026 19.2126 5.75797 19.2259C6.06813 19.2366 11.3686 19.1503 13.9801 19.1058C14.1227 19.0924 14.4186 18.9829 14.4614 18.6519C14.5148 18.2381 14.6619 17.1835 15.9854 15.4748C17.309 13.7661 18.3117 9.04052 17.9106 6.89131Z" fill="#DBE0E8"/>
<path d="M5.54405 9.92156C5.47988 9.56914 5.34797 8.82248 5.29003 8.4932C5.24101 8.34636 5.26062 7.98327 5.73122 7.7056C6.20181 7.42794 6.94336 7.03815 7.25531 6.87796C7.34444 6.80676 7.64302 6.70709 8.12431 6.87796C8.72593 7.09154 10.611 6.9447 10.7179 4.94233C10.7269 4.7332 10.6725 4.28289 10.3837 4.15474C10.0949 4.02658 8.55213 4.14584 7.81682 4.22148L4.72852 4.46177C3.90854 4.99128 2.12687 6.21584 1.56001 6.87796C0.851439 7.7056 0.824701 8.26627 1.42632 10.2286C2.02793 12.1909 2.00121 12.4312 2.46913 13.1921C2.93705 13.953 5.2633 17.5706 5.29004 18.2915C5.31678 19.0123 5.37026 19.2126 5.75797 19.2259C6.06813 19.2366 11.3686 19.1503 13.9801 19.1058C14.1227 19.0924 14.4186 18.9829 14.4614 18.6519C14.5148 18.2381 14.6619 17.1835 15.9854 15.4748C17.309 13.7661 18.3117 9.04052 17.9106 6.89131C17.768 7.67001 17.4507 9.29148 17.3224 9.54778C17.1619 9.86816 16.6272 11.0162 15.0095 11.3366C13.3918 11.6569 12.4961 10.5223 12.0281 9.9883C11.1591 10.0417 9.28209 9.69729 8.72593 7.89249C8.52094 7.89694 8.02003 7.86579 7.65639 7.7056L7.49596 7.89249C8.42289 8.30631 10.3864 9.77205 10.8249 12.3244C10.9319 12.7516 11.0121 13.6139 10.4773 13.646C9.80884 13.686 9.92916 12.9518 9.90242 12.4712C9.87569 11.9907 9.20722 9.45434 6.46653 8.41311L6.29273 8.4932L6.46653 9.81477C6.52446 10.055 6.54407 10.549 6.15903 10.6024C5.68009 10.6688 5.6248 10.3651 5.54522 9.92801M5.54405 9.92156L5.54522 9.92801M5.54405 9.92156C5.54444 9.92371 5.54483 9.92586 5.54522 9.92801M3.57877 3.95449C3.58768 2.9978 3.98252 1.03103 5.49057 0.817447C7.37564 0.550464 8.20453 2.3526 7.89704 3.20694L5.06275 3.43388C4.75526 3.46058 4.02797 3.6261 3.57877 4.07463V3.95449ZM8.00399 0.657258C8.37387 0.990986 9.06284 1.96814 8.85962 3.20694C9.42113 3.0868 10.6698 2.98268 11.1725 3.52732C11.4087 2.89546 11.6137 1.43685 10.5441 0.657258C9.47461 -0.122331 8.40507 0.332429 8.00399 0.657258ZM12.1485 1.31137C12.2732 1.64065 12.4479 2.54482 12.1485 3.52732C11.7741 4.75545 11.9479 5.20932 11.5602 5.90347C11.1725 6.59763 11.0121 7.17164 9.70189 7.7056C9.91134 8.28407 10.6698 9.35289 12.0281 9.00047C12.4426 8.94707 13.3437 8.5466 13.6324 7.37188C13.9212 6.19715 14.2252 4.47066 14.341 3.75426C14.4569 2.88212 14.1806 1.17254 12.1485 1.31137ZM15.2501 2.59289C15.317 2.85542 15.4106 3.57538 15.2501 4.35497C15.0897 5.13456 14.7644 6.97585 14.6218 7.79905C14.5326 8.23957 14.095 9.23007 13.0576 9.66793C13.4275 10.1529 14.5309 10.872 15.9854 9.86816C16.1548 9.66793 16.5149 9.14464 16.6004 8.65339C16.686 8.16214 17.1085 6.01916 17.309 5.00908C17.4204 4.27043 17.1646 2.75308 15.2501 2.59289Z" stroke="#DBE0E8" stroke-width="0.0833333"/>
</svg>
