<svg width="15" height="16" viewBox="0 0 15 16" fill="none" xmlns="http://www.w3.org/2000/svg">
<path d="M2.972 3.74672C2.97881 3.04179 3.28075 1.59259 4.43397 1.43521C5.87549 1.23848 6.50935 2.56637 6.2742 3.19589L4.10681 3.3631C3.87167 3.38278 3.31551 3.50475 2.972 3.83524V3.74672Z" fill="#DBE0E8"/>
<path d="M6.35599 1.31717C6.63884 1.56308 7.1657 2.28309 7.0103 3.19589C7.43969 3.10736 8.39457 3.03064 8.77897 3.43196C8.95959 2.96638 9.11635 1.89161 8.29847 1.31717C7.48058 0.742741 6.6627 1.07783 6.35599 1.31717Z" fill="#DBE0E8"/>
<path d="M9.52529 1.79915C9.62071 2.04178 9.7543 2.70801 9.52529 3.43196C9.23903 4.33689 9.37194 4.67132 9.07546 5.18281C8.77897 5.69429 8.65629 6.11724 7.65438 6.51069C7.81455 6.93693 8.39457 7.72448 9.43328 7.4648C9.75021 7.42546 10.4393 7.13037 10.6601 6.26479C10.8809 5.3992 11.1134 4.12705 11.202 3.59918C11.2906 2.95655 11.0793 1.69686 9.52529 1.79915Z" fill="#DBE0E8"/>
<path d="M11.8972 2.74343C11.9483 2.93687 12.0198 3.46737 11.8972 4.04181C11.7745 4.61624 11.5257 5.97298 11.4166 6.57955C11.3485 6.90414 11.0138 7.63399 10.2205 7.95661C10.5033 8.314 11.3471 8.84384 12.4595 8.10416C12.5889 7.95661 12.8643 7.57103 12.9297 7.20906C12.9952 6.84709 13.3182 5.26805 13.4716 4.52378C13.5568 3.97951 13.3612 2.86146 11.8972 2.74343Z" fill="#DBE0E8"/>
<path d="M13.9316 5.91068C13.8226 6.48446 13.58 7.67923 13.4818 7.86809C13.3591 8.10416 12.9502 8.95007 11.7131 9.18614C10.4761 9.42221 9.79111 8.58613 9.43328 8.19268C8.76875 8.23203 7.33336 7.97825 6.90806 6.6484C6.7513 6.65168 6.36826 6.62873 6.09018 6.51069L5.9675 6.6484C6.67633 6.95332 8.17783 8.03334 8.51316 9.91402C8.59495 10.2288 8.65629 10.8642 8.24735 10.8878C7.73617 10.9173 7.82818 10.3763 7.80774 10.0222C7.78729 9.66811 7.27611 7.79923 5.18028 7.03201L5.04738 7.09103L5.18028 8.06481C5.22459 8.24186 5.23958 8.6058 4.94514 8.64515C4.57889 8.69409 4.53661 8.4703 4.47576 8.14825L4.47486 8.1435C4.42579 7.88383 4.32491 7.33365 4.28061 7.09103C4.24313 6.98283 4.25812 6.71529 4.61799 6.51069C4.97786 6.3061 5.54492 6.01888 5.78347 5.90085C5.85163 5.84839 6.07996 5.77494 6.448 5.90085C6.90806 6.05823 8.34958 5.95003 8.43137 4.4746C8.43819 4.3205 8.39661 3.98869 8.17578 3.89426C7.95496 3.79984 6.77516 3.88771 6.21286 3.94344L3.85122 4.1205C3.22418 4.51067 1.86172 5.41297 1.42824 5.90085C0.886395 6.51069 0.865948 6.92381 1.32601 8.36973C1.78607 9.81566 1.76563 9.99271 2.12345 10.5534C2.48128 11.114 4.26017 13.7796 4.28062 14.3108C4.30107 14.842 4.34196 14.9895 4.63844 14.9993C4.87563 15.0072 8.92893 14.9436 10.9259 14.9108C11.035 14.901 11.2613 14.8203 11.294 14.5764C11.3349 14.2715 11.4473 13.4944 12.4595 12.2354C13.4716 10.9763 14.2383 7.49431 13.9316 5.91068Z" fill="#DBE0E8"/>
<path d="M4.47486 8.1435C4.42579 7.88383 4.32491 7.33365 4.28061 7.09103C4.24313 6.98283 4.25812 6.71529 4.61799 6.51069C4.97786 6.3061 5.54492 6.01888 5.78347 5.90085C5.85163 5.84839 6.07996 5.77494 6.448 5.90085C6.90806 6.05823 8.34958 5.95003 8.43137 4.4746C8.43819 4.3205 8.39661 3.98869 8.17578 3.89426C7.95496 3.79984 6.77516 3.88771 6.21286 3.94344L3.85122 4.1205C3.22418 4.51067 1.86172 5.41297 1.42824 5.90085C0.886395 6.51069 0.865948 6.92381 1.32601 8.36973C1.78607 9.81566 1.76563 9.99271 2.12345 10.5534C2.48128 11.114 4.26017 13.7796 4.28062 14.3108C4.30107 14.842 4.34196 14.9895 4.63844 14.9993C4.87563 15.0072 8.92893 14.9436 10.9259 14.9108C11.035 14.901 11.2613 14.8203 11.294 14.5764C11.3349 14.2715 11.4473 13.4944 12.4595 12.2354C13.4716 10.9763 14.2383 7.49431 13.9316 5.91068C13.8226 6.48446 13.58 7.67923 13.4818 7.86809C13.3591 8.10416 12.9502 8.95007 11.7131 9.18614C10.4761 9.42221 9.79111 8.58613 9.43328 8.19268C8.76875 8.23203 7.33336 7.97825 6.90806 6.6484C6.7513 6.65168 6.36826 6.62873 6.09018 6.51069L5.9675 6.6484C6.67633 6.95332 8.17783 8.03334 8.51316 9.91402C8.59495 10.2288 8.65629 10.8642 8.24735 10.8878C7.73617 10.9173 7.82818 10.3763 7.80774 10.0222C7.78729 9.66811 7.27611 7.79923 5.18028 7.03201L5.04738 7.09103L5.18028 8.06481C5.22459 8.24186 5.23958 8.6058 4.94514 8.64515C4.57889 8.69409 4.53661 8.4703 4.47576 8.14825M4.47486 8.1435L4.47576 8.14825M4.47486 8.1435L4.47576 8.14825M2.972 3.74672C2.97881 3.04179 3.28075 1.59259 4.43397 1.43521C5.87549 1.23848 6.50935 2.56637 6.2742 3.19589L4.10681 3.3631C3.87167 3.38278 3.31551 3.50475 2.972 3.83524V3.74672ZM6.35599 1.31717C6.63884 1.56308 7.1657 2.28309 7.0103 3.19589C7.43969 3.10736 8.39457 3.03064 8.77897 3.43196C8.95959 2.96638 9.11635 1.89161 8.29847 1.31717C7.48058 0.742741 6.6627 1.07783 6.35599 1.31717ZM9.52529 1.79915C9.62071 2.04178 9.7543 2.70801 9.52529 3.43196C9.23903 4.33689 9.37194 4.67132 9.07546 5.18281C8.77897 5.69429 8.65629 6.11724 7.65438 6.51069C7.81455 6.93693 8.39457 7.72448 9.43328 7.4648C9.75021 7.42546 10.4393 7.13037 10.6601 6.26479C10.8809 5.3992 11.1134 4.12705 11.202 3.59918C11.2906 2.95655 11.0793 1.69686 9.52529 1.79915ZM11.8972 2.74343C11.9483 2.93687 12.0198 3.46737 11.8972 4.04181C11.7745 4.61624 11.5257 5.97298 11.4166 6.57955C11.3485 6.90414 11.0138 7.63399 10.2205 7.95661C10.5033 8.314 11.3471 8.84384 12.4595 8.10416C12.5889 7.95661 12.8643 7.57103 12.9297 7.20906C12.9952 6.84709 13.3182 5.26805 13.4716 4.52378C13.5568 3.97951 13.3612 2.86146 11.8972 2.74343Z" stroke="#DBE0E8" stroke-width="0.0645833"/>
</svg>
