<svg width="22" height="22" viewBox="0 0 22 22" fill="none" xmlns="http://www.w3.org/2000/svg">
<path d="M7.99219 1.20831L1.05309 10.8745C1.02129 10.9188 1.02093 10.9783 1.05221 11.023L7.57631 20.3427C7.62692 20.415 7.73369 20.4158 7.78548 20.3444L10.1016 17.1493M11.1562 1.20831L4.16406 10.9484M11.5078 5.03074L14.0591 1.35931C14.1101 1.28601 14.2184 1.28575 14.2697 1.35882L20.949 10.8758C20.9797 10.9195 20.9801 10.9776 20.9501 11.0218L14.1641 21M17.8359 11.1749L10.7656 21" stroke="white" stroke-width="0.642055"/>
<path d="M10.8158 9.99607H9.34475V8.92769C9.3064 8.92769 9.28174 8.92495 9.27079 8.91947H9.34475V8.92769H10.8158V8.91125L12.78 8.90303C12.9827 8.90303 13.1443 8.9496 13.2649 9.04274C13.3854 9.13588 13.4676 9.28929 13.5114 9.50297V10.9576C13.4676 11.0836 13.4073 11.1768 13.3306 11.237C13.2594 11.2918 13.1827 11.3411 13.1005 11.385V11.5658C13.1827 11.5658 13.2512 11.5877 13.306 11.6315C13.3608 11.6699 13.4292 11.7329 13.5114 11.8205V13.5299C13.4292 13.8751 13.1854 14.0477 12.78 14.0477H9.34475V13.0204H12.0404V11.837H10.8158V10.9576H12.0404V10.0289H10.8158V9.99607ZM9.34475 14.0559H9.04889C9.05985 14.0559 9.07081 14.0532 9.08176 14.0477C9.0982 14.0477 9.11738 14.0477 9.13929 14.0477H9.34475V14.0559Z" fill="white"/>
</svg>
