<svg width="16" height="17" viewBox="0 0 16 17" fill="none" xmlns="http://www.w3.org/2000/svg">
<path d="M11.8578 13.1144H8.75892V12.1142H11.8578V13.1144ZM11.8567 11.2668H8.75889V10.2665H11.8567V11.2668ZM12.2568 6.3357H6.31497V15.538H14.2069V8.41398L12.2568 6.3357V6.3357ZM12.9566 14.2044H7.5653V7.66934H11.3191V9.18081H12.9566V14.2044ZM5.20289 13.043H3.14091V4.20762H5.02679L5.80562 5.04116H8.40779L9.19703 4.20762H10.9865V5.26885H12.2524V2.87953H10.4717C10.1875 2.87953 9.91485 2.75956 9.71328 2.54586L9.03291 1.82373H5.12574L4.44541 2.54579C4.24385 2.75953 3.97122 2.8795 3.687 2.8795H1.90625V14.3933H5.20289V13.043Z" fill="white"/>
</svg>
