<svg width="17" height="15" viewBox="0 0 17 15" fill="none" xmlns="http://www.w3.org/2000/svg">
<path d="M15.0456 1.85474C13.3526 0.0731581 10.5984 0.0731581 8.90584 1.85474L8.51271 2.2683L8.11982 1.85474C6.42727 0.072917 3.67287 0.072917 1.98033 1.85474C0.322142 3.60014 0.311374 6.36679 1.95535 8.2904C3.45477 10.0443 7.87698 13.8334 8.06461 13.9937C8.19198 14.1027 8.34525 14.1558 8.49759 14.1558C8.50264 14.1558 8.50767 14.1558 8.51249 14.1555C8.6701 14.1632 8.82887 14.1063 8.96037 13.9937C9.14799 13.8334 13.5707 10.0443 15.0705 8.29016C16.7143 6.36679 16.7035 3.60014 15.0456 1.85474ZM14.0488 7.32245C12.8797 8.6895 9.6662 11.509 8.51249 12.5095C7.35877 11.5092 4.14595 8.68998 2.97711 7.32269C1.83027 5.98096 1.8195 4.07013 2.95214 2.87791C3.5306 2.26926 4.29028 1.9647 5.04996 1.9647C5.80963 1.9647 6.56931 2.26902 7.14777 2.87791L8.01192 3.78751C8.11478 3.89578 8.24445 3.96041 8.38053 3.98308C8.60137 4.033 8.84101 3.96813 9.01283 3.78775L9.87743 2.87791C11.0346 1.66037 12.9168 1.66061 14.0733 2.87791C15.2059 4.07013 15.1952 5.98096 14.0488 7.32245Z" fill="white"/>
</svg>
