<svg width="21" height="20" viewBox="0 0 21 20" fill="none" xmlns="http://www.w3.org/2000/svg">
<path fill-rule="evenodd" clip-rule="evenodd" d="M9.85009 0C15.15 0 19.4609 4.21587 19.4609 9.39884C19.4609 11.8441 18.5013 14.0744 16.931 15.7482L20.0209 18.7636C20.3101 19.0464 20.3111 19.5039 20.0219 19.7867C19.8778 19.9295 19.6873 20 19.4978 20C19.3093 20 19.1198 19.9295 18.9748 19.7886L15.8476 16.739C14.2026 18.0273 12.1168 18.7986 9.85009 18.7986C4.55022 18.7986 0.238281 14.5818 0.238281 9.39884C0.238281 4.21587 4.55022 0 9.85009 0ZM9.85009 1.44776C5.36642 1.44776 1.71869 5.01407 1.71869 9.39884C1.71869 13.7836 5.36642 17.3509 9.85009 17.3509C14.3328 17.3509 17.9805 13.7836 17.9805 9.39884C17.9805 5.01407 14.3328 1.44776 9.85009 1.44776Z" fill="white"/>
</svg>
