<svg width="15" height="15" viewBox="0 0 15 15" fill="none" xmlns="http://www.w3.org/2000/svg">
<g clip-path="url(#clip0_2305_8916)">
<path d="M9.39038 12.8863V11.7196C9.39038 11.1008 9.14455 10.5073 8.70696 10.0697C8.26938 9.63212 7.67589 9.38629 7.05705 9.38629H2.97371C2.35488 9.38629 1.76138 9.63212 1.3238 10.0697C0.886214 10.5073 0.640381 11.1008 0.640381 11.7196V12.8863" stroke="white" stroke-linecap="round" stroke-linejoin="round"/>
<path d="M5.01546 7.05296C6.30413 7.05296 7.3488 6.00829 7.3488 4.71962C7.3488 3.43096 6.30413 2.38629 5.01546 2.38629C3.7268 2.38629 2.68213 3.43096 2.68213 4.71962C2.68213 6.00829 3.7268 7.05296 5.01546 7.05296Z" stroke="white" stroke-linecap="round" stroke-linejoin="round"/>
<path d="M9.97388 7.05296L11.1405 8.21962L13.4739 5.88629" stroke="white" stroke-linecap="round" stroke-linejoin="round"/>
</g>
<defs>
<clipPath id="clip0_2305_8916">
<rect width="14" height="14" fill="white" transform="translate(0.0571289 0.636292)"/>
</clipPath>
</defs>
</svg>
