<svg width="20" height="20" viewBox="0 0 20 20" fill="none" xmlns="http://www.w3.org/2000/svg">
<circle cx="10" cy="10" r="9.5" stroke="#2C9ED6"/>
<path d="M14.1535 5.83106C13.3935 5.44366 12.5706 5.16249 11.7134 5.00003C11.7059 4.99977 11.6985 5.00131 11.6915 5.00455C11.6846 5.00779 11.6785 5.01264 11.6734 5.01877C11.5706 5.22497 11.4506 5.49365 11.3706 5.69985C10.4614 5.54988 9.53682 5.54988 8.62765 5.69985C8.54765 5.4874 8.42765 5.22497 8.31907 5.01877C8.31336 5.00628 8.29621 5.00003 8.27907 5.00003C7.4219 5.16249 6.60474 5.44366 5.839 5.83106C5.83329 5.83106 5.82757 5.83731 5.82186 5.84356C4.26753 8.38664 3.83895 10.861 4.05038 13.3104C4.05038 13.3229 4.0561 13.3353 4.06752 13.3416C5.09612 14.1664 6.08472 14.6662 7.06189 14.9974C7.07904 15.0037 7.09618 14.9974 7.10189 14.9849C7.33047 14.6413 7.53619 14.2788 7.71334 13.8977C7.72477 13.8727 7.71334 13.8477 7.69048 13.8415C7.36476 13.704 7.05618 13.5415 6.75331 13.3541C6.73046 13.3416 6.73045 13.3041 6.7476 13.2854C6.81046 13.2354 6.87332 13.1791 6.93617 13.1292C6.9476 13.1167 6.96475 13.1167 6.97618 13.1229C8.94194 14.1039 11.062 14.1039 13.0049 13.1229C13.0163 13.1167 13.0335 13.1167 13.0449 13.1292C13.1078 13.1854 13.1706 13.2354 13.2335 13.2916C13.2563 13.3104 13.2563 13.3478 13.2278 13.3603C12.9306 13.554 12.6163 13.7102 12.2906 13.8477C12.2677 13.854 12.262 13.8852 12.2678 13.9039C12.4506 14.2851 12.6563 14.6475 12.8792 14.9912C12.8963 14.9974 12.9135 15.0037 12.9306 14.9974C13.9135 14.6662 14.9021 14.1664 15.9307 13.3416C15.9421 13.3353 15.9478 13.3229 15.9478 13.3104C16.1993 10.4798 15.5307 8.02424 14.1764 5.84356C14.1707 5.83731 14.1649 5.83106 14.1535 5.83106ZM8.01049 11.817C7.4219 11.817 6.93046 11.2234 6.93046 10.4923C6.93046 9.76128 7.41047 9.16769 8.01049 9.16769C8.61622 9.16769 9.09624 9.76753 9.09052 10.4923C9.09052 11.2234 8.61051 11.817 8.01049 11.817ZM11.9935 11.817C11.4049 11.817 10.9134 11.2234 10.9134 10.4923C10.9134 9.76128 11.3934 9.16769 11.9935 9.16769C12.5992 9.16769 13.0792 9.76753 13.0735 10.4923C13.0735 11.2234 12.5992 11.817 11.9935 11.817Z" fill="#1794D2"/>
</svg>
