<svg width="20" height="20" viewBox="0 0 20 20" fill="none" xmlns="http://www.w3.org/2000/svg">
<circle cx="10" cy="10" r="9.5" stroke="#2C9ED6"/>
<path fill-rule="evenodd" clip-rule="evenodd" d="M12.0205 5.93C11.4932 5.90591 11.335 5.90091 10 5.90091C8.665 5.90091 8.50682 5.90591 7.97955 5.93C7.49182 5.95227 7.22727 6.03364 7.05091 6.10227C6.81773 6.19318 6.65091 6.30091 6.47591 6.47591C6.31002 6.6373 6.18235 6.83376 6.10227 7.05091C6.03364 7.22727 5.95227 7.49182 5.93 7.97955C5.90591 8.50682 5.90091 8.665 5.90091 10C5.90091 11.335 5.90591 11.4932 5.93 12.0205C5.95227 12.5082 6.03364 12.7727 6.10227 12.9491C6.18227 13.1659 6.31 13.3627 6.47591 13.5241C6.63727 13.69 6.83409 13.8177 7.05091 13.8977C7.22727 13.9664 7.49182 14.0477 7.97955 14.07C8.50682 14.0941 8.66455 14.0991 10 14.0991C11.3355 14.0991 11.4932 14.0941 12.0205 14.07C12.5082 14.0477 12.7727 13.9664 12.9491 13.8977C13.1823 13.8068 13.3491 13.6991 13.5241 13.5241C13.69 13.3627 13.8177 13.1659 13.8977 12.9491C13.9664 12.7727 14.0477 12.5082 14.07 12.0205C14.0941 11.4932 14.0991 11.335 14.0991 10C14.0991 8.665 14.0941 8.50682 14.07 7.97955C14.0477 7.49182 13.9664 7.22727 13.8977 7.05091C13.8068 6.81773 13.6991 6.65091 13.5241 6.47591C13.3627 6.31003 13.1662 6.18237 12.9491 6.10227C12.7727 6.03364 12.5082 5.95227 12.0205 5.93ZM9.0165 7.62562C8.70469 7.75477 8.42137 7.94408 8.18273 8.18273C7.70076 8.6647 7.42999 9.31839 7.42999 10C7.42999 10.6816 7.70076 11.3353 8.18273 11.8173C8.6647 12.2992 9.31839 12.57 10 12.57C10.6816 12.57 11.3353 12.2992 11.8173 11.8173C12.0559 11.5786 12.2452 11.2953 12.3744 10.9835C12.5035 10.6717 12.57 10.3375 12.57 10C12.57 9.6625 12.5035 9.32831 12.3744 9.0165C12.2452 8.70469 12.0559 8.42137 11.8173 8.18273C11.5786 7.94408 11.2953 7.75477 10.9835 7.62562C10.6717 7.49646 10.3375 7.42999 10 7.42999C9.6625 7.42999 9.32831 7.49646 9.0165 7.62562ZM13.2792 7.61544C13.2465 7.68985 13.1991 7.75694 13.14 7.81273C13.025 7.92122 12.8722 7.98062 12.7141 7.97832C12.556 7.97601 12.4051 7.91218 12.2933 7.80038C12.1815 7.68858 12.1176 7.53761 12.1153 7.37951C12.113 7.22142 12.1724 7.06865 12.2809 6.95364C12.3367 6.8945 12.4038 6.84715 12.4782 6.81441C12.5526 6.78166 12.6328 6.76418 12.7141 6.76299C12.7954 6.76181 12.8761 6.77694 12.9514 6.80751C13.0268 6.83807 13.0952 6.88344 13.1527 6.94093C13.2102 6.99841 13.2556 7.06685 13.2861 7.14219C13.3167 7.21752 13.3318 7.29822 13.3306 7.37951C13.3295 7.4608 13.312 7.54103 13.2792 7.61544Z" fill="#1794D2"/>
<path fill-rule="evenodd" clip-rule="evenodd" d="M7.93864 5.03C8.47182 5.00545 8.64182 5 10 5C11.3582 5 11.5282 5.00591 12.0609 5.03C12.5936 5.05409 12.9573 5.13909 13.2755 5.26227C13.6086 5.38818 13.9109 5.585 14.1609 5.83955C14.4155 6.08909 14.6118 6.39091 14.7373 6.72455C14.8609 7.04273 14.9455 7.40636 14.97 7.93818C14.9945 8.47227 15 8.64227 15 10C15 11.3582 14.9941 11.5282 14.97 12.0614C14.9459 12.5932 14.8609 12.9568 14.7373 13.275C14.6118 13.6087 14.4151 13.911 14.1609 14.1609C13.9109 14.4155 13.6086 14.6118 13.2755 14.7373C12.9573 14.8609 12.5936 14.9455 12.0618 14.97C11.5282 14.9945 11.3582 15 10 15C8.64182 15 8.47182 14.9941 7.93864 14.97C7.40682 14.9459 7.04318 14.8609 6.725 14.7373C6.39133 14.6118 6.08901 14.4151 5.83909 14.1609C5.58472 13.9112 5.38787 13.609 5.26227 13.2755C5.13909 12.9573 5.05455 12.5936 5.03 12.0618C5.00545 11.5277 5 11.3577 5 10C5 8.64182 5.00591 8.47182 5.03 7.93909C5.05409 7.40636 5.13909 7.04273 5.26227 6.72455C5.38806 6.39095 5.58505 6.08878 5.83955 5.83909C6.08911 5.58477 6.39112 5.38793 6.72455 5.26227C7.04273 5.13909 7.40682 5.05455 7.93864 5.03ZM12.0205 5.93C11.4932 5.90591 11.335 5.90091 10 5.90091C8.665 5.90091 8.50682 5.90591 7.97955 5.93C7.49182 5.95227 7.22727 6.03364 7.05091 6.10227C6.81773 6.19318 6.65091 6.30091 6.47591 6.47591C6.31002 6.6373 6.18235 6.83376 6.10227 7.05091C6.03364 7.22727 5.95227 7.49182 5.93 7.97955C5.90591 8.50682 5.90091 8.665 5.90091 10C5.90091 11.335 5.90591 11.4932 5.93 12.0205C5.95227 12.5082 6.03364 12.7727 6.10227 12.9491C6.18227 13.1659 6.31 13.3627 6.47591 13.5241C6.63727 13.69 6.83409 13.8177 7.05091 13.8977C7.22727 13.9664 7.49182 14.0477 7.97955 14.07C8.50682 14.0941 8.66455 14.0991 10 14.0991C11.3355 14.0991 11.4932 14.0941 12.0205 14.07C12.5082 14.0477 12.7727 13.9664 12.9491 13.8977C13.1823 13.8068 13.3491 13.6991 13.5241 13.5241C13.69 13.3627 13.8177 13.1659 13.8977 12.9491C13.9664 12.7727 14.0477 12.5082 14.07 12.0205C14.0941 11.4932 14.0991 11.335 14.0991 10C14.0991 8.665 14.0941 8.50682 14.07 7.97955C14.0477 7.49182 13.9664 7.22727 13.8977 7.05091C13.8068 6.81773 13.6991 6.65091 13.5241 6.47591C13.3627 6.31003 13.1662 6.18237 12.9491 6.10227C12.7727 6.03364 12.5082 5.95227 12.0205 5.93Z" fill="#1794D2"/>
<path d="M9.36136 11.5414C9.71803 11.6898 10.1152 11.7099 10.485 11.5981C10.8548 11.4862 11.1743 11.2495 11.3889 10.9283C11.6036 10.6071 11.7 10.2213 11.6618 9.83687C11.6237 9.45243 11.4532 9.09317 11.1795 8.82045C11.0051 8.64613 10.7942 8.51264 10.562 8.42961C10.3298 8.34658 10.082 8.31607 9.83659 8.34028C9.59116 8.36449 9.35416 8.44281 9.14264 8.5696C8.93112 8.6964 8.75034 8.86852 8.61332 9.07357C8.4763 9.27862 8.38645 9.51149 8.35023 9.75544C8.31402 9.99938 8.33234 10.2483 8.40388 10.4843C8.47542 10.7203 8.5984 10.9375 8.76396 11.1203C8.92953 11.3031 9.13356 11.4469 9.36136 11.5414Z" fill="#1794D2"/>
</svg>
