<svg width="20" height="20" viewBox="0 0 20 20" fill="none" xmlns="http://www.w3.org/2000/svg">
<circle cx="10" cy="10" r="9.5" stroke="#2C9ED6"/>
<path fill-rule="evenodd" clip-rule="evenodd" d="M3.82494 9.30493C7.04616 7.8937 9.19414 6.96333 10.2689 6.51383C13.3375 5.23039 13.9751 5.00744 14.3907 5.00008C14.4822 4.99846 14.6865 5.02124 14.8189 5.12926C14.9307 5.22047 14.9615 5.34368 14.9762 5.43016C14.9909 5.51664 15.0092 5.71364 14.9947 5.86757C14.8284 7.6245 14.1088 11.8881 13.7428 13.8559C13.5879 14.6885 13.2829 14.9677 12.9876 14.995C12.346 15.0544 11.8587 14.5686 11.2372 14.159C10.2647 13.5179 9.71527 13.1189 8.77127 12.4933C7.68032 11.7704 8.38754 11.3731 9.00927 10.7237C9.17198 10.5538 11.9992 7.96792 12.0539 7.73334C12.0608 7.704 12.0671 7.59464 12.0025 7.5369C11.9379 7.47915 11.8426 7.4989 11.7738 7.5146C11.6762 7.53687 10.1226 8.56945 7.11292 10.6124C6.67193 10.9169 6.2725 11.0652 5.91462 11.0574C5.52009 11.0489 4.76117 10.8331 4.19699 10.6487C3.505 10.4225 2.95502 10.3029 3.00291 9.91881C3.02785 9.71872 3.30186 9.5141 3.82494 9.30493Z" fill="#1794D2"/>
</svg>
