<svg width="20" height="20" viewBox="0 0 20 20" fill="none" xmlns="http://www.w3.org/2000/svg">
<circle cx="10" cy="10" r="9.5" stroke="#2C9ED6"/>
<path fill-rule="evenodd" clip-rule="evenodd" d="M14.6882 6.23884C15.2046 6.37026 15.6112 6.75748 15.7492 7.24923C16 8.14045 16 10 16 10C16 10 16 11.8595 15.7492 12.7508C15.6112 13.2425 15.2046 13.6297 14.6882 13.7612C13.7525 14 10 14 10 14C10 14 6.24748 14 5.31168 13.7612C4.79534 13.6297 4.3887 13.2425 4.2507 12.7508C4 11.8595 4 10 4 10C4 10 4 8.14045 4.2507 7.24923C4.3887 6.75748 4.79534 6.37026 5.31168 6.23884C6.24748 6 10 6 10 6C10 6 13.7525 6 14.6882 6.23884ZM8.87473 8.43481V11.9131L11.8747 10.174L8.87473 8.43481Z" fill="#1794D2"/>
</svg>
